  0
SECTION
  2
HEADER
  9
$ACADVER
  1
AC1012
  9
$DWGCODEPAGE
  3
ansi_1252
  9
$INSBASE
 10
0.0
 20
0.0
 30
0.0
  9
$EXTMIN
 10
1.000000000000000E+20
 20
1.000000000000000E+20
 30
1.000000000000000E+20
  9
$EXTMAX
 10
-1.000000000000000E+20
 20
-1.000000000000000E+20
 30
-1.000000000000000E+20
  9
$LIMMIN
 10
0.0
 20
0.0
  9
$LIMMAX
 10
12.0
 20
9.0
  9
$ORTHOMODE
 70
     0
  9
$REGENMODE
 70
     1
  9
$FILLMODE
 70
     1
  9
$QTEXTMODE
 70
     0
  9
$MIRRTEXT
 70
     1
  9
$DRAGMODE
 70
     2
  9
$LTSCALE
 40
0.5
  9
$OSMODE
 70
    23
  9
$ATTMODE
 70
     1
  9
$TEXTSIZE
 40
0.12
  9
$TRACEWID
 40
0.05
  9
$TEXTSTYLE
  7
ONSHAPE-STANDARD
  9
$CLAYER
  8
0
  9
$CELTYPE
  6
BYLAYER
  9
$CECOLOR
 62
   256
  9
$CELTSCALE
 40
1.0
  9
$DELOBJ
 70
     1
  9
$DISPSILH
 70
     0
  9
$DIMSCALE
 40
1.0
  9
$DIMASZ
 40
0.18
  9
$DIMEXO
 40
0.0625
  9
$DIMDLI
 40
0.38
  9
$DIMRND
 40
0.0
  9
$DIMDLE
 40
0.0
  9
$DIMEXE
 40
0.08
  9
$DIMTP
 40
0.0
  9
$DIMTM
 40
0.0
  9
$DIMTXT
 40
0.12
  9
$DIMCEN
 40
0.09
  9
$DIMTSZ
 40
0.0
  9
$DIMTOL
 70
     0
  9
$DIMLIM
 70
     0
  9
$DIMTIH
 70
     1
  9
$DIMTOH
 70
     1
  9
$DIMSE1
 70
     0
  9
$DIMSE2
 70
     0
  9
$DIMTAD
 70
     0
  9
$DIMZIN
 70
    11
  9
$DIMBLK
  1

  9
$DIMASO
 70
     1
  9
$DIMSHO
 70
     1
  9
$DIMPOST
  1

  9
$DIMAPOST
  1

  9
$DIMALT
 70
     0
  9
$DIMALTD
 70
     3
  9
$DIMALTF
 40
0.0393700787401575
  9
$DIMLFAC
 40
25.4
  9
$DIMTOFL
 70
     0
  9
$DIMTVP
 40
0.0
  9
$DIMTIX
 70
     0
  9
$DIMSOXD
 70
     0
  9
$DIMSAH
 70
     0
  9
$DIMBLK1
  1

  9
$DIMBLK2
  1

  9
$DIMSTYLE
  2
ONSHAPE-STANDARD
  9
$DIMCLRD
 70
     0
  9
$DIMCLRE
 70
     0
  9
$DIMCLRT
 70
     0
  9
$DIMTFAC
 40
1.0
  9
$DIMGAP
 40
0.09
  9
$DIMJUST
 70
     0
  9
$DIMSD1
 70
     0
  9
$DIMSD2
 70
     0
  9
$DIMTOLJ
 70
     1
  9
$DIMTZIN
 70
    11
  9
$DIMALTZ
 70
     0
  9
$DIMALTTZ
 70
     0
  9
$DIMFIT
 70
     3
  9
$DIMUPT
 70
     1
  9
$DIMUNIT
 70
     2
  9
$DIMDEC
 70
     2
  9
$DIMTDEC
 70
     2
  9
$DIMALTU
 70
     2
  9
$DIMALTTD
 70
     3
  9
$DIMTXSTY
  7
ONSHAPE-STANDARD-DIMENSION
  9
$DIMAUNIT
 70
     0
  9
$LUNITS
 70
     2
  9
$LUPREC
 70
     4
  9
$SKETCHINC
 40
0.1
  9
$FILLETRAD
 40
0.5
  9
$AUNITS
 70
     0
  9
$AUPREC
 70
     0
  9
$MENU
  1
.
  9
$ELEVATION
 40
0.0
  9
$PELEVATION
 40
0.0
  9
$THICKNESS
 40
0.0
  9
$LIMCHECK
 70
     0
  9
$CHAMFERA
 40
0.0
  9
$CHAMFERB
 40
0.0
  9
$CHAMFERC
 40
0.0
  9
$CHAMFERD
 40
0.0
  9
$SKPOLY
 70
     0
  9
$TDCREATE
 40
2458214.797025463
  9
$TDUPDATE
 40
2458214.797025463
  9
$TDINDWG
 40
0.0
  9
$TDUSRTIMER
 40
0.0
  9
$USRTIMER
 70
     1
  9
$ANGBASE
 50
0.0
  9
$ANGDIR
 70
     0
  9
$PDMODE
 70
     0
  9
$PDSIZE
 40
0.0
  9
$PLINEWID
 40
0.0
  9
$COORDS
 70
     1
  9
$SPLFRAME
 70
     0
  9
$SPLINETYPE
 70
     6
  9
$SPLINESEGS
 70
     8
  9
$ATTDIA
 70
     0
  9
$ATTREQ
 70
     1
  9
$HANDLING
 70
     1
  9
$HANDSEED
  5
2B8
  9
$SURFTAB1
 70
     6
  9
$SURFTAB2
 70
     6
  9
$SURFTYPE
 70
     6
  9
$SURFU
 70
     6
  9
$SURFV
 70
     6
  9
$UCSNAME
  2

  9
$UCSORG
 10
0.0
 20
0.0
 30
0.0
  9
$UCSXDIR
 10
1.0
 20
0.0
 30
0.0
  9
$UCSYDIR
 10
0.0
 20
1.0
 30
0.0
  9
$PUCSNAME
  2

  9
$PUCSORG
 10
0.0
 20
0.0
 30
0.0
  9
$PUCSXDIR
 10
1.0
 20
0.0
 30
0.0
  9
$PUCSYDIR
 10
0.0
 20
1.0
 30
0.0
  9
$USERI1
 70
     0
  9
$USERI2
 70
     0
  9
$USERI3
 70
     0
  9
$USERI4
 70
     0
  9
$USERI5
 70
     0
  9
$USERR1
 40
0.0
  9
$USERR2
 40
0.0
  9
$USERR3
 40
0.0
  9
$USERR4
 40
0.0
  9
$USERR5
 40
0.0
  9
$WORLDVIEW
 70
     1
  9
$SHADEDGE
 70
     3
  9
$SHADEDIF
 70
    70
  9
$TILEMODE
 70
     1
  9
$MAXACTVP
 70
    64
  9
$PINSBASE
 10
0.0
 20
0.0
 30
0.0
  9
$PLIMCHECK
 70
     0
  9
$PEXTMIN
 10
1.000000000000000E+20
 20
1.000000000000000E+20
 30
1.000000000000000E+20
  9
$PEXTMAX
 10
-1.000000000000000E+20
 20
-1.000000000000000E+20
 30
-1.000000000000000E+20
  9
$PLIMMIN
 10
0.0
 20
0.0
  9
$PLIMMAX
 10
12.0
 20
9.0
  9
$UNITMODE
 70
     0
  9
$VISRETAIN
 70
     1
  9
$PLINEGEN
 70
     0
  9
$PSLTSCALE
 70
     1
  9
$TREEDEPTH
 70
  3020
  9
$PICKSTYLE
 70
     1
  9
$CMLSTYLE
  2
STANDARD
  9
$CMLJUST
 70
     0
  9
$CMLSCALE
 40
1.0
  9
$SAVEIMAGES
 70
     1
  0
ENDSEC
  0
SECTION
  2
CLASSES
  0
CLASS
  1
ACDBDICTIONARYWDFLT
  2
AcDbDictionaryWithDefault
  3
ObjectDBX Classes
 90
    32768
280
     0
281
     0
  0
CLASS
  1
VISUALSTYLE
  2
AcDbVisualStyle
  3
ObjectDBX Classes
 90
     4095
280
     0
281
     0
  0
CLASS
  1
MATERIAL
  2
AcDbMaterial
  3
ObjectDBX Classes
 90
     1153
280
     0
281
     0
  0
CLASS
  1
SCALE
  2
AcDbScale
  3
ObjectDBX Classes
 90
     1153
280
     0
281
     0
  0
CLASS
  1
SUN
  2
AcDbSun
  3
SCENEOE
 90
     1153
280
     0
281
     0
  0
CLASS
  1
TABLESTYLE
  2
AcDbTableStyle
  3
ObjectDBX Classes
 90
     4095
280
     0
281
     0
  0
CLASS
  1
DICTIONARYVAR
  2
AcDbDictionaryVar
  3
ObjectDBX Classes
 90
        0
280
     0
281
     0
  0
CLASS
  1
FIELD
  2
AcDbField
  3
ObjectDBX Classes
 90
     1152
280
     0
281
     0
  0
CLASS
  1
FIELDLIST
  2
AcDbFieldList
  3
ObjectDBX Classes
 90
     1152
280
     0
281
     0
  0
CLASS
  1
XRECORD
  2
AcDbXrecord
  3
ObjectDBX Classes
 90
    32768
280
     0
281
     0
  0
CLASS
  1
LWPOLYLINE
  2
AcDbPolyline
  3
ObjectDBX Classes
 90
    32768
280
     0
281
     1
  0
CLASS
  1
HATCH
  2
AcDbHatch
  3
ObjectDBX Classes
 90
    32768
280
     0
281
     1
  0
CLASS
  1
ACDBPLACEHOLDER
  2
AcDbPlaceHolder
  3
ObjectDBX Classes
 90
        0
280
     0
281
     0
  0
CLASS
  1
LAYOUT
  2
AcDbLayout
  3
ObjectDBX Classes
 90
        0
280
     0
281
     0
  0
ENDSEC
  0
SECTION
  2
TABLES
  0
TABLE
  2
VPORT
  5
8
330
0
100
AcDbSymbolTable
 70
     1
  0
VPORT
  5
29
330
8
100
AcDbSymbolTableRecord
100
AcDbViewportTableRecord
  2
*ACTIVE
 70
     0
 10
0.0
 20
0.0
 11
1.0
 21
1.0
 12
8.500000000000002
 22
5.688930517711172
 13
0.0
 23
0.0
 14
0.5
 24
0.5
 15
0.5
 25
0.5
 16
0.0
 26
0.0
 36
1.0
 17
0.0
 27
0.0
 37
0.0
 40
11.55441825613079
 41
1.496310728653642
 42
50.0
 43
0.0
 44
0.0
 50
0.0
 51
0.0
 71
     0
 72
   100
 73
     1
 74
     3
 75
     0
 76
     0
 77
     0
 78
     0
  0
ENDTAB
  0
TABLE
  2
LTYPE
  5
5
330
0
100
AcDbSymbolTable
 70
     2
  0
LTYPE
  5
14
330
5
100
AcDbSymbolTableRecord
100
AcDbLinetypeTableRecord
  2
BYBLOCK
 70
     0
  3

 72
    65
 73
     0
 40
0.0
  0
LTYPE
  5
15
330
5
100
AcDbSymbolTableRecord
100
AcDbLinetypeTableRecord
  2
BYLAYER
 70
     0
  3

 72
    65
 73
     0
 40
0.0
  0
LTYPE
  5
16
330
5
100
AcDbSymbolTableRecord
100
AcDbLinetypeTableRecord
  2
CONTINUOUS
 70
     0
  3
Solid line
 72
    65
 73
     0
 40
0.0
  0
LTYPE
  5
125
330
5
100
AcDbSymbolTableRecord
100
AcDbLinetypeTableRecord
  2
CENTER
 70
     0
  3
Center line ____ _ ____ _ ____ _
 72
    65
 73
     4
 40
0.7199999999999999
 49
0.45
 74
     0
 49
-0.09
 74
     0
 49
0.09
 74
     0
 49
-0.09
 74
     0
  0
ENDTAB
  0
TABLE
  2
LAYER
  5
2
330
0
100
AcDbSymbolTable
 70
     8
  0
LAYER
  5
10
330
2
100
AcDbSymbolTableRecord
100
AcDbLayerTableRecord
  2
0
 70
     0
 62
     7
  6
CONTINUOUS
  0
LAYER
  5
72
330
2
100
AcDbSymbolTableRecord
100
AcDbLayerTableRecord
  2
BORDER_FRAME
 70
     0
 62
     7
  6
CONTINUOUS
  0
LAYER
  5
79
330
2
100
AcDbSymbolTableRecord
100
AcDbLayerTableRecord
  2
BORDER_ZONES
 70
     0
 62
     7
  6
CONTINUOUS
  0
LAYER
  5
97
330
2
100
AcDbSymbolTableRecord
100
AcDbLayerTableRecord
  2
TITLE_BLOCK
 70
     0
 62
     7
  6
CONTINUOUS
  0
LAYER
  5
11F
330
2
100
AcDbSymbolTableRecord
100
AcDbLayerTableRecord
  2
ANNOTATION_TEXT
 70
     0
 62
     7
  6
CONTINUOUS
  0
LAYER
  5
124
330
2
100
AcDbSymbolTableRecord
100
AcDbLayerTableRecord
  2
SHEETMETAL_BEND_LINES_UP
 70
     0
 62
     7
  6
CENTER
  0
LAYER
  5
12C
330
2
100
AcDbSymbolTableRecord
100
AcDbLayerTableRecord
  2
VISIBLE
 70
     0
 62
     7
  6
CONTINUOUS
  0
LAYER
  5
12D
330
2
100
AcDbSymbolTableRecord
100
AcDbLayerTableRecord
  2
TANGENT_LINES
 70
     0
 62
     7
  6
CONTINUOUS
  0
ENDTAB
  0
TABLE
  2
STYLE
  5
3
330
0
100
AcDbSymbolTable
 70
     4
  0
STYLE
  5
11
330
3
100
AcDbSymbolTableRecord
100
AcDbTextStyleTableRecord
  2
STANDARD
 70
     0
 40
0.0
 41
1.0
 50
0.0
 71
     0
 42
0.12
  3
txt
  4

  0
STYLE
  5
6E
330
3
100
AcDbSymbolTableRecord
100
AcDbTextStyleTableRecord
  2
ONSHAPE-STANDARD
 70
     0
 40
0.0
 41
1.0
 50
0.0
 71
     0
 42
0.12
  3
NotoSans-Regular.ttf
  4

1001
ACAD
1000
Noto Sans
1071
        0
  0
STYLE
  5
70
330
3
100
AcDbSymbolTableRecord
100
AcDbTextStyleTableRecord
  2
ONSHAPE-STANDARD-DIMENSION
 70
     0
 40
0.0
 41
1.0
 50
0.0
 71
     0
 42
0.12
  3

  4

1001
ACAD
1000
Noto Sans
1071
        0
  0
STYLE
  5
CA
330
3
100
AcDbSymbolTableRecord
100
AcDbTextStyleTableRecord
  2
ONSHAPE-STANDARD-FIELDS
 70
     0
 40
0.0
 41
1.0
 50
0.0
 71
     0
 42
0.12
  3

  4

1001
ACAD
1000
Noto Sans
1071
        0
  0
ENDTAB
  0
TABLE
  2
VIEW
  5
6
330
0
100
AcDbSymbolTable
 70
     0
  0
ENDTAB
  0
TABLE
  2
UCS
  5
7
330
0
100
AcDbSymbolTable
 70
     0
  0
ENDTAB
  0
TABLE
  2
APPID
  5
9
330
0
100
AcDbSymbolTable
 70
     1
  0
APPID
  5
12
330
9
100
AcDbSymbolTableRecord
100
AcDbRegAppTableRecord
  2
ACAD
 70
     0
  0
ENDTAB
  0
TABLE
  2
DIMSTYLE
  5
A
330
0
100
AcDbSymbolTable
 70
     2
  0
DIMSTYLE
105
27
330
A
100
AcDbSymbolTableRecord
100
AcDbDimStyleTableRecord
  2
STANDARD
 70
     0
  3

  4

  5

  6

  7

 40
1.0
 41
0.18
 42
0.0625
 43
0.38
 44
0.18
 45
0.0
 46
0.0
 47
0.0
 48
0.0
140
0.18
141
0.09
142
0.0
143
25.4
144
1.0
145
0.0
146
1.0
147
0.09
 71
     0
 72
     0
 73
     1
 74
     1
 75
     0
 76
     0
 77
     0
 78
     0
170
     0
171
     2
172
     0
173
     0
174
     0
175
     0
176
     0
177
     0
178
     0
270
     2
271
     4
272
     4
273
     2
274
     2
340
11
275
     0
280
     0
281
     0
282
     0
283
     1
284
     0
285
     0
286
     0
287
     3
288
     0
  0
DIMSTYLE
105
6F
330
A
100
AcDbSymbolTableRecord
100
AcDbDimStyleTableRecord
  2
ONSHAPE-STANDARD
 70
     0
  3

  4

  5

  6

  7

 40
1.0
 41
0.18
 42
0.0625
 43
0.38
 44
0.08
 45
0.0
 46
0.0
 47
0.0
 48
0.0
140
0.12
141
0.09
142
0.0
143
0.0393700787401575
144
25.4
145
0.0
146
1.0
147
0.09
 71
     0
 72
     0
 73
     1
 74
     1
 75
     0
 76
     0
 77
     0
 78
    11
170
     0
171
     3
172
     0
173
     0
174
     0
175
     0
176
     0
177
     0
178
     0
179
     1
270
     2
271
     2
272
     2
273
     2
274
     3
340
70
275
     0
280
     0
281
     0
282
     0
283
     1
284
    11
285
     0
286
     0
287
     3
288
     1
  0
ENDTAB
  0
TABLE
  2
BLOCK_RECORD
  5
1
330
0
100
AcDbSymbolTable
 70
     1
  0
BLOCK_RECORD
  5
1F
330
1
100
AcDbSymbolTableRecord
100
AcDbBlockTableRecord
  2
*MODEL_SPACE
  0
BLOCK_RECORD
  5
1B
330
1
100
AcDbSymbolTableRecord
100
AcDbBlockTableRecord
  2
*PAPER_SPACE
  0
ENDTAB
  0
ENDSEC
  0
SECTION
  2
BLOCKS
  0
BLOCK
  5
20
330
1F
100
AcDbEntity
  8
0
100
AcDbBlockBegin
  2
*MODEL_SPACE
 70
     0
 10
0.0
 20
0.0
 30
0.0
  3
*MODEL_SPACE
  1

  0
ENDBLK
  5
21
330
1F
100
AcDbEntity
  8
0
100
AcDbBlockEnd
  0
BLOCK
  5
1C
330
1B
100
AcDbEntity
 67
     1
  8
0
100
AcDbBlockBegin
  2
*PAPER_SPACE
 70
     0
 10
0.0
 20
0.0
 30
0.0
  3
*PAPER_SPACE
  1

  0
ENDBLK
  5
1D
330
1B
100
AcDbEntity
 67
     1
  8
0
100
AcDbBlockEnd
  0
ENDSEC
  0
SECTION
  2
ENTITIES
  0
LINE
  5
71
330
1F
100
AcDbEntity
  8
BORDER_FRAME
100
AcDbLine
 10
0.5
 20
0.5
 30
0.0
 11
0.5
 21
10.5
 31
0.0
  0
LINE
  5
75
330
1F
100
AcDbEntity
  8
BORDER_FRAME
100
AcDbLine
 10
0.5
 20
10.5
 30
0.0
 11
16.5
 21
10.5
 31
0.0
  0
LINE
  5
76
330
1F
100
AcDbEntity
  8
BORDER_FRAME
100
AcDbLine
 10
16.5
 20
10.5
 30
0.0
 11
16.5
 21
0.5
 31
0.0
  0
LINE
  5
77
330
1F
100
AcDbEntity
  8
BORDER_FRAME
100
AcDbLine
 10
16.5
 20
0.5
 30
0.0
 11
0.5
 21
0.5
 31
0.0
  0
LINE
  5
78
330
1F
100
AcDbEntity
  8
BORDER_ZONES
100
AcDbLine
 10
4.25
 20
0.5
 30
0.0
 11
4.25
 21
0.025
 31
0.0
  0
LINE
  5
7A
330
1F
100
AcDbEntity
  8
BORDER_ZONES
100
AcDbLine
 10
4.25
 20
10.5
 30
0.0
 11
4.25
 21
10.975
 31
0.0
  0
MTEXT
  5
7B
330
1F
100
AcDbEntity
  8
BORDER_ZONES
100
AcDbMText
 10
2.125
 20
0.25
 30
0.0
 40
0.24
 41
0.0
 71
     5
 72
     1
  1
4
  7
ONSHAPE-STANDARD
  0
MTEXT
  5
7D
330
1F
100
AcDbEntity
  8
BORDER_ZONES
100
AcDbMText
 10
2.125
 20
10.75
 30
0.0
 40
0.24
 41
0.0
 71
     5
 72
     1
  1
4
  7
ONSHAPE-STANDARD
  0
MTEXT
  5
7E
330
1F
100
AcDbEntity
  8
BORDER_ZONES
100
AcDbMText
 10
6.375
 20
0.25
 30
0.0
 40
0.24
 41
0.0
 71
     5
 72
     1
  1
3
  7
ONSHAPE-STANDARD
  0
MTEXT
  5
7F
330
1F
100
AcDbEntity
  8
BORDER_ZONES
100
AcDbMText
 10
6.375
 20
10.75
 30
0.0
 40
0.24
 41
0.0
 71
     5
 72
     1
  1
3
  7
ONSHAPE-STANDARD
  0
LINE
  5
80
330
1F
100
AcDbEntity
  8
BORDER_ZONES
100
AcDbLine
 10
8.5
 20
0.5
 30
0.0
 11
8.5
 21
0.025
 31
0.0
  0
LINE
  5
81
330
1F
100
AcDbEntity
  8
BORDER_ZONES
100
AcDbLine
 10
8.5
 20
10.5
 30
0.0
 11
8.5
 21
10.975
 31
0.0
  0
MTEXT
  5
82
330
1F
100
AcDbEntity
  8
BORDER_ZONES
100
AcDbMText
 10
10.625
 20
0.25
 30
0.0
 40
0.24
 41
0.0
 71
     5
 72
     1
  1
2
  7
ONSHAPE-STANDARD
  0
MTEXT
  5
83
330
1F
100
AcDbEntity
  8
BORDER_ZONES
100
AcDbMText
 10
10.625
 20
10.75
 30
0.0
 40
0.24
 41
0.0
 71
     5
 72
     1
  1
2
  7
ONSHAPE-STANDARD
  0
LINE
  5
84
330
1F
100
AcDbEntity
  8
BORDER_ZONES
100
AcDbLine
 10
12.75
 20
0.5
 30
0.0
 11
12.75
 21
0.025
 31
0.0
  0
LINE
  5
85
330
1F
100
AcDbEntity
  8
BORDER_ZONES
100
AcDbLine
 10
12.75
 20
10.5
 30
0.0
 11
12.75
 21
10.975
 31
0.0
  0
MTEXT
  5
86
330
1F
100
AcDbEntity
  8
BORDER_ZONES
100
AcDbMText
 10
14.875
 20
0.25
 30
0.0
 40
0.24
 41
0.0
 71
     5
 72
     1
  1
1
  7
ONSHAPE-STANDARD
  0
MTEXT
  5
87
330
1F
100
AcDbEntity
  8
BORDER_ZONES
100
AcDbMText
 10
14.875
 20
10.75
 30
0.0
 40
0.24
 41
0.0
 71
     5
 72
     1
  1
1
  7
ONSHAPE-STANDARD
  0
LINE
  5
88
330
1F
100
AcDbEntity
  8
BORDER_ZONES
100
AcDbLine
 10
0.5
 20
2.75
 30
0.0
 11
0.025
 21
2.75
 31
0.0
  0
LINE
  5
89
330
1F
100
AcDbEntity
  8
BORDER_ZONES
100
AcDbLine
 10
16.5
 20
2.75
 30
0.0
 11
16.975
 21
2.75
 31
0.0
  0
MTEXT
  5
8A
330
1F
100
AcDbEntity
  8
BORDER_ZONES
100
AcDbMText
 10
0.25
 20
1.375
 30
0.0
 40
0.24
 41
0.0
 71
     5
 72
     1
  1
A
  7
ONSHAPE-STANDARD
  0
MTEXT
  5
8B
330
1F
100
AcDbEntity
  8
BORDER_ZONES
100
AcDbMText
 10
16.75
 20
1.375
 30
0.0
 40
0.24
 41
0.0
 71
     5
 72
     1
  1
A
  7
ONSHAPE-STANDARD
  0
MTEXT
  5
8C
330
1F
100
AcDbEntity
  8
BORDER_ZONES
100
AcDbMText
 10
0.25
 20
4.125
 30
0.0
 40
0.24
 41
0.0
 71
     5
 72
     1
  1
B
  7
ONSHAPE-STANDARD
  0
MTEXT
  5
8D
330
1F
100
AcDbEntity
  8
BORDER_ZONES
100
AcDbMText
 10
16.75
 20
4.125
 30
0.0
 40
0.24
 41
0.0
 71
     5
 72
     1
  1
B
  7
ONSHAPE-STANDARD
  0
LINE
  5
8E
330
1F
100
AcDbEntity
  8
BORDER_ZONES
100
AcDbLine
 10
0.5
 20
5.5
 30
0.0
 11
0.025
 21
5.5
 31
0.0
  0
LINE
  5
8F
330
1F
100
AcDbEntity
  8
BORDER_ZONES
100
AcDbLine
 10
16.5
 20
5.5
 30
0.0
 11
16.975
 21
5.5
 31
0.0
  0
MTEXT
  5
90
330
1F
100
AcDbEntity
  8
BORDER_ZONES
100
AcDbMText
 10
0.25
 20
6.875
 30
0.0
 40
0.24
 41
0.0
 71
     5
 72
     1
  1
C
  7
ONSHAPE-STANDARD
  0
MTEXT
  5
91
330
1F
100
AcDbEntity
  8
BORDER_ZONES
100
AcDbMText
 10
16.75
 20
6.875
 30
0.0
 40
0.24
 41
0.0
 71
     5
 72
     1
  1
C
  7
ONSHAPE-STANDARD
  0
LINE
  5
92
330
1F
100
AcDbEntity
  8
BORDER_ZONES
100
AcDbLine
 10
0.5
 20
8.25
 30
0.0
 11
0.025
 21
8.25
 31
0.0
  0
LINE
  5
93
330
1F
100
AcDbEntity
  8
BORDER_ZONES
100
AcDbLine
 10
16.5
 20
8.25
 30
0.0
 11
16.975
 21
8.25
 31
0.0
  0
MTEXT
  5
94
330
1F
100
AcDbEntity
  8
BORDER_ZONES
100
AcDbMText
 10
0.25
 20
9.625
 30
0.0
 40
0.24
 41
0.0
 71
     5
 72
     1
  1
D
  7
ONSHAPE-STANDARD
  0
MTEXT
  5
95
330
1F
100
AcDbEntity
  8
BORDER_ZONES
100
AcDbMText
 10
16.75
 20
9.625
 30
0.0
 40
0.24
 41
0.0
 71
     5
 72
     1
  1
D
  7
ONSHAPE-STANDARD
  0
LINE
  5
96
330
1F
100
AcDbEntity
  8
TITLE_BLOCK
100
AcDbLine
 10
8.4
 20
0.5
 30
0.0
 11
8.4
 21
2.5
 31
0.0
  0
LINE
  5
98
330
1F
100
AcDbEntity
  8
TITLE_BLOCK
100
AcDbLine
 10
8.4
 20
0.5
 30
0.0
 11
10.0
 21
0.5
 31
0.0
  0
LINE
  5
99
330
1F
100
AcDbEntity
  8
TITLE_BLOCK
100
AcDbLine
 10
8.4
 20
0.9
 30
0.0
 11
10.0
 21
0.9
 31
0.0
  0
LINE
  5
9A
330
1F
100
AcDbEntity
  8
TITLE_BLOCK
100
AcDbLine
 10
8.4
 20
1.06
 30
0.0
 11
10.0
 21
1.06
 31
0.0
  0
LINE
  5
9B
330
1F
100
AcDbEntity
  8
TITLE_BLOCK
100
AcDbLine
 10
8.4
 20
1.332
 30
0.0
 11
10.0
 21
1.332
 31
0.0
  0
LINE
  5
9C
330
1F
100
AcDbEntity
  8
TITLE_BLOCK
100
AcDbLine
 10
8.4
 20
1.564
 30
0.0
 11
10.0
 21
1.564
 31
0.0
  0
LINE
  5
9D
330
1F
100
AcDbEntity
  8
TITLE_BLOCK
100
AcDbLine
 10
8.4
 20
2.5
 30
0.0
 11
10.0
 21
2.5
 31
0.0
  0
MTEXT
  5
9E
330
1F
100
AcDbEntity
  8
TITLE_BLOCK
100
AcDbMText
 10
8.4352
 20
2.4424
 30
0.0
 40
0.064
 41
1.6
 71
     1
 72
     1
  1
UNLESS OTHERWISE SPECIFIED, DIMENSIONS ARE IN MILLIMETERS
  7
ONSHAPE-STANDARD
  0
MTEXT
  5
9F
330
1F
100
AcDbEntity
  8
TITLE_BLOCK
100
AcDbMText
 10
9.231679999999999
 20
2.20816
 30
0.0
 40
0.0576
 41
0.8000000000000007
 71
     1
 72
     1
  1
^JANGULAR = ± °^J
  7
ONSHAPE-STANDARD
  0
MTEXT
  5
A0
330
1F
100
AcDbEntity
  8
TITLE_BLOCK
100
AcDbMText
 10
8.4352
 20
1.8184
 30
0.0
 40
0.064
 41
0.7999999999999989
 71
     1
 72
     1
  1
SURFACE FINISH
  7
ONSHAPE-STANDARD
  0
LINE
  5
A1
330
1F
100
AcDbEntity
  8
TITLE_BLOCK
100
AcDbLine
 10
9.12
 20
1.724
 30
0.0
 11
9.159999999999998
 21
1.654717967697245
 31
0.0
  0
LINE
  5
A2
330
1F
100
AcDbEntity
  8
TITLE_BLOCK
100
AcDbLine
 10
9.159999999999998
 20
1.654717967697245
 30
0.0
 11
9.243999999999998
 21
1.800210235533031
 31
0.0
  0
LINE
  5
A3
330
1F
100
AcDbEntity
  8
TITLE_BLOCK
100
AcDbLine
 10
9.243999999999998
 20
1.800210235533031
 30
0.0
 11
9.331999999999997
 21
1.800210235533031
 31
0.0
  0
MTEXT
  5
A4
330
1F
100
AcDbEntity
  8
TITLE_BLOCK
100
AcDbMText
 10
9.2
 20
1.48912
 30
0.0
 40
0.0832
 41
1.6
 71
     2
 72
     1
  1
DO NOT SCALE DRAWING
  7
ONSHAPE-STANDARD
  0
MTEXT
  5
A5
330
1F
100
AcDbEntity
  8
TITLE_BLOCK
100
AcDbMText
 10
9.2
 20
1.2744
 30
0.0
 40
0.064
 41
1.6
 71
     2
 72
     1
  1
BREAK ALL SHARP EDGES AND REMOVE BURRS
  7
ONSHAPE-STANDARD
  0
CIRCLE
  5
A6
330
1F
100
AcDbEntity
  8
TITLE_BLOCK
100
AcDbCircle
 10
9.02
 20
0.6984
 30
0.0
 40
0.072
  0
CIRCLE
  5
A7
330
1F
100
AcDbEntity
  8
TITLE_BLOCK
100
AcDbCircle
 10
9.02
 20
0.6984
 30
0.0
 40
0.144
  0
LINE
  5
A8
330
1F
100
AcDbEntity
  8
TITLE_BLOCK
100
AcDbLine
 10
9.056
 20
0.6984
 30
0.0
 11
8.984
 21
0.6984
 31
0.0
  0
LINE
  5
A9
330
1F
100
AcDbEntity
  8
TITLE_BLOCK
100
AcDbLine
 10
9.02
 20
0.7344
 30
0.0
 11
9.02
 21
0.6624
 31
0.0
  0
LINE
  5
AA
330
1F
100
AcDbEntity
  8
TITLE_BLOCK
100
AcDbLine
 10
9.091999999999999
 20
0.6984
 30
0.0
 11
9.2
 21
0.6984
 31
0.0
  0
LINE
  5
AB
330
1F
100
AcDbEntity
  8
TITLE_BLOCK
100
AcDbLine
 10
9.02
 20
0.7704
 30
0.0
 11
9.02
 21
0.8784000000000001
 31
0.0
  0
LINE
  5
AC
330
1F
100
AcDbEntity
  8
TITLE_BLOCK
100
AcDbLine
 10
8.948
 20
0.6984
 30
0.0
 11
8.84
 21
0.6984
 31
0.0
  0
LINE
  5
AD
330
1F
100
AcDbEntity
  8
TITLE_BLOCK
100
AcDbLine
 10
9.02
 20
0.6264000000000001
 30
0.0
 11
9.02
 21
0.5184
 31
0.0
  0
LINE
  5
AE
330
1F
100
AcDbEntity
  8
TITLE_BLOCK
100
AcDbLine
 10
9.524
 20
0.5544
 30
0.0
 11
9.524
 21
0.8424
 31
0.0
  0
LINE
  5
AF
330
1F
100
AcDbEntity
  8
TITLE_BLOCK
100
AcDbLine
 10
9.524
 20
0.8424
 30
0.0
 11
9.235999999999999
 21
0.7704
 31
0.0
  0
LINE
  5
B0
330
1F
100
AcDbEntity
  8
TITLE_BLOCK
100
AcDbLine
 10
9.235999999999999
 20
0.7704
 30
0.0
 11
9.235999999999999
 21
0.6264000000000001
 31
0.0
  0
LINE
  5
B1
330
1F
100
AcDbEntity
  8
TITLE_BLOCK
100
AcDbLine
 10
9.235999999999999
 20
0.6264000000000001
 30
0.0
 11
9.524
 21
0.5544
 31
0.0
  0
LINE
  5
B2
330
1F
100
AcDbEntity
  8
TITLE_BLOCK
100
AcDbLine
 10
9.415999999999999
 20
0.6984
 30
0.0
 11
9.542
 21
0.6984
 31
0.0
  0
LINE
  5
B3
330
1F
100
AcDbEntity
  8
TITLE_BLOCK
100
AcDbLine
 10
9.3944
 20
0.6984
 30
0.0
 11
9.365599999999999
 21
0.6984
 31
0.0
  0
LINE
  5
B4
330
1F
100
AcDbEntity
  8
TITLE_BLOCK
100
AcDbLine
 10
9.344
 20
0.6984
 30
0.0
 11
9.217999999999998
 21
0.6984
 31
0.0
  0
MTEXT
  5
B5
330
1F
100
AcDbEntity
  8
TITLE_BLOCK
100
AcDbMText
 10
9.2
 20
1.0024
 30
0.0
 40
0.064
 41
1.6
 71
     2
 72
     1
  1
THIRD ANGLE PROJECTION
  7
ONSHAPE-STANDARD
  0
LINE
  5
B6
330
1F
100
AcDbEntity
  8
TITLE_BLOCK
100
AcDbLine
 10
10.0
 20
0.5
 30
0.0
 11
10.0
 21
2.5
 31
0.0
  0
LINE
  5
B7
330
1F
100
AcDbEntity
  8
TITLE_BLOCK
100
AcDbLine
 10
10.8
 20
1.06
 30
0.0
 11
10.8
 21
2.5
 31
0.0
  0
LINE
  5
B8
330
1F
100
AcDbEntity
  8
TITLE_BLOCK
100
AcDbLine
 10
11.8
 20
1.06
 30
0.0
 11
11.8
 21
2.5
 31
0.0
  0
LINE
  5
B9
330
1F
100
AcDbEntity
  8
TITLE_BLOCK
100
AcDbLine
 10
11.2
 20
0.5
 30
0.0
 11
11.2
 21
1.06
 31
0.0
  0
LINE
  5
BA
330
1F
100
AcDbEntity
  8
TITLE_BLOCK
100
AcDbLine
 10
10.0
 20
2.5
 30
0.0
 11
12.4
 21
2.5
 31
0.0
  0
LINE
  5
BB
330
1F
100
AcDbEntity
  8
TITLE_BLOCK
100
AcDbLine
 10
10.0
 20
2.26
 30
0.0
 11
12.4
 21
2.26
 31
0.0
  0
LINE
  5
BC
330
1F
100
AcDbEntity
  8
TITLE_BLOCK
100
AcDbLine
 10
10.0
 20
2.02
 30
0.0
 11
12.4
 21
2.02
 31
0.0
  0
LINE
  5
BD
330
1F
100
AcDbEntity
  8
TITLE_BLOCK
100
AcDbLine
 10
10.0
 20
1.78
 30
0.0
 11
12.4
 21
1.78
 31
0.0
  0
LINE
  5
BE
330
1F
100
AcDbEntity
  8
TITLE_BLOCK
100
AcDbLine
 10
10.0
 20
1.54
 30
0.0
 11
12.4
 21
1.54
 31
0.0
  0
LINE
  5
BF
330
1F
100
AcDbEntity
  8
TITLE_BLOCK
100
AcDbLine
 10
10.0
 20
1.3
 30
0.0
 11
12.4
 21
1.3
 31
0.0
  0
LINE
  5
C0
330
1F
100
AcDbEntity
  8
TITLE_BLOCK
100
AcDbLine
 10
10.0
 20
1.06
 30
0.0
 11
12.4
 21
1.06
 31
0.0
  0
MTEXT
  5
C1
330
1F
100
AcDbEntity
  8
TITLE_BLOCK
100
AcDbMText
 10
10.8352
 20
2.4424
 30
0.0
 40
0.064
 41
1.0
 71
     1
 72
     1
  1
NAME
  7
ONSHAPE-STANDARD
  0
MTEXT
  5
C2
330
1F
100
AcDbEntity
  8
TITLE_BLOCK
100
AcDbMText
 10
12.1
 20
2.4424
 30
0.0
 40
0.064
 41
0.5999999999999979
 71
     2
 72
     1
  1
DATE
  7
ONSHAPE-STANDARD
  0
MTEXT
  5
C3
330
1F
100
AcDbEntity
  8
TITLE_BLOCK
100
AcDbMText
 10
10.0352
 20
2.2024
 30
0.0
 40
0.064
 41
0.8000000000000007
 71
     1
 72
     1
  1
DRAWN
  7
ONSHAPE-STANDARD
  0
MTEXT
  5
C4
102
{ACAD_XDICTIONARY
360
C5
102
}
330
1F
100
AcDbEntity
  8
TITLE_BLOCK
100
AcDbMText
 10
11.3
 20
2.14
 30
0.0
 40
0.05376
 41
1.0
 71
     5
 72
     1
  1
Bar Smith
  7
ONSHAPE-STANDARD-FIELDS
1001
ACAD
1000
ACAD_MTEXT_DEFINED_HEIGHT_BEGIN
1070
    46
1040
0.2400000000000002
1000
ACAD_MTEXT_DEFINED_HEIGHT_END
  0
MTEXT
  5
CB
102
{ACAD_XDICTIONARY
360
CC
102
}
330
1F
100
AcDbEntity
  8
TITLE_BLOCK
100
AcDbMText
 10
12.1
 20
2.14
 30
0.0
 40
0.05376
 41
0.5999999999999979
 71
     5
 72
     1
  1
10/13/2017
  7
ONSHAPE-STANDARD-FIELDS
1001
ACAD
1000
ACAD_MTEXT_DEFINED_HEIGHT_BEGIN
1070
    46
1040
0.2400000000000002
1000
ACAD_MTEXT_DEFINED_HEIGHT_END
  0
MTEXT
  5
D1
330
1F
100
AcDbEntity
  8
TITLE_BLOCK
100
AcDbMText
 10
10.0352
 20
1.9624
 30
0.0
 40
0.064
 41
0.8000000000000007
 71
     1
 72
     1
  1
CHECKED
  7
ONSHAPE-STANDARD
  0
MTEXT
  5
D2
330
1F
100
AcDbEntity
  8
TITLE_BLOCK
100
AcDbMText
 10
11.3
 20
1.9
 30
0.0
 40
0.05376
 41
1.0
 71
     5
 72
     1
  1
 
  7
ONSHAPE-STANDARD-FIELDS
1001
ACAD
1000
ACAD_MTEXT_DEFINED_HEIGHT_BEGIN
1070
    46
1040
0.2399999999999998
1000
ACAD_MTEXT_DEFINED_HEIGHT_END
  0
MTEXT
  5
D3
330
1F
100
AcDbEntity
  8
TITLE_BLOCK
100
AcDbMText
 10
12.1
 20
1.9
 30
0.0
 40
0.05376
 41
0.5999999999999979
 71
     5
 72
     1
  1
 
  7
ONSHAPE-STANDARD-FIELDS
1001
ACAD
1000
ACAD_MTEXT_DEFINED_HEIGHT_BEGIN
1070
    46
1040
0.2399999999999998
1000
ACAD_MTEXT_DEFINED_HEIGHT_END
  0
MTEXT
  5
D4
330
1F
100
AcDbEntity
  8
TITLE_BLOCK
100
AcDbMText
 10
10.0352
 20
1.7224
 30
0.0
 40
0.064
 41
0.8000000000000007
 71
     1
 72
     1
  1
APPROVED
  7
ONSHAPE-STANDARD
  0
MTEXT
  5
D5
330
1F
100
AcDbEntity
  8
TITLE_BLOCK
100
AcDbMText
 10
11.3
 20
1.66
 30
0.0
 40
0.05376
 41
1.0
 71
     5
 72
     1
  1
 
  7
ONSHAPE-STANDARD-FIELDS
1001
ACAD
1000
ACAD_MTEXT_DEFINED_HEIGHT_BEGIN
1070
    46
1040
0.2400000000000002
1000
ACAD_MTEXT_DEFINED_HEIGHT_END
  0
MTEXT
  5
D6
330
1F
100
AcDbEntity
  8
TITLE_BLOCK
100
AcDbMText
 10
12.1
 20
1.66
 30
0.0
 40
0.05376
 41
0.5999999999999979
 71
     5
 72
     1
  1
 
  7
ONSHAPE-STANDARD-FIELDS
1001
ACAD
1000
ACAD_MTEXT_DEFINED_HEIGHT_BEGIN
1070
    46
1040
0.2400000000000002
1000
ACAD_MTEXT_DEFINED_HEIGHT_END
  0
MTEXT
  5
D7
330
1F
100
AcDbEntity
  8
TITLE_BLOCK
100
AcDbMText
 10
10.4
 20
1.42
 30
0.0
 40
0.096
 41
0.8000000000000007
 71
     5
 72
     1
  1
 
  7
ONSHAPE-STANDARD-FIELDS
1001
ACAD
1000
ACAD_MTEXT_DEFINED_HEIGHT_BEGIN
1070
    46
1040
0.24
1000
ACAD_MTEXT_DEFINED_HEIGHT_END
  0
MTEXT
  5
D8
330
1F
100
AcDbEntity
  8
TITLE_BLOCK
100
AcDbMText
 10
11.3
 20
1.42
 30
0.0
 40
0.05376
 41
1.0
 71
     5
 72
     1
  1
 
  7
ONSHAPE-STANDARD-FIELDS
1001
ACAD
1000
ACAD_MTEXT_DEFINED_HEIGHT_BEGIN
1070
    46
1040
0.24
1000
ACAD_MTEXT_DEFINED_HEIGHT_END
  0
MTEXT
  5
D9
330
1F
100
AcDbEntity
  8
TITLE_BLOCK
100
AcDbMText
 10
12.1
 20
1.42
 30
0.0
 40
0.05376
 41
0.5999999999999979
 71
     5
 72
     1
  1
 
  7
ONSHAPE-STANDARD-FIELDS
1001
ACAD
1000
ACAD_MTEXT_DEFINED_HEIGHT_BEGIN
1070
    46
1040
0.24
1000
ACAD_MTEXT_DEFINED_HEIGHT_END
  0
MTEXT
  5
DA
330
1F
100
AcDbEntity
  8
TITLE_BLOCK
100
AcDbMText
 10
10.4
 20
1.18
 30
0.0
 40
0.096
 41
0.8000000000000007
 71
     5
 72
     1
  1
 
  7
ONSHAPE-STANDARD-FIELDS
1001
ACAD
1000
ACAD_MTEXT_DEFINED_HEIGHT_BEGIN
1070
    46
1040
0.24
1000
ACAD_MTEXT_DEFINED_HEIGHT_END
  0
MTEXT
  5
DB
330
1F
100
AcDbEntity
  8
TITLE_BLOCK
100
AcDbMText
 10
11.3
 20
1.18
 30
0.0
 40
0.05376
 41
1.0
 71
     5
 72
     1
  1
 
  7
ONSHAPE-STANDARD-FIELDS
1001
ACAD
1000
ACAD_MTEXT_DEFINED_HEIGHT_BEGIN
1070
    46
1040
0.24
1000
ACAD_MTEXT_DEFINED_HEIGHT_END
  0
MTEXT
  5
DC
330
1F
100
AcDbEntity
  8
TITLE_BLOCK
100
AcDbMText
 10
12.1
 20
1.18
 30
0.0
 40
0.05376
 41
0.5999999999999979
 71
     5
 72
     1
  1
 
  7
ONSHAPE-STANDARD-FIELDS
1001
ACAD
1000
ACAD_MTEXT_DEFINED_HEIGHT_BEGIN
1070
    46
1040
0.24
1000
ACAD_MTEXT_DEFINED_HEIGHT_END
  0
MTEXT
  5
DD
330
1F
100
AcDbEntity
  8
TITLE_BLOCK
100
AcDbMText
 10
10.0352
 20
1.0024
 30
0.0
 40
0.064
 41
1.199999999999999
 71
     1
 72
     1
  1
MATERIAL
  7
ONSHAPE-STANDARD
  0
MTEXT
  5
DE
102
{ACAD_XDICTIONARY
360
2AD
102
}
330
1F
100
AcDbEntity
  8
TITLE_BLOCK
100
AcDbMText
 10
10.6
 20
0.78
 30
0.0
 40
0.096
 41
1.199999999999999
 71
     5
 72
     1
  1
1.5mm Steel }
  7
ONSHAPE-STANDARD-FIELDS
1001
ACAD
1000
ACAD_MTEXT_DEFINED_HEIGHT_BEGIN
1070
    46
1040
0.097307901907357
1000
ACAD_MTEXT_DEFINED_HEIGHT_END
  0
MTEXT
  5
DF
330
1F
100
AcDbEntity
  8
TITLE_BLOCK
100
AcDbMText
 10
11.2352
 20
1.0024
 30
0.0
 40
0.064
 41
1.199999999999999
 71
     1
 72
     1
  1
FINISH
  7
ONSHAPE-STANDARD
  0
MTEXT
  5
E0
330
1F
100
AcDbEntity
  8
TITLE_BLOCK
100
AcDbMText
 10
11.8
 20
0.78
 30
0.0
 40
0.096
 41
1.199999999999999
 71
     5
 72
     1
  1
 
  7
ONSHAPE-STANDARD-FIELDS
1001
ACAD
1000
ACAD_MTEXT_DEFINED_HEIGHT_BEGIN
1070
    46
1040
0.56
1000
ACAD_MTEXT_DEFINED_HEIGHT_END
  0
LINE
  5
E1
330
1F
100
AcDbEntity
  8
TITLE_BLOCK
100
AcDbLine
 10
12.4
 20
0.5
 30
0.0
 11
12.4
 21
2.5
 31
0.0
  0
LINE
  5
E2
330
1F
100
AcDbEntity
  8
TITLE_BLOCK
100
AcDbLine
 10
12.9
 20
0.76
 30
0.0
 11
12.9
 21
1.16
 31
0.0
  0
LINE
  5
E3
330
1F
100
AcDbEntity
  8
TITLE_BLOCK
100
AcDbLine
 10
13.28
 20
0.5
 30
0.0
 11
13.28
 21
0.76
 31
0.0
  0
LINE
  5
E4
330
1F
100
AcDbEntity
  8
TITLE_BLOCK
100
AcDbLine
 10
15.1
 20
0.5
 30
0.0
 11
15.1
 21
0.76
 31
0.0
  0
LINE
  5
E5
330
1F
100
AcDbEntity
  8
TITLE_BLOCK
100
AcDbLine
 10
16.1
 20
0.76
 30
0.0
 11
16.1
 21
1.16
 31
0.0
  0
LINE
  5
E6
330
1F
100
AcDbEntity
  8
TITLE_BLOCK
100
AcDbLine
 10
12.4
 20
0.76
 30
0.0
 11
16.5
 21
0.76
 31
0.0
  0
LINE
  5
E7
330
1F
100
AcDbEntity
  8
TITLE_BLOCK
100
AcDbLine
 10
12.4
 20
1.16
 30
0.0
 11
16.5
 21
1.16
 31
0.0
  0
LINE
  5
E8
330
1F
100
AcDbEntity
  8
TITLE_BLOCK
100
AcDbLine
 10
12.4
 20
2.0
 30
0.0
 11
16.5
 21
2.0
 31
0.0
  0
LINE
  5
E9
330
1F
100
AcDbEntity
  8
TITLE_BLOCK
100
AcDbLine
 10
12.4
 20
2.5
 30
0.0
 11
16.5
 21
2.5
 31
0.0
  0
MTEXT
  5
EA
330
1F
100
AcDbEntity
  8
TITLE_BLOCK
100
AcDbMText
 10
12.4352
 20
1.9424
 30
0.0
 40
0.064
 41
0.5000000000000018
 71
     1
 72
     1
  1
TITLE
  7
ONSHAPE-STANDARD
  0
MTEXT
  5
EB
102
{ACAD_XDICTIONARY
360
EC
102
}
330
1F
100
AcDbEntity
  8
TITLE_BLOCK
100
AcDbMText
 10
14.45
 20
1.84
 30
0.0
 40
0.1536
 41
3.700000000000002
 71
     5
 72
     1
  1
Carriage }
  7
ONSHAPE-STANDARD-FIELDS
1001
ACAD
1000
ACAD_MTEXT_DEFINED_HEIGHT_BEGIN
1070
    46
1040
0.1556926430517711
1000
ACAD_MTEXT_DEFINED_HEIGHT_END
  0
MTEXT
  5
ED
102
{ACAD_XDICTIONARY
360
EE
102
}
330
1F
100
AcDbEntity
  8
TITLE_BLOCK
100
AcDbMText
 10
14.45
 20
1.588
 30
0.0
 40
0.1536
 41
3.700000000000002
 71
     5
 72
     1
  1
----
  7
ONSHAPE-STANDARD-FIELDS
1001
ACAD
1000
ACAD_MTEXT_DEFINED_HEIGHT_BEGIN
1070
    46
1040
0.2519999999999999
1000
ACAD_MTEXT_DEFINED_HEIGHT_END
  0
MTEXT
  5
F3
102
{ACAD_XDICTIONARY
360
F4
102
}
330
1F
100
AcDbEntity
  8
TITLE_BLOCK
100
AcDbMText
 10
14.45
 20
1.336
 30
0.0
 40
0.1536
 41
3.700000000000002
 71
     5
 72
     1
  1
----
  7
ONSHAPE-STANDARD-FIELDS
1001
ACAD
1000
ACAD_MTEXT_DEFINED_HEIGHT_BEGIN
1070
    46
1040
0.2519999999999999
1000
ACAD_MTEXT_DEFINED_HEIGHT_END
  0
MTEXT
  5
F9
330
1F
100
AcDbEntity
  8
TITLE_BLOCK
100
AcDbMText
 10
12.42816
 20
1.11392
 30
0.0
 40
0.0512
 41
0.5000000000000018
 71
     1
 72
     1
  1
SIZE
  7
ONSHAPE-STANDARD
  0
MTEXT
  5
FA
102
{ACAD_XDICTIONARY
360
FB
102
}
330
1F
100
AcDbEntity
  8
TITLE_BLOCK
100
AcDbMText
 10
12.65
 20
0.9600000000000001
 30
0.0
 40
0.192
 41
0.5000000000000018
 71
     5
 72
     1
  1
B
  7
ONSHAPE-STANDARD-FIELDS
1001
ACAD
1000
ACAD_MTEXT_DEFINED_HEIGHT_BEGIN
1070
    46
1040
0.4000000000000001
1000
ACAD_MTEXT_DEFINED_HEIGHT_END
  0
MTEXT
  5
100
330
1F
100
AcDbEntity
  8
TITLE_BLOCK
100
AcDbMText
 10
12.92816
 20
1.11392
 30
0.0
 40
0.0512
 41
3.200000000000001
 71
     1
 72
     1
  1
DWG NO.
  7
ONSHAPE-STANDARD
  0
MTEXT
  5
101
102
{ACAD_XDICTIONARY
360
102
102
}
330
1F
100
AcDbEntity
  8
TITLE_BLOCK
100
AcDbMText
 10
14.5
 20
0.9600000000000001
 30
0.0
 40
0.192
 41
3.200000000000001
 71
     5
 72
     1
  1
----
  7
ONSHAPE-STANDARD-FIELDS
1001
ACAD
1000
ACAD_MTEXT_DEFINED_HEIGHT_BEGIN
1070
    46
1040
0.4000000000000001
1000
ACAD_MTEXT_DEFINED_HEIGHT_END
  0
MTEXT
  5
107
330
1F
100
AcDbEntity
  8
TITLE_BLOCK
100
AcDbMText
 10
16.12816
 20
1.11392
 30
0.0
 40
0.0512
 41
0.3999999999999986
 71
     1
 72
     1
  1
REV.
  7
ONSHAPE-STANDARD
  0
MTEXT
  5
108
102
{ACAD_XDICTIONARY
360
109
102
}
330
1F
100
AcDbEntity
  8
TITLE_BLOCK
100
AcDbMText
 10
16.32
 20
0.9600000000000001
 30
0.0
 40
0.192
 41
0.3599999999999994
 71
     5
 72
     1
  1
-
  7
ONSHAPE-STANDARD-FIELDS
1001
ACAD
1000
ACAD_MTEXT_DEFINED_HEIGHT_BEGIN
1070
    46
1040
0.4000000000000001
1000
ACAD_MTEXT_DEFINED_HEIGHT_END
  0
MTEXT
  5
10E
330
1F
100
AcDbEntity
  8
TITLE_BLOCK
100
AcDbMText
 10
12.42816
 20
0.71392
 30
0.0
 40
0.0512
 41
0.8800000000000008
 71
     1
 72
     1
  1
SCALE
  7
ONSHAPE-STANDARD
  0
MTEXT
  5
10F
102
{ACAD_XDICTIONARY
360
110
102
}
330
1F
100
AcDbEntity
  8
TITLE_BLOCK
100
AcDbMText
 10
12.88
 20
0.63
 30
0.0
 40
0.1152
 41
0.8000000000000007
 71
     5
 72
     1
  1
1:1
  7
ONSHAPE-STANDARD-FIELDS
1001
ACAD
1000
ACAD_MTEXT_DEFINED_HEIGHT_BEGIN
1070
    46
1040
0.26
1000
ACAD_MTEXT_DEFINED_HEIGHT_END
  0
MTEXT
  5
115
330
1F
100
AcDbEntity
  8
TITLE_BLOCK
100
AcDbMText
 10
13.30816
 20
0.71392
 30
0.0
 40
0.0512
 41
1.82
 71
     1
 72
     1
  1
WEIGHT
  7
ONSHAPE-STANDARD
  0
MTEXT
  5
116
330
1F
100
AcDbEntity
  8
TITLE_BLOCK
100
AcDbMText
 10
14.19
 20
0.63
 30
0.0
 40
0.1152
 41
1.82
 71
     5
 72
     1
  1
 
  7
ONSHAPE-STANDARD-FIELDS
1001
ACAD
1000
ACAD_MTEXT_DEFINED_HEIGHT_BEGIN
1070
    46
1040
0.26
1000
ACAD_MTEXT_DEFINED_HEIGHT_END
  0
MTEXT
  5
117
330
1F
100
AcDbEntity
  8
TITLE_BLOCK
100
AcDbMText
 10
15.12816
 20
0.71392
 30
0.0
 40
0.0512
 41
1.4
 71
     1
 72
     1
  1
SHEET
  7
ONSHAPE-STANDARD
  0
MTEXT
  5
118
102
{ACAD_XDICTIONARY
360
119
102
}
330
1F
100
AcDbEntity
  8
TITLE_BLOCK
100
AcDbMText
 10
15.84
 20
0.63
 30
0.0
 40
0.1152
 41
1.32
 71
     5
 72
     1
  1
1 of 1
  7
ONSHAPE-STANDARD-FIELDS
1001
ACAD
1000
ACAD_MTEXT_DEFINED_HEIGHT_BEGIN
1070
    46
1040
0.26
1000
ACAD_MTEXT_DEFINED_HEIGHT_END
  0
MTEXT
  5
11E
330
1F
100
AcDbEntity
  8
ANNOTATION_TEXT
 60
     1
100
AcDbMText
 10
3.79216076002111
 20
7.106742116859012
 30
0.0
 40
0.12
 41
0.0
 71
     2
 72
     1
  1

  7
ONSHAPE-STANDARD
1001
ACAD
1000
ACAD_MTEXT_DEFINED_HEIGHT_BEGIN
1070
    46
1040
0.12
1000
ACAD_MTEXT_DEFINED_HEIGHT_END
  0
MTEXT
  5
120
330
1F
100
AcDbEntity
  8
ANNOTATION_TEXT
 60
     1
100
AcDbMText
 10
11.26308445352207
 20
5.175513014955215
 30
0.0
 40
0.12
 41
0.0
 71
     2
 72
     1
  1

  7
ONSHAPE-STANDARD
1001
ACAD
1000
ACAD_MTEXT_DEFINED_HEIGHT_BEGIN
1070
    46
1040
0.12
1000
ACAD_MTEXT_DEFINED_HEIGHT_END
  0
MTEXT
  5
121
330
1F
100
AcDbEntity
  8
ANNOTATION_TEXT
 60
     1
100
AcDbMText
 10
3.51017565443712
 20
0.862020089262663
 30
0.0
 40
0.12
 41
0.0
 71
     2
 72
     1
  1

  7
ONSHAPE-STANDARD
1001
ACAD
1000
ACAD_MTEXT_DEFINED_HEIGHT_BEGIN
1070
    46
1040
0.12
1000
ACAD_MTEXT_DEFINED_HEIGHT_END
  0
MTEXT
  5
122
330
1F
100
AcDbEntity
  8
ANNOTATION_TEXT
 60
     1
100
AcDbMText
 10
3.516304636960098
 20
3.758992052279813
 30
0.0
 40
0.12
 41
0.0
 71
     2
 72
     1
  1

  7
ONSHAPE-STANDARD
1001
ACAD
1000
ACAD_MTEXT_DEFINED_HEIGHT_BEGIN
1070
    46
1040
0.12
1000
ACAD_MTEXT_DEFINED_HEIGHT_END
  0
MTEXT
  5
127
330
1F
100
AcDbEntity
  8
SHEETMETAL_BEND_LINES_UP
100
AcDbMText
 10
11.40924821478614
 20
6.546863877444251
 30
0.0
 40
0.12
 41
0.0
 71
     2
 72
     1
  1
UP 90.0° R2.3
  7
ONSHAPE-STANDARD-DIMENSION
 11
0.0
 21
1.0
 31
-1.084202172485505E-16
1001
ACAD
1000
ACAD_MTEXT_DEFINED_HEIGHT_BEGIN
1070
    46
1040
0.21
1000
ACAD_MTEXT_DEFINED_HEIGHT_END
  0
MTEXT
  5
12B
330
1F
100
AcDbEntity
  8
SHEETMETAL_BEND_LINES_UP
100
AcDbMText
 10
10.696920692258
 20
6.546863877444251
 30
0.0
 40
0.12
 41
0.0
 71
     2
 72
     1
  1
UP 90.0° R2.3
  7
ONSHAPE-STANDARD-DIMENSION
 11
0.0
 21
1.0
 31
-2.168404344971010E-16
1001
ACAD
1000
ACAD_MTEXT_DEFINED_HEIGHT_BEGIN
1070
    46
1040
0.21
1000
ACAD_MTEXT_DEFINED_HEIGHT_END
  0
LINE
  5
12E
330
1F
100
AcDbEntity
  8
VISIBLE
100
AcDbLine
 10
3.225913827040321
 20
9.233957790226281
 30
0.0
 11
3.225913827040321
 21
9.282176092249571
 31
0.0
  0
LINE
  5
12F
330
1F
100
AcDbEntity
  8
VISIBLE
100
AcDbLine
 10
2.989283604989704
 20
8.727665618981726
 30
0.0
 11
3.003203029816211
 21
8.719629235311178
 31
0.0
  0
LINE
  5
130
330
1F
100
AcDbEntity
  8
VISIBLE
100
AcDbLine
 10
3.880126793886142
 20
7.634074529093488
 30
0.0
 11
4.013903820443272
 21
7.711310731387635
 31
0.0
  0
LINE
  5
131
330
1F
100
AcDbEntity
  8
TANGENT_LINES
100
AcDbLine
 10
3.880126793886142
 20
7.682292831116778
 30
0.0
 11
3.880126793886142
 21
7.634074529093488
 31
0.0
  0
LINE
  5
132
330
1F
100
AcDbEntity
  8
VISIBLE
100
AcDbLine
 10
4.673534008997032
 20
7.818911353516103
 30
0.0
 11
4.673534008997032
 21
7.770693051492812
 31
0.0
  0
LINE
  5
133
330
1F
100
AcDbEntity
  8
TANGENT_LINES
100
AcDbLine
 10
4.013903820443272
 20
7.759529033410926
 30
0.0
 11
4.013903820443272
 21
7.711310731387635
 31
0.0
  0
LINE
  5
134
330
1F
100
AcDbEntity
  8
VISIBLE
100
AcDbLine
 10
3.61903514098672
 20
7.497456006694164
 30
0.0
 11
3.61903514098672
 21
7.531551495032134
 31
0.0
  0
LINE
  5
135
330
1F
100
AcDbEntity
  8
VISIBLE
100
AcDbLine
 10
5.235331457071831
 20
8.722527796365268
 30
0.0
 11
5.235331457071831
 21
8.770746098388559
 31
0.0
  0
LINE
  5
136
330
1F
100
AcDbEntity
  8
TANGENT_LINES
100
AcDbLine
 10
2.766572807765594
 20
7.779050890510183
 30
0.0
 11
2.724814533286073
 21
7.754941739498537
 31
0.0
  0
LINE
  5
137
330
1F
100
AcDbEntity
  8
VISIBLE
100
AcDbLine
 10
2.73873395811258
 20
7.827269192533474
 30
0.0
 11
2.73873395811258
 21
8.036215167967734
 31
0.0
  0
LINE
  5
138
330
1F
100
AcDbEntity
  8
TANGENT_LINES
100
AcDbLine
 10
2.73873395811258
 20
7.827269192533474
 30
0.0
 11
2.69697568363306
 21
7.803160041521828
 31
0.0
  0
LINE
  5
139
330
1F
100
AcDbEntity
  8
TANGENT_LINES
100
AcDbLine
 10
2.891847631204156
 20
7.690650670134149
 30
0.0
 11
2.864008781551142
 21
7.674577902793052
 31
0.0
  0
LINE
  5
13A
330
1F
100
AcDbEntity
  8
VISIBLE
100
AcDbLine
 10
5.235331457071831
 20
8.722527796365268
 30
0.0
 11
4.673534008997032
 21
8.398173888489238
 31
0.0
  0
LINE
  5
13B
330
1F
100
AcDbEntity
  8
TANGENT_LINES
100
AcDbLine
 10
2.724814533286073
 20
8.044251551638283
 30
0.0
 11
2.69697568363306
 21
8.028178784297186
 31
0.0
  0
LINE
  5
13C
330
1F
100
AcDbEntity
  8
VISIBLE
100
AcDbLine
 10
3.345620880548279
 20
7.325477396144426
 30
0.0
 11
3.601738297356005
 21
7.473346855682518
 31
0.0
  0
LINE
  5
13D
330
1F
100
AcDbEntity
  8
TANGENT_LINES
100
AcDbLine
 10
3.601738297356005
 20
7.473346855682518
 30
0.0
 11
3.601738297356005
 21
7.521565157705809
 31
0.0
  0
LINE
  5
13E
330
1F
100
AcDbEntity
  8
VISIBLE
100
AcDbLine
 10
3.782690820100594
 20
8.269591749760462
 30
0.0
 11
3.796610244927101
 21
8.261555366089913
 31
0.0
  0
LINE
  5
13F
330
1F
100
AcDbEntity
  8
TANGENT_LINES
100
AcDbLine
 10
3.003203029816211
 20
8.719629235311178
 30
0.0
 11
3.003203029816211
 21
8.767847537334468
 31
0.0
  0
LINE
  5
140
330
1F
100
AcDbEntity
  8
VISIBLE
100
AcDbLine
 10
2.989283604989704
 20
8.775883921005017
 30
0.0
 11
3.003203029816211
 21
8.767847537334468
 31
0.0
  0
LINE
  5
141
330
1F
100
AcDbEntity
  8
VISIBLE
100
AcDbLine
 10
2.864008781551142
 20
7.674577902793052
 30
0.0
 11
2.724814533286073
 21
7.754941739498537
 31
0.0
  0
LINE
  5
142
330
1F
100
AcDbEntity
  8
VISIBLE
100
AcDbLine
 10
3.880126793886142
 20
8.261555366089913
 30
0.0
 11
4.013903820443272
 21
8.33879156838406
 31
0.0
  0
LINE
  5
143
330
1F
100
AcDbEntity
  8
VISIBLE
100
AcDbLine
 10
4.673534008997032
 20
8.398173888489238
 30
0.0
 11
4.673534008997032
 21
8.446392190512528
 31
0.0
  0
LINE
  5
144
330
1F
100
AcDbEntity
  8
TANGENT_LINES
100
AcDbLine
 10
3.880126793886142
 20
8.309773668113204
 30
0.0
 11
3.880126793886142
 21
8.261555366089913
 31
0.0
  0
LINE
  5
145
330
1F
100
AcDbEntity
  8
VISIBLE
100
AcDbLine
 10
5.235331457071831
 20
8.095046959368842
 30
0.0
 11
4.673534008997032
 21
7.770693051492812
 31
0.0
  0
LINE
  5
146
330
1F
100
AcDbEntity
  8
TANGENT_LINES
100
AcDbLine
 10
3.601738297356005
 20
8.100827692678944
 30
0.0
 11
3.601738297356005
 21
8.149045994702234
 31
0.0
  0
LINE
  5
147
330
1F
100
AcDbEntity
  8
VISIBLE
100
AcDbLine
 10
3.345620880548279
 20
7.952958233140852
 30
0.0
 11
3.601738297356005
 21
8.100827692678944
 31
0.0
  0
LINE
  5
148
330
1F
100
AcDbEntity
  8
TANGENT_LINES
100
AcDbLine
 10
3.281591526346347
 20
7.842056138487282
 30
0.0
 11
3.239833251866826
 21
7.817946987475637
 31
0.0
  0
LINE
  5
149
330
1F
100
AcDbEntity
  8
VISIBLE
100
AcDbLine
 10
5.235331457071831
 20
8.143265261392132
 30
0.0
 11
4.673534008997032
 21
7.818911353516103
 31
0.0
  0
LINE
  5
14A
330
1F
100
AcDbEntity
  8
TANGENT_LINES
100
AcDbLine
 10
3.239833251866826
 20
7.817946987475637
 30
0.0
 11
2.348990062970389
 21
8.33227554239074
 31
0.0
  0
LINE
  5
14B
330
1F
100
AcDbEntity
  8
VISIBLE
100
AcDbLine
 10
3.782690820100594
 20
8.317810051783752
 30
0.0
 11
3.796610244927101
 21
8.309773668113204
 31
0.0
  0
LINE
  5
14C
330
1F
100
AcDbEntity
  8
VISIBLE
100
AcDbLine
 10
2.69697568363306
 20
7.803160041521828
 30
0.0
 11
2.69697568363306
 21
8.028178784297186
 31
0.0
  0
LINE
  5
14D
330
1F
100
AcDbEntity
  8
VISIBLE
100
AcDbLine
 10
2.808331082245115
 20
8.65533816594679
 30
0.0
 11
2.794411657418608
 21
8.663374549617338
 31
0.0
  0
LINE
  5
14E
330
1F
100
AcDbEntity
  8
TANGENT_LINES
100
AcDbLine
 10
3.345620880548279
 20
7.373695698167717
 30
0.0
 11
3.345620880548279
 21
7.325477396144426
 31
0.0
  0
LINE
  5
14F
330
1F
100
AcDbEntity
  8
VISIBLE
100
AcDbLine
 10
3.880126793886142
 20
8.309773668113204
 30
0.0
 11
4.013903820443272
 21
8.387009870407352
 31
0.0
  0
LINE
  5
150
330
1F
100
AcDbEntity
  8
VISIBLE
100
AcDbLine
 10
2.348990062970389
 20
7.900882466955697
 30
0.0
 11
2.348990062970389
 21
8.33227554239074
 31
0.0
  0
LINE
  5
151
330
1F
100
AcDbEntity
  8
VISIBLE
100
AcDbLine
 10
2.989283604989704
 20
8.824102223028307
 30
0.0
 11
3.123060631546835
 21
8.901338425322454
 31
0.0
  0
LINE
  5
152
330
1F
100
AcDbEntity
  8
TANGENT_LINES
100
AcDbLine
 10
3.796610244927101
 20
8.261555366089913
 30
0.0
 11
3.796610244927101
 21
8.309773668113204
 31
0.0
  0
LINE
  5
153
330
1F
100
AcDbEntity
  8
VISIBLE
100
AcDbLine
 10
3.601738297356005
 20
8.197264296725526
 30
0.0
 11
3.587818872529498
 21
8.205300680396075
 31
0.0
  0
LINE
  5
154
330
1F
100
AcDbEntity
  8
VISIBLE
100
AcDbLine
 10
5.235331457071831
 20
8.143265261392132
 30
0.0
 11
5.235331457071831
 21
8.095046959368842
 31
0.0
  0
LINE
  5
155
330
1F
100
AcDbEntity
  8
TANGENT_LINES
100
AcDbLine
 10
3.345620880548279
 20
8.001176535164143
 30
0.0
 11
2.454777691651841
 21
8.515505090079246
 31
0.0
  0
LINE
  5
156
330
1F
100
AcDbEntity
  8
TANGENT_LINES
100
AcDbLine
 10
3.345620880548279
 20
7.952958233140852
 30
0.0
 11
3.345620880548279
 21
8.001176535164143
 31
0.0
  0
LINE
  5
157
330
1F
100
AcDbEntity
  8
VISIBLE
100
AcDbLine
 10
2.454777691651841
 20
8.515505090079246
 30
0.0
 11
2.710895108459566
 21
8.663374549617338
 31
0.0
  0
LINE
  5
158
330
1F
100
AcDbEntity
  8
VISIBLE
100
AcDbLine
 10
3.787711275115119
 20
9.6065300001256
 30
0.0
 11
3.225913827040321
 21
9.282176092249571
 31
0.0
  0
LINE
  5
159
330
1F
100
AcDbEntity
  8
VISIBLE
100
AcDbLine
 10
5.235331457071831
 20
8.770746098388559
 30
0.0
 11
4.673534008997032
 21
8.446392190512528
 31
0.0
  0
LINE
  5
15A
330
1F
100
AcDbEntity
  8
VISIBLE
100
AcDbLine
 10
2.891847631204156
 20
7.690650670134149
 30
0.0
 11
2.891847631204156
 21
7.915669412909507
 31
0.0
  0
LINE
  5
15B
330
1F
100
AcDbEntity
  8
VISIBLE
100
AcDbLine
 10
3.239833251866826
 20
7.386553912040594
 30
0.0
 11
3.239833251866826
 21
7.817946987475637
 31
0.0
  0
LINE
  5
15C
330
1F
100
AcDbEntity
  8
TANGENT_LINES
100
AcDbLine
 10
4.013903820443272
 20
8.33879156838406
 30
0.0
 11
4.013903820443272
 21
8.387009870407352
 31
0.0
  0
LINE
  5
15D
330
1F
100
AcDbEntity
  8
VISIBLE
100
AcDbLine
 10
2.971986761358988
 20
8.799993072016662
 30
0.0
 11
2.971986761358988
 21
8.751774769993371
 31
0.0
  0
LINE
  5
15E
330
1F
100
AcDbEntity
  8
TANGENT_LINES
100
AcDbLine
 10
2.989283604989704
 20
8.775883921005017
 30
0.0
 11
2.989283604989704
 21
8.727665618981726
 31
0.0
  0
LINE
  5
15F
330
1F
100
AcDbEntity
  8
VISIBLE
100
AcDbLine
 10
3.345620880548279
 20
8.001176535164143
 30
0.0
 11
3.601738297356005
 21
8.149045994702234
 31
0.0
  0
LINE
  5
160
330
1F
100
AcDbEntity
  8
TANGENT_LINES
100
AcDbLine
 10
3.239833251866826
 20
7.386553912040594
 30
0.0
 11
2.348990062970389
 21
7.900882466955697
 31
0.0
  0
LINE
  5
161
330
1F
100
AcDbEntity
  8
VISIBLE
100
AcDbLine
 10
3.281591526346347
 20
7.41066306305224
 30
0.0
 11
3.281591526346347
 21
7.842056138487282
 31
0.0
  0
LINE
  5
162
330
1F
100
AcDbEntity
  8
VISIBLE
100
AcDbLine
 10
2.891847631204155
 20
7.706723437475246
 30
0.0
 11
2.766572807765594
 21
7.779050890510183
 31
0.0
  0
LINE
  5
163
330
1F
100
AcDbEntity
  8
VISIBLE
100
AcDbLine
 10
3.345620880548279
 20
7.373695698167717
 30
0.0
 11
3.601738297356005
 21
7.521565157705809
 31
0.0
  0
LINE
  5
164
330
1F
100
AcDbEntity
  8
VISIBLE
100
AcDbLine
 10
3.61903514098672
 20
8.12493684369059
 30
0.0
 11
3.61903514098672
 21
8.17315514571388
 31
0.0
  0
LINE
  5
165
330
1F
100
AcDbEntity
  8
VISIBLE
100
AcDbLine
 10
2.864008781551142
 20
7.963887714932798
 30
0.0
 11
2.724814533286073
 21
8.044251551638283
 31
0.0
  0
LINE
  5
166
330
1F
100
AcDbEntity
  8
TANGENT_LINES
100
AcDbLine
 10
3.281591526346347
 20
7.41066306305224
 30
0.0
 11
3.239833251866826
 21
7.386553912040594
 31
0.0
  0
LINE
  5
167
330
1F
100
AcDbEntity
  8
VISIBLE
100
AcDbLine
 10
3.880126793886142
 20
7.682292831116778
 30
0.0
 11
4.013903820443272
 21
7.759529033410926
 31
0.0
  0
LINE
  5
168
330
1F
100
AcDbEntity
  8
TANGENT_LINES
100
AcDbLine
 10
3.782690820100594
 20
8.269591749760462
 30
0.0
 11
3.782690820100594
 21
8.317810051783752
 31
0.0
  0
LINE
  5
169
330
1F
100
AcDbEntity
  8
VISIBLE
100
AcDbLine
 10
2.379974542045542
 20
7.83239612716758
 30
0.0
 11
3.27081773094198
 21
7.318067572252478
 31
0.0
  0
ELLIPSE
  5
16A
330
1F
100
AcDbEntity
  8
VISIBLE
100
AcDbEllipse
 10
3.754851970447581
 20
9.217885022885184
 30
0.0
 11
-0.2086614173228347
 21
0.0
 31
0.0
210
0.0
220
0.0
230
1.0
 40
0.5773502691896216
 41
3.343077705275549
 42
6.081700255493859
  0
ELLIPSE
  5
16B
330
1F
100
AcDbEntity
  8
VISIBLE
100
AcDbEllipse
 10
2.722818909071028
 20
9.08419978951149
 30
0.0
 11
-0.566027272152855
 21
0.0
 31
0.0
210
0.0
220
0.0
230
1.0
 40
0.5773502691896268
 41
3.215434054679633
 42
3.61763081292042
  0
ELLIPSE
  5
16C
330
1F
100
AcDbEntity
  8
VISIBLE
100
AcDbEllipse
 10
3.838368519406621
 20
7.658183680105133
 30
0.0
 11
0.05905511811023612
 21
0.0
 31
0.0
210
0.0
220
0.0
230
-1.0
 40
0.5773502691896234
 41
0.7853981633974421
 42
2.356194490192351
  0
ELLIPSE
  5
16D
330
1F
100
AcDbEntity
  8
VISIBLE
100
AcDbEllipse
 10
4.645695159344019
 20
8.703556467970081
 30
0.0
 11
-0.2086614173228343
 21
0.0
 31
0.0
210
0.0
220
0.0
230
1.0
 40
0.5773502691896228
 41
3.343077705275548
 42
6.081700255493845
  0
ELLIPSE
  5
16E
330
1F
100
AcDbEntity
  8
VISIBLE
100
AcDbEllipse
 10
4.566393918460551
 20
9.220318732137333
 30
0.0
 11
0.1968503937007871
 21
0.0
 31
0.0
210
0.0
220
0.0
230
-1.0
 40
0.5773502691896264
 41
1.784437572994335
 42
2.927951407390355
  0
ELLIPSE
  5
16F
330
1F
100
AcDbEntity
  8
VISIBLE
100
AcDbEllipse
 10
2.752653382939088
 20
8.639265398605692
 30
0.0
 11
-0.05905511811023612
 21
0.0
 31
0.0
210
0.0
220
0.0
230
1.0
 40
0.5773502691896234
 41
3.92699081698724
 42
5.497787143782142
  0
ELLIPSE
  5
170
330
1F
100
AcDbEntity
  8
VISIBLE
100
AcDbEllipse
 10
3.754851970447581
 20
9.266103324908475
 30
0.0
 11
-0.2086614173228347
 21
1.106505662449214E-17
 31
0.0
210
0.0
220
0.0
230
1.0
 40
0.577350269189626
 41
0.0
 42
6.283185307179586
  0
ELLIPSE
  5
171
330
1F
100
AcDbEntity
  8
VISIBLE
100
AcDbEllipse
 10
2.454777691651841
 20
8.39335205828691
 30
0.0
 11
0.07480314960629908
 21
0.129562855684286
 31
0.0
210
0.0
220
0.0
230
1.0
 40
0.5773502691896274
 41
0.785398163397442
 42
2.356194490192347
  0
ELLIPSE
  5
172
330
1F
100
AcDbEntity
  8
VISIBLE
100
AcDbEllipse
 10
4.645695159344019
 20
8.751774769993371
 30
0.0
 11
-0.2086614173228347
 21
1.106505662449214E-17
 31
0.0
210
0.0
220
0.0
230
1.0
 40
0.577350269189626
 41
0.0
 42
6.283185307179586
  0
ELLIPSE
  5
173
330
1F
100
AcDbEntity
  8
VISIBLE
100
AcDbEllipse
 10
3.559980022876484
 20
7.497456006694164
 30
0.0
 11
0.05905511811023612
 21
0.0
 31
0.0
210
0.0
220
0.0
230
-1.0
 40
0.5773502691896234
 41
0.0
 42
0.7853981633974421
  0
ELLIPSE
  5
174
330
1F
100
AcDbEntity
  8
VISIBLE
100
AcDbEllipse
 10
4.41414554291908
 20
8.155930204195025
 30
0.0
 11
0.566027272152855
 21
0.0
 31
0.0
210
0.0
220
0.0
230
-1.0
 40
0.5773502691896253
 41
3.926990816987237
 42
5.188427139715313
  0
ELLIPSE
  5
175
330
1F
100
AcDbEntity
  8
VISIBLE
100
AcDbEllipse
 10
3.838368519406621
 20
8.33388281912485
 30
0.0
 11
-0.05905511811023612
 21
0.0
 31
0.0
210
0.0
220
0.0
230
1.0
 40
0.5773502691896234
 41
0.7853981633974476
 42
2.356194490192345
  0
ELLIPSE
  5
176
330
1F
100
AcDbEntity
  8
VISIBLE
100
AcDbEllipse
 10
4.645695159344019
 20
8.751774769993371
 30
0.0
 11
-0.590551181102362
 21
0.0
 31
0.0
210
0.0
220
0.0
230
1.0
 40
0.5773502691896255
 41
3.197263160760274
 42
4.587830451608628
  0
ELLIPSE
  5
177
330
1F
100
AcDbEntity
  8
VISIBLE
100
AcDbEllipse
 10
3.754851970447581
 20
9.266103324908475
 30
0.0
 11
-0.590551181102362
 21
0.0
 31
0.0
210
0.0
220
0.0
230
1.0
 40
0.5773502691896255
 41
3.266151182365859
 42
4.656718473214206
  0
ELLIPSE
  5
178
330
1F
100
AcDbEntity
  8
VISIBLE
100
AcDbEllipse
 10
6.538283679705712
 20
9.467312407425384
 30
0.0
 11
2.21461322847607
 21
0.0
 31
0.0
210
0.0
220
0.0
230
-1.0
 40
0.577350269189626
 41
2.927951407390358
 42
3.01703412481373
  0
ELLIPSE
  5
179
330
1F
100
AcDbEntity
  8
VISIBLE
100
AcDbEllipse
 10
4.645695159344019
 20
8.124293932996945
 30
0.0
 11
-0.1594488188976378
 21
8.455373458338330E-18
 31
0.0
210
0.0
220
0.0
230
1.0
 40
0.5773502691896258
 41
0.0
 42
6.283185307179586
  0
ELLIPSE
  5
17A
330
1F
100
AcDbEntity
  8
VISIBLE
100
AcDbEllipse
 10
3.559980022876484
 20
8.17315514571388
 30
0.0
 11
-0.05905511811023612
 21
0.0
 31
0.0
210
0.0
220
0.0
230
1.0
 40
0.5773502691896234
 41
2.356194490192351
 42
3.926990816987229
  0
ELLIPSE
  5
17B
330
1F
100
AcDbEntity
  8
VISIBLE
100
AcDbEllipse
 10
2.905767056030663
 20
8.663374549617338
 30
0.0
 11
0.1377952755905514
 21
0.0
 31
0.0
210
0.0
220
0.0
230
-1.0
 40
0.5773502691896258
 41
5.497787143782124
 42
5.975298215607598
  0
ELLIPSE
  5
17C
330
1F
100
AcDbEntity
  8
VISIBLE
100
AcDbEllipse
 10
3.685254846315046
 20
8.261555366089913
 30
0.0
 11
0.1377952755905514
 21
0.0
 31
0.0
210
0.0
220
0.0
230
-1.0
 40
0.5773502691896258
 41
2.356194490192353
 42
5.497787143782146
  0
ELLIPSE
  5
17D
330
1F
100
AcDbEntity
  8
VISIBLE
100
AcDbEllipse
 10
3.838368519406621
 20
8.285664517101559
 30
0.0
 11
0.05905511811023612
 21
0.0
 31
0.0
210
0.0
220
0.0
230
-1.0
 40
0.5773502691896234
 41
0.7853981633974421
 42
2.356194490192351
  0
ELLIPSE
  5
17E
330
1F
100
AcDbEntity
  8
VISIBLE
100
AcDbEllipse
 10
2.905767056030663
 20
8.71159285164063
 30
0.0
 11
0.1377952755905514
 21
0.0
 31
0.0
210
0.0
220
0.0
230
-1.0
 40
0.5773502691896258
 41
5.497787143782146
 42
8.639379797371936
  0
ELLIPSE
  5
17F
330
1F
100
AcDbEntity
  8
VISIBLE
100
AcDbEllipse
 10
2.722818909071028
 20
9.132418091534781
 30
0.0
 11
-0.566027272152855
 21
0.0
 31
0.0
210
0.0
220
0.0
230
1.0
 40
0.5773502691896268
 41
2.356194490192345
 42
3.61763081292042
  0
ELLIPSE
  5
180
330
1F
100
AcDbEntity
  8
VISIBLE
100
AcDbEllipse
 10
3.345620880548279
 20
7.879023503371806
 30
0.0
 11
-0.07480314960629908
 21
-0.129562855684286
 31
0.0
210
0.0
220
0.0
230
-1.0
 40
0.5773502691896244
 41
0.7853981633974424
 42
2.356194490192341
  0
ELLIPSE
  5
181
330
1F
100
AcDbEntity
  8
VISIBLE
100
AcDbEllipse
 10
2.724814533286073
 20
8.01210601695609
 30
0.0
 11
-0.01968503937007871
 21
0.03409548833796983
 31
0.0
210
0.0
220
0.0
230
-1.0
 40
0.5773502691896345
 41
5.497787143782139
 42
7.068583470577029
  0
ELLIPSE
  5
182
330
1F
100
AcDbEntity
  8
VISIBLE
100
AcDbEllipse
 10
3.685254846315046
 20
8.213337064066623
 30
0.0
 11
0.1377952755905514
 21
0.0
 31
0.0
210
0.0
220
0.0
230
-1.0
 40
0.5773502691896258
 41
3.449479745161778
 42
5.497787143782146
  0
ELLIPSE
  5
183
330
1F
100
AcDbEntity
  8
VISIBLE
100
AcDbEllipse
 10
2.864008781551142
 20
7.931742180250604
 30
0.0
 11
-0.01968503937007871
 21
0.03409548833796983
 31
0.0
210
0.0
220
0.0
230
-1.0
 40
0.5773502691896233
 41
0.7853981633974524
 42
2.356194490192337
  0
ELLIPSE
  5
184
330
1F
100
AcDbEntity
  8
VISIBLE
100
AcDbEllipse
 10
4.645695159344019
 20
8.124293932996945
 30
0.0
 11
-0.590551181102362
 21
0.0
 31
0.0
210
0.0
220
0.0
230
1.0
 40
0.5773502691896255
 41
3.197263160760274
 42
4.491104066992348
  0
ELLIPSE
  5
185
330
1F
100
AcDbEntity
  8
VISIBLE
100
AcDbEllipse
 10
2.724814533286073
 20
7.787087274180731
 30
0.0
 11
-0.01968503937007871
 21
0.03409548833796983
 31
0.0
210
0.0
220
0.0
230
-1.0
 40
0.5773502691896233
 41
3.926990816987245
 42
5.497787143782129
  0
ELLIPSE
  5
186
330
1F
100
AcDbEntity
  8
VISIBLE
100
AcDbEllipse
 10
2.864008781551142
 20
7.706723437475246
 30
0.0
 11
-0.01968503937007871
 21
0.03409548833796983
 31
0.0
210
0.0
220
0.0
230
-1.0
 40
0.5773502691896233
 41
2.356194490192364
 42
3.926990816987229
  0
ELLIPSE
  5
187
330
1F
100
AcDbEntity
  8
VISIBLE
100
AcDbEllipse
 10
3.559980022876484
 20
8.12493684369059
 30
0.0
 11
0.05905511811023612
 21
0.0
 31
0.0
210
0.0
220
0.0
230
-1.0
 40
0.5773502691896234
 41
0.0
 42
0.7853981633974421
  0
ELLIPSE
  5
188
330
1F
100
AcDbEntity
  8
VISIBLE
100
AcDbEllipse
 10
4.41414554291908
 20
7.528449367198599
 30
0.0
 11
0.566027272152855
 21
0.0
 31
0.0
210
0.0
220
0.0
230
-1.0
 40
0.5773502691896253
 41
3.926990816987239
 42
5.188427139715317
  0
ELLIPSE
  5
189
330
1F
100
AcDbEntity
  8
VISIBLE
100
AcDbEllipse
 10
3.031041879469224
 20
8.751774769993371
 30
0.0
 11
0.05905511811023612
 21
0.0
 31
0.0
210
0.0
220
0.0
230
-1.0
 40
0.5773502691896234
 41
2.356194490192351
 42
3.141592653589793
  0
ELLIPSE
  5
18A
330
1F
100
AcDbEntity
  8
VISIBLE
100
AcDbEllipse
 10
3.345620880548279
 20
7.879023503371806
 30
0.0
 11
-0.04527559055118102
 21
-0.07841962317733131
 31
0.0
210
0.0
220
0.0
230
-1.0
 40
0.5773502691896226
 41
0.7853981633974626
 42
2.356194490192345
  0
ELLIPSE
  5
18B
330
1F
100
AcDbEntity
  8
VISIBLE
100
AcDbEllipse
 10
3.559980022876484
 20
7.545674308717454
 30
0.0
 11
-0.05905511811023612
 21
0.0
 31
0.0
210
0.0
220
0.0
230
1.0
 40
0.5773502691896234
 41
2.356194490192356
 42
3.141592653589793
  0
ELLIPSE
  5
18C
330
1F
100
AcDbEntity
  8
VISIBLE
100
AcDbEllipse
 10
3.345620880548279
 20
7.447630427936764
 30
0.0
 11
-0.07480314960629908
 21
-0.129562855684286
 31
0.0
210
0.0
220
0.0
230
-1.0
 40
0.5773502691896244
 41
5.497787143782142
 42
7.068583470577027
  0
ELLIPSE
  5
18D
330
1F
100
AcDbEntity
  8
VISIBLE
100
AcDbEllipse
 10
3.031041879469224
 20
8.799993072016662
 30
0.0
 11
-0.05905511811023612
 21
0.0
 31
0.0
210
0.0
220
0.0
230
1.0
 40
0.5773502691896234
 41
5.497787143782137
 42
7.068583470577034
  0
ELLIPSE
  5
18E
330
1F
100
AcDbEntity
  8
VISIBLE
100
AcDbEllipse
 10
2.454777691651841
 20
7.961958982851866
 30
0.0
 11
0.07480314960629907
 21
0.1295628556842869
 31
0.0
210
0.0
220
0.0
230
1.0
 40
0.5773502691896214
 41
2.356194490192345
 42
3.141592653589788
  0
ELLIPSE
  5
18F
330
1F
100
AcDbEntity
  8
VISIBLE
100
AcDbEllipse
 10
4.994199513207632
 20
10.35878981660451
 30
0.0
 11
2.214613228476098
 21
0.0
 31
0.0
210
0.0
220
0.0
230
-1.0
 40
0.5773502691896257
 41
1.695354855570963
 42
1.784437572994332
  0
ELLIPSE
  5
190
330
1F
100
AcDbEntity
  8
VISIBLE
100
AcDbEllipse
 10
3.345620880548279
 20
7.447630427936764
 30
0.0
 11
-0.04527559055118102
 21
-0.07841962317733131
 31
0.0
210
0.0
220
0.0
230
-1.0
 40
0.5773502691896226
 41
5.497787143782138
 42
7.068583470577036
  0
ELLIPSE
  5
191
330
1F
100
AcDbEntity
  8
VISIBLE
100
AcDbEllipse
 10
4.41414554291908
 20
7.480231065175309
 30
0.0
 11
0.566027272152855
 21
0.0
 31
0.0
210
0.0
220
0.0
230
-1.0
 40
0.5773502691896253
 41
3.926990816987239
 42
5.188427139715317
  0
ELLIPSE
  5
192
330
1F
100
AcDbEntity
  8
VISIBLE
100
AcDbEllipse
 10
4.41414554291908
 20
8.107711902171735
 30
0.0
 11
0.566027272152855
 21
0.0
 31
0.0
210
0.0
220
0.0
230
-1.0
 40
0.5773502691896253
 41
3.926990816987237
 42
5.188427139715316
  0
ELLIPSE
  5
193
330
1F
100
AcDbEntity
  8
VISIBLE
100
AcDbEllipse
 10
4.645695159344019
 20
8.076075630973655
 30
0.0
 11
-0.159448818897638
 21
0.0
 31
0.0
210
0.0
220
0.0
230
1.0
 40
0.577350269189623
 41
3.40657413964921
 42
6.018203821120149
  0
ELLIPSE
  5
194
330
1F
100
AcDbEntity
  8
VISIBLE
100
AcDbEllipse
 10
2.766572807765594
 20
7.811196425192376
 30
0.0
 11
-0.01968503937007871
 21
0.03409548833796983
 31
0.0
210
0.0
220
0.0
230
-1.0
 40
0.5773502691896233
 41
3.92699081698726
 42
5.497787143782136
  0
LINE
  5
195
330
1F
100
AcDbEntity
  8
VISIBLE
100
AcDbLine
 10
3.225913827040321
 20
9.233636334879458
 30
0.0
 11
3.225913827040321
 21
9.233957790226281
 31
0.0
  0
LINE
  5
196
330
1F
100
AcDbEntity
  8
VISIBLE
100
AcDbLine
 10
5.235331457071831
 20
8.143265261392132
 30
0.0
 11
5.235331457071831
 21
8.143586716738955
 31
0.0
  0
LINE
  5
197
330
1F
100
AcDbEntity
  8
VISIBLE
100
AcDbLine
 10
4.673534008997032
 20
7.818911353516103
 30
0.0
 11
4.673534008997032
 21
7.819232808862925
 31
0.0
  0
LINE
  5
198
330
1F
100
AcDbEntity
  8
VISIBLE
100
AcDbLine
 10
5.235331457071831
 20
8.722206341018445
 30
0.0
 11
4.673534008997032
 21
8.397852433142416
 31
0.0
  0
LINE
  5
199
330
1F
100
AcDbEntity
  8
VISIBLE
100
AcDbLine
 10
2.891847631204155
 20
7.707044892822069
 30
0.0
 11
2.766851196262124
 21
7.779211618183593
 31
0.0
  0
LINE
  5
19A
330
1F
100
AcDbEntity
  8
TANGENT_LINES
100
AcDbLine
 10
2.766851196262124
 20
7.779211618183593
 30
0.0
 11
2.766572807765594
 21
7.779050890510183
 31
0.0
  0
LINE
  5
19B
330
1F
100
AcDbEntity
  8
VISIBLE
100
AcDbLine
 10
2.739012346609111
 20
7.827429920206884
 30
0.0
 11
2.739012346609111
 21
8.036054440294324
 31
0.0
  0
LINE
  5
19C
330
1F
100
AcDbEntity
  8
TANGENT_LINES
100
AcDbLine
 10
2.73873395811258
 20
7.827269192533474
 30
0.0
 11
2.739012346609111
 21
7.827429920206884
 31
0.0
  0
LINE
  5
19D
330
1F
100
AcDbEntity
  8
VISIBLE
100
AcDbLine
 10
4.673534008997032
 20
8.397852433142416
 30
0.0
 11
4.673534008997032
 21
8.398173888489238
 31
0.0
  0
LINE
  5
19E
330
1F
100
AcDbEntity
  8
VISIBLE
100
AcDbLine
 10
3.281869914842877
 20
7.403936839668748
 30
0.0
 11
3.33965660597838
 21
7.370573677986087
 31
0.0
  0
LINE
  5
19F
330
1F
100
AcDbEntity
  8
VISIBLE
100
AcDbLine
 10
4.805143978241656
 20
8.124293932996945
 30
0.0
 11
4.805143978241656
 21
8.124615388343768
 31
0.0
  0
LINE
  5
1A0
330
1F
100
AcDbEntity
  8
VISIBLE
100
AcDbLine
 10
4.486246340446381
 20
8.124615388343768
 30
0.0
 11
4.486246340446381
 21
8.124293932996945
 31
0.0
  0
LINE
  5
1A1
330
1F
100
AcDbEntity
  8
VISIBLE
100
AcDbLine
 10
5.235331457071831
 20
8.143586716738955
 30
0.0
 11
4.673534008997032
 21
7.819232808862925
 31
0.0
  0
LINE
  5
1A2
330
1F
100
AcDbEntity
  8
VISIBLE
100
AcDbLine
 10
2.891847631204155
 20
7.706723437475246
 30
0.0
 11
2.766572807765594
 21
7.779050890510183
 31
0.0
  0
LINE
  5
1A3
330
1F
100
AcDbEntity
  8
VISIBLE
100
AcDbLine
 10
2.73873395811258
 20
7.827269192533474
 30
0.0
 11
2.73873395811258
 21
8.036215167967734
 31
0.0
  0
LINE
  5
1A4
330
1F
100
AcDbEntity
  8
VISIBLE
100
AcDbLine
 10
3.281869914842877
 20
7.915830140582917
 30
0.0
 11
4.013903820443272
 21
8.33847011303724
 31
0.0
  0
LINE
  5
1A5
330
1F
100
AcDbEntity
  8
VISIBLE
100
AcDbLine
 10
3.281591526346347
 20
7.336728333283194
 30
0.0
 11
4.013903820443272
 21
7.759529033410926
 31
0.0
  0
LINE
  5
1A6
330
1F
100
AcDbEntity
  8
TANGENT_LINES
100
AcDbLine
 10
4.013903820443272
 20
7.759529033410926
 30
0.0
 11
4.013903820443272
 21
7.759850488757748
 31
0.0
  0
LINE
  5
1A7
330
1F
100
AcDbEntity
  8
VISIBLE
100
AcDbLine
 10
5.235331457071831
 20
8.143265261392132
 30
0.0
 11
4.673534008997032
 21
7.818911353516103
 31
0.0
  0
LINE
  5
1A8
330
1F
100
AcDbEntity
  8
VISIBLE
100
AcDbLine
 10
3.281869914842877
 20
7.337210516303427
 30
0.0
 11
4.013903820443272
 21
7.759850488757748
 31
0.0
  0
LINE
  5
1A9
330
1F
100
AcDbEntity
  8
VISIBLE
100
AcDbLine
 10
3.281869914842877
 20
7.337210516303427
 30
0.0
 11
3.281869914842877
 21
7.915830140582917
 31
0.0
  0
LINE
  5
1AA
330
1F
100
AcDbEntity
  8
TANGENT_LINES
100
AcDbLine
 10
4.013903820443272
 20
8.33847011303724
 30
0.0
 11
4.013903820443272
 21
8.33879156838406
 31
0.0
  0
LINE
  5
1AB
330
1F
100
AcDbEntity
  8
VISIBLE
100
AcDbLine
 10
3.281591526346347
 20
7.336728333283194
 30
0.0
 11
3.281591526346347
 21
7.915990868256329
 31
0.0
  0
LINE
  5
1AC
330
1F
100
AcDbEntity
  8
VISIBLE
100
AcDbLine
 10
3.281591526346347
 20
7.915990868256329
 30
0.0
 11
4.013903820443272
 21
8.33879156838406
 31
0.0
  0
LINE
  5
1AD
330
1F
100
AcDbEntity
  8
VISIBLE
100
AcDbLine
 10
5.235331457071831
 20
8.722527796365268
 30
0.0
 11
4.673534008997032
 21
8.398173888489238
 31
0.0
  0
LINE
  5
1AE
330
1F
100
AcDbEntity
  8
VISIBLE
100
AcDbLine
 10
5.235331457071831
 20
8.722527796365268
 30
0.0
 11
5.235331457071831
 21
8.722206341018445
 31
0.0
  0
LINE
  5
1AF
330
1F
100
AcDbEntity
  8
VISIBLE
100
AcDbLine
 10
2.794411657418608
 20
8.663374549617338
 30
0.0
 11
2.971986761358988
 21
8.765897583678692
 31
0.0
  0
ELLIPSE
  5
1B0
330
1F
100
AcDbEntity
  8
VISIBLE
100
AcDbEllipse
 10
4.645695159344019
 20
8.124293932996945
 30
0.0
 11
-0.159448818897638
 21
0.0
 31
0.0
210
0.0
220
0.0
230
1.0
 40
0.577350269189623
 41
3.141592653589793
 42
6.283185307179586
  0
ELLIPSE
  5
1B1
330
1F
100
AcDbEntity
  8
VISIBLE
100
AcDbEllipse
 10
2.722818909071028
 20
9.08387833416467
 30
0.0
 11
-0.566027272152855
 21
0.0
 31
0.0
210
0.0
220
0.0
230
1.0
 40
0.5773502691896268
 41
3.215927236379398
 42
3.617630812920415
  0
ELLIPSE
  5
1B2
330
1F
100
AcDbEntity
  8
VISIBLE
100
AcDbEllipse
 10
3.754851970447581
 20
9.217563567538361
 30
0.0
 11
-0.2086614173228347
 21
0.0
 31
0.0
210
0.0
220
0.0
230
1.0
 40
0.5773502691896216
 41
3.344439605632488
 42
6.080338355136874
  0
ELLIPSE
  5
1B3
330
1F
100
AcDbEntity
  8
VISIBLE
100
AcDbEllipse
 10
4.645695159344019
 20
8.703235012623258
 30
0.0
 11
-0.2086614173228343
 21
0.0
 31
0.0
210
0.0
220
0.0
230
1.0
 40
0.5773502691896228
 41
3.344439605632518
 42
6.08033835513686
  0
ELLIPSE
  5
1B4
330
1F
100
AcDbEntity
  8
VISIBLE
100
AcDbEllipse
 10
4.41414554291908
 20
7.528449367198599
 30
0.0
 11
0.566027272152855
 21
0.0
 31
0.0
210
0.0
220
0.0
230
-1.0
 40
0.5773502691896253
 41
3.926990816987239
 42
5.188427139715317
  0
ELLIPSE
  5
1B5
330
1F
100
AcDbEntity
  8
VISIBLE
100
AcDbEllipse
 10
2.766851196262124
 20
7.811357152865788
 30
0.0
 11
0.01968503937007871
 21
-0.03409548833796983
 31
0.0
210
0.0
220
0.0
230
1.0
 40
0.5773502691896233
 41
3.926990816987249
 42
5.497787143782134
  0
ELLIPSE
  5
1B6
330
1F
100
AcDbEntity
  8
VISIBLE
100
AcDbEllipse
 10
4.41414554291908
 20
8.107390446824912
 30
0.0
 11
0.566027272152855
 21
0.0
 31
0.0
210
0.0
220
0.0
230
-1.0
 40
0.5773502691896253
 41
3.926990816987242
 42
5.188427139715313
  0
ELLIPSE
  5
1B7
330
1F
100
AcDbEntity
  8
VISIBLE
100
AcDbEllipse
 10
2.722818909071028
 20
9.08419978951149
 30
0.0
 11
-0.566027272152855
 21
0.0
 31
0.0
210
0.0
220
0.0
230
1.0
 40
0.5773502691896268
 41
3.215434054679633
 42
3.61763081292042
  0
ELLIPSE
  5
1B8
330
1F
100
AcDbEntity
  8
VISIBLE
100
AcDbEllipse
 10
4.645695159344019
 20
8.124615388343768
 30
0.0
 11
-0.1594488188976378
 21
8.455373458338330E-18
 31
0.0
210
0.0
220
0.0
230
1.0
 40
0.5773502691896258
 41
0.0
 42
6.283185307179586
  0
ELLIPSE
  5
1B9
330
1F
100
AcDbEntity
  8
VISIBLE
100
AcDbEllipse
 10
4.41414554291908
 20
7.528770822545422
 30
0.0
 11
0.566027272152855
 21
0.0
 31
0.0
210
0.0
220
0.0
230
-1.0
 40
0.5773502691896253
 41
3.926990816987239
 42
5.188427139715317
  0
ELLIPSE
  5
1BA
330
1F
100
AcDbEntity
  8
VISIBLE
100
AcDbEllipse
 10
4.645695159344019
 20
8.124615388343768
 30
0.0
 11
-0.590551181102362
 21
0.0
 31
0.0
210
0.0
220
0.0
230
1.0
 40
0.5773502691896255
 41
3.197263160760274
 42
4.490315367920195
  0
ELLIPSE
  5
1BB
330
1F
100
AcDbEntity
  8
VISIBLE
100
AcDbEllipse
 10
2.766572807765594
 20
7.811196425192376
 30
0.0
 11
-0.01968503937007871
 21
0.03409548833796983
 31
0.0
210
0.0
220
0.0
230
-1.0
 40
0.5773502691896233
 41
3.92699081698726
 42
5.497787143782136
  0
ELLIPSE
  5
1BC
330
1F
100
AcDbEntity
  8
VISIBLE
100
AcDbEllipse
 10
3.754851970447581
 20
9.217885022885184
 30
0.0
 11
-0.2086614173228347
 21
0.0
 31
0.0
210
0.0
220
0.0
230
1.0
 40
0.5773502691896216
 41
3.343077705275549
 42
6.081700255493859
  0
ELLIPSE
  5
1BD
330
1F
100
AcDbEntity
  8
VISIBLE
100
AcDbEllipse
 10
4.645695159344019
 20
8.703556467970081
 30
0.0
 11
-0.2086614173228343
 21
0.0
 31
0.0
210
0.0
220
0.0
230
1.0
 40
0.5773502691896228
 41
3.343077705275533
 42
6.081700255493845
  0
ELLIPSE
  5
1BE
330
1F
100
AcDbEntity
  8
VISIBLE
100
AcDbEllipse
 10
4.41414554291908
 20
8.107711902171735
 30
0.0
 11
0.566027272152855
 21
0.0
 31
0.0
210
0.0
220
0.0
230
-1.0
 40
0.5773502691896253
 41
3.926990816987237
 42
5.188427139715316
  0
LINE
  5
1C2
330
1F
100
AcDbEntity
  8
SHEETMETAL_BEND_LINES_UP
100
AcDbLine
 10
11.61924821478614
 20
5.916942617601731
 30
0.0
 11
11.61924821478614
 21
7.17678513728677
 31
0.0
  0
LINE
  5
1C3
330
1F
100
AcDbEntity
  8
SHEETMETAL_BEND_LINES_UP
100
AcDbLine
 10
10.906920692258
 20
5.916942617601731
 30
0.0
 11
10.906920692258
 21
7.17678513728677
 31
0.0
  0
CIRCLE
  5
1C4
330
1F
100
AcDbEntity
  8
VISIBLE
100
AcDbCircle
 10
-8.976347482175024
 20
7.17678513728677
 30
-0.0000000000000011
 40
0.2086614173228347
210
-1.224646799147352E-16
220
-7.585910097957279E-32
230
-1.0
  0
CIRCLE
  5
1C5
330
1F
100
AcDbEntity
  8
VISIBLE
100
AcDbCircle
 10
-8.976347482175028
 20
5.916942617601731
 30
-0.0000000000000011
 40
0.2086614173228347
210
-1.224646799147352E-16
220
-7.585910097957279E-32
230
-1.0
  0
CIRCLE
  5
1C6
330
1F
100
AcDbEntity
  8
VISIBLE
100
AcDbCircle
 10
13.54982142486911
 20
5.916942617601731
 30
0.0
 40
0.1594488188976378
  0
CIRCLE
  5
1C7
330
1F
100
AcDbEntity
  8
VISIBLE
100
AcDbCircle
 10
13.54982142486911
 20
7.17678513728677
 30
0.0
 40
0.1594488188976378
  0
LINE
  5
1C8
330
1F
100
AcDbEntity
  8
VISIBLE
100
AcDbLine
 10
11.52725768186852
 20
7.17678513728677
 30
0.0
 11
11.71123874770375
 21
7.17678513728677
 31
0.0
  0
LINE
  5
1C9
330
1F
100
AcDbEntity
  8
VISIBLE
100
AcDbLine
 10
11.40087972911262
 20
6.4090686018537
 30
0.0
 11
11.12528917793152
 21
6.4090686018537
 31
0.0
  0
LINE
  5
1CA
330
1F
100
AcDbEntity
  8
VISIBLE
100
AcDbLine
 10
11.44024980785278
 20
6.448438680593857
 30
0.0
 11
11.44024980785277
 21
6.645289074294644
 31
0.0
  0
LINE
  5
1CB
330
1F
100
AcDbEntity
  8
VISIBLE
100
AcDbLine
 10
12.40808914140454
 20
7.098044979806455
 30
0.0
 11
12.40808914140454
 21
7.117730019176534
 31
0.0
  0
LINE
  5
1CC
330
1F
100
AcDbEntity
  8
VISIBLE
100
AcDbLine
 10
11.71123874770375
 20
7.17678513728677
 30
0.0
 11
12.0734434721132
 21
7.17678513728677
 31
0.0
  0
LINE
  5
1CD
330
1F
100
AcDbEntity
  8
VISIBLE
100
AcDbLine
 10
11.71123874770375
 20
5.916942617601731
 30
0.0
 11
12.0734434721132
 21
5.916942617601731
 31
0.0
  0
LINE
  5
1CE
330
1F
100
AcDbEntity
  8
VISIBLE
100
AcDbLine
 10
12.13249859022344
 20
5.995682775082046
 30
0.0
 11
12.13249859022344
 21
5.975997735711967
 31
0.0
  0
LINE
  5
1CF
330
1F
100
AcDbEntity
  8
VISIBLE
100
AcDbLine
 10
10.11807976563959
 20
7.117730019176534
 30
0.0
 11
10.11807976563959
 21
7.098044979806455
 31
0.0
  0
LINE
  5
1D0
330
1F
100
AcDbEntity
  8
VISIBLE
100
AcDbLine
 10
11.08591909919136
 20
6.448438680593857
 30
0.0
 11
11.08591909919136
 21
6.645289074294644
 31
0.0
  0
LINE
  5
1D1
330
1F
100
AcDbEntity
  8
VISIBLE
100
AcDbLine
 10
10.81493015934038
 20
7.17678513728677
 30
0.0
 11
10.99891122517561
 21
7.17678513728677
 31
0.0
  0
LINE
  5
1D2
330
1F
100
AcDbEntity
  8
VISIBLE
100
AcDbLine
 10
13.98999228658166
 20
7.570485924688345
 30
0.0
 11
13.19549071620769
 21
7.570485924688345
 31
0.0
  0
LINE
  5
1D3
330
1F
100
AcDbEntity
  8
VISIBLE
100
AcDbLine
 10
11.52725768186852
 20
5.916942617601731
 30
0.0
 11
10.99891122517561
 21
5.916942617601731
 31
0.0
  0
LINE
  5
1D4
330
1F
100
AcDbEntity
  8
VISIBLE
100
AcDbLine
 10
10.05902464752935
 20
7.17678513728677
 30
0.0
 11
9.869835362238316
 21
7.17678513728677
 31
0.0
  0
LINE
  5
1D5
330
1F
100
AcDbEntity
  8
VISIBLE
100
AcDbLine
 10
8.536176620462468
 20
5.523241830200156
 30
0.0
 11
9.330678190836444
 21
5.523241830200156
 31
0.0
  0
LINE
  5
1D6
330
1F
100
AcDbEntity
  8
VISIBLE
100
AcDbLine
 10
8.536176620462468
 20
7.570485924688345
 30
0.0
 11
9.33067819083644
 21
7.570485924688345
 31
0.0
  0
LINE
  5
1D7
330
1F
100
AcDbEntity
  8
VISIBLE
100
AcDbLine
 10
10.39367031682069
 20
7.098044979806455
 30
0.0
 11
10.39367031682069
 21
7.117730019176534
 31
0.0
  0
LINE
  5
1D8
330
1F
100
AcDbEntity
  8
VISIBLE
100
AcDbLine
 10
12.46714425951478
 20
5.916942617601731
 30
0.0
 11
12.65633354480581
 21
5.916942617601731
 31
0.0
  0
LINE
  5
1D9
330
1F
100
AcDbEntity
  8
VISIBLE
100
AcDbLine
 10
10.81493015934038
 20
5.916942617601731
 30
0.0
 11
10.45272543493093
 21
5.916942617601731
 31
0.0
  0
LINE
  5
1DA
330
1F
100
AcDbEntity
  8
VISIBLE
100
AcDbLine
 10
12.40808914140454
 20
5.975997735711967
 30
0.0
 11
12.40808914140454
 21
5.995682775082046
 31
0.0
  0
LINE
  5
1DB
330
1F
100
AcDbEntity
  8
VISIBLE
100
AcDbLine
 10
13.98999228658166
 20
5.523241830200156
 30
0.0
 11
13.19549071620769
 21
5.523241830200156
 31
0.0
  0
LINE
  5
1DC
330
1F
100
AcDbEntity
  8
VISIBLE
100
AcDbLine
 10
10.3936703168207
 20
5.975997735711967
 30
0.0
 11
10.3936703168207
 21
5.995682775082046
 31
0.0
  0
LINE
  5
1DD
330
1F
100
AcDbEntity
  8
VISIBLE
100
AcDbLine
 10
10.05902464752936
 20
5.916942617601731
 30
0.0
 11
9.86983536223832
 21
5.916942617601731
 31
0.0
  0
LINE
  5
1DE
330
1F
100
AcDbEntity
  8
VISIBLE
100
AcDbLine
 10
10.11807976563959
 20
5.995682775082046
 30
0.0
 11
10.11807976563959
 21
5.975997735711967
 31
0.0
  0
LINE
  5
1DF
330
1F
100
AcDbEntity
  8
VISIBLE
100
AcDbLine
 10
11.71123874770375
 20
5.916942617601731
 30
0.0
 11
11.52725768186852
 21
5.916942617601731
 31
0.0
  0
LINE
  5
1E0
330
1F
100
AcDbEntity
  8
VISIBLE
100
AcDbLine
 10
11.40087972911262
 20
6.684659153034802
 30
0.0
 11
11.12528917793152
 21
6.684659153034802
 31
0.0
  0
LINE
  5
1E1
330
1F
100
AcDbEntity
  8
VISIBLE
100
AcDbLine
 10
11.52725768186852
 20
7.17678513728677
 30
0.0
 11
10.99891122517561
 21
7.17678513728677
 31
0.0
  0
LINE
  5
1E2
330
1F
100
AcDbEntity
  8
VISIBLE
100
AcDbLine
 10
12.46714425951478
 20
7.17678513728677
 30
0.0
 11
12.65633354480581
 21
7.17678513728677
 31
0.0
  0
LINE
  5
1E3
330
1F
100
AcDbEntity
  8
VISIBLE
100
AcDbLine
 10
12.13249859022344
 20
7.117730019176534
 30
0.0
 11
12.13249859022344
 21
7.098044979806455
 31
0.0
  0
LINE
  5
1E4
330
1F
100
AcDbEntity
  8
VISIBLE
100
AcDbLine
 10
10.81493015934038
 20
7.17678513728677
 30
0.0
 11
10.45272543493093
 21
7.17678513728677
 31
0.0
  0
LINE
  5
1E5
330
1F
100
AcDbEntity
  8
VISIBLE
100
AcDbLine
 10
10.99891122517561
 20
5.916942617601731
 30
0.0
 11
10.81493015934038
 21
5.916942617601731
 31
0.0
  0
ARC
  5
1E6
330
1F
100
AcDbEntity
  8
VISIBLE
100
AcDbCircle
 10
11.12528917793152
 20
6.448438680593857
 30
0.0
 40
0.0393700787401575
100
AcDbArc
 50
180.0
 51
270.0
  0
ARC
  5
1E7
330
1F
100
AcDbEntity
  8
VISIBLE
100
AcDbCircle
 10
11.40087972911262
 20
6.448438680593857
 30
0.0
 40
0.0393700787401575
100
AcDbArc
 50
270.0
 51
0.0
  0
ARC
  5
1E8
330
1F
100
AcDbEntity
  8
VISIBLE
100
AcDbCircle
 10
11.40087972911262
 20
6.645289074294644
 30
0.0
 40
0.0393700787401575
100
AcDbArc
 50
0.0
 51
90.0
  0
ARC
  5
1E9
330
1F
100
AcDbEntity
  8
VISIBLE
100
AcDbCircle
 10
12.46714425951478
 20
7.117730019176534
 30
0.0
 40
0.0590551181102362
100
AcDbArc
 50
90.0
 51
180.0
  0
ARC
  5
1EA
330
1F
100
AcDbEntity
  8
VISIBLE
100
AcDbCircle
 10
12.0734434721132
 20
7.117730019176534
 30
0.0
 40
0.0590551181102362
100
AcDbArc
 50
0.0
 51
90.0
  0
ARC
  5
1EB
330
1F
100
AcDbEntity
  8
VISIBLE
100
AcDbCircle
 10
12.46714425951478
 20
5.975997735711967
 30
0.0
 40
0.0590551181102362
100
AcDbArc
 50
180.0
 51
270.0
  0
ARC
  5
1EC
330
1F
100
AcDbEntity
  8
VISIBLE
100
AcDbCircle
 10
12.27029386581399
 20
5.995682775082046
 30
0.0
 40
0.1377952755905512
100
AcDbArc
 50
0.0
 51
180.0
  0
ARC
  5
1ED
330
1F
100
AcDbEntity
  8
VISIBLE
100
AcDbCircle
 10
-12.65633354480581
 20
5.350915345448877
 30
0.0
 40
0.5660272721528551
210
0.0
220
0.0
230
-1.0
100
AcDbArc
 50
90.0
 51
162.2749774168213
  0
ARC
  5
1EE
330
1F
100
AcDbEntity
  8
VISIBLE
100
AcDbCircle
 10
13.54982142486911
 20
5.916942617601731
 30
0.0
 40
0.5905511811023622
100
AcDbArc
 50
318.1896851042212
 51
37.86332199877261
  0
ARC
  5
1EF
330
1F
100
AcDbEntity
  8
VISIBLE
100
AcDbCircle
 10
6.761734253698949
 20
5.455031492590672
 30
0.0000000000000002
 40
2.214613228476071
100
AcDbArc
 50
32.7592582628571
 51
37.86332199877285
  0
ARC
  5
1F0
330
1F
100
AcDbEntity
  8
VISIBLE
100
AcDbCircle
 10
13.54982142486911
 20
7.17678513728677
 30
0.0
 40
0.5905511811023622
100
AcDbArc
 50
322.1366780012273
 51
41.81031489577876
  0
ARC
  5
1F1
330
1F
100
AcDbEntity
  8
VISIBLE
100
AcDbCircle
 10
8.458575112702924
 20
6.546863877444248
 30
0.0
 40
0.1968503937007874
100
AcDbArc
 50
327.2407417371423
 51
32.75925826285791
  0
ARC
  5
1F2
330
1F
100
AcDbEntity
  8
VISIBLE
100
AcDbCircle
 10
12.27029386581399
 20
7.098044979806455
 30
0.0
 40
0.1377952755905512
100
AcDbArc
 50
180.0
 51
0.0
  0
ARC
  5
1F3
330
1F
100
AcDbEntity
  8
VISIBLE
100
AcDbCircle
 10
10.45272543493093
 20
7.117730019176534
 30
0.0
 40
0.0590551181102362
100
AcDbArc
 50
90.0
 51
179.9999999999983
  0
ARC
  5
1F4
330
1F
100
AcDbEntity
  8
VISIBLE
100
AcDbCircle
 10
6.761734253698928
 20
7.638696262297837
 30
0.0000000000000002
 40
2.214613228476098
100
AcDbArc
 50
322.1366780012274
 51
327.2407417371429
  0
ARC
  5
1F5
330
1F
100
AcDbEntity
  8
VISIBLE
100
AcDbCircle
 10
12.0734434721132
 20
5.975997735711967
 30
0.0
 40
0.0590551181102362
100
AcDbArc
 50
270.0
 51
0.0
  0
ARC
  5
1F6
330
1F
100
AcDbEntity
  8
VISIBLE
100
AcDbCircle
 10
15.76443465334521
 20
7.638696262297845
 30
0.0
 40
2.214613228476106
100
AcDbArc
 50
212.759258262857
 51
217.8633219987726
  0
ARC
  5
1F7
330
1F
100
AcDbEntity
  8
VISIBLE
100
AcDbCircle
 10
-8.976347482175024
 20
7.17678513728677
 30
-0.000000000000001
 40
0.5905511811023622
210
-1.224646799147352E-16
220
-7.585910097957279E-32
230
-1.0
100
AcDbArc
 50
322.1366780012273
 51
41.81031489577859
  0
ARC
  5
1F8
330
1F
100
AcDbEntity
  8
VISIBLE
100
AcDbCircle
 10
9.86983536223832
 20
5.350915345448874
 30
0.0
 40
0.5660272721528551
100
AcDbArc
 50
90.0
 51
162.274977416821
  0
ARC
  5
1F9
330
1F
100
AcDbEntity
  8
VISIBLE
100
AcDbCircle
 10
11.12528917793152
 20
6.645289074294644
 30
0.0
 40
0.0393700787401575
100
AcDbArc
 50
90.0
 51
180.0
  0
ARC
  5
1FA
330
1F
100
AcDbEntity
  8
VISIBLE
100
AcDbCircle
 10
-8.976347482175028
 20
5.916942617601731
 30
-0.000000000000001
 40
0.5905511811023622
210
-1.224646799147352E-16
220
-7.585910097957279E-32
230
-1.0
100
AcDbArc
 50
318.1896851042215
 51
37.86332199877261
  0
ARC
  5
1FB
330
1F
100
AcDbEntity
  8
VISIBLE
100
AcDbCircle
 10
10.05902464752935
 20
7.117730019176534
 30
0.0
 40
0.0590551181102362
100
AcDbArc
 50
0.0000000000017234
 51
90.0
  0
ARC
  5
1FC
330
1F
100
AcDbEntity
  8
VISIBLE
100
AcDbCircle
 10
14.06759379434121
 20
6.546863877444251
 30
0.0
 40
0.1968503937007874
100
AcDbArc
 50
147.240741737143
 51
212.7592582628568
  0
ARC
  5
1FD
330
1F
100
AcDbEntity
  8
VISIBLE
100
AcDbCircle
 10
15.76443465334521
 20
5.455031492590656
 30
0.0
 40
2.214613228476106
100
AcDbArc
 50
142.1366780012273
 51
147.2407417371429
  0
ARC
  5
1FE
330
1F
100
AcDbEntity
  8
VISIBLE
100
AcDbCircle
 10
10.25587504123014
 20
7.098044979806455
 30
0.0
 40
0.1377952755905512
100
AcDbArc
 50
179.9999999999993
 51
0.0000000000007386
  0
ARC
  5
1FF
330
1F
100
AcDbEntity
  8
VISIBLE
100
AcDbCircle
 10
-9.869835362238316
 20
7.742812409439624
 30
-0.0000000000000012
 40
0.5660272721528551
210
-1.224646799147352E-16
220
-7.585910097957279E-32
230
-1.0
100
AcDbArc
 50
270.0
 51
342.2749774168213
  0
ARC
  5
200
330
1F
100
AcDbEntity
  8
VISIBLE
100
AcDbCircle
 10
12.65633354480581
 20
7.742812409439624
 30
0.0
 40
0.5660272721528551
100
AcDbArc
 50
270.0
 51
342.2749774168213
  0
ARC
  5
201
330
1F
100
AcDbEntity
  8
VISIBLE
100
AcDbCircle
 10
10.45272543493093
 20
5.975997735711967
 30
0.0
 40
0.0590551181102362
100
AcDbArc
 50
179.9999999999983
 51
270.0
  0
ARC
  5
202
330
1F
100
AcDbEntity
  8
VISIBLE
100
AcDbCircle
 10
10.05902464752936
 20
5.975997735711967
 30
0.0
 40
0.0590551181102362
100
AcDbArc
 50
270.0
 51
0.0000000000017234
  0
ARC
  5
203
330
1F
100
AcDbEntity
  8
VISIBLE
100
AcDbCircle
 10
10.25587504123015
 20
5.995682775082046
 30
0.0
 40
0.1377952755905512
100
AcDbArc
 50
0.0000000000007386
 51
179.9999999999993
  0
CIRCLE
  5
206
330
1F
100
AcDbEntity
  8
VISIBLE
100
AcDbCircle
 10
4.208994552074916
 20
1.444657884538254
 30
0.0
 40
0.2086614173228347
  0
CIRCLE
  5
207
330
1F
100
AcDbEntity
  8
VISIBLE
100
AcDbCircle
 10
4.208994552074916
 20
2.704500404223293
 30
0.0
 40
0.2086614173228347
  0
CIRCLE
  5
208
330
1F
100
AcDbEntity
  8
VISIBLE
100
AcDbCircle
 10
4.208994552074916
 20
2.704500404223293
 30
0.0
 40
0.1594488188976378
  0
CIRCLE
  5
209
330
1F
100
AcDbEntity
  8
VISIBLE
100
AcDbCircle
 10
4.208994552074916
 20
1.444657884538254
 30
0.0
 40
0.1594488188976378
  0
LINE
  5
20A
330
1F
100
AcDbEntity
  8
VISIBLE
100
AcDbLine
 10
3.126317386720585
 20
2.704500404223293
 30
0.0
 11
3.315506672011625
 21
2.704500404223293
 31
0.0
  0
LINE
  5
20B
330
1F
100
AcDbEntity
  8
VISIBLE
100
AcDbLine
 10
2.791671717429247
 20
1.50371300264849
 30
0.0
 11
2.791671717429247
 21
1.523398042018569
 31
0.0
  0
LINE
  5
20C
330
1F
100
AcDbEntity
  8
VISIBLE
100
AcDbLine
 10
3.067262268610349
 20
1.523398042018569
 30
0.0
 11
3.067262268610349
 21
1.50371300264849
 31
0.0
  0
LINE
  5
20D
330
1F
100
AcDbEntity
  8
VISIBLE
100
AcDbLine
 10
2.370411874909562
 20
1.444657884538254
 30
0.0
 11
2.73261659931901
 21
1.444657884538254
 31
0.0
  0
LINE
  5
20E
330
1F
100
AcDbEntity
  8
VISIBLE
100
AcDbLine
 10
3.126317386720585
 20
1.444657884538254
 30
0.0
 11
3.315506672011625
 21
1.444657884538254
 31
0.0
  0
LINE
  5
20F
330
1F
100
AcDbEntity
  8
TANGENT_LINES
100
AcDbLine
 10
2.370411874909562
 20
1.444657884538254
 30
0.0
 11
2.370411874909562
 21
2.704500404223293
 31
0.0
  0
LINE
  5
210
330
1F
100
AcDbEntity
  8
VISIBLE
100
AcDbLine
 10
2.220805575696963
 20
1.444657884538254
 30
0.0
 11
2.220805575696963
 21
2.704500404223293
 31
0.0
  0
LINE
  5
211
330
1F
100
AcDbEntity
  8
VISIBLE
100
AcDbLine
 10
2.791671717429247
 20
2.625760246742979
 30
0.0
 11
2.791671717429247
 21
2.645445286113057
 31
0.0
  0
LINE
  5
212
330
1F
100
AcDbEntity
  8
VISIBLE
100
AcDbLine
 10
4.649165413787473
 20
1.050957097136679
 30
0.0
 11
3.854663843413499
 21
1.050957097136679
 31
0.0
  0
LINE
  5
213
330
1F
100
AcDbEntity
  8
VISIBLE
100
AcDbLine
 10
3.067262268610349
 20
2.645445286113057
 30
0.0
 11
3.067262268610349
 21
2.625760246742979
 31
0.0
  0
LINE
  5
214
330
1F
100
AcDbEntity
  8
VISIBLE
100
AcDbLine
 10
4.649165413787473
 20
3.098201191624868
 30
0.0
 11
3.854663843413499
 21
3.098201191624868
 31
0.0
  0
LINE
  5
215
330
1F
100
AcDbEntity
  8
VISIBLE
100
AcDbLine
 10
2.370411874909562
 20
2.704500404223293
 30
0.0
 11
2.73261659931901
 21
2.704500404223293
 31
0.0
  0
ARC
  5
216
330
1F
100
AcDbEntity
  8
VISIBLE
100
AcDbCircle
 10
-2.929466993019798
 20
1.523398042018569
 30
0.0
 40
0.1377952755905512
210
0.0
220
0.0
230
-1.0
100
AcDbArc
 50
0.0
 51
180.0
  0
ARC
  5
217
330
1F
100
AcDbEntity
  8
VISIBLE
100
AcDbCircle
 10
-4.72676692154702
 20
2.074579144380774
 30
0.0
 40
0.1968503937007874
210
0.0
220
0.0
230
-1.0
100
AcDbArc
 50
327.240741737143
 51
32.75925826285687
  0
ARC
  5
218
330
1F
100
AcDbEntity
  8
VISIBLE
100
AcDbCircle
 10
4.208994552074916
 20
2.704500404223293
 30
0.0
 40
0.5905511811023622
100
AcDbArc
 50
322.1366780012273
 51
41.81031489577865
  0
ARC
  5
219
330
1F
100
AcDbEntity
  8
VISIBLE
100
AcDbCircle
 10
2.73261659931901
 20
2.645445286113057
 30
0.0
 40
0.0590551181102362
100
AcDbArc
 50
0.0
 51
90.0
  0
ARC
  5
21A
330
1F
100
AcDbEntity
  8
VISIBLE
100
AcDbCircle
 10
3.315506672011625
 20
3.270527676376147
 30
0.0
 40
0.5660272721528551
100
AcDbArc
 50
270.0
 51
342.2749774168211
  0
ARC
  5
21B
330
1F
100
AcDbEntity
  8
VISIBLE
100
AcDbCircle
 10
3.126317386720585
 20
2.645445286113057
 30
0.0
 40
0.0590551181102362
100
AcDbArc
 50
90.0
 51
180.0
  0
LINE
  5
21C
330
1F
100
AcDbEntity
  8
VISIBLE
100
AcDbLine
 10
2.220805575696963
 20
1.444657884538254
 30
0.0
 11
2.370411874909562
 21
1.444657884538254
 31
0.0
  0
LINE
  5
21D
330
1F
100
AcDbEntity
  8
VISIBLE
100
AcDbLine
 10
2.370411874909562
 20
2.704500404223293
 30
0.0
 11
2.220805575696963
 21
2.704500404223293
 31
0.0
  0
ARC
  5
21E
330
1F
100
AcDbEntity
  8
VISIBLE
100
AcDbCircle
 10
-6.423607780550995
 20
0.9827467595271989
 30
0.0
 40
2.214613228476071
210
0.0
220
0.0
230
-1.0
100
AcDbArc
 50
32.75925826285695
 51
37.86332199877274
  0
ARC
  5
21F
330
1F
100
AcDbEntity
  8
VISIBLE
100
AcDbCircle
 10
2.73261659931901
 20
1.50371300264849
 30
0.0
 40
0.0590551181102362
100
AcDbArc
 50
270.0
 51
0.0
  0
ARC
  5
220
330
1F
100
AcDbEntity
  8
VISIBLE
100
AcDbCircle
 10
-2.929466993019798
 20
2.625760246742979
 30
0.0
 40
0.1377952755905512
210
0.0
220
0.0
230
-1.0
100
AcDbArc
 50
180.0
 51
0.0
  0
ARC
  5
221
330
1F
100
AcDbEntity
  8
VISIBLE
100
AcDbCircle
 10
-6.423607780551018
 20
3.166411529234364
 30
0.0
 40
2.214613228476098
210
0.0
220
0.0
230
-1.0
100
AcDbArc
 50
322.1366780012274
 51
327.240741737143
  0
ARC
  5
222
330
1F
100
AcDbEntity
  8
VISIBLE
100
AcDbCircle
 10
4.208994552074916
 20
1.444657884538254
 30
0.0
 40
0.5905511811023622
100
AcDbArc
 50
318.1896851042213
 51
37.86332199877292
  0
ARC
  5
223
330
1F
100
AcDbEntity
  8
VISIBLE
100
AcDbCircle
 10
-3.315506672011625
 20
0.8786306123853996
 30
0.0
 40
0.5660272721528551
210
0.0
220
0.0
230
-1.0
100
AcDbArc
 50
90.0
 51
162.2749774168212
  0
ARC
  5
224
330
1F
100
AcDbEntity
  8
VISIBLE
100
AcDbCircle
 10
3.126317386720585
 20
1.50371300264849
 30
0.0
 40
0.0590551181102362
100
AcDbArc
 50
180.0
 51
270.0
  0
LINE
  5
227
330
1F
100
AcDbEntity
  8
VISIBLE
100
AcDbLine
 10
2.726433116343792
 20
5.10327137742354
 30
0.0
 11
2.726433116343792
 21
5.119344144764638
 31
0.0
  0
LINE
  5
228
330
1F
100
AcDbEntity
  8
VISIBLE
100
AcDbLine
 10
2.971971770283373
 20
6.569429214278406
 30
0.0
 11
3.228089187091099
 21
6.421559754740314
 31
0.0
  0
LINE
  5
229
330
1F
100
AcDbEntity
  8
TANGENT_LINES
100
AcDbLine
 10
2.930213495803852
 20
6.54532006326676
 30
0.0
 11
2.971971770283373
 21
6.569429214278406
 31
0.0
  0
LINE
  5
22A
330
1F
100
AcDbEntity
  8
TANGENT_LINES
100
AcDbLine
 10
2.802154787399989
 20
5.866021302699583
 30
0.0
 11
2.802154787399989
 21
6.54532006326676
 31
0.0
  0
LINE
  5
22B
330
1F
100
AcDbEntity
  8
VISIBLE
100
AcDbLine
 10
2.802154787399989
 20
6.54532006326676
 30
0.0
 11
2.428557425056546
 21
6.329623525549239
 31
0.0
  0
LINE
  5
22C
330
1F
100
AcDbEntity
  8
VISIBLE
100
AcDbLine
 10
2.672444126439869
 20
5.052128144916585
 30
0.0
 11
2.71420240091939
 21
5.07623729592823
 31
0.0
  0
LINE
  5
22D
330
1F
100
AcDbEntity
  8
VISIBLE
100
AcDbLine
 10
3.269847461570619
 20
6.349232301705378
 30
0.0
 11
3.269847461570619
 21
6.33315953436428
 31
0.0
  0
LINE
  5
22E
330
1F
100
AcDbEntity
  8
VISIBLE
100
AcDbLine
 10
2.740630929666829
 20
5.952739213544986
 30
0.0
 11
2.740630929666829
 21
6.075834529233318
 31
0.0
  0
LINE
  5
22F
330
1F
100
AcDbEntity
  8
VISIBLE
100
AcDbLine
 10
2.712792080013815
 20
6.091907296574415
 30
0.0
 11
2.706410758854784
 21
6.088223039085463
 31
0.0
  0
LINE
  5
230
330
1F
100
AcDbEntity
  8
TANGENT_LINES
100
AcDbLine
 10
3.228089187091099
 20
6.309050383352635
 30
0.0
 11
3.269847461570619
 21
6.33315953436428
 31
0.0
  0
LINE
  5
231
330
1F
100
AcDbEntity
  8
TANGENT_LINES
100
AcDbLine
 10
2.428557425056546
 20
6.255688795780193
 30
0.0
 11
2.428557425056546
 21
6.329623525549239
 31
0.0
  0
LINE
  5
232
330
1F
100
AcDbEntity
  8
VISIBLE
100
AcDbLine
 10
3.476950124566118
 20
6.263757011813008
 30
0.0
 11
3.435191850086597
 21
6.239647860801362
 31
0.0
  0
LINE
  5
233
330
1F
100
AcDbEntity
  8
TANGENT_LINES
100
AcDbLine
 10
2.428557425056546
 20
6.329623525549239
 30
0.0
 11
2.386799150577025
 21
6.353732676560885
 31
0.0
  0
LINE
  5
234
330
1F
100
AcDbEntity
  8
VISIBLE
100
AcDbLine
 10
2.342980480045878
 20
6.292656160664716
 30
0.0
 11
2.342980480045879
 21
5.263999050834509
 31
0.0
  0
LINE
  5
235
330
1F
100
AcDbEntity
  8
VISIBLE
100
AcDbLine
 10
3.506477683621236
 20
6.260832081329344
 30
0.0
 11
3.640254710178366
 21
6.183595879035197
 31
0.0
  0
LINE
  5
236
330
1F
100
AcDbEntity
  8
TANGENT_LINES
100
AcDbLine
 10
3.506477683621236
 20
6.260832081329344
 30
0.0
 11
3.464719409141715
 21
6.236722930317699
 31
0.0
  0
LINE
  5
237
330
1F
100
AcDbEntity
  8
TANGENT_LINES
100
AcDbLine
 10
2.684674841864272
 20
5.079162226411895
 30
0.0
 11
2.726433116343792
 21
5.10327137742354
 31
0.0
  0
LINE
  5
238
330
1F
100
AcDbEntity
  8
TANGENT_LINES
100
AcDbLine
 10
3.186330912611578
 20
6.397450603728668
 30
0.0
 11
3.228089187091099
 21
6.421559754740314
 31
0.0
  0
LINE
  5
239
330
1F
100
AcDbEntity
  8
TANGENT_LINES
100
AcDbLine
 10
2.726433116343792
 20
5.119344144764638
 30
0.0
 11
2.684674841864272
 21
5.095234993752991
 31
0.0
  0
LINE
  5
23A
330
1F
100
AcDbEntity
  8
VISIBLE
100
AcDbLine
 10
2.428557425056546
 20
6.255688795780193
 30
0.0
 11
2.684674841864272
 21
6.107819336242101
 31
0.0
  0
LINE
  5
23B
330
1F
100
AcDbEntity
  8
TANGENT_LINES
100
AcDbLine
 10
2.726433116343792
 20
6.035491883207165
 30
0.0
 11
2.684674841864272
 21
6.01138273219552
 31
0.0
  0
LINE
  5
23C
330
1F
100
AcDbEntity
  8
TANGENT_LINES
100
AcDbLine
 10
2.726433116343792
 20
6.019419115866067
 30
0.0
 11
2.684674841864272
 21
5.995309964854422
 31
0.0
  0
LINE
  5
23D
330
1F
100
AcDbEntity
  8
TANGENT_LINES
100
AcDbLine
 10
4.559959813589204
 20
4.871682743671294
 30
0.0
 11
4.601718088068725
 21
4.895791894682939
 31
0.0
  0
LINE
  5
23E
330
1F
100
AcDbEntity
  8
VISIBLE
100
AcDbLine
 10
2.684674841864272
 20
5.995309964854422
 30
0.0
 11
2.684674841864272
 21
6.01138273219552
 31
0.0
  0
LINE
  5
23F
330
1F
100
AcDbEntity
  8
VISIBLE
100
AcDbLine
 10
4.541535575797267
 20
5.936478173453314
 30
0.0
 11
3.979738127722469
 21
6.260832081329344
 31
0.0
  0
LINE
  5
240
330
1F
100
AcDbEntity
  8
VISIBLE
100
AcDbLine
 10
2.93353577933929
 20
5.950016593314795
 30
0.0
 11
2.89177750485977
 21
5.925907442303149
 31
0.0
  0
LINE
  5
241
330
1F
100
AcDbEntity
  8
VISIBLE
100
AcDbLine
 10
2.386799150577025
 20
5.202922534938342
 30
0.0
 11
2.642916567384751
 21
5.05505307540025
 31
0.0
  0
LINE
  5
242
330
1F
100
AcDbEntity
  8
VISIBLE
100
AcDbLine
 10
2.930213495803852
 20
6.54532006326676
 30
0.0
 11
3.186330912611578
 21
6.397450603728668
 31
0.0
  0
LINE
  5
243
330
1F
100
AcDbEntity
  8
VISIBLE
100
AcDbLine
 10
2.921305063914888
 20
5.922982511819486
 30
0.0
 11
3.055082090472019
 21
5.845746309525339
 31
0.0
  0
LINE
  5
244
330
1F
100
AcDbEntity
  8
TANGENT_LINES
100
AcDbLine
 10
3.269847461570619
 20
6.349232301705378
 30
0.0
 11
3.228089187091099
 21
6.325123150693732
 31
0.0
  0
LINE
  5
245
330
1F
100
AcDbEntity
  8
VISIBLE
100
AcDbLine
 10
2.684674841864272
 20
5.079162226411895
 30
0.0
 11
2.684674841864272
 21
5.095234993752991
 31
0.0
  0
LINE
  5
246
330
1F
100
AcDbEntity
  8
VISIBLE
100
AcDbLine
 10
4.541535575797267
 20
4.26491036997923
 30
0.0
 11
4.583293850276788
 21
4.289019520990875
 31
0.0
  0
LINE
  5
247
330
1F
100
AcDbEntity
  8
VISIBLE
100
AcDbLine
 10
4.039879505049961
 20
5.646846905966747
 30
0.0
 11
3.99812123057044
 21
5.622737754955102
 31
0.0
  0
LINE
  5
248
330
1F
100
AcDbEntity
  8
TANGENT_LINES
100
AcDbLine
 10
2.386799150577025
 20
5.202922534938342
 30
0.0
 11
2.386799150577025
 21
6.231579644768548
 31
0.0
  0
LINE
  5
249
330
1F
100
AcDbEntity
  8
VISIBLE
100
AcDbLine
 10
2.386799150577025
 20
6.231579644768548
 30
0.0
 11
2.642916567384751
 21
6.083710185230455
 31
0.0
  0
LINE
  5
24A
330
1F
100
AcDbEntity
  8
TANGENT_LINES
100
AcDbLine
 10
4.559959813589204
 20
5.308431322463673
 30
0.0
 11
4.601718088068725
 21
5.332540473475318
 31
0.0
  0
LINE
  5
24B
330
1F
100
AcDbEntity
  8
VISIBLE
100
AcDbLine
 10
2.879546789435368
 20
4.982725622365313
 30
0.0
 11
2.879546789435368
 21
4.966652855024216
 31
0.0
  0
LINE
  5
24C
330
1F
100
AcDbEntity
  8
TANGENT_LINES
100
AcDbLine
 10
4.058303742841897
 20
4.582051476184728
 30
0.0
 11
4.016545468362376
 21
4.557942325173083
 31
0.0
  0
LINE
  5
24D
330
1F
100
AcDbEntity
  8
VISIBLE
100
AcDbLine
 10
3.99812123057044
 20
5.622737754955102
 30
0.0
 11
3.436323782495642
 21
5.947091662831131
 31
0.0
  0
LINE
  5
24E
330
1F
100
AcDbEntity
  8
VISIBLE
100
AcDbLine
 10
3.99812123057044
 20
3.951169951481017
 30
0.0
 11
3.436323782495642
 21
4.275523859357047
 31
0.0
  0
LINE
  5
24F
330
1F
100
AcDbEntity
  8
TANGENT_LINES
100
AcDbLine
 10
2.802154787399989
 20
6.54532006326676
 30
0.0
 11
2.760396512920469
 21
6.569429214278406
 31
0.0
  0
LINE
  5
250
330
1F
100
AcDbEntity
  8
TANGENT_LINES
100
AcDbLine
 10
2.963063338394408
 20
5.947091662831131
 30
0.0
 11
2.921305063914888
 21
5.922982511819486
 31
0.0
  0
LINE
  5
251
330
1F
100
AcDbEntity
  8
VISIBLE
100
AcDbLine
 10
2.879546789435368
 20
5.898873360807841
 30
0.0
 11
2.879546789435368
 21
5.882800593466744
 31
0.0
  0
LINE
  5
252
330
1F
100
AcDbEntity
  8
VISIBLE
100
AcDbLine
 10
4.541535575797267
 20
4.26491036997923
 30
0.0
 11
4.081515451074906
 21
4.53050311282033
 31
0.0
  0
LINE
  5
253
330
1F
100
AcDbEntity
  8
VISIBLE
100
AcDbLine
 10
3.228089187091099
 20
6.325123150693732
 30
0.0
 11
3.228089187091099
 21
6.309050383352635
 31
0.0
  0
LINE
  5
254
330
1F
100
AcDbEntity
  8
VISIBLE
100
AcDbLine
 10
2.760396512920469
 20
6.569429214278406
 30
0.0
 11
2.386799150577025
 21
6.353732676560885
 31
0.0
  0
LINE
  5
255
330
1F
100
AcDbEntity
  8
TANGENT_LINES
100
AcDbLine
 10
3.598496435698846
 20
6.159486728023551
 30
0.0
 11
3.640254710178366
 21
6.183595879035197
 31
0.0
  0
LINE
  5
256
330
1F
100
AcDbEntity
  8
TANGENT_LINES
100
AcDbLine
 10
4.47935250412178
 20
5.223567094979463
 30
0.0
 11
4.521110778601301
 21
5.247676245991109
 31
0.0
  0
LINE
  5
257
330
1F
100
AcDbEntity
  8
VISIBLE
100
AcDbLine
 10
2.726433116343792
 20
6.019419115866067
 30
0.0
 11
2.726433116343792
 21
6.035491883207165
 31
0.0
  0
LINE
  5
258
330
1F
100
AcDbEntity
  8
VISIBLE
100
AcDbLine
 10
4.039879505049961
 20
5.646846905966747
 30
0.0
 11
3.478082056975162
 21
5.971200813842777
 31
0.0
  0
LINE
  5
259
330
1F
100
AcDbEntity
  8
VISIBLE
100
AcDbLine
 10
3.422961134662195
 20
6.196541011964956
 30
0.0
 11
3.422961134662195
 21
6.212613779306054
 31
0.0
  0
LINE
  5
25A
330
1F
100
AcDbEntity
  8
VISIBLE
100
AcDbLine
 10
3.464719409141715
 20
6.236722930317699
 30
0.0
 11
3.598496435698846
 21
6.159486728023551
 31
0.0
  0
LINE
  5
25B
330
1F
100
AcDbEntity
  8
TANGENT_LINES
100
AcDbLine
 10
2.642916567384751
 20
6.083710185230455
 30
0.0
 11
2.684674841864272
 21
6.107819336242101
 31
0.0
  0
LINE
  5
25C
330
1F
100
AcDbEntity
  8
TANGENT_LINES
100
AcDbLine
 10
4.058303742841898
 20
5.018800054977106
 30
0.0
 11
4.016545468362377
 21
4.99469090396546
 31
0.0
  0
LINE
  5
25D
330
1F
100
AcDbEntity
  8
VISIBLE
100
AcDbLine
 10
4.541535575797267
 20
5.936478173453314
 30
0.0
 11
4.583293850276788
 21
5.96058732446496
 31
0.0
  0
LINE
  5
25E
330
1F
100
AcDbEntity
  8
TANGENT_LINES
100
AcDbLine
 10
2.428557425056546
 20
6.255688795780193
 30
0.0
 11
2.386799150577025
 21
6.231579644768548
 31
0.0
  0
LINE
  5
25F
330
1F
100
AcDbEntity
  8
VISIBLE
100
AcDbLine
 10
4.583293850276788
 20
5.96058732446496
 30
0.0
 11
4.021496402201989
 21
6.284941232340989
 31
0.0
  0
LINE
  5
260
330
1F
100
AcDbEntity
  8
TANGENT_LINES
100
AcDbLine
 10
3.096840364951539
 20
5.869855460536984
 30
0.0
 11
3.055082090472019
 21
5.845746309525339
 31
0.0
  0
LINE
  5
261
330
1F
100
AcDbEntity
  8
TANGENT_LINES
100
AcDbLine
 10
2.740630929666829
 20
6.075834529233318
 30
0.0
 11
2.712792080013815
 21
6.091907296574415
 31
0.0
  0
LINE
  5
262
330
1F
100
AcDbEntity
  8
TANGENT_LINES
100
AcDbLine
 10
2.930213495803852
 20
5.948098472021286
 30
0.0
 11
2.930213495803852
 21
6.54532006326676
 31
0.0
  0
LINE
  5
263
330
1F
100
AcDbEntity
  8
VISIBLE
100
AcDbLine
 10
3.979738127722469
 20
6.260832081329344
 30
0.0
 11
4.021496402201989
 21
6.284941232340989
 31
0.0
  0
LINE
  5
264
330
1F
100
AcDbEntity
  8
TANGENT_LINES
100
AcDbLine
 10
3.977696433374474
 20
4.759993007308274
 30
0.0
 11
3.935938158894953
 21
4.735883856296629
 31
0.0
  0
LINE
  5
265
330
1F
100
AcDbEntity
  8
VISIBLE
100
AcDbLine
 10
4.039879505049961
 20
3.975279102492662
 30
0.0
 11
3.99812123057044
 21
3.951169951481017
 31
0.0
  0
LINE
  5
266
330
1F
100
AcDbEntity
  8
VISIBLE
100
AcDbLine
 10
2.921305063914888
 20
4.894325401989279
 30
0.0
 11
3.055082090472019
 21
4.817089199695133
 31
0.0
  0
LINE
  5
267
330
1F
100
AcDbEntity
  8
VISIBLE
100
AcDbLine
 10
2.963063338394408
 20
5.947091662831131
 30
0.0
 11
3.096840364951539
 21
5.869855460536984
 31
0.0
  0
LINE
  5
268
330
1F
100
AcDbEntity
  8
VISIBLE
100
AcDbLine
 10
3.478082056975162
 20
5.971200813842777
 30
0.0
 11
3.436323782495642
 21
5.947091662831131
 31
0.0
  0
LINE
  5
269
330
1F
100
AcDbEntity
  8
TANGENT_LINES
100
AcDbLine
 10
3.977696433374474
 20
4.933935827492895
 30
0.0
 11
3.935938158894953
 21
4.90982667648125
 31
0.0
  0
LINE
  5
26A
330
1F
100
AcDbEntity
  8
TANGENT_LINES
100
AcDbLine
 10
4.47935250412178
 20
5.049624274794841
 30
0.0
 11
4.521110778601301
 21
5.073733425806487
 31
0.0
  0
ELLIPSE
  5
26B
330
1F
100
AcDbEntity
  8
VISIBLE
100
AcDbEllipse
 10
2.684674841864272
 20
5.127380528435186
 30
0.0
 11
-0.02952755905511805
 21
0.05114323250695474
 31
0.0
210
0.0
220
0.0
230
-1.0
 40
0.577350269189627
 41
2.356194490192363
 42
3.141592653589793
  0
ELLIPSE
  5
26C
330
1F
100
AcDbEntity
  8
VISIBLE
100
AcDbEllipse
 10
2.492586779258477
 20
5.26399905083451
 30
0.0
 11
-0.1496062992125986
 21
0.0
 31
0.0
210
0.0
220
0.0
230
1.0
 40
0.5773502691896268
 41
0.0
 42
0.785398163397448
  0
ELLIPSE
  5
26D
330
1F
100
AcDbEntity
  8
VISIBLE
100
AcDbEllipse
 10
2.712792080013815
 20
6.05976176189222
 30
0.0
 11
0.01968503937007871
 21
0.03409548833796983
 31
0.0
210
0.0
220
0.0
230
1.0
 40
0.5773502691896233
 41
5.497787143782129
 42
7.068583470577039
  0
ELLIPSE
  5
26E
330
1F
100
AcDbEntity
  8
VISIBLE
100
AcDbEllipse
 10
4.272046049079113
 20
4.790173869618971
 30
0.0
 11
0.07972440944881853
 21
-0.1380867277687789
 31
0.0
210
0.0
220
0.0
230
1.0
 40
0.577350269189623
 41
3.406574139649258
 42
6.018203821120135
  0
ELLIPSE
  5
26F
330
1F
100
AcDbEntity
  8
VISIBLE
100
AcDbEllipse
 10
3.367283435356167
 20
6.276904848670442
 30
0.0
 11
0.06889763779527547
 21
-0.1193342091828953
 31
0.0
210
0.0
220
0.0
230
1.0
 40
0.5773502691896247
 41
3.926990816987243
 42
5.975298215607602
  0
ELLIPSE
  5
270
330
1F
100
AcDbEntity
  8
VISIBLE
100
AcDbEllipse
 10
2.684674841864272
 20
6.05960103421881
 30
0.0
 11
-0.02952755905511805
 21
0.05114323250695474
 31
0.0
210
0.0
220
0.0
230
-1.0
 40
0.577350269189627
 41
0.7853981633974492
 42
2.356194490192358
  0
ELLIPSE
  5
271
330
1F
100
AcDbEntity
  8
VISIBLE
100
AcDbEllipse
 10
2.963063338394408
 20
5.898873360807841
 30
0.0
 11
-0.02952755905511805
 21
0.05114323250695474
 31
0.0
210
0.0
220
0.0
230
-1.0
 40
0.577350269189627
 41
6.283185307179586
 42
7.068583470577035
  0
ELLIPSE
  5
272
330
1F
100
AcDbEntity
  8
VISIBLE
100
AcDbEllipse
 10
4.272046049079113
 20
4.790173869618971
 30
0.0
 11
0.2952755905511815
 21
-0.5114323250695501
 31
0.0
210
0.0
220
0.0
230
1.0
 40
0.5773502691896263
 41
0.0556705071704835
 42
1.446237798018832
  0
ELLIPSE
  5
273
330
1F
100
AcDbEntity
  8
VISIBLE
100
AcDbEllipse
 10
4.638166402643865
 20
5.093122739847664
 30
0.0
 11
0.09842519685039353
 21
-0.17047744168985
 31
0.0
210
0.0
220
0.0
230
1.0
 40
0.5773502691896254
 41
3.355233899789224
 42
4.498747734185251
  0
ELLIPSE
  5
274
330
1F
100
AcDbEntity
  8
VISIBLE
100
AcDbEllipse
 10
3.640254710178366
 20
6.64575521145985
 30
0.0
 11
0.2830136360764275
 21
-0.4901939969191806
 31
0.0
210
0.0
220
0.0
230
1.0
 40
0.5773502691896261
 41
5.497787143782135
 42
6.209343906089711
  0
ELLIPSE
  5
275
330
1F
100
AcDbEntity
  8
VISIBLE
100
AcDbEllipse
 10
3.728631703852285
 20
5.505090560950965
 30
0.0
 11
0.295275590551181
 21
-0.5114323250695501
 31
0.0
210
0.0
220
0.0
230
1.0
 40
0.5773502691896258
 41
0.124558528776065
 42
1.515125819624414
  0
ELLIPSE
  5
276
330
1F
100
AcDbEntity
  8
VISIBLE
100
AcDbEllipse
 10
2.866184141601921
 20
6.508352698382237
 30
0.0
 11
0.09055118110236204
 21
0.0
 31
0.0
210
0.0
220
0.0
230
-1.0
 40
0.5773502691896221
 41
3.926990816987247
 42
5.49778714378213
  0
ELLIPSE
  5
277
330
1F
100
AcDbEntity
  8
VISIBLE
100
AcDbEllipse
 10
3.686873429372765
 20
5.480981409939319
 30
0.0
 11
0.1043307086614173
 21
-0.1807060881912411
 31
0.0
210
0.0
220
0.0
230
1.0
 40
0.577350269189626
 41
0.0
 42
6.283185307179586
  0
ELLIPSE
  5
278
330
1F
100
AcDbEntity
  8
VISIBLE
100
AcDbEllipse
 10
5.838014080640002
 20
5.291867769149173
 30
0.0
 11
1.107306614238054
 21
-1.917911315417379
 31
0.0
210
0.0
220
0.0
230
1.0
 40
0.577350269189626
 41
4.498747734185255
 42
4.587830451608623
  0
ELLIPSE
  5
279
330
1F
100
AcDbEntity
  8
VISIBLE
100
AcDbEllipse
 10
3.598496435698846
 20
6.621646060448205
 30
0.0
 11
0.2830136360764275
 21
-0.4901939969191806
 31
0.0
210
0.0
220
0.0
230
1.0
 40
0.5773502691896261
 41
5.497787143782135
 42
6.759223466510216
  0
ELLIPSE
  5
27A
330
1F
100
AcDbEntity
  8
VISIBLE
100
AcDbEllipse
 10
3.506477683621235
 20
6.212613779306054
 30
0.0
 11
-0.02952755905511805
 21
0.05114323250695474
 31
0.0
210
0.0
220
0.0
230
-1.0
 40
0.577350269189627
 41
6.283185307179586
 42
7.068583470577035
  0
ELLIPSE
  5
27B
330
1F
100
AcDbEntity
  8
VISIBLE
100
AcDbEllipse
 10
5.796255806160481
 20
5.267758618137527
 30
0.0
 11
1.107306614238054
 21
-1.917911315417379
 31
0.0
210
0.0
220
0.0
230
1.0
 40
0.577350269189626
 41
4.498747734185255
 42
4.587830451608623
  0
ELLIPSE
  5
27C
330
1F
100
AcDbEntity
  8
VISIBLE
100
AcDbEllipse
 10
3.055082090472019
 20
4.35492986727048
 30
0.0
 11
-0.2830136360764275
 21
0.4901939969191806
 31
0.0
210
0.0
220
0.0
230
-1.0
 40
0.5773502691896261
 41
0.7853981633974491
 42
2.046834486125527
  0
ELLIPSE
  5
27D
330
1F
100
AcDbEntity
  8
VISIBLE
100
AcDbEllipse
 10
2.921305063914888
 20
4.942543704012571
 30
0.0
 11
0.02952755905511805
 21
-0.05114323250695474
 31
0.0
210
0.0
220
0.0
230
1.0
 40
0.577350269189627
 41
3.926990816987245
 42
5.497787143782135
  0
ELLIPSE
  5
27E
330
1F
100
AcDbEntity
  8
VISIBLE
100
AcDbEllipse
 10
3.686873429372765
 20
4.452324300109113
 30
0.0
 11
0.295275590551181
 21
-0.5114323250695501
 31
0.0
210
0.0
220
0.0
230
1.0
 40
0.5773502691896258
 41
0.0556705071704805
 42
1.446237798018834
  0
ELLIPSE
  5
27F
330
1F
100
AcDbEntity
  8
VISIBLE
100
AcDbEllipse
 10
5.796255806160481
 20
3.484803799779277
 30
0.0
 11
1.107306614238054
 21
-1.917911315417379
 31
0.0
210
0.0
220
0.0
230
1.0
 40
0.5773502691896261
 41
3.266151182365854
 42
3.355233899789225
  0
ELLIPSE
  5
280
330
1F
100
AcDbEntity
  8
VISIBLE
100
AcDbEllipse
 10
3.186330912611578
 20
6.349232301705378
 30
0.0
 11
0.02952755905511805
 21
-0.05114323250695474
 31
0.0
210
0.0
220
0.0
230
1.0
 40
0.577350269189627
 41
0.7853981633974535
 42
2.356194490192355
  0
ELLIPSE
  5
281
330
1F
100
AcDbEntity
  8
VISIBLE
100
AcDbEllipse
 10
4.052993782937516
 20
4.755273170337806
 30
0.0
 11
-0.09842519685039353
 21
0.17047744168985
 31
0.0
210
0.0
220
0.0
230
-1.0
 40
0.5773502691896254
 41
4.926030226584123
 42
6.069544060980148
  0
ELLIPSE
  5
282
330
1F
100
AcDbEntity
  8
VISIBLE
100
AcDbEllipse
 10
3.686873429372765
 20
5.480981409939319
 30
0.0
 11
0.295275590551181
 21
-0.5114323250695501
 31
0.0
210
0.0
220
0.0
230
1.0
 40
0.5773502691896258
 41
0.124558528776065
 42
1.515125819624415
  0
ELLIPSE
  5
283
330
1F
100
AcDbEntity
  8
VISIBLE
100
AcDbEllipse
 10
5.252841460933634
 20
3.17106338128109
 30
0.0
 11
-1.107306614238036
 21
1.917911315417348
 31
0.0
210
0.0
220
0.0
230
-1.0
 40
0.577350269189626
 41
6.069544060980149
 42
6.15862677840352
  0
ELLIPSE
  5
284
330
1F
100
AcDbEntity
  8
VISIBLE
100
AcDbEllipse
 10
4.230287774599592
 20
4.766064718607326
 30
0.0
 11
0.07972440944881889
 21
-0.1380867277687786
 31
0.0
210
0.0
220
0.0
230
1.0
 40
0.577350269189626
 41
0.0
 42
6.283185307179586
  0
ELLIPSE
  5
285
330
1F
100
AcDbEntity
  8
VISIBLE
100
AcDbEllipse
 10
2.492586779258477
 20
6.292656160664715
 30
0.0
 11
0.1496062992125986
 21
0.0
 31
0.0
210
0.0
220
0.0
230
-1.0
 40
0.5773502691896268
 41
2.356194490192348
 42
3.926990816987238
  0
ELLIPSE
  5
286
330
1F
100
AcDbEntity
  8
VISIBLE
100
AcDbEllipse
 10
3.686873429372765
 20
4.452324300109113
 30
0.0
 11
0.1043307086614173
 21
-0.1807060881912411
 31
0.0
210
0.0
220
0.0
230
1.0
 40
0.577350269189626
 41
0.0
 42
6.283185307179586
  0
ELLIPSE
  5
287
330
1F
100
AcDbEntity
  8
VISIBLE
100
AcDbEllipse
 10
4.230287774599592
 20
5.794721828437532
 30
0.0
 11
0.07972440944881889
 21
-0.1380867277687786
 31
0.0
210
0.0
220
0.0
230
1.0
 40
0.577350269189626
 41
0.0
 42
6.283185307179586
  0
ELLIPSE
  5
288
330
1F
100
AcDbEntity
  8
VISIBLE
100
AcDbEllipse
 10
2.82386909012934
 20
5.063089459070798
 30
0.0
 11
-0.06889763779527547
 21
0.1193342091828953
 31
0.0
210
0.0
220
0.0
230
-1.0
 40
0.5773502691896247
 41
5.497787143782128
 42
5.97529821560765
  0
ELLIPSE
  5
289
330
1F
100
AcDbEntity
  8
VISIBLE
100
AcDbEllipse
 10
4.272046049079113
 20
5.818830979449178
 30
0.0
 11
0.2952755905511815
 21
-0.5114323250695501
 31
0.0
210
0.0
220
0.0
230
1.0
 40
0.5773502691896263
 41
0.124558528776067
 42
1.515125819624415
  0
ELLIPSE
  5
28A
330
1F
100
AcDbEntity
  8
VISIBLE
100
AcDbEllipse
 10
3.728631703852285
 20
4.476433451120758
 30
0.0
 11
0.295275590551181
 21
-0.5114323250695501
 31
0.0
210
0.0
220
0.0
230
1.0
 40
0.5773502691896258
 41
0.0556705071704827
 42
1.446237798018834
  0
ELLIPSE
  5
28B
330
1F
100
AcDbEntity
  8
VISIBLE
100
AcDbEllipse
 10
2.64291656738475
 20
5.10327137742354
 30
0.0
 11
0.02952755905511805
 21
-0.05114323250695474
 31
0.0
210
0.0
220
0.0
230
1.0
 40
0.577350269189627
 41
5.497787143782135
 42
7.06858347057702
  0
ELLIPSE
  5
28C
330
1F
100
AcDbEntity
  8
VISIBLE
100
AcDbEllipse
 10
5.252841460933651
 20
4.954018199639313
 30
0.0
 11
-1.107306614238049
 21
1.917911315417372
 31
0.0
210
0.0
220
0.0
230
-1.0
 40
0.5773502691896257
 41
4.836947509160754
 42
4.926030226584125
  0
ELLIPSE
  5
28D
330
1F
100
AcDbEntity
  8
VISIBLE
100
AcDbEllipse
 10
2.78211081564982
 20
5.939055279160582
 30
0.0
 11
-0.06889763779527547
 21
0.1193342091828953
 31
0.0
210
0.0
220
0.0
230
-1.0
 40
0.5773502691896247
 41
2.356194490192336
 42
5.497787143782134
  0
ELLIPSE
  5
28E
330
1F
100
AcDbEntity
  8
VISIBLE
100
AcDbEllipse
 10
2.866184141601921
 20
6.508352698382237
 30
0.0
 11
0.1496062992125986
 21
0.0
 31
0.0
210
0.0
220
0.0
230
-1.0
 40
0.5773502691896268
 41
3.926990816987238
 42
5.497787143782129
  0
ELLIPSE
  5
28F
330
1F
100
AcDbEntity
  8
VISIBLE
100
AcDbEllipse
 10
2.492586779258477
 20
6.292656160664715
 30
0.0
 11
0.09055118110236204
 21
0.0
 31
0.0
210
0.0
220
0.0
230
-1.0
 40
0.5773502691896221
 41
2.356194490192342
 42
3.926990816987247
  0
ELLIPSE
  5
290
330
1F
100
AcDbEntity
  8
VISIBLE
100
AcDbEllipse
 10
2.921305063914888
 20
5.874764209796195
 30
0.0
 11
0.02952755905511805
 21
-0.05114323250695474
 31
0.0
210
0.0
220
0.0
230
1.0
 40
0.577350269189627
 41
2.356194490192323
 42
3.926990816987245
  0
ELLIPSE
  5
291
330
1F
100
AcDbEntity
  8
VISIBLE
100
AcDbEllipse
 10
5.294599735413155
 20
3.195172532292736
 30
0.0
 11
-1.107306614238035
 21
1.917911315417348
 31
0.0
210
0.0
220
0.0
230
-1.0
 40
0.5773502691896262
 41
6.069544060980149
 42
6.158626778403522
  0
ELLIPSE
  5
292
330
1F
100
AcDbEntity
  8
VISIBLE
100
AcDbEllipse
 10
3.728631703852285
 20
5.505090560950965
 30
0.0
 11
0.1043307086614171
 21
-0.1807060881912408
 31
0.0
210
0.0
220
0.0
230
1.0
 40
0.577350269189625
 41
3.343077705275578
 42
6.081700255493822
  0
ELLIPSE
  5
293
330
1F
100
AcDbEntity
  8
VISIBLE
100
AcDbEllipse
 10
4.230287774599592
 20
5.794721828437532
 30
0.0
 11
0.2952755905511815
 21
-0.5114323250695501
 31
0.0
210
0.0
220
0.0
230
1.0
 40
0.5773502691896263
 41
0.124558528776067
 42
1.515125819624416
  0
ELLIPSE
  5
294
330
1F
100
AcDbEntity
  8
VISIBLE
100
AcDbEllipse
 10
3.728631703852285
 20
4.476433451120758
 30
0.0
 11
0.1043307086614171
 21
-0.1807060881912408
 31
0.0
210
0.0
220
0.0
230
1.0
 40
0.577350269189625
 41
3.343077705275545
 42
6.081700255493818
  0
ELLIPSE
  5
295
330
1F
100
AcDbEntity
  8
VISIBLE
100
AcDbEllipse
 10
4.596408128164343
 20
5.069013588836019
 30
0.0
 11
0.09842519685039353
 21
-0.17047744168985
 31
0.0
210
0.0
220
0.0
230
1.0
 40
0.5773502691896254
 41
3.355233899789224
 42
4.498747734185251
  0
ELLIPSE
  5
296
330
1F
100
AcDbEntity
  8
VISIBLE
100
AcDbEllipse
 10
3.325525160876647
 20
6.252795697658796
 30
0.0
 11
0.06889763779527547
 21
-0.1193342091828953
 31
0.0
210
0.0
220
0.0
230
1.0
 40
0.5773502691896247
 41
3.926990816987235
 42
7.068583470577044
  0
ELLIPSE
  5
297
330
1F
100
AcDbEntity
  8
VISIBLE
100
AcDbEllipse
 10
3.228089187091099
 20
6.373341452717024
 30
0.0
 11
-0.02952755905511805
 21
0.05114323250695474
 31
0.0
210
0.0
220
0.0
230
-1.0
 40
0.577350269189627
 41
0.7853981633974282
 42
2.35619449019234
  0
ELLIPSE
  5
298
330
1F
100
AcDbEntity
  8
VISIBLE
100
AcDbEllipse
 10
4.230287774599592
 20
4.766064718607326
 30
0.0
 11
0.2952755905511815
 21
-0.5114323250695501
 31
0.0
210
0.0
220
0.0
230
1.0
 40
0.5773502691896263
 41
0.0556705071704812
 42
1.44623779801883
  0
ELLIPSE
  5
299
330
1F
100
AcDbEntity
  8
VISIBLE
100
AcDbEllipse
 10
3.055082090472019
 20
6.307905641949992
 30
0.0
 11
0.2830136360764275
 21
-0.4901939969191806
 31
0.0
210
0.0
220
0.0
230
1.0
 40
0.5773502691896261
 41
5.497787143782135
 42
6.759223466510213
  0
ELLIPSE
  5
29A
330
1F
100
AcDbEntity
  8
VISIBLE
100
AcDbEllipse
 10
4.272046049079113
 20
5.818830979449178
 30
0.0
 11
0.07972440944881853
 21
-0.1380867277687789
 31
0.0
210
0.0
220
0.0
230
1.0
 40
0.577350269189623
 41
3.406574139649258
 42
6.018203821120122
  0
ELLIPSE
  5
29B
330
1F
100
AcDbEntity
  8
VISIBLE
100
AcDbEllipse
 10
3.464719409141715
 20
6.188504628294409
 30
0.0
 11
0.02952755905511805
 21
-0.05114323250695474
 31
0.0
210
0.0
220
0.0
230
1.0
 40
0.577350269189627
 41
2.356194490192344
 42
3.926990816987245
  0
ELLIPSE
  5
29C
330
1F
100
AcDbEntity
  8
VISIBLE
100
AcDbEllipse
 10
2.82386909012934
 20
5.963164430172228
 30
0.0
 11
-0.06889763779527547
 21
0.1193342091828953
 31
0.0
210
0.0
220
0.0
230
-1.0
 40
0.5773502691896247
 41
3.44947974516176
 42
5.497787143782134
  0
ELLIPSE
  5
29D
330
1F
100
AcDbEntity
  8
VISIBLE
100
AcDbEllipse
 10
2.78211081564982
 20
5.038980308059152
 30
0.0
 11
-0.06889763779527547
 21
0.1193342091828953
 31
0.0
210
0.0
220
0.0
230
-1.0
 40
0.5773502691896247
 41
5.497787143782128
 42
8.639379797371939
  0
ELLIPSE
  5
29E
330
1F
100
AcDbEntity
  8
VISIBLE
100
AcDbEllipse
 10
4.094752057417037
 20
4.779382321349451
 30
0.0
 11
-0.09842519685039353
 21
0.17047744168985
 31
0.0
210
0.0
220
0.0
230
-1.0
 40
0.5773502691896254
 41
4.926030226584128
 42
6.069544060980149
  0
ELLIPSE
  5
29F
330
1F
100
AcDbEntity
  8
VISIBLE
100
AcDbEllipse
 10
3.096840364951539
 20
6.332014792961638
 30
0.0
 11
0.2830136360764275
 21
-0.4901939969191806
 31
0.0
210
0.0
220
0.0
230
1.0
 40
0.5773502691896261
 41
5.497787143782135
 42
6.209343906089772
  0
ELLIPSE
  5
2A0
330
1F
100
AcDbEntity
  8
VISIBLE
100
AcDbEllipse
 10
5.294599735413172
 20
4.978127350650958
 30
0.0
 11
-1.107306614238049
 21
1.917911315417372
 31
0.0
210
0.0
220
0.0
230
-1.0
 40
0.5773502691896261
 41
4.836947509160754
 42
4.926030226584125
  0
ELLIPSE
  5
2A1
330
1F
100
AcDbEntity
  8
VISIBLE
100
AcDbEllipse
 10
2.642916567384751
 20
6.035491883207165
 30
0.0
 11
0.02952755905511805
 21
-0.05114323250695474
 31
0.0
210
0.0
220
0.0
230
1.0
 40
0.577350269189627
 41
0.7853981633974482
 42
2.356194490192365
  0
ELLIPSE
  5
2A2
330
1F
100
AcDbEntity
  8
VISIBLE
100
AcDbEllipse
 10
5.838014080640002
 20
3.508912950790922
 30
0.0
 11
1.107306614238053
 21
-1.917911315417379
 31
0.0
210
0.0
220
0.0
230
1.0
 40
0.5773502691896262
 41
3.266151182365856
 42
3.355233899789226
  0
ENDSEC
  0
SECTION
  2
OBJECTS
  0
DICTIONARY
  5
C
330
0
100
AcDbDictionary
  3
ACAD_FIELDLIST
350
123
  3
ACAD_GROUP
350
D
  3
ACAD_LAYOUT
350
1A
  3
ACAD_MATERIAL
350
43
  3
ACAD_MLEADERSTYLE
350
2A8
  3
ACAD_MLINESTYLE
350
17
  3
ACAD_PLOTSETTINGS
350
19
  3
ACAD_SCALELIST
350
47
  3
ACAD_VISUALSTYLE
350
2A
  3
ACDBVARIABLEDICTIONARY
350
6C
  3
ONSHAPE_DATA
350
2A3
1001
ACAD
1000
TREAT_AS_HARD
1070
     0
  0
DICTIONARY
  5
C5
330
C4
100
AcDbDictionary
1001
ACAD
1000
TREAT_AS_HARD
1070
     1
  0
DICTIONARY
  5
CC
330
CB
100
AcDbDictionary
1001
ACAD
1000
TREAT_AS_HARD
1070
     1
  0
DICTIONARY
  5
2AD
330
DE
100
AcDbDictionary
  3
ACAD_MTEXT_RT
360
2AE
  0
DICTIONARY
  5
EC
330
EB
100
AcDbDictionary
  3
ACAD_MTEXT_RT
360
2AF
1001
ACAD
1000
TREAT_AS_HARD
1070
     1
  0
DICTIONARY
  5
EE
330
ED
100
AcDbDictionary
1001
ACAD
1000
TREAT_AS_HARD
1070
     1
  0
DICTIONARY
  5
F4
330
F3
100
AcDbDictionary
1001
ACAD
1000
TREAT_AS_HARD
1070
     1
  0
DICTIONARY
  5
FB
330
FA
100
AcDbDictionary
1001
ACAD
1000
TREAT_AS_HARD
1070
     1
  0
DICTIONARY
  5
102
330
101
100
AcDbDictionary
1001
ACAD
1000
TREAT_AS_HARD
1070
     1
  0
DICTIONARY
  5
109
330
108
100
AcDbDictionary
1001
ACAD
1000
TREAT_AS_HARD
1070
     1
  0
DICTIONARY
  5
110
330
10F
100
AcDbDictionary
1001
ACAD
1000
TREAT_AS_HARD
1070
     1
  0
DICTIONARY
  5
119
330
118
100
AcDbDictionary
1001
ACAD
1000
TREAT_AS_HARD
1070
     1
  0
ACAD_PROXY_OBJECT
  5
123
102
{ACAD_REACTORS
330
C
102
}
330
C
100
AcDbZombieObject
 90
      499
 91
      508
 93
        3
310
80
  0
DICTIONARY
  5
D
102
{ACAD_REACTORS
330
C
102
}
330
C
100
AcDbDictionary
1001
ACAD
1000
TREAT_AS_HARD
1070
     0
  0
DICTIONARY
  5
1A
102
{ACAD_REACTORS
330
C
102
}
330
C
100
AcDbDictionary
1001
ACAD
1000
TREAT_AS_HARD
1070
     0
  0
DICTIONARY
  5
43
102
{ACAD_REACTORS
330
C
102
}
330
C
100
AcDbDictionary
  3
BYBLOCK
350
45
  3
BYLAYER
350
44
  3
GLOBAL
350
46
1001
ACAD
1000
TREAT_AS_HARD
1070
     0
  0
DICTIONARY
  5
2A8
102
{ACAD_REACTORS
330
C
102
}
330
C
100
AcDbDictionary
1001
ACAD
1000
TREAT_AS_HARD
1070
     0
  0
DICTIONARY
  5
17
102
{ACAD_REACTORS
330
C
102
}
330
C
100
AcDbDictionary
  3
STANDARD
350
18
1001
ACAD
1000
TREAT_AS_HARD
1070
     0
  0
DICTIONARY
  5
19
102
{ACAD_REACTORS
330
C
102
}
330
C
100
AcDbDictionary
1001
ACAD
1000
TREAT_AS_HARD
1070
     0
  0
DICTIONARY
  5
47
102
{ACAD_REACTORS
330
C
102
}
330
C
100
AcDbDictionary
  3
A0
350
48
  3
A1
350
49
  3
A2
350
4A
  3
A3
350
4B
  3
A4
350
4C
  3
A5
350
4D
  3
A6
350
4E
  3
A7
350
4F
  3
A8
350
50
  3
A9
350
51
  3
B0
350
52
  3
B1
350
53
  3
B2
350
54
  3
B3
350
55
  3
B4
350
56
  3
B5
350
57
  3
B6
350
58
  3
B7
350
59
  3
B8
350
5A
  3
B9
350
5B
  3
C0
350
5C
  3
C1
350
5D
  3
C2
350
5E
  3
C3
350
5F
  3
C4
350
60
  3
C5
350
61
  3
C6
350
62
  3
C7
350
63
  3
C8
350
64
  3
C9
350
65
  3
D0
350
66
  3
D1
350
67
  3
D2
350
68
1001
ACAD
1000
TREAT_AS_HARD
1070
     0
  0
DICTIONARY
  5
2A
102
{ACAD_REACTORS
330
C
102
}
330
C
100
AcDbDictionary
  3
2DWIREFRAME
350
2F
  3
BASIC
350
32
  3
BRIGHTEN
350
36
  3
COLORCHANGE
350
3A
  3
CONCEPTUAL
350
34
  3
DIM
350
35
  3
EDGECOLOROFF
350
3D
  3
FACEPATTERN
350
39
  3
FLAT
350
2B
  3
FLATWITHEDGES
350
2C
  3
GOURAUD
350
2D
  3
GOURAUDWITHEDGES
350
2E
  3
HIDDEN
350
31
  3
JITTEROFF
350
3B
  3
LINEPATTERN
350
38
  3
OVERHANGOFF
350
3C
  3
REALISTIC
350
33
  3
SHADED
350
42
  3
SHADED_WITH_EDGES
350
41
  3
SHADES_OF_GRAY
350
3E
  3
SKETCHY
350
3F
  3
THICKEN
350
37
  3
WIREFRAME
350
30
  3
X-RAY
350
40
1001
ACAD
1000
TREAT_AS_HARD
1070
     0
  0
DICTIONARY
  5
6C
102
{ACAD_REACTORS
330
C
102
}
330
C
100
AcDbDictionary
  3
CANNOSCALE
350
2B0
  3
CTABLESTYLE
350
2A7
  3
DIMASSOC
350
2AB
  3
HIDETEXT
350
2AC
  3
MSLTSCALE
350
2B1
  3
OLEFRAME
350
6D
1001
ACAD
1000
TREAT_AS_HARD
1070
     0
  0
DICTIONARY
  5
2A3
102
{ACAD_REACTORS
330
C
102
}
330
C
100
AcDbDictionary
  3
DIM_UNITS
360
2A4
  3
ONSHAPE_VSHARP_EXTENSION
360
2A6
  3
ONSHAPE_WELD_STANDARD
360
2A5
1001
ACAD
1000
TREAT_AS_HARD
1070
     1
  0
XRECORD
  5
2AE
102
{ACAD_REACTORS
330
2AD
102
}
330
2AD
100
AcDbXrecord
 40
8098.0
  1
{\pxqc;1.5mm Steel }
  0
XRECORD
  5
2AF
102
{ACAD_REACTORS
330
EC
102
}
330
EC
100
AcDbXrecord
 40
5233.0
  1
{\pxqc;Carriage }
  0
MATERIAL
  5
45
102
{ACAD_REACTORS
330
43
102
}
102
{ACAD_XDICTIONARY
360
2B4
102
}
330
43
100
AcDbMaterial
  1
BYBLOCK
  0
MATERIAL
  5
44
102
{ACAD_REACTORS
330
43
102
}
102
{ACAD_XDICTIONARY
360
2B2
102
}
330
43
100
AcDbMaterial
  1
BYLAYER
  0
MATERIAL
  5
46
102
{ACAD_REACTORS
330
43
102
}
102
{ACAD_XDICTIONARY
360
2B6
102
}
330
43
100
AcDbMaterial
  1
GLOBAL
  0
MLINESTYLE
  5
18
102
{ACAD_REACTORS
330
17
102
}
330
17
100
AcDbMlineStyle
  2
Standard
 70
     0
  3

 62
   256
 51
90.0
 52
90.0
 71
     2
 49
0.5
 62
   256
  6
BYLAYER
 49
-0.5
 62
   256
  6
BYLAYER
  0
ACAD_PROXY_OBJECT
  5
48
102
{ACAD_REACTORS
330
47
102
}
330
47
100
AcDbZombieObject
 90
      499
 91
      503
 93
       41
310
903313A31580
  0
ACAD_PROXY_OBJECT
  5
49
102
{ACAD_REACTORS
330
47
102
}
330
47
100
AcDbZombieObject
 90
      499
 91
      503
 93
      105
310
903313A324000000000000004000
  0
ACAD_PROXY_OBJECT
  5
4A
102
{ACAD_REACTORS
330
47
102
}
330
47
100
AcDbZombieObject
 90
      499
 91
      503
 93
      105
310
903313A344000000000000104000
  0
ACAD_PROXY_OBJECT
  5
4B
102
{ACAD_REACTORS
330
47
102
}
330
47
100
AcDbZombieObject
 90
      499
 91
      503
 93
      105
310
903313A354000000000000144000
  0
ACAD_PROXY_OBJECT
  5
4C
102
{ACAD_REACTORS
330
47
102
}
330
47
100
AcDbZombieObject
 90
      499
 91
      503
 93
      105
310
903313A384000000000000204000
  0
ACAD_PROXY_OBJECT
  5
4D
102
{ACAD_REACTORS
330
47
102
}
330
47
100
AcDbZombieObject
 90
      499
 91
      503
 93
      113
310
904313A31304000000000000244000
  0
ACAD_PROXY_OBJECT
  5
4E
102
{ACAD_REACTORS
330
47
102
}
330
47
100
AcDbZombieObject
 90
      499
 91
      503
 93
      113
310
904313A31364000000000000304000
  0
ACAD_PROXY_OBJECT
  5
4F
102
{ACAD_REACTORS
330
47
102
}
330
47
100
AcDbZombieObject
 90
      499
 91
      503
 93
      113
310
904313A32304000000000000344000
  0
ACAD_PROXY_OBJECT
  5
50
102
{ACAD_REACTORS
330
47
102
}
330
47
100
AcDbZombieObject
 90
      499
 91
      503
 93
      113
310
904313A333040000000000003E4000
  0
ACAD_PROXY_OBJECT
  5
51
102
{ACAD_REACTORS
330
47
102
}
330
47
100
AcDbZombieObject
 90
      499
 91
      503
 93
      113
310
904313A34304000000000000444000
  0
ACAD_PROXY_OBJECT
  5
52
102
{ACAD_REACTORS
330
47
102
}
330
47
100
AcDbZombieObject
 90
      499
 91
      503
 93
      113
310
904313A35304000000000000494000
  0
ACAD_PROXY_OBJECT
  5
53
102
{ACAD_REACTORS
330
47
102
}
330
47
100
AcDbZombieObject
 90
      499
 91
      503
 93
      121
310
905313A3130304000000000000594000
  0
ACAD_PROXY_OBJECT
  5
54
102
{ACAD_REACTORS
330
47
102
}
330
47
100
AcDbZombieObject
 90
      499
 91
      503
 93
      105
310
903323A310000000000000010100
  0
ACAD_PROXY_OBJECT
  5
55
102
{ACAD_REACTORS
330
47
102
}
330
47
100
AcDbZombieObject
 90
      499
 91
      503
 93
      105
310
903343A310000000000000410100
  0
ACAD_PROXY_OBJECT
  5
56
102
{ACAD_REACTORS
330
47
102
}
330
47
100
AcDbZombieObject
 90
      499
 91
      503
 93
      105
310
903383A310000000000000810100
  0
ACAD_PROXY_OBJECT
  5
57
102
{ACAD_REACTORS
330
47
102
}
330
47
100
AcDbZombieObject
 90
      499
 91
      503
 93
      113
310
90431303A310000000000000910100
  0
ACAD_PROXY_OBJECT
  5
58
102
{ACAD_REACTORS
330
47
102
}
330
47
100
AcDbZombieObject
 90
      499
 91
      503
 93
      121
310
9053130303A310000000000001650100
  0
ACAD_PROXY_OBJECT
  5
59
102
{ACAD_REACTORS
330
47
102
}
330
47
100
AcDbZombieObject
 90
      499
 91
      503
 93
      257
310
90E312F31323822203D2031272D3022000000000000200FC000000000000284000
  0
ACAD_PROXY_OBJECT
  5
5A
102
{ACAD_REACTORS
330
47
102
}
330
47
100
AcDbZombieObject
 90
      499
 91
      503
 93
      249
310
90D312F363422203D2031272D3022000000000000240FC000000000000284000
  0
ACAD_PROXY_OBJECT
  5
5B
102
{ACAD_REACTORS
330
47
102
}
330
47
100
AcDbZombieObject
 90
      499
 91
      503
 93
      249
310
90D312F333222203D2031272D3022000000000000280FC000000000000284000
  0
ACAD_PROXY_OBJECT
  5
5C
102
{ACAD_REACTORS
330
47
102
}
330
47
100
AcDbZombieObject
 90
      499
 91
      503
 93
      249
310
90D312F313622203D2031272D30220000000000002C0FC000000000000284000
  0
ACAD_PROXY_OBJECT
  5
5D
102
{ACAD_REACTORS
330
47
102
}
330
47
100
AcDbZombieObject
 90
      499
 91
      503
 93
      249
310
90D332F333222203D2031272D30220000000000002E0FC000000000000284000
  0
ACAD_PROXY_OBJECT
  5
5E
102
{ACAD_REACTORS
330
47
102
}
330
47
100
AcDbZombieObject
 90
      499
 91
      503
 93
      241
310
90C312F3822203D2031272D3022000000000000300FC000000000000284000
  0
ACAD_PROXY_OBJECT
  5
5F
102
{ACAD_REACTORS
330
47
102
}
330
47
100
AcDbZombieObject
 90
      499
 91
      503
 93
      249
310
90D332F313622203D2031272D3022000000000000320FC000000000000284000
  0
ACAD_PROXY_OBJECT
  5
60
102
{ACAD_REACTORS
330
47
102
}
330
47
100
AcDbZombieObject
 90
      499
 91
      503
 93
      241
310
90C312F3422203D2031272D3022000000000000340FC000000000000284000
  0
ACAD_PROXY_OBJECT
  5
61
102
{ACAD_REACTORS
330
47
102
}
330
47
100
AcDbZombieObject
 90
      499
 91
      503
 93
      241
310
90C332F3822203D2031272D3022000000000000360FC000000000000284000
  0
ACAD_PROXY_OBJECT
  5
62
102
{ACAD_REACTORS
330
47
102
}
330
47
100
AcDbZombieObject
 90
      499
 91
      503
 93
      241
310
90C312F3222203D2031272D3022000000000000380FC000000000000284000
  0
ACAD_PROXY_OBJECT
  5
63
102
{ACAD_REACTORS
330
47
102
}
330
47
100
AcDbZombieObject
 90
      499
 91
      503
 93
      241
310
90C332F3422203D2031272D30220000000000003A0FC000000000000284000
  0
ACAD_PROXY_OBJECT
  5
64
102
{ACAD_REACTORS
330
47
102
}
330
47
100
AcDbZombieObject
 90
      499
 91
      503
 93
      161
310
90A3122203D2031272D30224000000000000284000
  0
ACAD_PROXY_OBJECT
  5
65
102
{ACAD_REACTORS
330
47
102
}
330
47
100
AcDbZombieObject
 90
      499
 91
      503
 93
      257
310
90E312D312F3222203D2031272D30220000000000003E0FC000000000000284000
  0
ACAD_PROXY_OBJECT
  5
66
102
{ACAD_REACTORS
330
47
102
}
330
47
100
AcDbZombieObject
 90
      499
 91
      503
 93
      225
310
90A3322203D2031272D302200000000000002100000000000000284000
  0
ACAD_PROXY_OBJECT
  5
67
102
{ACAD_REACTORS
330
47
102
}
330
47
100
AcDbZombieObject
 90
      499
 91
      503
 93
      225
310
90A3622203D2031272D302200000000000006100000000000000284000
  0
ACAD_PROXY_OBJECT
  5
68
102
{ACAD_REACTORS
330
47
102
}
330
47
100
AcDbZombieObject
 90
      499
 91
      503
 93
      249
310
90D31272D3022203D2031272D30220000000000000A100000000000000284000
  0
ACAD_PROXY_OBJECT
  5
2F
102
{ACAD_REACTORS
330
2A
102
}
330
2A
100
AcDbZombieObject
 90
      499
 91
      501
 93
      436
310
42CC9915DA5C99599C985B595049028333333333333E33F0000000000000F90107901411070040501600405405064090741402480A0340
1001
ACAD
1000
AcDbSavedByObjectVersion
1070
     0
  0
ACAD_PROXY_OBJECT
  5
32
102
{ACAD_REACTORS
330
2A
102
}
330
2A
100
AcDbZombieObject
 90
      499
 91
      501
 93
      388
310
4150985CDA58D07406404333333333333E33F0000000000000F90107A41107004050150841D405064090741402480A0350
1001
ACAD
1000
AcDbSavedByObjectVersion
1070
     0
  0
ACAD_PROXY_OBJECT
  5
36
102
{ACAD_REACTORS
330
2A
102
}
330
2A
100
AcDbZombieObject
 90
      499
 91
      501
 93
      428
310
42109C9A59DA1D195B90C409028333333333333E33F0000000000000F9010790141107004050150841D405064090741402480A029950
1001
ACAD
1000
AcDbSavedByObjectVersion
1070
     0
  0
ACAD_PROXY_OBJECT
  5
3A
102
{ACAD_REACTORS
330
2A
102
}
330
2A
100
AcDbZombieObject
 90
      499
 91
      501
 93
      452
310
42D0DBDB1BDC90DA185B99D95104090240C333333333333E33F0000000000000F90108901411070040501508421405064090741402480A0350
1001
ACAD
1000
AcDbSavedByObjectVersion
1070
     0
  0
ACAD_PROXY_OBJECT
  5
34
102
{ACAD_REACTORS
330
2A
102
}
330
2A
100
AcDbZombieObject
 90
      499
 91
      501
 93
      500
310
4290DBDB98D95C1D1D585B10940D028333333333333E33F0000000000000F90107902409070040501000000000018199010841D405064090740C02480A0340
1001
ACAD
1000
AcDbSavedByObjectVersion
1070
     0
  0
ACAD_PROXY_OBJECT
  5
35
102
{ACAD_REACTORS
330
2A
102
}
330
2A
100
AcDbZombieObject
 90
      499
 91
      501
 93
      412
310
40D11A5B50B409028333333333333E33F0000000000000F9010790141107004050150841D405064090741402480A02677FFFFFD0
1001
ACAD
1000
AcDbSavedByObjectVersion
1070
     0
  0
ACAD_PROXY_OBJECT
  5
3D
102
{ACAD_REACTORS
330
2A
102
}
330
2A
100
AcDbZombieObject
 90
      499
 91
      501
 93
      452
310
43115919D950DBDB1BDC93D999916409028333333333333E33F0000000000000F9010790141107004050150841D405064090741402480A0350
1001
ACAD
1000
AcDbSavedByObjectVersion
1070
     0
  0
ACAD_PROXY_OBJECT
  5
39
102
{ACAD_REACTORS
330
2A
102
}
330
2A
100
AcDbZombieObject
 90
      499
 91
      501
 93
      444
310
42D19858D95C185D1D195C9B90F409028333333333333E33F0000000000000F9010790141107004050150841D405064090741402480A0350
1001
ACAD
1000
AcDbSavedByObjectVersion
1070
     0
  0
ACAD_PROXY_OBJECT
  5
2B
102
{ACAD_REACTORS
330
2A
102
}
330
2A
100
AcDbZombieObject
 90
      499
 91
      501
 93
      380
310
41119B185D240901404333333333333E33F0000000000000F9010740A907004050150841D405064090741402480A1B50
1001
ACAD
1000
AcDbSavedByObjectVersion
1070
     0
  0
ACAD_PROXY_OBJECT
  5
2C
102
{ACAD_REACTORS
330
2A
102
}
330
2A
100
AcDbZombieObject
 90
      499
 91
      501
 93
      468
310
43519B185D15DA5D1A115919D95CD0140901404333333333333E33F0000000000000F90107409019070040501600405405064090741402480A1B50
1001
ACAD
1000
AcDbSavedByObjectVersion
1070
     0
  0
ACAD_PROXY_OBJECT
  5
2D
102
{ACAD_REACTORS
330
2A
102
}
330
2A
100
AcDbZombieObject
 90
      499
 91
      501
 93
      404
310
41D1DBDD5C985D5910240902404333333333333E33F0000000000000F9010740A9070040501641D405064090741402480A1B50
1001
ACAD
1000
AcDbSavedByObjectVersion
1070
     0
  0
ACAD_PROXY_OBJECT
  5
2E
102
{ACAD_REACTORS
330
2A
102
}
330
2A
100
AcDbZombieObject
 90
      499
 91
      501
 93
      492
310
4411DBDD5C985D5915DA5D1A115919D95CD0340902404333333333333E33F0000000000000F90107409019070040501600405405064090741402480A1B50
1001
ACAD
1000
AcDbSavedByObjectVersion
1070
     0
  0
ACAD_PROXY_OBJECT
  5
31
102
{ACAD_REACTORS
330
2A
102
}
330
2A
100
AcDbZombieObject
 90
      499
 91
      501
 93
      476
310
41921A5919195B90640502408333333333333E33F0000000000000F901079024090700405020000000000001110200405405064090740C02480A0340
1001
ACAD
1000
AcDbSavedByObjectVersion
1070
     0
  0
ACAD_PROXY_OBJECT
  5
3B
102
{ACAD_REACTORS
330
2A
102
}
330
2A
100
AcDbZombieObject
 90
      499
 91
      501
 93
      428
310
42529A5D1D195C93D999914409028333333333333E33F0000000000000F9010790141107004050150A41D405064090741402480A0350
1001
ACAD
1000
AcDbSavedByObjectVersion
1070
     0
  0
ACAD_PROXY_OBJECT
  5
38
102
{ACAD_REACTORS
330
2A
102
}
330
2A
100
AcDbZombieObject
 90
      499
 91
      501
 93
      444
310
42D31A5B995C185D1D195C9B90E409028333333333333E33F0000000000000F9010790141107004050750841D405064090741402483A0350
1001
ACAD
1000
AcDbSavedByObjectVersion
1070
     0
  0
ACAD_PROXY_OBJECT
  5
3C
102
{ACAD_REACTORS
330
2A
102
}
330
2A
100
AcDbZombieObject
 90
      499
 91
      501
 93
      444
310
42D3DD995C9A185B99D3D999915409028333333333333E33F0000000000000F9010790141107004050150941D405064090741402480A0350
1001
ACAD
1000
AcDbSavedByObjectVersion
1070
     0
  0
ACAD_PROXY_OBJECT
  5
33
102
{ACAD_REACTORS
330
2A
102
}
330
2A
100
AcDbZombieObject
 90
      499
 91
      501
 93
      428
310
425499585B1A5CDD1A58D08409038333333333333E33F0000000000000F9010740A907004050150800405405064090740C02480A1B40
1001
ACAD
1000
AcDbSavedByObjectVersion
1070
     0
  0
ACAD_PROXY_OBJECT
  5
42
102
{ACAD_REACTORS
330
2A
102
}
330
2A
100
AcDbZombieObject
 90
      499
 91
      501
 93
      420
310
4194DA1859195911B40902404333333333333E33F0000000000000F9010740A41107004050150800405405064090840C02480A0B40
1001
ACAD
1000
AcDbSavedByObjectVersion
1070
     0
  0
ACAD_PROXY_OBJECT
  5
41
102
{ACAD_REACTORS
330
2A
102
}
330
2A
100
AcDbZombieObject
 90
      499
 91
      501
 93
      516
310
4454DA18591959081DDA5D1A08195919D95CD1A40902404333333333333E33F0000000000000F901074090142907004050250800405405064090740C02480A0B40
1001
ACAD
1000
AcDbSavedByObjectVersion
1070
     0
  0
ACAD_PROXY_OBJECT
  5
3E
102
{ACAD_REACTORS
330
2A
102
}
330
2A
100
AcDbZombieObject
 90
      499
 91
      501
 93
      532
310
4394DA1859195CC81BD98811DC985E5174090240C333333333333E33F0000000000000F901079024090741D01000000000000111010841D405064090740C02480A0340
1001
ACAD
1000
AcDbSavedByObjectVersion
1070
     0
  0
ACAD_PROXY_OBJECT
  5
3F
102
{ACAD_REACTORS
330
2A
102
}
330
2A
100
AcDbZombieObject
 90
      499
 91
      501
 93
      476
310
41D4DAD95D18DA1E51840502408333333333333E33F0000000000000F901079024090741D01000000000000111010B41D405064090741802480A0340
1001
ACAD
1000
AcDbSavedByObjectVersion
1070
     0
  0
ACAD_PROXY_OBJECT
  5
37
102
{ACAD_REACTORS
330
2A
102
}
330
2A
100
AcDbZombieObject
 90
      499
 91
      501
 93
      412
310
41D51A1A58DAD95B90D409028333333333333E33F0000000000000F9010790141107004050150C41D405064090741402480A0350
1001
ACAD
1000
AcDbSavedByObjectVersion
1070
     0
  0
ACAD_PROXY_OBJECT
  5
30
102
{ACAD_REACTORS
330
2A
102
}
330
2A
100
AcDbZombieObject
 90
      499
 91
      501
 93
      420
310
4255DA5C99599C985B595059028333333333333E33F0000000000000F90107901411070040501600405405064090740C02480A0340
1001
ACAD
1000
AcDbSavedByObjectVersion
1070
     0
  0
ACAD_PROXY_OBJECT
  5
40
102
{ACAD_REACTORS
330
2A
102
}
330
2A
100
AcDbZombieObject
 90
      499
 91
      501
 93
      404
310
41560B54985E51940902404000000000000E03F0000000000000F9010740501907004050150841D405064090740C02480A1B40
1001
ACAD
1000
AcDbSavedByObjectVersion
1070
     0
  0
DICTIONARYVAR
  5
2B0
102
{ACAD_REACTORS
330
6C
102
}
330
6C
100
DictionaryVariables
280
     0
  1
1:1
  0
DICTIONARYVAR
  5
2A7
102
{ACAD_REACTORS
330
6C
102
}
330
6C
100
DictionaryVariables
280
     0
  1
Standard
  0
DICTIONARYVAR
  5
2AB
102
{ACAD_REACTORS
330
6C
102
}
330
6C
100
DictionaryVariables
280
     0
  1
2
  0
DICTIONARYVAR
  5
2AC
102
{ACAD_REACTORS
330
6C
102
}
330
6C
100
DictionaryVariables
280
     0
  1
1
  0
DICTIONARYVAR
  5
2B1
102
{ACAD_REACTORS
330
6C
102
}
330
6C
100
DictionaryVariables
280
     0
  1
1
  0
DICTIONARYVAR
  5
6D
102
{ACAD_REACTORS
330
6C
102
}
330
6C
100
DictionaryVariables
280
     0
  1
0
  0
XRECORD
  5
2A4
102
{ACAD_REACTORS
330
2A3
102
}
330
2A3
100
AcDbXrecord
 70
     4
  0
XRECORD
  5
2A6
102
{ACAD_REACTORS
330
2A3
102
}
330
2A3
100
AcDbXrecord
 90
        0
  0
XRECORD
  5
2A5
102
{ACAD_REACTORS
330
2A3
102
}
330
2A3
100
AcDbXrecord
 90
        0
  0
DICTIONARY
  5
2B4
330
45
100
AcDbDictionary
  3
ACAD_XREC_ROUNDTRIP
360
2B5
1001
ACAD
1000
TREAT_AS_HARD
1070
     1
  0
DICTIONARY
  5
2B2
330
44
100
AcDbDictionary
  3
ACAD_XREC_ROUNDTRIP
360
2B3
1001
ACAD
1000
TREAT_AS_HARD
1070
     1
  0
DICTIONARY
  5
2B6
330
46
100
AcDbDictionary
  3
ACAD_XREC_ROUNDTRIP
360
2B7
1001
ACAD
1000
TREAT_AS_HARD
1070
     1
  0
XRECORD
  5
2B5
102
{ACAD_REACTORS
330
2B4
102
}
330
2B4
100
AcDbXrecord
102
MATERIAL
148
0.0
149
0.0
149
0.0
 93
        0
 94
      127
282
     0
 72
     1
 77
     1
171
     1
175
     1
179
     1
273
     0
  0
XRECORD
  5
2B3
102
{ACAD_REACTORS
330
2B2
102
}
330
2B2
100
AcDbXrecord
102
MATERIAL
148
0.0
149
0.0
149
0.0
 93
        0
 94
      127
282
     0
 72
     1
 77
     1
171
     1
175
     1
179
     1
273
     0
  0
XRECORD
  5
2B7
102
{ACAD_REACTORS
330
2B6
102
}
330
2B6
100
AcDbXrecord
102
MATERIAL
148
0.0
149
0.0
149
0.0
 93
        0
 94
      127
282
     0
 72
     1
 77
     1
171
     1
175
     1
179
     1
273
     0
  0
ENDSEC
  0
EOF
