  0
SECTION
  2
HEADER
  9
$ACADVER
  1
AC1012
  9
$DWGCODEPAGE
  3
ansi_1252
  9
$INSBASE
 10
0.0
 20
0.0
 30
0.0
  9
$EXTMIN
 10
1.000000000000000E+20
 20
1.000000000000000E+20
 30
1.000000000000000E+20
  9
$EXTMAX
 10
-1.000000000000000E+20
 20
-1.000000000000000E+20
 30
-1.000000000000000E+20
  9
$LIMMIN
 10
0.0
 20
0.0
  9
$LIMMAX
 10
12.0
 20
9.0
  9
$ORTHOMODE
 70
     0
  9
$REGENMODE
 70
     1
  9
$FILLMODE
 70
     1
  9
$QTEXTMODE
 70
     0
  9
$MIRRTEXT
 70
     1
  9
$DRAGMODE
 70
     2
  9
$LTSCALE
 40
0.5
  9
$OSMODE
 70
    23
  9
$ATTMODE
 70
     1
  9
$TEXTSIZE
 40
0.12
  9
$TRACEWID
 40
0.05
  9
$TEXTSTYLE
  7
ONSHAPE-STANDARD
  9
$CLAYER
  8
0
  9
$CELTYPE
  6
BYLAYER
  9
$CECOLOR
 62
   256
  9
$CELTSCALE
 40
1.0
  9
$DELOBJ
 70
     1
  9
$DISPSILH
 70
     0
  9
$DIMSCALE
 40
1.0
  9
$DIMASZ
 40
0.18
  9
$DIMEXO
 40
0.0625
  9
$DIMDLI
 40
0.38
  9
$DIMRND
 40
0.0
  9
$DIMDLE
 40
0.0
  9
$DIMEXE
 40
0.08
  9
$DIMTP
 40
0.0
  9
$DIMTM
 40
0.0
  9
$DIMTXT
 40
0.12
  9
$DIMCEN
 40
0.09
  9
$DIMTSZ
 40
0.0
  9
$DIMTOL
 70
     0
  9
$DIMLIM
 70
     0
  9
$DIMTIH
 70
     1
  9
$DIMTOH
 70
     1
  9
$DIMSE1
 70
     0
  9
$DIMSE2
 70
     0
  9
$DIMTAD
 70
     0
  9
$DIMZIN
 70
    11
  9
$DIMBLK
  1

  9
$DIMASO
 70
     1
  9
$DIMSHO
 70
     1
  9
$DIMPOST
  1

  9
$DIMAPOST
  1

  9
$DIMALT
 70
     0
  9
$DIMALTD
 70
     3
  9
$DIMALTF
 40
0.0393700787401575
  9
$DIMLFAC
 40
25.4
  9
$DIMTOFL
 70
     0
  9
$DIMTVP
 40
0.0
  9
$DIMTIX
 70
     0
  9
$DIMSOXD
 70
     0
  9
$DIMSAH
 70
     0
  9
$DIMBLK1
  1

  9
$DIMBLK2
  1

  9
$DIMSTYLE
  2
ONSHAPE-STANDARD
  9
$DIMCLRD
 70
     0
  9
$DIMCLRE
 70
     0
  9
$DIMCLRT
 70
     0
  9
$DIMTFAC
 40
1.0
  9
$DIMGAP
 40
0.09
  9
$DIMJUST
 70
     0
  9
$DIMSD1
 70
     0
  9
$DIMSD2
 70
     0
  9
$DIMTOLJ
 70
     1
  9
$DIMTZIN
 70
    11
  9
$DIMALTZ
 70
     0
  9
$DIMALTTZ
 70
     0
  9
$DIMFIT
 70
     3
  9
$DIMUPT
 70
     1
  9
$DIMUNIT
 70
     2
  9
$DIMDEC
 70
     2
  9
$DIMTDEC
 70
     2
  9
$DIMALTU
 70
     2
  9
$DIMALTTD
 70
     3
  9
$DIMTXSTY
  7
ONSHAPE-STANDARD-DIMENSION
  9
$DIMAUNIT
 70
     0
  9
$LUNITS
 70
     2
  9
$LUPREC
 70
     4
  9
$SKETCHINC
 40
0.1
  9
$FILLETRAD
 40
0.5
  9
$AUNITS
 70
     0
  9
$AUPREC
 70
     0
  9
$MENU
  1
.
  9
$ELEVATION
 40
0.0
  9
$PELEVATION
 40
0.0
  9
$THICKNESS
 40
0.0
  9
$LIMCHECK
 70
     0
  9
$CHAMFERA
 40
0.0
  9
$CHAMFERB
 40
0.0
  9
$CHAMFERC
 40
0.0
  9
$CHAMFERD
 40
0.0
  9
$SKPOLY
 70
     0
  9
$TDCREATE
 40
2458214.792534711
  9
$TDUPDATE
 40
2458214.792534711
  9
$TDINDWG
 40
0.0
  9
$TDUSRTIMER
 40
0.0
  9
$USRTIMER
 70
     1
  9
$ANGBASE
 50
0.0
  9
$ANGDIR
 70
     0
  9
$PDMODE
 70
     0
  9
$PDSIZE
 40
0.0
  9
$PLINEWID
 40
0.0
  9
$COORDS
 70
     1
  9
$SPLFRAME
 70
     0
  9
$SPLINETYPE
 70
     6
  9
$SPLINESEGS
 70
     8
  9
$ATTDIA
 70
     0
  9
$ATTREQ
 70
     1
  9
$HANDLING
 70
     1
  9
$HANDSEED
  5
1F3
  9
$SURFTAB1
 70
     6
  9
$SURFTAB2
 70
     6
  9
$SURFTYPE
 70
     6
  9
$SURFU
 70
     6
  9
$SURFV
 70
     6
  9
$UCSNAME
  2

  9
$UCSORG
 10
0.0
 20
0.0
 30
0.0
  9
$UCSXDIR
 10
1.0
 20
0.0
 30
0.0
  9
$UCSYDIR
 10
0.0
 20
1.0
 30
0.0
  9
$PUCSNAME
  2

  9
$PUCSORG
 10
0.0
 20
0.0
 30
0.0
  9
$PUCSXDIR
 10
1.0
 20
0.0
 30
0.0
  9
$PUCSYDIR
 10
0.0
 20
1.0
 30
0.0
  9
$USERI1
 70
     0
  9
$USERI2
 70
     0
  9
$USERI3
 70
     0
  9
$USERI4
 70
     0
  9
$USERI5
 70
     0
  9
$USERR1
 40
0.0
  9
$USERR2
 40
0.0
  9
$USERR3
 40
0.0
  9
$USERR4
 40
0.0
  9
$USERR5
 40
0.0
  9
$WORLDVIEW
 70
     1
  9
$SHADEDGE
 70
     3
  9
$SHADEDIF
 70
    70
  9
$TILEMODE
 70
     1
  9
$MAXACTVP
 70
    64
  9
$PINSBASE
 10
0.0
 20
0.0
 30
0.0
  9
$PLIMCHECK
 70
     0
  9
$PEXTMIN
 10
1.000000000000000E+20
 20
1.000000000000000E+20
 30
1.000000000000000E+20
  9
$PEXTMAX
 10
-1.000000000000000E+20
 20
-1.000000000000000E+20
 30
-1.000000000000000E+20
  9
$PLIMMIN
 10
0.0
 20
0.0
  9
$PLIMMAX
 10
12.0
 20
9.0
  9
$UNITMODE
 70
     0
  9
$VISRETAIN
 70
     1
  9
$PLINEGEN
 70
     0
  9
$PSLTSCALE
 70
     1
  9
$TREEDEPTH
 70
  3020
  9
$PICKSTYLE
 70
     1
  9
$CMLSTYLE
  2
STANDARD
  9
$CMLJUST
 70
     0
  9
$CMLSCALE
 40
1.0
  9
$SAVEIMAGES
 70
     1
  0
ENDSEC
  0
SECTION
  2
CLASSES
  0
CLASS
  1
ACDBDICTIONARYWDFLT
  2
AcDbDictionaryWithDefault
  3
ObjectDBX Classes
 90
    32768
280
     0
281
     0
  0
CLASS
  1
VISUALSTYLE
  2
AcDbVisualStyle
  3
ObjectDBX Classes
 90
     4095
280
     0
281
     0
  0
CLASS
  1
MATERIAL
  2
AcDbMaterial
  3
ObjectDBX Classes
 90
     1153
280
     0
281
     0
  0
CLASS
  1
SCALE
  2
AcDbScale
  3
ObjectDBX Classes
 90
     1153
280
     0
281
     0
  0
CLASS
  1
SUN
  2
AcDbSun
  3
SCENEOE
 90
     1153
280
     0
281
     0
  0
CLASS
  1
TABLESTYLE
  2
AcDbTableStyle
  3
ObjectDBX Classes
 90
     4095
280
     0
281
     0
  0
CLASS
  1
DICTIONARYVAR
  2
AcDbDictionaryVar
  3
ObjectDBX Classes
 90
        0
280
     0
281
     0
  0
CLASS
  1
FIELD
  2
AcDbField
  3
ObjectDBX Classes
 90
     1152
280
     0
281
     0
  0
CLASS
  1
FIELDLIST
  2
AcDbFieldList
  3
ObjectDBX Classes
 90
     1152
280
     0
281
     0
  0
CLASS
  1
XRECORD
  2
AcDbXrecord
  3
ObjectDBX Classes
 90
    32768
280
     0
281
     0
  0
CLASS
  1
LWPOLYLINE
  2
AcDbPolyline
  3
ObjectDBX Classes
 90
    32768
280
     0
281
     1
  0
CLASS
  1
HATCH
  2
AcDbHatch
  3
ObjectDBX Classes
 90
    32768
280
     0
281
     1
  0
CLASS
  1
ACDBPLACEHOLDER
  2
AcDbPlaceHolder
  3
ObjectDBX Classes
 90
        0
280
     0
281
     0
  0
CLASS
  1
LAYOUT
  2
AcDbLayout
  3
ObjectDBX Classes
 90
        0
280
     0
281
     0
  0
ENDSEC
  0
SECTION
  2
TABLES
  0
TABLE
  2
VPORT
  5
8
330
0
100
AcDbSymbolTable
 70
     1
  0
VPORT
  5
29
330
8
100
AcDbSymbolTableRecord
100
AcDbViewportTableRecord
  2
*ACTIVE
 70
     0
 10
0.0
 20
0.0
 11
1.0
 21
1.0
 12
11.0
 22
8.661930517711172
 13
0.0
 23
0.0
 14
0.5
 24
0.5
 15
0.5
 25
0.5
 16
0.0
 26
0.0
 36
1.0
 17
0.0
 27
0.0
 37
0.0
 40
17.60709825613079
 41
1.27089425381087
 42
50.0
 43
0.0
 44
0.0
 50
0.0
 51
0.0
 71
     0
 72
   100
 73
     1
 74
     3
 75
     0
 76
     0
 77
     0
 78
     0
  0
ENDTAB
  0
TABLE
  2
LTYPE
  5
5
330
0
100
AcDbSymbolTable
 70
     2
  0
LTYPE
  5
14
330
5
100
AcDbSymbolTableRecord
100
AcDbLinetypeTableRecord
  2
BYBLOCK
 70
     0
  3

 72
    65
 73
     0
 40
0.0
  0
LTYPE
  5
15
330
5
100
AcDbSymbolTableRecord
100
AcDbLinetypeTableRecord
  2
BYLAYER
 70
     0
  3

 72
    65
 73
     0
 40
0.0
  0
LTYPE
  5
16
330
5
100
AcDbSymbolTableRecord
100
AcDbLinetypeTableRecord
  2
CONTINUOUS
 70
     0
  3
Solid line
 72
    65
 73
     0
 40
0.0
  0
LTYPE
  5
122
330
5
100
AcDbSymbolTableRecord
100
AcDbLinetypeTableRecord
  2
CENTER
 70
     0
  3
Center line ____ _ ____ _ ____ _
 72
    65
 73
     4
 40
0.7199999999999999
 49
0.45
 74
     0
 49
-0.09
 74
     0
 49
0.09
 74
     0
 49
-0.09
 74
     0
  0
ENDTAB
  0
TABLE
  2
LAYER
  5
2
330
0
100
AcDbSymbolTable
 70
     8
  0
LAYER
  5
10
330
2
100
AcDbSymbolTableRecord
100
AcDbLayerTableRecord
  2
0
 70
     0
 62
     7
  6
CONTINUOUS
  0
LAYER
  5
72
330
2
100
AcDbSymbolTableRecord
100
AcDbLayerTableRecord
  2
TITLE_BLOCK
 70
     0
 62
     7
  6
CONTINUOUS
  0
LAYER
  5
FC
330
2
100
AcDbSymbolTableRecord
100
AcDbLayerTableRecord
  2
BORDER_FRAME
 70
     0
 62
     7
  6
CONTINUOUS
  0
LAYER
  5
101
330
2
100
AcDbSymbolTableRecord
100
AcDbLayerTableRecord
  2
BORDER_ZONES
 70
     0
 62
     7
  6
CONTINUOUS
  0
LAYER
  5
11E
330
2
100
AcDbSymbolTableRecord
100
AcDbLayerTableRecord
  2
ANNOTATION_TEXT
 70
     0
 62
     7
  6
CONTINUOUS
  0
LAYER
  5
121
330
2
100
AcDbSymbolTableRecord
100
AcDbLayerTableRecord
  2
SHEETMETAL_BEND_LINES_DOWN
 70
     0
 62
     7
  6
CENTER
  0
LAYER
  5
130
330
2
100
AcDbSymbolTableRecord
100
AcDbLayerTableRecord
  2
VISIBLE
 70
     0
 62
     7
  6
CONTINUOUS
  0
LAYER
  5
131
330
2
100
AcDbSymbolTableRecord
100
AcDbLayerTableRecord
  2
TANGENT_LINES
 70
     0
 62
     7
  6
CONTINUOUS
  0
ENDTAB
  0
TABLE
  2
STYLE
  5
3
330
0
100
AcDbSymbolTable
 70
     4
  0
STYLE
  5
11
330
3
100
AcDbSymbolTableRecord
100
AcDbTextStyleTableRecord
  2
STANDARD
 70
     0
 40
0.0
 41
1.0
 50
0.0
 71
     0
 42
0.12
  3
txt
  4

  0
STYLE
  5
6E
330
3
100
AcDbSymbolTableRecord
100
AcDbTextStyleTableRecord
  2
ONSHAPE-STANDARD
 70
     0
 40
0.0
 41
1.0
 50
0.0
 71
     0
 42
0.12
  3
NotoSans-Regular.ttf
  4

1001
ACAD
1000
Noto Sans
1071
        0
  0
STYLE
  5
70
330
3
100
AcDbSymbolTableRecord
100
AcDbTextStyleTableRecord
  2
ONSHAPE-STANDARD-DIMENSION
 70
     0
 40
0.0
 41
1.0
 50
0.0
 71
     0
 42
0.12
  3

  4

1001
ACAD
1000
Noto Sans
1071
        0
  0
STYLE
  5
A7
330
3
100
AcDbSymbolTableRecord
100
AcDbTextStyleTableRecord
  2
ONSHAPE-STANDARD-FIELDS
 70
     0
 40
0.0
 41
1.0
 50
0.0
 71
     0
 42
0.12
  3

  4

1001
ACAD
1000
Noto Sans
1071
        0
  0
ENDTAB
  0
TABLE
  2
VIEW
  5
6
330
0
100
AcDbSymbolTable
 70
     0
  0
ENDTAB
  0
TABLE
  2
UCS
  5
7
330
0
100
AcDbSymbolTable
 70
     0
  0
ENDTAB
  0
TABLE
  2
APPID
  5
9
330
0
100
AcDbSymbolTable
 70
     1
  0
APPID
  5
12
330
9
100
AcDbSymbolTableRecord
100
AcDbRegAppTableRecord
  2
ACAD
 70
     0
  0
ENDTAB
  0
TABLE
  2
DIMSTYLE
  5
A
330
0
100
AcDbSymbolTable
 70
     2
  0
DIMSTYLE
105
27
330
A
100
AcDbSymbolTableRecord
100
AcDbDimStyleTableRecord
  2
STANDARD
 70
     0
  3

  4

  5

  6

  7

 40
1.0
 41
0.18
 42
0.0625
 43
0.38
 44
0.18
 45
0.0
 46
0.0
 47
0.0
 48
0.0
140
0.18
141
0.09
142
0.0
143
25.4
144
1.0
145
0.0
146
1.0
147
0.09
 71
     0
 72
     0
 73
     1
 74
     1
 75
     0
 76
     0
 77
     0
 78
     0
170
     0
171
     2
172
     0
173
     0
174
     0
175
     0
176
     0
177
     0
178
     0
270
     2
271
     4
272
     4
273
     2
274
     2
340
11
275
     0
280
     0
281
     0
282
     0
283
     1
284
     0
285
     0
286
     0
287
     3
288
     0
  0
DIMSTYLE
105
6F
330
A
100
AcDbSymbolTableRecord
100
AcDbDimStyleTableRecord
  2
ONSHAPE-STANDARD
 70
     0
  3

  4

  5

  6

  7

 40
1.0
 41
0.18
 42
0.0625
 43
0.38
 44
0.08
 45
0.0
 46
0.0
 47
0.0
 48
0.0
140
0.12
141
0.09
142
0.0
143
0.0393700787401575
144
25.4
145
0.0
146
1.0
147
0.09
 71
     0
 72
     0
 73
     1
 74
     1
 75
     0
 76
     0
 77
     0
 78
    11
170
     0
171
     3
172
     0
173
     0
174
     0
175
     0
176
     0
177
     0
178
     0
179
     1
270
     2
271
     2
272
     2
273
     2
274
     3
340
70
275
     0
280
     0
281
     0
282
     0
283
     1
284
    11
285
     0
286
     0
287
     3
288
     1
  0
ENDTAB
  0
TABLE
  2
BLOCK_RECORD
  5
1
330
0
100
AcDbSymbolTable
 70
     1
  0
BLOCK_RECORD
  5
1F
330
1
100
AcDbSymbolTableRecord
100
AcDbBlockTableRecord
  2
*MODEL_SPACE
  0
BLOCK_RECORD
  5
1B
330
1
100
AcDbSymbolTableRecord
100
AcDbBlockTableRecord
  2
*PAPER_SPACE
  0
ENDTAB
  0
ENDSEC
  0
SECTION
  2
BLOCKS
  0
BLOCK
  5
20
330
1F
100
AcDbEntity
  8
0
100
AcDbBlockBegin
  2
*MODEL_SPACE
 70
     0
 10
0.0
 20
0.0
 30
0.0
  3
*MODEL_SPACE
  1

  0
ENDBLK
  5
21
330
1F
100
AcDbEntity
  8
0
100
AcDbBlockEnd
  0
BLOCK
  5
1C
330
1B
100
AcDbEntity
 67
     1
  8
0
100
AcDbBlockBegin
  2
*PAPER_SPACE
 70
     0
 10
0.0
 20
0.0
 30
0.0
  3
*PAPER_SPACE
  1

  0
ENDBLK
  5
1D
330
1B
100
AcDbEntity
 67
     1
  8
0
100
AcDbBlockEnd
  0
ENDSEC
  0
SECTION
  2
ENTITIES
  0
LINE
  5
71
330
1F
100
AcDbEntity
  8
TITLE_BLOCK
100
AcDbLine
 10
13.28
 20
0.62
 30
0.0
 11
13.28
 21
2.62
 31
0.0
  0
LINE
  5
74
330
1F
100
AcDbEntity
  8
TITLE_BLOCK
100
AcDbLine
 10
13.28
 20
0.62
 30
0.0
 11
14.88
 21
0.62
 31
0.0
  0
LINE
  5
75
330
1F
100
AcDbEntity
  8
TITLE_BLOCK
100
AcDbLine
 10
13.28
 20
1.02
 30
0.0
 11
14.88
 21
1.02
 31
0.0
  0
LINE
  5
76
330
1F
100
AcDbEntity
  8
TITLE_BLOCK
100
AcDbLine
 10
13.28
 20
1.18
 30
0.0
 11
14.88
 21
1.18
 31
0.0
  0
LINE
  5
77
330
1F
100
AcDbEntity
  8
TITLE_BLOCK
100
AcDbLine
 10
13.28
 20
1.452
 30
0.0
 11
14.88
 21
1.452
 31
0.0
  0
LINE
  5
78
330
1F
100
AcDbEntity
  8
TITLE_BLOCK
100
AcDbLine
 10
13.28
 20
1.684
 30
0.0
 11
14.88
 21
1.684
 31
0.0
  0
LINE
  5
79
330
1F
100
AcDbEntity
  8
TITLE_BLOCK
100
AcDbLine
 10
13.28
 20
2.62
 30
0.0
 11
14.88
 21
2.62
 31
0.0
  0
MTEXT
  5
7A
330
1F
100
AcDbEntity
  8
TITLE_BLOCK
100
AcDbMText
 10
13.3152
 20
2.5624
 30
0.0
 40
0.064
 41
1.6
 71
     1
 72
     1
  1
UNLESS OTHERWISE SPECIFIED, DIMENSIONS ARE IN MILLIMETERS
  7
ONSHAPE-STANDARD
  0
MTEXT
  5
7C
330
1F
100
AcDbEntity
  8
TITLE_BLOCK
100
AcDbMText
 10
14.11168
 20
2.32816
 30
0.0
 40
0.0576
 41
0.8000000000000007
 71
     1
 72
     1
  1
^JANGULAR = ± °^J
  7
ONSHAPE-STANDARD
  0
MTEXT
  5
7D
330
1F
100
AcDbEntity
  8
TITLE_BLOCK
100
AcDbMText
 10
13.3152
 20
1.9384
 30
0.0
 40
0.064
 41
0.7999999999999989
 71
     1
 72
     1
  1
SURFACE FINISH
  7
ONSHAPE-STANDARD
  0
LINE
  5
7E
330
1F
100
AcDbEntity
  8
TITLE_BLOCK
100
AcDbLine
 10
14.0
 20
1.844
 30
0.0
 11
14.04
 21
1.774717967697245
 31
0.0
  0
LINE
  5
7F
330
1F
100
AcDbEntity
  8
TITLE_BLOCK
100
AcDbLine
 10
14.04
 20
1.774717967697245
 30
0.0
 11
14.124
 21
1.920210235533031
 31
0.0
  0
LINE
  5
80
330
1F
100
AcDbEntity
  8
TITLE_BLOCK
100
AcDbLine
 10
14.124
 20
1.920210235533031
 30
0.0
 11
14.212
 21
1.920210235533031
 31
0.0
  0
MTEXT
  5
81
330
1F
100
AcDbEntity
  8
TITLE_BLOCK
100
AcDbMText
 10
14.08
 20
1.60912
 30
0.0
 40
0.0832
 41
1.6
 71
     2
 72
     1
  1
DO NOT SCALE DRAWING
  7
ONSHAPE-STANDARD
  0
MTEXT
  5
82
330
1F
100
AcDbEntity
  8
TITLE_BLOCK
100
AcDbMText
 10
14.08
 20
1.3944
 30
0.0
 40
0.064
 41
1.6
 71
     2
 72
     1
  1
BREAK ALL SHARP EDGES AND REMOVE BURRS
  7
ONSHAPE-STANDARD
  0
CIRCLE
  5
83
330
1F
100
AcDbEntity
  8
TITLE_BLOCK
100
AcDbCircle
 10
13.9
 20
0.8184
 30
0.0
 40
0.072
  0
CIRCLE
  5
84
330
1F
100
AcDbEntity
  8
TITLE_BLOCK
100
AcDbCircle
 10
13.9
 20
0.8184
 30
0.0
 40
0.144
  0
LINE
  5
85
330
1F
100
AcDbEntity
  8
TITLE_BLOCK
100
AcDbLine
 10
13.936
 20
0.8184
 30
0.0
 11
13.864
 21
0.8184
 31
0.0
  0
LINE
  5
86
330
1F
100
AcDbEntity
  8
TITLE_BLOCK
100
AcDbLine
 10
13.9
 20
0.8544
 30
0.0
 11
13.9
 21
0.7824
 31
0.0
  0
LINE
  5
87
330
1F
100
AcDbEntity
  8
TITLE_BLOCK
100
AcDbLine
 10
13.972
 20
0.8184
 30
0.0
 11
14.08
 21
0.8184
 31
0.0
  0
LINE
  5
88
330
1F
100
AcDbEntity
  8
TITLE_BLOCK
100
AcDbLine
 10
13.9
 20
0.8904
 30
0.0
 11
13.9
 21
0.9984000000000001
 31
0.0
  0
LINE
  5
89
330
1F
100
AcDbEntity
  8
TITLE_BLOCK
100
AcDbLine
 10
13.828
 20
0.8184
 30
0.0
 11
13.72
 21
0.8184
 31
0.0
  0
LINE
  5
8A
330
1F
100
AcDbEntity
  8
TITLE_BLOCK
100
AcDbLine
 10
13.9
 20
0.7464000000000001
 30
0.0
 11
13.9
 21
0.6384
 31
0.0
  0
LINE
  5
8B
330
1F
100
AcDbEntity
  8
TITLE_BLOCK
100
AcDbLine
 10
14.404
 20
0.6744
 30
0.0
 11
14.404
 21
0.9624
 31
0.0
  0
LINE
  5
8C
330
1F
100
AcDbEntity
  8
TITLE_BLOCK
100
AcDbLine
 10
14.404
 20
0.9624
 30
0.0
 11
14.116
 21
0.8904
 31
0.0
  0
LINE
  5
8D
330
1F
100
AcDbEntity
  8
TITLE_BLOCK
100
AcDbLine
 10
14.116
 20
0.8904
 30
0.0
 11
14.116
 21
0.7464000000000001
 31
0.0
  0
LINE
  5
8E
330
1F
100
AcDbEntity
  8
TITLE_BLOCK
100
AcDbLine
 10
14.116
 20
0.7464000000000001
 30
0.0
 11
14.404
 21
0.6744
 31
0.0
  0
LINE
  5
8F
330
1F
100
AcDbEntity
  8
TITLE_BLOCK
100
AcDbLine
 10
14.296
 20
0.8184
 30
0.0
 11
14.422
 21
0.8184
 31
0.0
  0
LINE
  5
90
330
1F
100
AcDbEntity
  8
TITLE_BLOCK
100
AcDbLine
 10
14.2744
 20
0.8184
 30
0.0
 11
14.2456
 21
0.8184
 31
0.0
  0
LINE
  5
91
330
1F
100
AcDbEntity
  8
TITLE_BLOCK
100
AcDbLine
 10
14.224
 20
0.8184
 30
0.0
 11
14.098
 21
0.8184
 31
0.0
  0
MTEXT
  5
92
330
1F
100
AcDbEntity
  8
TITLE_BLOCK
100
AcDbMText
 10
14.08
 20
1.1224
 30
0.0
 40
0.064
 41
1.6
 71
     2
 72
     1
  1
THIRD ANGLE PROJECTION
  7
ONSHAPE-STANDARD
  0
LINE
  5
93
330
1F
100
AcDbEntity
  8
TITLE_BLOCK
100
AcDbLine
 10
14.88
 20
0.62
 30
0.0
 11
14.88
 21
2.62
 31
0.0
  0
LINE
  5
94
330
1F
100
AcDbEntity
  8
TITLE_BLOCK
100
AcDbLine
 10
15.68
 20
1.18
 30
0.0
 11
15.68
 21
2.62
 31
0.0
  0
LINE
  5
95
330
1F
100
AcDbEntity
  8
TITLE_BLOCK
100
AcDbLine
 10
16.68
 20
1.18
 30
0.0
 11
16.68
 21
2.62
 31
0.0
  0
LINE
  5
96
330
1F
100
AcDbEntity
  8
TITLE_BLOCK
100
AcDbLine
 10
16.08
 20
0.62
 30
0.0
 11
16.08
 21
1.18
 31
0.0
  0
LINE
  5
97
330
1F
100
AcDbEntity
  8
TITLE_BLOCK
100
AcDbLine
 10
14.88
 20
2.62
 30
0.0
 11
17.28
 21
2.62
 31
0.0
  0
LINE
  5
98
330
1F
100
AcDbEntity
  8
TITLE_BLOCK
100
AcDbLine
 10
14.88
 20
2.38
 30
0.0
 11
17.28
 21
2.38
 31
0.0
  0
LINE
  5
99
330
1F
100
AcDbEntity
  8
TITLE_BLOCK
100
AcDbLine
 10
14.88
 20
2.14
 30
0.0
 11
17.28
 21
2.14
 31
0.0
  0
LINE
  5
9A
330
1F
100
AcDbEntity
  8
TITLE_BLOCK
100
AcDbLine
 10
14.88
 20
1.9
 30
0.0
 11
17.28
 21
1.9
 31
0.0
  0
LINE
  5
9B
330
1F
100
AcDbEntity
  8
TITLE_BLOCK
100
AcDbLine
 10
14.88
 20
1.66
 30
0.0
 11
17.28
 21
1.66
 31
0.0
  0
LINE
  5
9C
330
1F
100
AcDbEntity
  8
TITLE_BLOCK
100
AcDbLine
 10
14.88
 20
1.42
 30
0.0
 11
17.28
 21
1.42
 31
0.0
  0
LINE
  5
9D
330
1F
100
AcDbEntity
  8
TITLE_BLOCK
100
AcDbLine
 10
14.88
 20
1.18
 30
0.0
 11
17.28
 21
1.18
 31
0.0
  0
MTEXT
  5
9E
330
1F
100
AcDbEntity
  8
TITLE_BLOCK
100
AcDbMText
 10
15.7152
 20
2.5624
 30
0.0
 40
0.064
 41
1.0
 71
     1
 72
     1
  1
NAME
  7
ONSHAPE-STANDARD
  0
MTEXT
  5
9F
330
1F
100
AcDbEntity
  8
TITLE_BLOCK
100
AcDbMText
 10
16.98
 20
2.5624
 30
0.0
 40
0.064
 41
0.5999999999999979
 71
     2
 72
     1
  1
DATE
  7
ONSHAPE-STANDARD
  0
MTEXT
  5
A0
330
1F
100
AcDbEntity
  8
TITLE_BLOCK
100
AcDbMText
 10
14.9152
 20
2.3224
 30
0.0
 40
0.064
 41
0.8000000000000007
 71
     1
 72
     1
  1
DRAWN
  7
ONSHAPE-STANDARD
  0
MTEXT
  5
A1
102
{ACAD_XDICTIONARY
360
A2
102
}
330
1F
100
AcDbEntity
  8
TITLE_BLOCK
100
AcDbMText
 10
16.18
 20
2.26
 30
0.0
 40
0.05376
 41
1.0
 71
     5
 72
     1
  1
Bar Smith
  7
ONSHAPE-STANDARD-FIELDS
1001
ACAD
1000
ACAD_MTEXT_DEFINED_HEIGHT_BEGIN
1070
    46
1040
0.2400000000000002
1000
ACAD_MTEXT_DEFINED_HEIGHT_END
  0
MTEXT
  5
A8
102
{ACAD_XDICTIONARY
360
A9
102
}
330
1F
100
AcDbEntity
  8
TITLE_BLOCK
100
AcDbMText
 10
16.98
 20
2.26
 30
0.0
 40
0.05376
 41
0.5999999999999979
 71
     5
 72
     1
  1
10/14/2017
  7
ONSHAPE-STANDARD-FIELDS
1001
ACAD
1000
ACAD_MTEXT_DEFINED_HEIGHT_BEGIN
1070
    46
1040
0.2400000000000002
1000
ACAD_MTEXT_DEFINED_HEIGHT_END
  0
MTEXT
  5
AE
330
1F
100
AcDbEntity
  8
TITLE_BLOCK
100
AcDbMText
 10
14.9152
 20
2.0824
 30
0.0
 40
0.064
 41
0.8000000000000007
 71
     1
 72
     1
  1
CHECKED
  7
ONSHAPE-STANDARD
  0
MTEXT
  5
AF
330
1F
100
AcDbEntity
  8
TITLE_BLOCK
100
AcDbMText
 10
16.18
 20
2.02
 30
0.0
 40
0.05376
 41
1.0
 71
     5
 72
     1
  1
 
  7
ONSHAPE-STANDARD-FIELDS
1001
ACAD
1000
ACAD_MTEXT_DEFINED_HEIGHT_BEGIN
1070
    46
1040
0.2399999999999998
1000
ACAD_MTEXT_DEFINED_HEIGHT_END
  0
MTEXT
  5
B0
330
1F
100
AcDbEntity
  8
TITLE_BLOCK
100
AcDbMText
 10
16.98
 20
2.02
 30
0.0
 40
0.05376
 41
0.5999999999999979
 71
     5
 72
     1
  1
 
  7
ONSHAPE-STANDARD-FIELDS
1001
ACAD
1000
ACAD_MTEXT_DEFINED_HEIGHT_BEGIN
1070
    46
1040
0.2399999999999998
1000
ACAD_MTEXT_DEFINED_HEIGHT_END
  0
MTEXT
  5
B1
330
1F
100
AcDbEntity
  8
TITLE_BLOCK
100
AcDbMText
 10
14.9152
 20
1.8424
 30
0.0
 40
0.064
 41
0.8000000000000007
 71
     1
 72
     1
  1
APPROVED
  7
ONSHAPE-STANDARD
  0
MTEXT
  5
B2
330
1F
100
AcDbEntity
  8
TITLE_BLOCK
100
AcDbMText
 10
16.18
 20
1.78
 30
0.0
 40
0.05376
 41
1.0
 71
     5
 72
     1
  1
 
  7
ONSHAPE-STANDARD-FIELDS
1001
ACAD
1000
ACAD_MTEXT_DEFINED_HEIGHT_BEGIN
1070
    46
1040
0.2400000000000002
1000
ACAD_MTEXT_DEFINED_HEIGHT_END
  0
MTEXT
  5
B3
330
1F
100
AcDbEntity
  8
TITLE_BLOCK
100
AcDbMText
 10
16.98
 20
1.78
 30
0.0
 40
0.05376
 41
0.5999999999999979
 71
     5
 72
     1
  1
 
  7
ONSHAPE-STANDARD-FIELDS
1001
ACAD
1000
ACAD_MTEXT_DEFINED_HEIGHT_BEGIN
1070
    46
1040
0.2400000000000002
1000
ACAD_MTEXT_DEFINED_HEIGHT_END
  0
MTEXT
  5
B4
330
1F
100
AcDbEntity
  8
TITLE_BLOCK
100
AcDbMText
 10
15.28
 20
1.54
 30
0.0
 40
0.096
 41
0.8000000000000007
 71
     5
 72
     1
  1
 
  7
ONSHAPE-STANDARD-FIELDS
1001
ACAD
1000
ACAD_MTEXT_DEFINED_HEIGHT_BEGIN
1070
    46
1040
0.24
1000
ACAD_MTEXT_DEFINED_HEIGHT_END
  0
MTEXT
  5
B5
330
1F
100
AcDbEntity
  8
TITLE_BLOCK
100
AcDbMText
 10
16.18
 20
1.54
 30
0.0
 40
0.05376
 41
1.0
 71
     5
 72
     1
  1
 
  7
ONSHAPE-STANDARD-FIELDS
1001
ACAD
1000
ACAD_MTEXT_DEFINED_HEIGHT_BEGIN
1070
    46
1040
0.24
1000
ACAD_MTEXT_DEFINED_HEIGHT_END
  0
MTEXT
  5
B6
330
1F
100
AcDbEntity
  8
TITLE_BLOCK
100
AcDbMText
 10
16.98
 20
1.54
 30
0.0
 40
0.05376
 41
0.5999999999999979
 71
     5
 72
     1
  1
 
  7
ONSHAPE-STANDARD-FIELDS
1001
ACAD
1000
ACAD_MTEXT_DEFINED_HEIGHT_BEGIN
1070
    46
1040
0.24
1000
ACAD_MTEXT_DEFINED_HEIGHT_END
  0
MTEXT
  5
B7
330
1F
100
AcDbEntity
  8
TITLE_BLOCK
100
AcDbMText
 10
15.28
 20
1.3
 30
0.0
 40
0.096
 41
0.8000000000000007
 71
     5
 72
     1
  1
 
  7
ONSHAPE-STANDARD-FIELDS
1001
ACAD
1000
ACAD_MTEXT_DEFINED_HEIGHT_BEGIN
1070
    46
1040
0.24
1000
ACAD_MTEXT_DEFINED_HEIGHT_END
  0
MTEXT
  5
B8
330
1F
100
AcDbEntity
  8
TITLE_BLOCK
100
AcDbMText
 10
16.18
 20
1.3
 30
0.0
 40
0.05376
 41
1.0
 71
     5
 72
     1
  1
 
  7
ONSHAPE-STANDARD-FIELDS
1001
ACAD
1000
ACAD_MTEXT_DEFINED_HEIGHT_BEGIN
1070
    46
1040
0.24
1000
ACAD_MTEXT_DEFINED_HEIGHT_END
  0
MTEXT
  5
B9
330
1F
100
AcDbEntity
  8
TITLE_BLOCK
100
AcDbMText
 10
16.98
 20
1.3
 30
0.0
 40
0.05376
 41
0.5999999999999979
 71
     5
 72
     1
  1
 
  7
ONSHAPE-STANDARD-FIELDS
1001
ACAD
1000
ACAD_MTEXT_DEFINED_HEIGHT_BEGIN
1070
    46
1040
0.24
1000
ACAD_MTEXT_DEFINED_HEIGHT_END
  0
MTEXT
  5
BA
330
1F
100
AcDbEntity
  8
TITLE_BLOCK
100
AcDbMText
 10
14.9152
 20
1.1224
 30
0.0
 40
0.064
 41
1.199999999999999
 71
     1
 72
     1
  1
MATERIAL
  7
ONSHAPE-STANDARD
  0
MTEXT
  5
BB
330
1F
100
AcDbEntity
  8
TITLE_BLOCK
100
AcDbMText
 10
15.48
 20
0.9
 30
0.0
 40
0.096
 41
1.199999999999999
 71
     5
 72
     1
  1
 
  7
ONSHAPE-STANDARD-FIELDS
1001
ACAD
1000
ACAD_MTEXT_DEFINED_HEIGHT_BEGIN
1070
    46
1040
0.56
1000
ACAD_MTEXT_DEFINED_HEIGHT_END
  0
MTEXT
  5
BC
330
1F
100
AcDbEntity
  8
TITLE_BLOCK
100
AcDbMText
 10
16.1152
 20
1.1224
 30
0.0
 40
0.064
 41
1.199999999999999
 71
     1
 72
     1
  1
FINISH
  7
ONSHAPE-STANDARD
  0
MTEXT
  5
BD
330
1F
100
AcDbEntity
  8
TITLE_BLOCK
100
AcDbMText
 10
16.68
 20
0.9
 30
0.0
 40
0.096
 41
1.199999999999999
 71
     5
 72
     1
  1
 
  7
ONSHAPE-STANDARD-FIELDS
1001
ACAD
1000
ACAD_MTEXT_DEFINED_HEIGHT_BEGIN
1070
    46
1040
0.56
1000
ACAD_MTEXT_DEFINED_HEIGHT_END
  0
LINE
  5
BE
330
1F
100
AcDbEntity
  8
TITLE_BLOCK
100
AcDbLine
 10
17.28
 20
0.62
 30
0.0
 11
17.28
 21
2.62
 31
0.0
  0
LINE
  5
BF
330
1F
100
AcDbEntity
  8
TITLE_BLOCK
100
AcDbLine
 10
17.78
 20
0.88
 30
0.0
 11
17.78
 21
1.28
 31
0.0
  0
LINE
  5
C0
330
1F
100
AcDbEntity
  8
TITLE_BLOCK
100
AcDbLine
 10
18.16
 20
0.62
 30
0.0
 11
18.16
 21
0.88
 31
0.0
  0
LINE
  5
C1
330
1F
100
AcDbEntity
  8
TITLE_BLOCK
100
AcDbLine
 10
19.98
 20
0.62
 30
0.0
 11
19.98
 21
0.88
 31
0.0
  0
LINE
  5
C2
330
1F
100
AcDbEntity
  8
TITLE_BLOCK
100
AcDbLine
 10
20.98
 20
0.88
 30
0.0
 11
20.98
 21
1.28
 31
0.0
  0
LINE
  5
C3
330
1F
100
AcDbEntity
  8
TITLE_BLOCK
100
AcDbLine
 10
17.28
 20
0.88
 30
0.0
 11
21.38
 21
0.88
 31
0.0
  0
LINE
  5
C4
330
1F
100
AcDbEntity
  8
TITLE_BLOCK
100
AcDbLine
 10
17.28
 20
1.28
 30
0.0
 11
21.38
 21
1.28
 31
0.0
  0
LINE
  5
C5
330
1F
100
AcDbEntity
  8
TITLE_BLOCK
100
AcDbLine
 10
17.28
 20
2.12
 30
0.0
 11
21.38
 21
2.12
 31
0.0
  0
LINE
  5
C6
330
1F
100
AcDbEntity
  8
TITLE_BLOCK
100
AcDbLine
 10
17.28
 20
2.62
 30
0.0
 11
21.38
 21
2.62
 31
0.0
  0
MTEXT
  5
C7
330
1F
100
AcDbEntity
  8
TITLE_BLOCK
100
AcDbMText
 10
17.3152
 20
2.0624
 30
0.0
 40
0.064
 41
0.5000000000000018
 71
     1
 72
     1
  1
TITLE
  7
ONSHAPE-STANDARD
  0
MTEXT
  5
C8
102
{ACAD_XDICTIONARY
360
C9
102
}
330
1F
100
AcDbEntity
  8
TITLE_BLOCK
100
AcDbMText
 10
19.33
 20
1.96
 30
0.0
 40
0.1536
 41
3.700000000000002
 71
     5
 72
     1
  1
Track}
  7
ONSHAPE-STANDARD-FIELDS
1001
ACAD
1000
ACAD_MTEXT_DEFINED_HEIGHT_BEGIN
1070
    46
1040
0.1556926430517711
1000
ACAD_MTEXT_DEFINED_HEIGHT_END
  0
MTEXT
  5
CA
102
{ACAD_XDICTIONARY
360
CB
102
}
330
1F
100
AcDbEntity
  8
TITLE_BLOCK
100
AcDbMText
 10
19.33
 20
1.708
 30
0.0
 40
0.1536
 41
3.700000000000002
 71
     5
 72
     1
  1
----
  7
ONSHAPE-STANDARD-FIELDS
1001
ACAD
1000
ACAD_MTEXT_DEFINED_HEIGHT_BEGIN
1070
    46
1040
0.2519999999999999
1000
ACAD_MTEXT_DEFINED_HEIGHT_END
  0
MTEXT
  5
D0
102
{ACAD_XDICTIONARY
360
D1
102
}
330
1F
100
AcDbEntity
  8
TITLE_BLOCK
100
AcDbMText
 10
19.33
 20
1.456
 30
0.0
 40
0.1536
 41
3.700000000000002
 71
     5
 72
     1
  1
----
  7
ONSHAPE-STANDARD-FIELDS
1001
ACAD
1000
ACAD_MTEXT_DEFINED_HEIGHT_BEGIN
1070
    46
1040
0.2519999999999999
1000
ACAD_MTEXT_DEFINED_HEIGHT_END
  0
MTEXT
  5
D6
330
1F
100
AcDbEntity
  8
TITLE_BLOCK
100
AcDbMText
 10
17.30816
 20
1.23392
 30
0.0
 40
0.0512
 41
0.5000000000000018
 71
     1
 72
     1
  1
SIZE
  7
ONSHAPE-STANDARD
  0
MTEXT
  5
D7
102
{ACAD_XDICTIONARY
360
D8
102
}
330
1F
100
AcDbEntity
  8
TITLE_BLOCK
100
AcDbMText
 10
17.53
 20
1.08
 30
0.0
 40
0.192
 41
0.5000000000000018
 71
     5
 72
     1
  1
C
  7
ONSHAPE-STANDARD-FIELDS
1001
ACAD
1000
ACAD_MTEXT_DEFINED_HEIGHT_BEGIN
1070
    46
1040
0.4000000000000001
1000
ACAD_MTEXT_DEFINED_HEIGHT_END
  0
MTEXT
  5
DD
330
1F
100
AcDbEntity
  8
TITLE_BLOCK
100
AcDbMText
 10
17.80816
 20
1.23392
 30
0.0
 40
0.0512
 41
3.200000000000001
 71
     1
 72
     1
  1
DWG NO.
  7
ONSHAPE-STANDARD
  0
MTEXT
  5
DE
102
{ACAD_XDICTIONARY
360
DF
102
}
330
1F
100
AcDbEntity
  8
TITLE_BLOCK
100
AcDbMText
 10
19.38
 20
1.08
 30
0.0
 40
0.192
 41
3.200000000000001
 71
     5
 72
     1
  1
----
  7
ONSHAPE-STANDARD-FIELDS
1001
ACAD
1000
ACAD_MTEXT_DEFINED_HEIGHT_BEGIN
1070
    46
1040
0.4000000000000001
1000
ACAD_MTEXT_DEFINED_HEIGHT_END
  0
MTEXT
  5
E4
330
1F
100
AcDbEntity
  8
TITLE_BLOCK
100
AcDbMText
 10
21.00816
 20
1.23392
 30
0.0
 40
0.0512
 41
0.3999999999999986
 71
     1
 72
     1
  1
REV.
  7
ONSHAPE-STANDARD
  0
MTEXT
  5
E5
102
{ACAD_XDICTIONARY
360
E6
102
}
330
1F
100
AcDbEntity
  8
TITLE_BLOCK
100
AcDbMText
 10
21.2
 20
1.08
 30
0.0
 40
0.192
 41
0.3599999999999994
 71
     5
 72
     1
  1
-
  7
ONSHAPE-STANDARD-FIELDS
1001
ACAD
1000
ACAD_MTEXT_DEFINED_HEIGHT_BEGIN
1070
    46
1040
0.4000000000000001
1000
ACAD_MTEXT_DEFINED_HEIGHT_END
  0
MTEXT
  5
EB
330
1F
100
AcDbEntity
  8
TITLE_BLOCK
100
AcDbMText
 10
17.30816
 20
0.83392
 30
0.0
 40
0.0512
 41
0.8800000000000008
 71
     1
 72
     1
  1
SCALE
  7
ONSHAPE-STANDARD
  0
MTEXT
  5
EC
102
{ACAD_XDICTIONARY
360
ED
102
}
330
1F
100
AcDbEntity
  8
TITLE_BLOCK
100
AcDbMText
 10
17.76
 20
0.75
 30
0.0
 40
0.1152
 41
0.8000000000000007
 71
     5
 72
     1
  1
1:1
  7
ONSHAPE-STANDARD-FIELDS
1001
ACAD
1000
ACAD_MTEXT_DEFINED_HEIGHT_BEGIN
1070
    46
1040
0.26
1000
ACAD_MTEXT_DEFINED_HEIGHT_END
  0
MTEXT
  5
F2
330
1F
100
AcDbEntity
  8
TITLE_BLOCK
100
AcDbMText
 10
18.18816
 20
0.83392
 30
0.0
 40
0.0512
 41
1.82
 71
     1
 72
     1
  1
WEIGHT
  7
ONSHAPE-STANDARD
  0
MTEXT
  5
F3
330
1F
100
AcDbEntity
  8
TITLE_BLOCK
100
AcDbMText
 10
19.07
 20
0.75
 30
0.0
 40
0.1152
 41
1.82
 71
     5
 72
     1
  1
 
  7
ONSHAPE-STANDARD-FIELDS
1001
ACAD
1000
ACAD_MTEXT_DEFINED_HEIGHT_BEGIN
1070
    46
1040
0.26
1000
ACAD_MTEXT_DEFINED_HEIGHT_END
  0
MTEXT
  5
F4
330
1F
100
AcDbEntity
  8
TITLE_BLOCK
100
AcDbMText
 10
20.00816
 20
0.83392
 30
0.0
 40
0.0512
 41
1.4
 71
     1
 72
     1
  1
SHEET
  7
ONSHAPE-STANDARD
  0
MTEXT
  5
F5
102
{ACAD_XDICTIONARY
360
F6
102
}
330
1F
100
AcDbEntity
  8
TITLE_BLOCK
100
AcDbMText
 10
20.72
 20
0.75
 30
0.0
 40
0.1152
 41
1.32
 71
     5
 72
     1
  1
1 of 1
  7
ONSHAPE-STANDARD-FIELDS
1001
ACAD
1000
ACAD_MTEXT_DEFINED_HEIGHT_BEGIN
1070
    46
1040
0.26
1000
ACAD_MTEXT_DEFINED_HEIGHT_END
  0
LINE
  5
FB
330
1F
100
AcDbEntity
  8
BORDER_FRAME
100
AcDbLine
 10
0.62
 20
0.62
 30
0.0
 11
0.62
 21
16.38
 31
0.0
  0
LINE
  5
FD
330
1F
100
AcDbEntity
  8
BORDER_FRAME
100
AcDbLine
 10
0.62
 20
16.38
 30
0.0
 11
21.38
 21
16.38
 31
0.0
  0
LINE
  5
FE
330
1F
100
AcDbEntity
  8
BORDER_FRAME
100
AcDbLine
 10
21.38
 20
16.38
 30
0.0
 11
21.38
 21
0.62
 31
0.0
  0
LINE
  5
FF
330
1F
100
AcDbEntity
  8
BORDER_FRAME
100
AcDbLine
 10
21.38
 20
0.62
 30
0.0
 11
0.62
 21
0.62
 31
0.0
  0
LINE
  5
100
330
1F
100
AcDbEntity
  8
BORDER_ZONES
100
AcDbLine
 10
5.5
 20
0.62
 30
0.0
 11
5.5
 21
0.031
 31
0.0
  0
LINE
  5
102
330
1F
100
AcDbEntity
  8
BORDER_ZONES
100
AcDbLine
 10
5.5
 20
16.38
 30
0.0
 11
5.5
 21
16.969
 31
0.0
  0
MTEXT
  5
103
330
1F
100
AcDbEntity
  8
BORDER_ZONES
100
AcDbMText
 10
2.75
 20
0.31
 30
0.0
 40
0.24
 41
0.0
 71
     5
 72
     1
  1
4
  7
ONSHAPE-STANDARD
  0
MTEXT
  5
104
330
1F
100
AcDbEntity
  8
BORDER_ZONES
100
AcDbMText
 10
2.75
 20
16.69
 30
0.0
 40
0.24
 41
0.0
 71
     5
 72
     1
  1
4
  7
ONSHAPE-STANDARD
  0
MTEXT
  5
105
330
1F
100
AcDbEntity
  8
BORDER_ZONES
100
AcDbMText
 10
8.25
 20
0.31
 30
0.0
 40
0.24
 41
0.0
 71
     5
 72
     1
  1
3
  7
ONSHAPE-STANDARD
  0
MTEXT
  5
106
330
1F
100
AcDbEntity
  8
BORDER_ZONES
100
AcDbMText
 10
8.25
 20
16.69
 30
0.0
 40
0.24
 41
0.0
 71
     5
 72
     1
  1
3
  7
ONSHAPE-STANDARD
  0
LINE
  5
107
330
1F
100
AcDbEntity
  8
BORDER_ZONES
100
AcDbLine
 10
11.0
 20
0.62
 30
0.0
 11
11.0
 21
0.031
 31
0.0
  0
LINE
  5
108
330
1F
100
AcDbEntity
  8
BORDER_ZONES
100
AcDbLine
 10
11.0
 20
16.38
 30
0.0
 11
11.0
 21
16.969
 31
0.0
  0
MTEXT
  5
109
330
1F
100
AcDbEntity
  8
BORDER_ZONES
100
AcDbMText
 10
13.75
 20
0.31
 30
0.0
 40
0.24
 41
0.0
 71
     5
 72
     1
  1
2
  7
ONSHAPE-STANDARD
  0
MTEXT
  5
10A
330
1F
100
AcDbEntity
  8
BORDER_ZONES
100
AcDbMText
 10
13.75
 20
16.69
 30
0.0
 40
0.24
 41
0.0
 71
     5
 72
     1
  1
2
  7
ONSHAPE-STANDARD
  0
LINE
  5
10B
330
1F
100
AcDbEntity
  8
BORDER_ZONES
100
AcDbLine
 10
16.5
 20
0.62
 30
0.0
 11
16.5
 21
0.031
 31
0.0
  0
LINE
  5
10C
330
1F
100
AcDbEntity
  8
BORDER_ZONES
100
AcDbLine
 10
16.5
 20
16.38
 30
0.0
 11
16.5
 21
16.969
 31
0.0
  0
MTEXT
  5
10D
330
1F
100
AcDbEntity
  8
BORDER_ZONES
100
AcDbMText
 10
19.25
 20
0.31
 30
0.0
 40
0.24
 41
0.0
 71
     5
 72
     1
  1
1
  7
ONSHAPE-STANDARD
  0
MTEXT
  5
10E
330
1F
100
AcDbEntity
  8
BORDER_ZONES
100
AcDbMText
 10
19.25
 20
16.69
 30
0.0
 40
0.24
 41
0.0
 71
     5
 72
     1
  1
1
  7
ONSHAPE-STANDARD
  0
LINE
  5
10F
330
1F
100
AcDbEntity
  8
BORDER_ZONES
100
AcDbLine
 10
0.62
 20
4.25
 30
0.0
 11
0.031
 21
4.25
 31
0.0
  0
LINE
  5
110
330
1F
100
AcDbEntity
  8
BORDER_ZONES
100
AcDbLine
 10
21.38
 20
4.25
 30
0.0
 11
21.969
 21
4.25
 31
0.0
  0
MTEXT
  5
111
330
1F
100
AcDbEntity
  8
BORDER_ZONES
100
AcDbMText
 10
0.31
 20
2.125
 30
0.0
 40
0.24
 41
0.0
 71
     5
 72
     1
  1
A
  7
ONSHAPE-STANDARD
  0
MTEXT
  5
112
330
1F
100
AcDbEntity
  8
BORDER_ZONES
100
AcDbMText
 10
21.69
 20
2.125
 30
0.0
 40
0.24
 41
0.0
 71
     5
 72
     1
  1
A
  7
ONSHAPE-STANDARD
  0
MTEXT
  5
113
330
1F
100
AcDbEntity
  8
BORDER_ZONES
100
AcDbMText
 10
0.31
 20
6.375
 30
0.0
 40
0.24
 41
0.0
 71
     5
 72
     1
  1
B
  7
ONSHAPE-STANDARD
  0
MTEXT
  5
114
330
1F
100
AcDbEntity
  8
BORDER_ZONES
100
AcDbMText
 10
21.69
 20
6.375
 30
0.0
 40
0.24
 41
0.0
 71
     5
 72
     1
  1
B
  7
ONSHAPE-STANDARD
  0
LINE
  5
115
330
1F
100
AcDbEntity
  8
BORDER_ZONES
100
AcDbLine
 10
0.62
 20
8.5
 30
0.0
 11
0.031
 21
8.5
 31
0.0
  0
LINE
  5
116
330
1F
100
AcDbEntity
  8
BORDER_ZONES
100
AcDbLine
 10
21.38
 20
8.5
 30
0.0
 11
21.969
 21
8.5
 31
0.0
  0
MTEXT
  5
117
330
1F
100
AcDbEntity
  8
BORDER_ZONES
100
AcDbMText
 10
0.31
 20
10.625
 30
0.0
 40
0.24
 41
0.0
 71
     5
 72
     1
  1
C
  7
ONSHAPE-STANDARD
  0
MTEXT
  5
118
330
1F
100
AcDbEntity
  8
BORDER_ZONES
100
AcDbMText
 10
21.69
 20
10.625
 30
0.0
 40
0.24
 41
0.0
 71
     5
 72
     1
  1
C
  7
ONSHAPE-STANDARD
  0
LINE
  5
119
330
1F
100
AcDbEntity
  8
BORDER_ZONES
100
AcDbLine
 10
0.62
 20
12.75
 30
0.0
 11
0.031
 21
12.75
 31
0.0
  0
LINE
  5
11A
330
1F
100
AcDbEntity
  8
BORDER_ZONES
100
AcDbLine
 10
21.38
 20
12.75
 30
0.0
 11
21.969
 21
12.75
 31
0.0
  0
MTEXT
  5
11B
330
1F
100
AcDbEntity
  8
BORDER_ZONES
100
AcDbMText
 10
0.31
 20
14.875
 30
0.0
 40
0.24
 41
0.0
 71
     5
 72
     1
  1
D
  7
ONSHAPE-STANDARD
  0
MTEXT
  5
11C
330
1F
100
AcDbEntity
  8
BORDER_ZONES
100
AcDbMText
 10
21.69
 20
14.875
 30
0.0
 40
0.24
 41
0.0
 71
     5
 72
     1
  1
D
  7
ONSHAPE-STANDARD
  0
MTEXT
  5
11D
330
1F
100
AcDbEntity
  8
ANNOTATION_TEXT
100
AcDbMText
 10
4.522145098500638
 20
2.51924253028935
 30
0.0
 40
0.12
 41
0.0
 71
     2
 72
     1
  1
SCALE 1:2
  7
ONSHAPE-STANDARD
1001
ACAD
1000
ACAD_MTEXT_DEFINED_HEIGHT_BEGIN
1070
    46
1040
0.12
1000
ACAD_MTEXT_DEFINED_HEIGHT_END
  0
MTEXT
  5
11F
330
1F
100
AcDbEntity
  8
ANNOTATION_TEXT
 60
     1
100
AcDbMText
 10
13.99924603258972
 20
5.505174623885521
 30
0.0
 40
0.12
 41
0.0
 71
     2
 72
     1
  1

  7
ONSHAPE-STANDARD
1001
ACAD
1000
ACAD_MTEXT_DEFINED_HEIGHT_BEGIN
1070
    46
1040
0.12
1000
ACAD_MTEXT_DEFINED_HEIGHT_END
  0
MTEXT
  5
125
330
1F
100
AcDbEntity
  8
SHEETMETAL_BEND_LINES_DOWN
100
AcDbMText
 10
13.99924603258971
 20
13.9892084692701
 30
0.0
 40
0.12
 41
0.0
 71
     2
 72
     1
  1
DOWN 90.0° R2.3
  7
ONSHAPE-STANDARD-DIMENSION
1001
ACAD
1000
ACAD_MTEXT_DEFINED_HEIGHT_BEGIN
1070
    46
1040
0.21
1000
ACAD_MTEXT_DEFINED_HEIGHT_END
  0
MTEXT
  5
12A
330
1F
100
AcDbEntity
  8
SHEETMETAL_BEND_LINES_DOWN
100
AcDbMText
 10
9.688680294057303
 20
7.466909134285094
 30
0.0
 40
0.12
 41
0.0
 71
     2
 72
     1
  1
DOWN 90.0° R2.3
  7
ONSHAPE-STANDARD-DIMENSION
 11
0.4999999999999995
 21
-0.866025403784439
 31
0.0
1001
ACAD
1000
ACAD_MTEXT_DEFINED_HEIGHT_BEGIN
1070
    46
1040
0.21
1000
ACAD_MTEXT_DEFINED_HEIGHT_END
  0
MTEXT
  5
12F
330
1F
100
AcDbEntity
  8
SHEETMETAL_BEND_LINES_DOWN
100
AcDbMText
 10
18.30981177112212
 20
7.466909134285096
 30
0.0
 40
0.12
 41
0.0
 71
     2
 72
     1
  1
DOWN 90.0° R2.3
  7
ONSHAPE-STANDARD-DIMENSION
 11
0.5000000000000016
 21
0.8660254037844378
 31
0.0
1001
ACAD
1000
ACAD_MTEXT_DEFINED_HEIGHT_BEGIN
1070
    46
1040
0.21
1000
ACAD_MTEXT_DEFINED_HEIGHT_END
  0
LINE
  5
132
330
1F
100
AcDbEntity
  8
VISIBLE
100
AcDbLine
 10
6.002820238139647
 20
5.34819701171919
 30
0.0
 11
6.002820238139647
 21
5.418254962050074
 31
0.0
  0
LINE
  5
133
330
1F
100
AcDbEntity
  8
TANGENT_LINES
100
AcDbLine
 10
5.974981388486634
 20
5.332124244378092
 30
0.0
 11
6.002820238139647
 21
5.34819701171919
 31
0.0
  0
LINE
  5
134
330
1F
100
AcDbEntity
  8
VISIBLE
100
AcDbLine
 10
6.44311072684417
 20
4.963301547709406
 30
0.0
 11
6.462507375277807
 21
4.974500207903944
 31
0.0
  0
LINE
  5
135
330
1F
100
AcDbEntity
  8
TANGENT_LINES
100
AcDbLine
 10
6.322967009149306
 20
5.13121465261438
 30
0.0
 11
6.341180689925256
 21
5.14173032611331
 31
0.0
  0
LINE
  5
136
330
1F
100
AcDbEntity
  8
TANGENT_LINES
100
AcDbLine
 10
6.449633775070517
 20
4.977719724506905
 30
0.0
 11
6.457867212961466
 21
4.982473302089599
 31
0.0
  0
LINE
  5
137
330
1F
100
AcDbEntity
  8
VISIBLE
100
AcDbLine
 10
6.477472624723531
 20
5.381146184768438
 30
0.0
 11
6.477472624723531
 21
5.378977014084635
 31
0.0
  0
LINE
  5
138
330
1F
100
AcDbEntity
  8
VISIBLE
100
AcDbLine
 10
6.449633775070517
 20
4.996183112533333
 30
0.0
 11
6.449633775070517
 21
4.977719724506905
 31
0.0
  0
LINE
  5
139
330
1F
100
AcDbEntity
  8
VISIBLE
100
AcDbLine
 10
5.892856782010243
 20
5.299175071328844
 30
0.0
 11
5.892856782010243
 21
5.480576277445254
 31
0.0
  0
LINE
  5
13A
330
1F
100
AcDbEntity
  8
VISIBLE
100
AcDbLine
 10
5.974981388486634
 20
5.332124244378092
 30
0.0
 11
5.974981388486634
 21
5.43492742208477
 31
0.0
  0
LINE
  5
13B
330
1F
100
AcDbEntity
  8
VISIBLE
100
AcDbLine
 10
6.019523547931456
 20
5.407933554156562
 30
0.0
 11
6.019523547931456
 21
5.306407816632337
 31
0.0
  0
LINE
  5
13C
330
1F
100
AcDbEntity
  8
VISIBLE
100
AcDbLine
 10
2.184507774660522
 20
4.519385705051675
 30
0.0
 11
2.222536350498673
 21
4.513502663895717
 31
0.0
  0
LINE
  5
13D
330
1F
100
AcDbEntity
  8
VISIBLE
100
AcDbLine
 10
5.035874924079335
 20
3.445722469161612
 30
0.0
 11
5.100579685354965
 21
3.30630308520531
 31
0.0
  0
LINE
  5
13E
330
1F
100
AcDbEntity
  8
VISIBLE
100
AcDbLine
 10
5.770874814693509
 20
3.015446727546256
 30
0.0
 11
5.770874814693509
 21
3.216356319309969
 31
0.0
  0
LINE
  5
13F
330
1F
100
AcDbEntity
  8
VISIBLE
100
AcDbLine
 10
2.262932611284294
 20
4.944619387285165
 30
0.0
 11
2.504414067856561
 21
4.90726207594483
 31
0.0
  0
LINE
  5
140
330
1F
100
AcDbEntity
  8
TANGENT_LINES
100
AcDbLine
 10
5.770874814693509
 20
3.216356319309969
 30
0.0
 11
5.763686134298626
 21
3.231845772827061
 31
0.0
  0
LINE
  5
141
330
1F
100
AcDbEntity
  8
TANGENT_LINES
100
AcDbLine
 10
5.100579685354965
 20
3.338448619887505
 30
0.0
 11
5.100579685354965
 21
3.30630308520531
 31
0.0
  0
LINE
  5
142
330
1F
100
AcDbEntity
  8
VISIBLE
100
AcDbLine
 10
5.122487596653013
 20
3.222130732052119
 30
0.0
 11
5.122487596653013
 21
2.834777039131682
 31
0.0
  0
LINE
  5
143
330
1F
100
AcDbEntity
  8
TANGENT_LINES
100
AcDbLine
 10
5.883059113416061
 20
3.339791555171284
 30
0.0
 11
5.122487596653013
 21
3.222130732052119
 31
0.0
  0
LINE
  5
144
330
1F
100
AcDbEntity
  8
TANGENT_LINES
100
AcDbLine
 10
2.262932611284294
 20
4.976764921967359
 30
0.0
 11
2.262932611284294
 21
4.944619387285165
 31
0.0
  0
LINE
  5
145
330
1F
100
AcDbEntity
  8
VISIBLE
100
AcDbLine
 10
6.459941932615221
 20
5.419895034911716
 30
0.0
 11
6.442411240506911
 21
5.430016384719529
 31
0.0
  0
LINE
  5
146
330
1F
100
AcDbEntity
  8
VISIBLE
100
AcDbLine
 10
5.035874924079336
 20
3.477868003843805
 30
0.0
 11
5.100579685354965
 21
3.338448619887505
 31
0.0
  0
LINE
  5
147
330
1F
100
AcDbEntity
  8
VISIBLE
100
AcDbLine
 10
5.234671895375562
 20
3.133405439010956
 30
0.0
 11
5.234671895375562
 21
2.932495847247244
 31
0.0
  0
LINE
  5
148
330
1F
100
AcDbEntity
  8
VISIBLE
100
AcDbLine
 10
2.504414067856561
 20
4.939407610627024
 30
0.0
 11
2.504414067856561
 21
4.90726207594483
 31
0.0
  0
LINE
  5
149
330
1F
100
AcDbEntity
  8
TANGENT_LINES
100
AcDbLine
 10
2.229533477138064
 20
4.936683609160814
 30
0.0
 11
2.21919974907042
 21
4.914417519729994
 31
0.0
  0
LINE
  5
14A
330
1F
100
AcDbEntity
  8
VISIBLE
100
AcDbLine
 10
6.427362695348107
 20
4.964861510634027
 30
0.0
 11
5.915127861732655
 21
5.260600429710211
 31
0.0
  0
LINE
  5
14B
330
1F
100
AcDbEntity
  8
TANGENT_LINES
100
AcDbLine
 10
2.249259441316577
 20
4.709848761979488
 30
0.0
 11
2.265563003212799
 21
4.707326592176643
 31
0.0
  0
LINE
  5
14C
330
1F
100
AcDbEntity
  8
TANGENT_LINES
100
AcDbLine
 10
5.112297870467875
 20
2.856732847628737
 30
0.0
 11
5.122487596653013
 21
2.834777039131682
 31
0.0
  0
LINE
  5
14D
330
1F
100
AcDbEntity
  8
VISIBLE
100
AcDbLine
 10
5.710029093352466
 20
3.206943453460436
 30
0.0
 11
5.710029093352466
 21
3.006033861696723
 31
0.0
  0
LINE
  5
14E
330
1F
100
AcDbEntity
  8
VISIBLE
100
AcDbLine
 10
5.295517616716605
 20
2.941908713096778
 30
0.0
 11
5.295517616716605
 21
3.14281830486049
 31
0.0
  0
LINE
  5
14F
330
1F
100
AcDbEntity
  8
VISIBLE
100
AcDbLine
 10
6.322967009149306
 20
5.13121465261438
 30
0.0
 11
6.322967009149306
 21
5.161820545109655
 31
0.0
  0
LINE
  5
150
330
1F
100
AcDbEntity
  8
VISIBLE
100
AcDbLine
 10
5.112297870467875
 20
3.244086540549174
 30
0.0
 11
5.112297870467875
 21
2.856732847628737
 31
0.0
  0
LINE
  5
151
330
1F
100
AcDbEntity
  8
VISIBLE
100
AcDbLine
 10
2.181171173232269
 20
4.532946867965514
 30
0.0
 11
2.181171173232269
 21
4.920300560885952
 31
0.0
  0
LINE
  5
152
330
1F
100
AcDbEntity
  8
VISIBLE
100
AcDbLine
 10
5.152910457323533
 20
2.813767044310693
 30
0.0
 11
5.85263625274554
 21
2.922015001580326
 31
0.0
  0
LINE
  5
153
330
1F
100
AcDbEntity
  8
VISIBLE
100
AcDbLine
 10
5.883059113416061
 20
2.952437862250847
 30
0.0
 11
5.883059113416061
 21
3.339791555171284
 31
0.0
  0
LINE
  5
154
330
1F
100
AcDbEntity
  8
VISIBLE
100
AcDbLine
 10
5.760685088508373
 20
3.037402536043311
 30
0.0
 11
5.760685088508373
 21
3.233984652031081
 31
0.0
  0
LINE
  5
155
330
1F
100
AcDbEntity
  8
TANGENT_LINES
100
AcDbLine
 10
5.295517616716605
 20
3.14281830486049
 30
0.0
 11
5.288328936321723
 21
3.158307758377581
 31
0.0
  0
LINE
  5
156
330
1F
100
AcDbEntity
  8
TANGENT_LINES
100
AcDbLine
 10
5.285327890531468
 20
2.963864521593832
 30
0.0
 11
5.295517616716605
 21
2.941908713096778
 31
0.0
  0
LINE
  5
157
330
1F
100
AcDbEntity
  8
VISIBLE
100
AcDbLine
 10
6.367509168594127
 20
5.110918964108295
 30
0.0
 11
6.367509168594127
 21
5.105498224868625
 31
0.0
  0
LINE
  5
158
330
1F
100
AcDbEntity
  8
VISIBLE
100
AcDbLine
 10
5.285327890531468
 20
2.963864521593832
 30
0.0
 11
5.285327890531468
 21
3.160446637581602
 31
0.0
  0
LINE
  5
159
330
1F
100
AcDbEntity
  8
TANGENT_LINES
100
AcDbLine
 10
6.477472624723531
 20
5.381146184768438
 30
0.0
 11
6.4759853165926
 21
5.380287487018677
 31
0.0
  0
LINE
  5
15A
330
1F
100
AcDbEntity
  8
TANGENT_LINES
100
AcDbLine
 10
2.265563003212799
 20
4.908236183940355
 30
0.0
 11
2.254948002860621
 21
4.909878330209732
 31
0.0
  0
LINE
  5
15B
330
1F
100
AcDbEntity
  8
VISIBLE
100
AcDbLine
 10
2.262932611284294
 20
4.976764921967359
 30
0.0
 11
2.504414067856561
 21
4.939407610627024
 31
0.0
  0
LINE
  5
15C
330
1F
100
AcDbEntity
  8
TANGENT_LINES
100
AcDbLine
 10
5.760685088508373
 20
3.037402536043311
 30
0.0
 11
5.770874814693509
 21
3.015446727546256
 31
0.0
  0
LINE
  5
15D
330
1F
100
AcDbEntity
  8
VISIBLE
100
AcDbLine
 10
6.863119023769009
 20
4.598402415257016
 30
0.0
 11
6.863119023769009
 21
4.63054794993921
 31
0.0
  0
LINE
  5
15E
330
1F
100
AcDbEntity
  8
TANGENT_LINES
100
AcDbLine
 10
2.181171173232269
 20
4.920300560885952
 30
0.0
 11
2.21919974907042
 21
4.914417519729994
 31
0.0
  0
LINE
  5
15F
330
1F
100
AcDbEntity
  8
VISIBLE
100
AcDbLine
 10
5.114151510981928
 20
2.84818025933566
 30
0.0
 11
5.124341237167066
 21
2.826224450838606
 31
0.0
  0
LINE
  5
160
330
1F
100
AcDbEntity
  8
VISIBLE
100
AcDbLine
 10
5.035874924079336
 20
3.477868003843805
 30
0.0
 11
5.035874924079335
 21
3.445722469161612
 31
0.0
  0
LINE
  5
161
330
1F
100
AcDbEntity
  8
TANGENT_LINES
100
AcDbLine
 10
5.122487596653013
 20
3.222130732052119
 30
0.0
 11
5.112297870467875
 21
3.244086540549174
 31
0.0
  0
LINE
  5
162
330
1F
100
AcDbEntity
  8
TANGENT_LINES
100
AcDbLine
 10
2.181171173232269
 20
4.532946867965514
 30
0.0
 11
2.21919974907042
 21
4.527063826809557
 31
0.0
  0
LINE
  5
163
330
1F
100
AcDbEntity
  8
VISIBLE
100
AcDbLine
 10
2.389947355816557
 20
5.382401811864701
 30
0.0
 11
2.186152832113786
 21
4.943285641923595
 31
0.0
  0
LINE
  5
164
330
1F
100
AcDbEntity
  8
VISIBLE
100
AcDbLine
 10
2.21919974907042
 20
4.527063826809557
 30
0.0
 11
2.21919974907042
 21
4.914417519729994
 31
0.0
  0
LINE
  5
165
330
1F
100
AcDbEntity
  8
VISIBLE
100
AcDbLine
 10
2.265563003212799
 20
4.908236183940355
 30
0.0
 11
2.265563003212799
 21
4.707326592176643
 31
0.0
  0
LINE
  5
166
330
1F
100
AcDbEntity
  8
VISIBLE
100
AcDbLine
 10
2.414071696641515
 20
4.921238089410256
 30
0.0
 11
2.227351530018529
 21
4.518912045861446
 31
0.0
  0
LINE
  5
167
330
1F
100
AcDbEntity
  8
VISIBLE
100
AcDbLine
 10
2.249259441316577
 20
4.672197298581354
 30
0.0
 11
2.249259441316577
 21
4.873106890345067
 31
0.0
  0
ELLIPSE
  5
168
330
1F
100
AcDbEntity
  8
VISIBLE
100
AcDbEllipse
 10
6.025091317862058
 20
5.335338797846312
 30
0.0
 11
0.01574803149606296
 21
-0.02727639067037568
 31
0.0
210
0.0
220
0.0
230
1.0
 40
0.5773502691896288
 41
3.926990816987244
 42
5.245106888640085
  0
ELLIPSE
  5
169
330
1F
100
AcDbEntity
  8
VISIBLE
100
AcDbEllipse
 10
6.427362695348107
 20
4.990577938379782
 30
0.0
 11
0.01574803149606296
 21
-0.02727639067037568
 31
0.0
210
0.0
220
0.0
230
1.0
 40
0.5773502691896288
 41
5.497787143782135
 42
7.068583470577071
  0
ELLIPSE
  5
16A
330
1F
100
AcDbEntity
  8
VISIBLE
100
AcDbEllipse
 10
5.915127861732654
 20
5.286316857455966
 30
0.0
 11
0.01574803149606296
 21
-0.02727639067037568
 31
0.0
210
0.0
220
0.0
230
1.0
 40
0.5773502691896288
 41
3.926990816987244
 42
5.497787143782135
  0
ELLIPSE
  5
16B
330
1F
100
AcDbEntity
  8
VISIBLE
100
AcDbEllipse
 10
6.345238088871716
 20
5.118356438741503
 30
0.0
 11
-0.01574803149606296
 21
0.02727639067037568
 31
0.0
210
0.0
220
0.0
230
-1.0
 40
0.5773502691896288
 41
2.356194490192342
 42
5.497787143782135
  0
ELLIPSE
  5
16C
330
1F
100
AcDbEntity
  8
VISIBLE
100
AcDbEllipse
 10
6.417619097969552
 20
5.34658973498508
 30
0.0
 11
-0.04232283464566944
 21
-0.07330529992663593
 31
0.0
210
0.0
220
0.0
230
-1.0
 40
0.5773502691896271
 41
2.534100674461851
 42
3.926990816987217
  0
ELLIPSE
  5
16D
330
1F
100
AcDbEntity
  8
VISIBLE
100
AcDbEllipse
 10
2.189322954180379
 20
4.550511514763159
 30
0.0
 11
-0.004815179519856549
 21
-0.03112580971148393
 31
0.0
210
0.0
220
0.0
230
-1.0
 40
0.2113248654051879
 41
0.0
 42
0.9388820144198045
  0
ELLIPSE
  5
16E
330
1F
100
AcDbEntity
  8
VISIBLE
100
AcDbEllipse
 10
2.22735153001853
 20
4.544628473607201
 30
0.0
 11
0.004815179519856549
 21
0.03112580971148393
 31
0.0
210
0.0
220
0.0
230
1.0
 40
0.2113248654051879
 41
2.202710639169989
 42
3.773506965964791
  0
ELLIPSE
  5
16F
330
1F
100
AcDbEntity
  8
VISIBLE
100
AcDbEllipse
 10
2.466727134987067
 20
5.346768192341748
 30
0.0
 11
0.07677977917050871
 21
-0.03563361952295274
 31
0.0
210
0.0
220
0.0
230
1.0
 40
0.7886751345948155
 41
2.59444325637544
 42
3.141592653589793
  0
ELLIPSE
  5
170
330
1F
100
AcDbEntity
  8
VISIBLE
100
AcDbEllipse
 10
2.262932611284294
 20
4.907652022400642
 30
0.0
 11
-0.07677977917050871
 21
0.03563361952295274
 31
0.0
210
0.0
220
0.0
230
-1.0
 40
0.7886751345948155
 41
5.932305896307341
 42
7.503102223102228
  0
ELLIPSE
  5
171
330
1F
100
AcDbEntity
  8
VISIBLE
100
AcDbEllipse
 10
5.740451954022991
 20
3.010740294621488
 30
0.0
 11
-0.02856922015646823
 21
-0.01325902121784317
 31
0.0
210
0.0
220
0.0
230
-1.0
 40
0.7886751345948163
 41
3.492472064462047
 42
6.634064718051862
  0
ELLIPSE
  5
172
330
1F
100
AcDbEntity
  8
VISIBLE
100
AcDbEllipse
 10
5.997252468209044
 20
5.319266030505215
 30
0.0
 11
-0.01574803149606296
 21
0.02727639067037568
 31
0.0
210
0.0
220
0.0
230
-1.0
 40
0.5773502691896288
 41
2.356194490192322
 42
5.497787143782135
  0
ELLIPSE
  5
173
330
1F
100
AcDbEntity
  8
VISIBLE
100
AcDbEllipse
 10
5.152910457323534
 20
2.839483472056449
 30
0.0
 11
0.02856922015646823
 21
0.01325902121784317
 31
0.0
210
0.0
220
0.0
230
1.0
 40
0.7886751345948163
 41
2.790713242717539
 42
4.361509569512368
  0
ELLIPSE
  5
174
330
1F
100
AcDbEntity
  8
VISIBLE
100
AcDbEllipse
 10
5.740451954022991
 20
3.2116498863852
 30
0.0
 11
-0.02856922015646823
 21
-0.01325902121784317
 31
0.0
210
0.0
220
0.0
230
-1.0
 40
0.7886751345948163
 41
0.3508794108722543
 42
3.492472064462047
  0
ELLIPSE
  5
175
330
1F
100
AcDbEntity
  8
VISIBLE
100
AcDbEllipse
 10
5.265094756046084
 20
3.138111871935723
 30
0.0
 11
-0.02856922015646823
 21
-0.01325902121784317
 31
0.0
210
0.0
220
0.0
230
-1.0
 40
0.7886751345948163
 41
0.3508794108722371
 42
3.492472064462047
  0
ELLIPSE
  5
176
330
1F
100
AcDbEntity
  8
VISIBLE
100
AcDbEllipse
 10
5.100579685354965
 20
3.269335720320787
 30
0.0
 11
-0.01294079495961498
 21
0.0836506135996138
 31
0.0
210
0.0
220
0.0
230
-1.0
 40
0.2113248654051832
 41
0.6319143123750797
 42
2.202710639169978
  0
ELLIPSE
  5
177
330
1F
100
AcDbEntity
  8
VISIBLE
100
AcDbEllipse
 10
5.861151202118012
 20
3.386996543439954
 30
0.0
 11
0.01294079495961498
 21
-0.0836506135996138
 31
0.0
210
0.0
220
0.0
230
1.0
 40
0.2113248654051832
 41
0.9388820144198211
 42
2.083973331211001
  0
ELLIPSE
  5
178
330
1F
100
AcDbEntity
  8
VISIBLE
100
AcDbEllipse
 10
5.254905029860947
 20
2.959158088669065
 30
0.0
 11
0.02856922015646823
 21
0.01325902121784317
 31
0.0
210
0.0
220
0.0
230
1.0
 40
0.7886751345948163
 41
3.63393071110033
 42
5.932305896307308
  0
ELLIPSE
  5
179
330
1F
100
AcDbEntity
  8
VISIBLE
100
AcDbEllipse
 10
5.85263625274554
 20
2.947731429326081
 30
0.0
 11
0.02856922015646823
 21
0.01325902121784317
 31
0.0
210
0.0
220
0.0
230
1.0
 40
0.7886751345948163
 41
4.361509569512426
 42
5.932305896307308
  0
ELLIPSE
  5
17A
330
1F
100
AcDbEntity
  8
VISIBLE
100
AcDbEllipse
 10
2.257411222264689
 20
4.890671537142711
 30
0.0
 11
-0.004815179519856549
 21
-0.03112580971148393
 31
0.0
210
0.0
220
0.0
230
-1.0
 40
0.2113248654051879
 41
0.9388820144198045
 42
4.080474668009596
  0
ELLIPSE
  5
17B
330
1F
100
AcDbEntity
  8
VISIBLE
100
AcDbEllipse
 10
4.500914299359558
 20
4.63054794993921
 30
0.0
 11
-2.362204724409449
 21
0.0
 31
0.0
210
0.0
220
0.0
230
1.0
 40
0.5773502691896258
 41
2.172432624048168
 42
3.141592653589793
  0
ELLIPSE
  5
17C
330
1F
100
AcDbEntity
  8
VISIBLE
100
AcDbEllipse
 10
2.262932611284294
 20
4.907652022400642
 30
0.0
 11
-0.04106825397492343
 21
0.01905984300064923
 31
0.0
210
0.0
220
0.0
230
-1.0
 40
0.7886751345948182
 41
5.932305896307324
 42
7.503102223102227
  0
ELLIPSE
  5
17D
330
1F
100
AcDbEntity
  8
VISIBLE
100
AcDbEllipse
 10
5.142720731138397
 20
2.861439280553503
 30
0.0
 11
-0.02856922015646823
 21
-0.01325902121784317
 31
0.0
210
0.0
220
0.0
230
-1.0
 40
0.7886751345948163
 41
0.0
 42
0.3508794108722543
  0
ELLIPSE
  5
17E
330
1F
100
AcDbEntity
  8
VISIBLE
100
AcDbEllipse
 10
5.100579685354965
 20
3.269335720320787
 30
0.0
 11
-0.006921820559793623
 21
0.04474335146025865
 31
0.0
210
0.0
220
0.0
230
-1.0
 40
0.2113248654051944
 41
0.6319143123750232
 42
2.202710639169985
  0
ELLIPSE
  5
17F
330
1F
100
AcDbEntity
  8
VISIBLE
100
AcDbEllipse
 10
5.265094756046084
 20
2.937202280172011
 30
0.0
 11
-0.02856922015646823
 21
-0.01325902121784317
 31
0.0
210
0.0
220
0.0
230
-1.0
 40
0.7886751345948163
 41
3.492472064462047
 42
6.63406471805181
  0
ELLIPSE
  5
180
330
1F
100
AcDbEntity
  8
VISIBLE
100
AcDbEllipse
 10
4.500914299359558
 20
4.598402415257016
 30
0.0
 11
-2.066929133858268
 21
0.0
 31
0.0
210
0.0
220
0.0
230
1.0
 40
0.5773502691896258
 41
3.155061761428761
 42
6.021385919380434
  0
ELLIPSE
  5
181
330
1F
100
AcDbEntity
  8
VISIBLE
100
AcDbEllipse
 10
4.500914299359558
 20
4.63054794993921
 30
0.0
 11
-2.066929133858268
 21
0.0
 31
0.0
210
0.0
220
0.0
230
1.0
 40
0.5773502691896258
 41
3.141592653589793
 42
6.021385919380434
  0
ELLIPSE
  5
182
330
1F
100
AcDbEntity
  8
VISIBLE
100
AcDbEllipse
 10
4.500914299359558
 20
4.598402415257016
 30
0.0
 11
-2.362204724409449
 21
0.0
 31
0.0
210
0.0
220
0.0
230
1.0
 40
0.5773502691896258
 41
2.179234855928476
 42
3.141592653589792
  0
ELLIPSE
  5
183
330
1F
100
AcDbEntity
  8
VISIBLE
100
AcDbEllipse
 10
2.257411222264689
 20
4.689761945378999
 30
0.0
 11
-0.004815179519856549
 21
-0.03112580971148393
 31
0.0
210
0.0
220
0.0
230
-1.0
 40
0.2113248654051879
 41
4.080474668009632
 42
7.222067321599391
  0
ELLIPSE
  5
184
330
1F
100
AcDbEntity
  8
VISIBLE
100
AcDbEllipse
 10
5.730262227837851
 20
3.032696103118545
 30
0.0
 11
0.02856922015646823
 21
0.01325902121784317
 31
0.0
210
0.0
220
0.0
230
1.0
 40
0.7886751345948163
 41
3.633930711100304
 42
5.932305896307332
  0
LINE
  5
185
330
1F
100
AcDbEntity
  8
VISIBLE
100
AcDbLine
 10
6.449633775070517
 20
5.434186316994058
 30
0.0
 11
6.449633775070517
 21
5.435793593728168
 31
0.0
  0
LINE
  5
186
330
1F
100
AcDbEntity
  8
VISIBLE
100
AcDbLine
 10
2.21919974907042
 20
4.983530419296711
 30
0.0
 11
2.21919974907042
 21
4.98513769603082
 31
0.0
  0
LINE
  5
187
330
1F
100
AcDbEntity
  8
VISIBLE
100
AcDbLine
 10
6.863119023769009
 20
4.63054794993921
 30
0.0
 11
6.863119023769009
 21
4.63215522667332
 31
0.0
  0
LINE
  5
188
330
1F
100
AcDbEntity
  8
VISIBLE
100
AcDbLine
 10
5.035874924079336
 20
3.477868003843805
 30
0.0
 11
5.112297870467875
 21
3.313199440115891
 31
0.0
  0
LINE
  5
189
330
1F
100
AcDbEntity
  8
VISIBLE
100
AcDbLine
 10
5.035874924079336
 20
3.477868003843805
 30
0.0
 11
5.035874924079336
 21
3.479475280577915
 31
0.0
  0
LINE
  5
18A
330
1F
100
AcDbEntity
  8
VISIBLE
100
AcDbLine
 10
2.21919974907042
 20
4.983530419296711
 30
0.0
 11
2.504414067856561
 21
4.939407610627024
 31
0.0
  0
LINE
  5
18B
330
1F
100
AcDbEntity
  8
VISIBLE
100
AcDbLine
 10
5.035874924079336
 20
3.479475280577915
 30
0.0
 11
5.112297870467875
 21
3.314806716850001
 31
0.0
  0
LINE
  5
18C
330
1F
100
AcDbEntity
  8
VISIBLE
100
AcDbLine
 10
6.449633775070517
 20
5.435793593728168
 30
0.0
 11
6.426271352059137
 21
5.422305292513625
 31
0.0
  0
LINE
  5
18D
330
1F
100
AcDbEntity
  8
VISIBLE
100
AcDbLine
 10
5.892856782010243
 20
5.757248940550108
 30
0.0
 11
6.449633775070517
 21
5.435793593728168
 31
0.0
  0
LINE
  5
18E
330
1F
100
AcDbEntity
  8
VISIBLE
100
AcDbLine
 10
5.869494358998864
 20
5.743760639335566
 30
0.0
 11
5.892856782010243
 21
5.757248940550108
 31
0.0
  0
LINE
  5
18F
330
1F
100
AcDbEntity
  8
VISIBLE
100
AcDbLine
 10
2.55348771474038
 20
5.404066460244641
 30
0.0
 11
2.422994272773191
 21
5.424253865971927
 31
0.0
  0
LINE
  5
190
330
1F
100
AcDbEntity
  8
VISIBLE
100
AcDbLine
 10
2.21919974907042
 20
4.98513769603082
 30
0.0
 11
2.422994272773191
 21
5.424253865971927
 31
0.0
  0
LINE
  5
191
330
1F
100
AcDbEntity
  8
VISIBLE
100
AcDbLine
 10
6.427427408224067
 20
5.421365465117536
 30
0.0
 11
6.449633775070517
 21
5.434186316994058
 31
0.0
  0
LINE
  5
192
330
1F
100
AcDbEntity
  8
VISIBLE
100
AcDbLine
 10
2.21919974907042
 20
4.98513769603082
 30
0.0
 11
2.504414067856561
 21
4.941014887361134
 31
0.0
  0
LINE
  5
193
330
1F
100
AcDbEntity
  8
VISIBLE
100
AcDbLine
 10
2.504414067856561
 20
4.939407610627024
 30
0.0
 11
2.504414067856561
 21
4.941014887361134
 31
0.0
  0
LINE
  5
194
330
1F
100
AcDbEntity
  8
VISIBLE
100
AcDbLine
 10
5.872869387230922
 20
3.432467539969167
 30
0.0
 11
5.837903774838255
 21
3.507807963816405
 31
0.0
  0
LINE
  5
195
330
1F
100
AcDbEntity
  8
VISIBLE
100
AcDbLine
 10
5.872869387230922
 20
3.430860263235058
 30
0.0
 11
5.112297870467875
 21
3.313199440115891
 31
0.0
  0
LINE
  5
196
330
1F
100
AcDbEntity
  8
VISIBLE
100
AcDbLine
 10
5.872869387230922
 20
3.430860263235058
 30
0.0
 11
5.872869387230922
 21
3.432467539969167
 31
0.0
  0
LINE
  5
197
330
1F
100
AcDbEntity
  8
VISIBLE
100
AcDbLine
 10
5.112297870467875
 20
3.314806716850001
 30
0.0
 11
5.872869387230922
 21
3.432467539969167
 31
0.0
  0
LINE
  5
198
330
1F
100
AcDbEntity
  8
VISIBLE
100
AcDbLine
 10
5.112297870467875
 20
3.313199440115891
 30
0.0
 11
5.112297870467875
 21
3.314806716850001
 31
0.0
  0
ELLIPSE
  5
199
330
1F
100
AcDbEntity
  8
VISIBLE
100
AcDbEllipse
 10
4.500914299359558
 20
4.63054794993921
 30
0.0
 11
-2.362204724409449
 21
0.0
 31
0.0
210
0.0
220
0.0
230
1.0
 40
0.5773502691896258
 41
2.172432624048168
 42
3.141592653589793
  0
ELLIPSE
  5
19A
330
1F
100
AcDbEntity
  8
VISIBLE
100
AcDbEllipse
 10
4.500914299359558
 20
4.63054794993921
 30
0.0
 11
-2.066929133858268
 21
0.0
 31
0.0
210
0.0
220
0.0
230
1.0
 40
0.5773502691896258
 41
3.141592653589793
 42
6.021385919380434
  0
ELLIPSE
  5
19B
330
1F
100
AcDbEntity
  8
VISIBLE
100
AcDbEllipse
 10
4.500914299359558
 20
4.632155226673319
 30
0.0
 11
-2.362204724409449
 21
0.0
 31
0.0
210
0.0
220
0.0
230
1.0
 40
0.5773502691896258
 41
2.172432624048168
 42
3.75954273776755
  0
ELLIPSE
  5
19C
330
1F
100
AcDbEntity
  8
VISIBLE
100
AcDbEllipse
 10
4.500914299359558
 20
4.632155226673319
 30
0.0
 11
-2.362204724409449
 21
0.0
 31
0.0
210
0.0
220
0.0
230
1.0
 40
0.5773502691896258
 41
4.094438896206929
 42
5.681549009926314
  0
ELLIPSE
  5
19D
330
1F
100
AcDbEntity
  8
VISIBLE
100
AcDbEllipse
 10
4.500914299359558
 20
4.632155226673319
 30
0.0
 11
-2.066929133858268
 21
0.0
 31
0.0
210
0.0
220
0.0
230
1.0
 40
0.5773502691896258
 41
1.832595714594047
 42
6.021385919380434
  0
LINE
  5
1A1
330
1F
100
AcDbEntity
  8
SHEETMETAL_BEND_LINES_DOWN
100
AcDbLine
 10
13.21184445778656
 20
13.7792084692701
 30
0.0
 11
14.78664760739286
 21
13.7792084692701
 31
0.0
  0
LINE
  5
1A2
330
1F
100
AcDbEntity
  8
SHEETMETAL_BEND_LINES_DOWN
100
AcDbLine
 10
9.113114171860996
 20
8.043818901044496
 30
0.0
 11
9.900515746664146
 21
6.679999367525692
 31
0.0
  0
LINE
  5
1A3
330
1F
100
AcDbEntity
  8
SHEETMETAL_BEND_LINES_DOWN
100
AcDbLine
 10
18.88537789331843
 20
8.043818901044496
 30
0.0
 11
18.09797631851528
 21
6.679999367525697
 31
0.0
  0
LINE
  5
1A4
330
1F
100
AcDbEntity
  8
VISIBLE
100
AcDbLine
 10
13.21184445778656
 20
13.87815626938316
 30
0.0
 11
13.21184445778656
 21
13.68026066915703
 31
0.0
  0
LINE
  5
1A5
330
1F
100
AcDbEntity
  8
VISIBLE
100
AcDbLine
 10
14.55436414282593
 20
14.1379987890682
 30
0.0
 11
14.55436414282593
 21
14.63012477332017
 31
0.0
  0
LINE
  5
1A6
330
1F
100
AcDbEntity
  8
VISIBLE
100
AcDbLine
 10
14.78664760739286
 20
13.87815626938316
 30
0.0
 11
14.78664760739286
 21
14.82697516702095
 31
0.0
  0
LINE
  5
1A7
330
1F
100
AcDbEntity
  8
VISIBLE
100
AcDbLine
 10
13.21184445778656
 20
14.82697516702095
 30
0.0
 11
13.21184445778656
 21
13.87815626938316
 31
0.0
  0
LINE
  5
1A8
330
1F
100
AcDbEntity
  8
VISIBLE
100
AcDbLine
 10
14.72365548140861
 20
14.8899672930052
 30
0.0
 11
13.27483658377082
 21
14.8899672930052
 31
0.0
  0
LINE
  5
1A9
330
1F
100
AcDbEntity
  8
VISIBLE
100
AcDbLine
 10
9.027422863314492
 20
7.994345000987963
 30
0.0
 11
8.205721594369422
 21
7.519935552169065
 31
0.0
  0
LINE
  5
1AA
330
1F
100
AcDbEntity
  8
VISIBLE
100
AcDbLine
 10
8.55533289432699
 20
7.30809180514393
 30
0.0
 11
8.981526498551602
 21
7.554154797269915
 31
0.0
  0
LINE
  5
1AB
330
1F
100
AcDbEntity
  8
VISIBLE
100
AcDbLine
 10
19.09141774033974
 20
6.17917273699889
 30
0.0
 11
19.81582718915864
 21
7.433886707836188
 31
0.0
  0
LINE
  5
1AC
330
1F
100
AcDbEntity
  8
VISIBLE
100
AcDbLine
 10
18.64411176925613
 20
8.183113962718203
 30
0.0
 11
18.79968658477193
 21
8.093292801101029
 31
0.0
  0
LINE
  5
1AD
330
1F
100
AcDbEntity
  8
VISIBLE
100
AcDbLine
 10
8.993123169172572
 20
6.156116018650263
 30
0.0
 11
9.81482443811765
 21
6.630525467469161
 31
0.0
  0
LINE
  5
1AE
330
1F
100
AcDbEntity
  8
VISIBLE
100
AcDbLine
 10
18.52483958237585
 20
6.701767588820665
 30
0.0
 11
18.95103318660047
 21
6.455704596694681
 31
0.0
  0
LINE
  5
1AF
330
1F
100
AcDbEntity
  8
VISIBLE
100
AcDbLine
 10
9.047458878578958
 20
6.455704596694681
 30
0.0
 11
9.47365248280357
 21
6.701767588820665
 31
0.0
  0
LINE
  5
1B0
330
1F
100
AcDbEntity
  8
VISIBLE
100
AcDbLine
 10
9.986207055210642
 20
6.729473267582228
 30
0.0
 11
10.41921975710286
 21
6.979473267582228
 31
0.0
  0
LINE
  5
1B1
330
1F
100
AcDbEntity
  8
VISIBLE
100
AcDbLine
 10
9.41066035681932
 20
6.810873151502168
 30
0.0
 11
8.984466752594706
 21
6.564810159376185
 31
0.0
  0
LINE
  5
1B2
330
1F
100
AcDbEntity
  8
VISIBLE
100
AcDbLine
 10
8.91853437256735
 20
7.663260359951419
 30
0.0
 11
8.492340768342737
 21
7.417197367825434
 31
0.0
  0
LINE
  5
1B3
330
1F
100
AcDbEntity
  8
VISIBLE
100
AcDbLine
 10
17.57927230807657
 20
6.979473267582228
 30
0.0
 11
18.01228500996879
 21
6.729473267582228
 31
0.0
  0
LINE
  5
1B4
330
1F
100
AcDbEntity
  8
VISIBLE
100
AcDbLine
 10
13.570112174322
 20
14.1379987890682
 30
0.0
 11
13.570112174322
 21
14.63012477332017
 31
0.0
  0
LINE
  5
1B5
330
1F
100
AcDbEntity
  8
VISIBLE
100
AcDbLine
 10
19.01696556662782
 20
7.554154797269915
 30
0.0
 11
19.44315917085245
 21
7.30809180514393
 31
0.0
  0
LINE
  5
1B6
330
1F
100
AcDbEntity
  8
VISIBLE
100
AcDbLine
 10
8.182664876020791
 20
7.433886707836186
 30
0.0
 11
8.907074324839689
 21
6.17917273699889
 31
0.0
  0
LINE
  5
1B7
330
1F
100
AcDbEntity
  8
VISIBLE
100
AcDbLine
 10
9.81482443811765
 20
6.630525467469161
 30
0.0
 11
9.986207055210642
 21
6.729473267582228
 31
0.0
  0
LINE
  5
1B8
330
1F
100
AcDbEntity
  8
VISIBLE
100
AcDbLine
 10
19.79277047081001
 20
7.519935552169065
 30
0.0
 11
18.97106920186494
 21
7.994345000987964
 31
0.0
  0
LINE
  5
1B9
330
1F
100
AcDbEntity
  8
VISIBLE
100
AcDbLine
 10
9.198805480407493
 20
8.093292801101027
 30
0.0
 11
9.027422863314492
 21
7.994345000987963
 31
0.0
  0
LINE
  5
1BA
330
1F
100
AcDbEntity
  8
VISIBLE
100
AcDbLine
 10
14.78664760739286
 20
13.68026066915703
 30
0.0
 11
14.78664760739286
 21
13.87815626938316
 31
0.0
  0
LINE
  5
1BB
330
1F
100
AcDbEntity
  8
VISIBLE
100
AcDbLine
 10
19.01402531258473
 20
6.564810159376185
 30
0.0
 11
18.58783170836011
 21
6.810873151502168
 31
0.0
  0
LINE
  5
1BC
330
1F
100
AcDbEntity
  8
VISIBLE
100
AcDbLine
 10
14.78664760739286
 20
13.68026066915703
 30
0.0
 11
14.78664760739286
 21
13.5862646061649
 31
0.0
  0
LINE
  5
1BD
330
1F
100
AcDbEntity
  8
VISIBLE
100
AcDbLine
 10
14.8703090247157
 20
13.5862646061649
 30
0.0
 11
14.8703090247157
 21
13.68026066915703
 31
0.0
  0
LINE
  5
1BE
330
1F
100
AcDbEntity
  8
VISIBLE
100
AcDbLine
 10
14.91979054254259
 20
13.68026066915703
 30
0.0
 11
14.8703090247157
 21
13.68026066915703
 31
0.0
  0
LINE
  5
1BF
330
1F
100
AcDbEntity
  8
VISIBLE
100
AcDbLine
 10
13.21184445778656
 20
13.68026066915703
 30
0.0
 11
13.21184445778656
 21
13.5862646061649
 31
0.0
  0
LINE
  5
1C0
330
1F
100
AcDbEntity
  8
VISIBLE
100
AcDbLine
 10
19.5061512968367
 20
7.417197367825436
 30
0.0
 11
19.07995769261208
 21
7.663260359951421
 31
0.0
  0
LINE
  5
1C1
330
1F
100
AcDbEntity
  8
VISIBLE
100
AcDbLine
 10
18.18366762706178
 20
6.630525467469161
 30
0.0
 11
19.00536889600686
 21
6.156116018650263
 31
0.0
  0
LINE
  5
1C2
330
1F
100
AcDbEntity
  8
VISIBLE
100
AcDbLine
 10
9.198805480407493
 20
8.093292801101027
 30
0.0
 11
9.354380295923296
 21
8.183113962718203
 31
0.0
  0
LINE
  5
1C3
330
1F
100
AcDbEntity
  8
VISIBLE
100
AcDbLine
 10
13.12818304046373
 20
13.68026066915703
 30
0.0
 11
13.07870152263683
 21
13.68026066915703
 31
0.0
  0
LINE
  5
1C4
330
1F
100
AcDbEntity
  8
VISIBLE
100
AcDbLine
 10
13.12818304046373
 20
13.5862646061649
 30
0.0
 11
13.12818304046373
 21
13.68026066915703
 31
0.0
  0
LINE
  5
1C5
330
1F
100
AcDbEntity
  8
VISIBLE
100
AcDbLine
 10
18.97106920186494
 20
7.994345000987964
 30
0.0
 11
18.79968658477193
 21
8.093292801101029
 31
0.0
  0
LINE
  5
1C6
330
1F
100
AcDbEntity
  8
VISIBLE
100
AcDbLine
 10
18.01228500996879
 20
6.729473267582228
 30
0.0
 11
18.18366762706178
 21
6.630525467469161
 31
0.0
  0
LINE
  5
1C7
330
1F
100
AcDbEntity
  8
VISIBLE
100
AcDbLine
 10
13.44412792235349
 20
14.63012477332017
 30
0.0
 11
13.44412792235349
 21
14.1379987890682
 31
0.0
  0
LINE
  5
1C8
330
1F
100
AcDbEntity
  8
VISIBLE
100
AcDbLine
 10
14.42837989085743
 20
14.63012477332017
 30
0.0
 11
14.42837989085743
 21
14.1379987890682
 31
0.0
  0
ARC
  5
1C9
330
1F
100
AcDbEntity
  8
VISIBLE
100
AcDbCircle
 10
14.72365548140861
 20
14.82697516702095
 30
0.0
 40
0.062992125984252
100
AcDbArc
 50
0.0
 51
90.0
  0
ARC
  5
1CA
330
1F
100
AcDbEntity
  8
VISIBLE
100
AcDbCircle
 10
-14.49137201684168
 20
14.63012477332017
 30
0.0
 40
0.062992125984252
210
1.406024796245492E-33
220
0.0
230
-1.0
100
AcDbArc
 50
0.0
 51
180.0
  0
ARC
  5
1CB
330
1F
100
AcDbEntity
  8
VISIBLE
100
AcDbCircle
 10
-13.50712004833774
 20
14.1379987890682
 30
0.0
 40
0.062992125984252
210
1.406024796245492E-33
220
0.0
230
-1.0
100
AcDbArc
 50
180.0
 51
0.0
  0
ARC
  5
1CC
330
1F
100
AcDbEntity
  8
VISIBLE
100
AcDbCircle
 10
-13.50712004833774
 20
14.63012477332017
 30
0.0
 40
0.062992125984252
210
1.406024796245492E-33
220
0.0
230
-1.0
100
AcDbArc
 50
0.0
 51
180.0
  0
ARC
  5
1CD
330
1F
100
AcDbEntity
  8
VISIBLE
100
AcDbCircle
 10
-14.49137201684168
 20
14.1379987890682
 30
0.0
 40
0.062992125984252
210
1.406024796245492E-33
220
0.0
230
-1.0
100
AcDbArc
 50
180.0
 51
0.0
  0
ARC
  5
1CE
330
1F
100
AcDbEntity
  8
VISIBLE
100
AcDbCircle
 10
-13.17001374912515
 20
13.5862646061649
 30
0.0
 40
0.0418307086614173
210
0.0
220
0.0
230
-1.0
100
AcDbArc
 50
180.0
 51
0.0
  0
ARC
  5
1CF
330
1F
100
AcDbEntity
  8
VISIBLE
100
AcDbCircle
 10
19.03686495899898
 20
6.210668799991016
 30
0.0
 40
0.062992125984252
100
AcDbArc
 50
240.0000000000001
 51
330.000000000002
  0
ARC
  5
1D0
330
1F
100
AcDbEntity
  8
VISIBLE
100
AcDbCircle
 10
13.99924603258971
 20
9.046402401440496
 30
0.0
 40
4.724409448818897
100
AcDbArc
 50
349.4712206344907
 51
78.76412134056848
  0
ARC
  5
1D1
330
1F
100
AcDbEntity
  8
VISIBLE
100
AcDbCircle
 10
19.76127440781789
 20
7.465382770828313
 30
0.0
 40
0.062992125984252
100
AcDbArc
 50
330.0000000000013
 51
60.00000000000015
  0
ARC
  5
1D2
330
1F
100
AcDbEntity
  8
VISIBLE
100
AcDbCircle
 10
-18.55633564536798
 20
6.756320370161417
 30
-0.0000000000000057
 40
0.062992125984252
210
-1.967714186044150E-16
220
-3.081719261349730E-16
230
-1.0
100
AcDbArc
 50
299.9999999999998
 51
119.9999999999999
  0
ARC
  5
1D3
330
1F
100
AcDbEntity
  8
VISIBLE
100
AcDbCircle
 10
-18.9825292495926
 20
6.510257378035432
 30
-0.0000000000000057
 40
0.062992125984252
210
-1.967714186044150E-16
220
-3.081719261349730E-16
230
-1.0
100
AcDbArc
 50
119.9999999999999
 51
300.0000000000075
  0
ARC
  5
1D4
330
1F
100
AcDbEntity
  8
VISIBLE
100
AcDbCircle
 10
-9.015962815586832
 20
6.510257378035432
 30
0.0000000000000001
 40
0.062992125984252
210
1.135046917575282E-16
220
-1.416384724411994E-16
230
-1.0
100
AcDbArc
 50
240.0000000000001
 51
60.00000000000015
  0
ARC
  5
1D5
330
1F
100
AcDbEntity
  8
VISIBLE
100
AcDbCircle
 10
-14.82847831605428
 20
13.5862646061649
 30
0.0
 40
0.0418307086614173
210
0.0
220
0.0
230
-1.0
100
AcDbArc
 50
180.0
 51
0.0
  0
ARC
  5
1D6
330
1F
100
AcDbEntity
  8
VISIBLE
100
AcDbCircle
 10
-19.04846162961995
 20
7.608707578610669
 30
-0.0000000000000061
 40
0.062992125984252
210
-1.967714186044150E-16
220
-3.081719261349730E-16
230
-1.0
100
AcDbArc
 50
299.9999999999998
 51
119.9999999999999
  0
ARC
  5
1D7
330
1F
100
AcDbEntity
  8
VISIBLE
100
AcDbCircle
 10
-8.523836831334863
 20
7.362644586484683
 30
-0.0000000000000001
 40
0.062992125984252
210
1.135046917575282E-16
220
-1.416384724411994E-16
230
-1.0
100
AcDbArc
 50
240.0000000000001
 51
60.00000000000015
  0
ARC
  5
1D8
330
1F
100
AcDbEntity
  8
VISIBLE
100
AcDbCircle
 10
-19.47465523384457
 20
7.362644586484684
 30
-0.0000000000000061
 40
0.062992125984252
210
-1.967714186044150E-16
220
-3.081719261349730E-16
230
-1.0
100
AcDbArc
 50
119.9999999999999
 51
299.9999999999998
  0
ARC
  5
1D9
330
1F
100
AcDbEntity
  8
VISIBLE
100
AcDbCircle
 10
8.961627106180446
 20
6.210668799991016
 30
0.0
 40
0.062992125984252
100
AcDbArc
 50
209.9999999999981
 51
299.9999999999998
  0
ARC
  5
1DA
330
1F
100
AcDbEntity
  8
VISIBLE
100
AcDbCircle
 10
13.27483658377082
 20
14.82697516702095
 30
0.0
 40
0.062992125984252
100
AcDbArc
 50
90.0
 51
180.0
  0
ARC
  5
1DB
330
1F
100
AcDbEntity
  8
VISIBLE
100
AcDbCircle
 10
-9.442156419811447
 20
6.756320370161417
 30
0.0000000000000001
 40
0.062992125984252
210
1.135046917575282E-16
220
-1.416384724411994E-16
230
-1.0
100
AcDbArc
 50
60.00000000000015
 51
240.000000000002
  0
ARC
  5
1DC
330
1F
100
AcDbEntity
  8
VISIBLE
100
AcDbCircle
 10
8.237217657361548
 20
7.465382770828313
 30
0.0
 40
0.062992125984252
100
AcDbArc
 50
119.9999999999999
 51
209.9999999999981
  0
ARC
  5
1DD
330
1F
100
AcDbEntity
  8
VISIBLE
100
AcDbCircle
 10
-8.950030435559476
 20
7.608707578610667
 30
-0.0000000000000001
 40
0.062992125984252
210
1.135046917575282E-16
220
-1.416384724411994E-16
230
-1.0
100
AcDbArc
 50
60.00000000000015
 51
240.0000000000001
  0
ARC
  5
1DE
330
1F
100
AcDbEntity
  8
VISIBLE
100
AcDbCircle
 10
13.99924603258971
 20
9.046402401440496
 30
0.0
 40
4.133858267716535
100
AcDbArc
 50
330.0
 51
210.0
  0
ARC
  5
1DF
330
1F
100
AcDbEntity
  8
VISIBLE
100
AcDbCircle
 10
13.99924603258971
 20
9.046402401440496
 30
0.0
 40
4.724409448818897
100
AcDbArc
 50
101.2358786594315
 51
190.5287793655093
  0
ENDSEC
  0
SECTION
  2
OBJECTS
  0
DICTIONARY
  5
C
330
0
100
AcDbDictionary
  3
ACAD_FIELDLIST
350
120
  3
ACAD_GROUP
350
D
  3
ACAD_LAYOUT
350
1A
  3
ACAD_MATERIAL
350
43
  3
ACAD_MLEADERSTYLE
350
1E5
  3
ACAD_MLINESTYLE
350
17
  3
ACAD_PLOTSETTINGS
350
19
  3
ACAD_SCALELIST
350
47
  3
ACAD_VISUALSTYLE
350
2A
  3
ACDBVARIABLEDICTIONARY
350
6C
  3
ONSHAPE_DATA
350
1E0
1001
ACAD
1000
TREAT_AS_HARD
1070
     0
  0
DICTIONARY
  5
A2
330
A1
100
AcDbDictionary
1001
ACAD
1000
TREAT_AS_HARD
1070
     1
  0
DICTIONARY
  5
A9
330
A8
100
AcDbDictionary
1001
ACAD
1000
TREAT_AS_HARD
1070
     1
  0
DICTIONARY
  5
C9
330
C8
100
AcDbDictionary
  3
ACAD_MTEXT_RT
360
1EA
1001
ACAD
1000
TREAT_AS_HARD
1070
     1
  0
DICTIONARY
  5
CB
330
CA
100
AcDbDictionary
1001
ACAD
1000
TREAT_AS_HARD
1070
     1
  0
DICTIONARY
  5
D1
330
D0
100
AcDbDictionary
1001
ACAD
1000
TREAT_AS_HARD
1070
     1
  0
DICTIONARY
  5
D8
330
D7
100
AcDbDictionary
1001
ACAD
1000
TREAT_AS_HARD
1070
     1
  0
DICTIONARY
  5
DF
330
DE
100
AcDbDictionary
1001
ACAD
1000
TREAT_AS_HARD
1070
     1
  0
DICTIONARY
  5
E6
330
E5
100
AcDbDictionary
1001
ACAD
1000
TREAT_AS_HARD
1070
     1
  0
DICTIONARY
  5
ED
330
EC
100
AcDbDictionary
1001
ACAD
1000
TREAT_AS_HARD
1070
     1
  0
DICTIONARY
  5
F6
330
F5
100
AcDbDictionary
1001
ACAD
1000
TREAT_AS_HARD
1070
     1
  0
ACAD_PROXY_OBJECT
  5
120
102
{ACAD_REACTORS
330
C
102
}
330
C
100
AcDbZombieObject
 90
      499
 91
      508
 93
        3
310
80
  0
DICTIONARY
  5
D
102
{ACAD_REACTORS
330
C
102
}
330
C
100
AcDbDictionary
1001
ACAD
1000
TREAT_AS_HARD
1070
     0
  0
DICTIONARY
  5
1A
102
{ACAD_REACTORS
330
C
102
}
330
C
100
AcDbDictionary
1001
ACAD
1000
TREAT_AS_HARD
1070
     0
  0
DICTIONARY
  5
43
102
{ACAD_REACTORS
330
C
102
}
330
C
100
AcDbDictionary
  3
BYBLOCK
350
45
  3
BYLAYER
350
44
  3
GLOBAL
350
46
1001
ACAD
1000
TREAT_AS_HARD
1070
     0
  0
DICTIONARY
  5
1E5
102
{ACAD_REACTORS
330
C
102
}
330
C
100
AcDbDictionary
1001
ACAD
1000
TREAT_AS_HARD
1070
     0
  0
DICTIONARY
  5
17
102
{ACAD_REACTORS
330
C
102
}
330
C
100
AcDbDictionary
  3
STANDARD
350
18
1001
ACAD
1000
TREAT_AS_HARD
1070
     0
  0
DICTIONARY
  5
19
102
{ACAD_REACTORS
330
C
102
}
330
C
100
AcDbDictionary
1001
ACAD
1000
TREAT_AS_HARD
1070
     0
  0
DICTIONARY
  5
47
102
{ACAD_REACTORS
330
C
102
}
330
C
100
AcDbDictionary
  3
A0
350
48
  3
A1
350
49
  3
A2
350
4A
  3
A3
350
4B
  3
A4
350
4C
  3
A5
350
4D
  3
A6
350
4E
  3
A7
350
4F
  3
A8
350
50
  3
A9
350
51
  3
B0
350
52
  3
B1
350
53
  3
B2
350
54
  3
B3
350
55
  3
B4
350
56
  3
B5
350
57
  3
B6
350
58
  3
B7
350
59
  3
B8
350
5A
  3
B9
350
5B
  3
C0
350
5C
  3
C1
350
5D
  3
C2
350
5E
  3
C3
350
5F
  3
C4
350
60
  3
C5
350
61
  3
C6
350
62
  3
C7
350
63
  3
C8
350
64
  3
C9
350
65
  3
D0
350
66
  3
D1
350
67
  3
D2
350
68
1001
ACAD
1000
TREAT_AS_HARD
1070
     0
  0
DICTIONARY
  5
2A
102
{ACAD_REACTORS
330
C
102
}
330
C
100
AcDbDictionary
  3
2DWIREFRAME
350
2F
  3
BASIC
350
32
  3
BRIGHTEN
350
36
  3
COLORCHANGE
350
3A
  3
CONCEPTUAL
350
34
  3
DIM
350
35
  3
EDGECOLOROFF
350
3D
  3
FACEPATTERN
350
39
  3
FLAT
350
2B
  3
FLATWITHEDGES
350
2C
  3
GOURAUD
350
2D
  3
GOURAUDWITHEDGES
350
2E
  3
HIDDEN
350
31
  3
JITTEROFF
350
3B
  3
LINEPATTERN
350
38
  3
OVERHANGOFF
350
3C
  3
REALISTIC
350
33
  3
SHADED
350
42
  3
SHADED_WITH_EDGES
350
41
  3
SHADES_OF_GRAY
350
3E
  3
SKETCHY
350
3F
  3
THICKEN
350
37
  3
WIREFRAME
350
30
  3
X-RAY
350
40
1001
ACAD
1000
TREAT_AS_HARD
1070
     0
  0
DICTIONARY
  5
6C
102
{ACAD_REACTORS
330
C
102
}
330
C
100
AcDbDictionary
  3
CANNOSCALE
350
1EB
  3
CTABLESTYLE
350
1E4
  3
DIMASSOC
350
1E8
  3
HIDETEXT
350
1E9
  3
MSLTSCALE
350
1EC
  3
OLEFRAME
350
6D
1001
ACAD
1000
TREAT_AS_HARD
1070
     0
  0
DICTIONARY
  5
1E0
102
{ACAD_REACTORS
330
C
102
}
330
C
100
AcDbDictionary
  3
DIM_UNITS
360
1E1
  3
ONSHAPE_VSHARP_EXTENSION
360
1E3
  3
ONSHAPE_WELD_STANDARD
360
1E2
1001
ACAD
1000
TREAT_AS_HARD
1070
     1
  0
XRECORD
  5
1EA
102
{ACAD_REACTORS
330
C9
102
}
330
C9
100
AcDbXrecord
 40
2284.0
  1
{\pxqc;Track}
  0
MATERIAL
  5
45
102
{ACAD_REACTORS
330
43
102
}
102
{ACAD_XDICTIONARY
360
1EF
102
}
330
43
100
AcDbMaterial
  1
BYBLOCK
  0
MATERIAL
  5
44
102
{ACAD_REACTORS
330
43
102
}
102
{ACAD_XDICTIONARY
360
1ED
102
}
330
43
100
AcDbMaterial
  1
BYLAYER
  0
MATERIAL
  5
46
102
{ACAD_REACTORS
330
43
102
}
102
{ACAD_XDICTIONARY
360
1F1
102
}
330
43
100
AcDbMaterial
  1
GLOBAL
  0
MLINESTYLE
  5
18
102
{ACAD_REACTORS
330
17
102
}
330
17
100
AcDbMlineStyle
  2
Standard
 70
     0
  3

 62
   256
 51
90.0
 52
90.0
 71
     2
 49
0.5
 62
   256
  6
BYLAYER
 49
-0.5
 62
   256
  6
BYLAYER
  0
ACAD_PROXY_OBJECT
  5
48
102
{ACAD_REACTORS
330
47
102
}
330
47
100
AcDbZombieObject
 90
      499
 91
      503
 93
       41
310
903313A31580
  0
ACAD_PROXY_OBJECT
  5
49
102
{ACAD_REACTORS
330
47
102
}
330
47
100
AcDbZombieObject
 90
      499
 91
      503
 93
      105
310
903313A324000000000000004000
  0
ACAD_PROXY_OBJECT
  5
4A
102
{ACAD_REACTORS
330
47
102
}
330
47
100
AcDbZombieObject
 90
      499
 91
      503
 93
      105
310
903313A344000000000000104000
  0
ACAD_PROXY_OBJECT
  5
4B
102
{ACAD_REACTORS
330
47
102
}
330
47
100
AcDbZombieObject
 90
      499
 91
      503
 93
      105
310
903313A354000000000000144000
  0
ACAD_PROXY_OBJECT
  5
4C
102
{ACAD_REACTORS
330
47
102
}
330
47
100
AcDbZombieObject
 90
      499
 91
      503
 93
      105
310
903313A384000000000000204000
  0
ACAD_PROXY_OBJECT
  5
4D
102
{ACAD_REACTORS
330
47
102
}
330
47
100
AcDbZombieObject
 90
      499
 91
      503
 93
      113
310
904313A31304000000000000244000
  0
ACAD_PROXY_OBJECT
  5
4E
102
{ACAD_REACTORS
330
47
102
}
330
47
100
AcDbZombieObject
 90
      499
 91
      503
 93
      113
310
904313A31364000000000000304000
  0
ACAD_PROXY_OBJECT
  5
4F
102
{ACAD_REACTORS
330
47
102
}
330
47
100
AcDbZombieObject
 90
      499
 91
      503
 93
      113
310
904313A32304000000000000344000
  0
ACAD_PROXY_OBJECT
  5
50
102
{ACAD_REACTORS
330
47
102
}
330
47
100
AcDbZombieObject
 90
      499
 91
      503
 93
      113
310
904313A333040000000000003E4000
  0
ACAD_PROXY_OBJECT
  5
51
102
{ACAD_REACTORS
330
47
102
}
330
47
100
AcDbZombieObject
 90
      499
 91
      503
 93
      113
310
904313A34304000000000000444000
  0
ACAD_PROXY_OBJECT
  5
52
102
{ACAD_REACTORS
330
47
102
}
330
47
100
AcDbZombieObject
 90
      499
 91
      503
 93
      113
310
904313A35304000000000000494000
  0
ACAD_PROXY_OBJECT
  5
53
102
{ACAD_REACTORS
330
47
102
}
330
47
100
AcDbZombieObject
 90
      499
 91
      503
 93
      121
310
905313A3130304000000000000594000
  0
ACAD_PROXY_OBJECT
  5
54
102
{ACAD_REACTORS
330
47
102
}
330
47
100
AcDbZombieObject
 90
      499
 91
      503
 93
      105
310
903323A310000000000000010100
  0
ACAD_PROXY_OBJECT
  5
55
102
{ACAD_REACTORS
330
47
102
}
330
47
100
AcDbZombieObject
 90
      499
 91
      503
 93
      105
310
903343A310000000000000410100
  0
ACAD_PROXY_OBJECT
  5
56
102
{ACAD_REACTORS
330
47
102
}
330
47
100
AcDbZombieObject
 90
      499
 91
      503
 93
      105
310
903383A310000000000000810100
  0
ACAD_PROXY_OBJECT
  5
57
102
{ACAD_REACTORS
330
47
102
}
330
47
100
AcDbZombieObject
 90
      499
 91
      503
 93
      113
310
90431303A310000000000000910100
  0
ACAD_PROXY_OBJECT
  5
58
102
{ACAD_REACTORS
330
47
102
}
330
47
100
AcDbZombieObject
 90
      499
 91
      503
 93
      121
310
9053130303A310000000000001650100
  0
ACAD_PROXY_OBJECT
  5
59
102
{ACAD_REACTORS
330
47
102
}
330
47
100
AcDbZombieObject
 90
      499
 91
      503
 93
      257
310
90E312F31323822203D2031272D3022000000000000200FC000000000000284000
  0
ACAD_PROXY_OBJECT
  5
5A
102
{ACAD_REACTORS
330
47
102
}
330
47
100
AcDbZombieObject
 90
      499
 91
      503
 93
      249
310
90D312F363422203D2031272D3022000000000000240FC000000000000284000
  0
ACAD_PROXY_OBJECT
  5
5B
102
{ACAD_REACTORS
330
47
102
}
330
47
100
AcDbZombieObject
 90
      499
 91
      503
 93
      249
310
90D312F333222203D2031272D3022000000000000280FC000000000000284000
  0
ACAD_PROXY_OBJECT
  5
5C
102
{ACAD_REACTORS
330
47
102
}
330
47
100
AcDbZombieObject
 90
      499
 91
      503
 93
      249
310
90D312F313622203D2031272D30220000000000002C0FC000000000000284000
  0
ACAD_PROXY_OBJECT
  5
5D
102
{ACAD_REACTORS
330
47
102
}
330
47
100
AcDbZombieObject
 90
      499
 91
      503
 93
      249
310
90D332F333222203D2031272D30220000000000002E0FC000000000000284000
  0
ACAD_PROXY_OBJECT
  5
5E
102
{ACAD_REACTORS
330
47
102
}
330
47
100
AcDbZombieObject
 90
      499
 91
      503
 93
      241
310
90C312F3822203D2031272D3022000000000000300FC000000000000284000
  0
ACAD_PROXY_OBJECT
  5
5F
102
{ACAD_REACTORS
330
47
102
}
330
47
100
AcDbZombieObject
 90
      499
 91
      503
 93
      249
310
90D332F313622203D2031272D3022000000000000320FC000000000000284000
  0
ACAD_PROXY_OBJECT
  5
60
102
{ACAD_REACTORS
330
47
102
}
330
47
100
AcDbZombieObject
 90
      499
 91
      503
 93
      241
310
90C312F3422203D2031272D3022000000000000340FC000000000000284000
  0
ACAD_PROXY_OBJECT
  5
61
102
{ACAD_REACTORS
330
47
102
}
330
47
100
AcDbZombieObject
 90
      499
 91
      503
 93
      241
310
90C332F3822203D2031272D3022000000000000360FC000000000000284000
  0
ACAD_PROXY_OBJECT
  5
62
102
{ACAD_REACTORS
330
47
102
}
330
47
100
AcDbZombieObject
 90
      499
 91
      503
 93
      241
310
90C312F3222203D2031272D3022000000000000380FC000000000000284000
  0
ACAD_PROXY_OBJECT
  5
63
102
{ACAD_REACTORS
330
47
102
}
330
47
100
AcDbZombieObject
 90
      499
 91
      503
 93
      241
310
90C332F3422203D2031272D30220000000000003A0FC000000000000284000
  0
ACAD_PROXY_OBJECT
  5
64
102
{ACAD_REACTORS
330
47
102
}
330
47
100
AcDbZombieObject
 90
      499
 91
      503
 93
      161
310
90A3122203D2031272D30224000000000000284000
  0
ACAD_PROXY_OBJECT
  5
65
102
{ACAD_REACTORS
330
47
102
}
330
47
100
AcDbZombieObject
 90
      499
 91
      503
 93
      257
310
90E312D312F3222203D2031272D30220000000000003E0FC000000000000284000
  0
ACAD_PROXY_OBJECT
  5
66
102
{ACAD_REACTORS
330
47
102
}
330
47
100
AcDbZombieObject
 90
      499
 91
      503
 93
      225
310
90A3322203D2031272D302200000000000002100000000000000284000
  0
ACAD_PROXY_OBJECT
  5
67
102
{ACAD_REACTORS
330
47
102
}
330
47
100
AcDbZombieObject
 90
      499
 91
      503
 93
      225
310
90A3622203D2031272D302200000000000006100000000000000284000
  0
ACAD_PROXY_OBJECT
  5
68
102
{ACAD_REACTORS
330
47
102
}
330
47
100
AcDbZombieObject
 90
      499
 91
      503
 93
      249
310
90D31272D3022203D2031272D30220000000000000A100000000000000284000
  0
ACAD_PROXY_OBJECT
  5
2F
102
{ACAD_REACTORS
330
2A
102
}
330
2A
100
AcDbZombieObject
 90
      499
 91
      501
 93
      436
310
42CC9915DA5C99599C985B595049028333333333333E33F0000000000000F90107901411070040501600405405064090741402480A0340
1001
ACAD
1000
AcDbSavedByObjectVersion
1070
     0
  0
ACAD_PROXY_OBJECT
  5
32
102
{ACAD_REACTORS
330
2A
102
}
330
2A
100
AcDbZombieObject
 90
      499
 91
      501
 93
      388
310
4150985CDA58D07406404333333333333E33F0000000000000F90107A41107004050150841D405064090741402480A0350
1001
ACAD
1000
AcDbSavedByObjectVersion
1070
     0
  0
ACAD_PROXY_OBJECT
  5
36
102
{ACAD_REACTORS
330
2A
102
}
330
2A
100
AcDbZombieObject
 90
      499
 91
      501
 93
      428
310
42109C9A59DA1D195B90C409028333333333333E33F0000000000000F9010790141107004050150841D405064090741402480A029950
1001
ACAD
1000
AcDbSavedByObjectVersion
1070
     0
  0
ACAD_PROXY_OBJECT
  5
3A
102
{ACAD_REACTORS
330
2A
102
}
330
2A
100
AcDbZombieObject
 90
      499
 91
      501
 93
      452
310
42D0DBDB1BDC90DA185B99D95104090240C333333333333E33F0000000000000F90108901411070040501508421405064090741402480A0350
1001
ACAD
1000
AcDbSavedByObjectVersion
1070
     0
  0
ACAD_PROXY_OBJECT
  5
34
102
{ACAD_REACTORS
330
2A
102
}
330
2A
100
AcDbZombieObject
 90
      499
 91
      501
 93
      500
310
4290DBDB98D95C1D1D585B10940D028333333333333E33F0000000000000F90107902409070040501000000000018199010841D405064090740C02480A0340
1001
ACAD
1000
AcDbSavedByObjectVersion
1070
     0
  0
ACAD_PROXY_OBJECT
  5
35
102
{ACAD_REACTORS
330
2A
102
}
330
2A
100
AcDbZombieObject
 90
      499
 91
      501
 93
      412
310
40D11A5B50B409028333333333333E33F0000000000000F9010790141107004050150841D405064090741402480A02677FFFFFD0
1001
ACAD
1000
AcDbSavedByObjectVersion
1070
     0
  0
ACAD_PROXY_OBJECT
  5
3D
102
{ACAD_REACTORS
330
2A
102
}
330
2A
100
AcDbZombieObject
 90
      499
 91
      501
 93
      452
310
43115919D950DBDB1BDC93D999916409028333333333333E33F0000000000000F9010790141107004050150841D405064090741402480A0350
1001
ACAD
1000
AcDbSavedByObjectVersion
1070
     0
  0
ACAD_PROXY_OBJECT
  5
39
102
{ACAD_REACTORS
330
2A
102
}
330
2A
100
AcDbZombieObject
 90
      499
 91
      501
 93
      444
310
42D19858D95C185D1D195C9B90F409028333333333333E33F0000000000000F9010790141107004050150841D405064090741402480A0350
1001
ACAD
1000
AcDbSavedByObjectVersion
1070
     0
  0
ACAD_PROXY_OBJECT
  5
2B
102
{ACAD_REACTORS
330
2A
102
}
330
2A
100
AcDbZombieObject
 90
      499
 91
      501
 93
      380
310
41119B185D240901404333333333333E33F0000000000000F9010740A907004050150841D405064090741402480A1B50
1001
ACAD
1000
AcDbSavedByObjectVersion
1070
     0
  0
ACAD_PROXY_OBJECT
  5
2C
102
{ACAD_REACTORS
330
2A
102
}
330
2A
100
AcDbZombieObject
 90
      499
 91
      501
 93
      468
310
43519B185D15DA5D1A115919D95CD0140901404333333333333E33F0000000000000F90107409019070040501600405405064090741402480A1B50
1001
ACAD
1000
AcDbSavedByObjectVersion
1070
     0
  0
ACAD_PROXY_OBJECT
  5
2D
102
{ACAD_REACTORS
330
2A
102
}
330
2A
100
AcDbZombieObject
 90
      499
 91
      501
 93
      404
310
41D1DBDD5C985D5910240902404333333333333E33F0000000000000F9010740A9070040501641D405064090741402480A1B50
1001
ACAD
1000
AcDbSavedByObjectVersion
1070
     0
  0
ACAD_PROXY_OBJECT
  5
2E
102
{ACAD_REACTORS
330
2A
102
}
330
2A
100
AcDbZombieObject
 90
      499
 91
      501
 93
      492
310
4411DBDD5C985D5915DA5D1A115919D95CD0340902404333333333333E33F0000000000000F90107409019070040501600405405064090741402480A1B50
1001
ACAD
1000
AcDbSavedByObjectVersion
1070
     0
  0
ACAD_PROXY_OBJECT
  5
31
102
{ACAD_REACTORS
330
2A
102
}
330
2A
100
AcDbZombieObject
 90
      499
 91
      501
 93
      476
310
41921A5919195B90640502408333333333333E33F0000000000000F901079024090700405020000000000001110200405405064090740C02480A0340
1001
ACAD
1000
AcDbSavedByObjectVersion
1070
     0
  0
ACAD_PROXY_OBJECT
  5
3B
102
{ACAD_REACTORS
330
2A
102
}
330
2A
100
AcDbZombieObject
 90
      499
 91
      501
 93
      428
310
42529A5D1D195C93D999914409028333333333333E33F0000000000000F9010790141107004050150A41D405064090741402480A0350
1001
ACAD
1000
AcDbSavedByObjectVersion
1070
     0
  0
ACAD_PROXY_OBJECT
  5
38
102
{ACAD_REACTORS
330
2A
102
}
330
2A
100
AcDbZombieObject
 90
      499
 91
      501
 93
      444
310
42D31A5B995C185D1D195C9B90E409028333333333333E33F0000000000000F9010790141107004050750841D405064090741402483A0350
1001
ACAD
1000
AcDbSavedByObjectVersion
1070
     0
  0
ACAD_PROXY_OBJECT
  5
3C
102
{ACAD_REACTORS
330
2A
102
}
330
2A
100
AcDbZombieObject
 90
      499
 91
      501
 93
      444
310
42D3DD995C9A185B99D3D999915409028333333333333E33F0000000000000F9010790141107004050150941D405064090741402480A0350
1001
ACAD
1000
AcDbSavedByObjectVersion
1070
     0
  0
ACAD_PROXY_OBJECT
  5
33
102
{ACAD_REACTORS
330
2A
102
}
330
2A
100
AcDbZombieObject
 90
      499
 91
      501
 93
      428
310
425499585B1A5CDD1A58D08409038333333333333E33F0000000000000F9010740A907004050150800405405064090740C02480A1B40
1001
ACAD
1000
AcDbSavedByObjectVersion
1070
     0
  0
ACAD_PROXY_OBJECT
  5
42
102
{ACAD_REACTORS
330
2A
102
}
330
2A
100
AcDbZombieObject
 90
      499
 91
      501
 93
      420
310
4194DA1859195911B40902404333333333333E33F0000000000000F9010740A41107004050150800405405064090840C02480A0B40
1001
ACAD
1000
AcDbSavedByObjectVersion
1070
     0
  0
ACAD_PROXY_OBJECT
  5
41
102
{ACAD_REACTORS
330
2A
102
}
330
2A
100
AcDbZombieObject
 90
      499
 91
      501
 93
      516
310
4454DA18591959081DDA5D1A08195919D95CD1A40902404333333333333E33F0000000000000F901074090142907004050250800405405064090740C02480A0B40
1001
ACAD
1000
AcDbSavedByObjectVersion
1070
     0
  0
ACAD_PROXY_OBJECT
  5
3E
102
{ACAD_REACTORS
330
2A
102
}
330
2A
100
AcDbZombieObject
 90
      499
 91
      501
 93
      532
310
4394DA1859195CC81BD98811DC985E5174090240C333333333333E33F0000000000000F901079024090741D01000000000000111010841D405064090740C02480A0340
1001
ACAD
1000
AcDbSavedByObjectVersion
1070
     0
  0
ACAD_PROXY_OBJECT
  5
3F
102
{ACAD_REACTORS
330
2A
102
}
330
2A
100
AcDbZombieObject
 90
      499
 91
      501
 93
      476
310
41D4DAD95D18DA1E51840502408333333333333E33F0000000000000F901079024090741D01000000000000111010B41D405064090741802480A0340
1001
ACAD
1000
AcDbSavedByObjectVersion
1070
     0
  0
ACAD_PROXY_OBJECT
  5
37
102
{ACAD_REACTORS
330
2A
102
}
330
2A
100
AcDbZombieObject
 90
      499
 91
      501
 93
      412
310
41D51A1A58DAD95B90D409028333333333333E33F0000000000000F9010790141107004050150C41D405064090741402480A0350
1001
ACAD
1000
AcDbSavedByObjectVersion
1070
     0
  0
ACAD_PROXY_OBJECT
  5
30
102
{ACAD_REACTORS
330
2A
102
}
330
2A
100
AcDbZombieObject
 90
      499
 91
      501
 93
      420
310
4255DA5C99599C985B595059028333333333333E33F0000000000000F90107901411070040501600405405064090740C02480A0340
1001
ACAD
1000
AcDbSavedByObjectVersion
1070
     0
  0
ACAD_PROXY_OBJECT
  5
40
102
{ACAD_REACTORS
330
2A
102
}
330
2A
100
AcDbZombieObject
 90
      499
 91
      501
 93
      404
310
41560B54985E51940902404000000000000E03F0000000000000F9010740501907004050150841D405064090740C02480A1B40
1001
ACAD
1000
AcDbSavedByObjectVersion
1070
     0
  0
DICTIONARYVAR
  5
1EB
102
{ACAD_REACTORS
330
6C
102
}
330
6C
100
DictionaryVariables
280
     0
  1
1:1
  0
DICTIONARYVAR
  5
1E4
102
{ACAD_REACTORS
330
6C
102
}
330
6C
100
DictionaryVariables
280
     0
  1
Standard
  0
DICTIONARYVAR
  5
1E8
102
{ACAD_REACTORS
330
6C
102
}
330
6C
100
DictionaryVariables
280
     0
  1
2
  0
DICTIONARYVAR
  5
1E9
102
{ACAD_REACTORS
330
6C
102
}
330
6C
100
DictionaryVariables
280
     0
  1
1
  0
DICTIONARYVAR
  5
1EC
102
{ACAD_REACTORS
330
6C
102
}
330
6C
100
DictionaryVariables
280
     0
  1
1
  0
DICTIONARYVAR
  5
6D
102
{ACAD_REACTORS
330
6C
102
}
330
6C
100
DictionaryVariables
280
     0
  1
0
  0
XRECORD
  5
1E1
102
{ACAD_REACTORS
330
1E0
102
}
330
1E0
100
AcDbXrecord
 70
     4
  0
XRECORD
  5
1E3
102
{ACAD_REACTORS
330
1E0
102
}
330
1E0
100
AcDbXrecord
 90
        0
  0
XRECORD
  5
1E2
102
{ACAD_REACTORS
330
1E0
102
}
330
1E0
100
AcDbXrecord
 90
        0
  0
DICTIONARY
  5
1EF
330
45
100
AcDbDictionary
  3
ACAD_XREC_ROUNDTRIP
360
1F0
1001
ACAD
1000
TREAT_AS_HARD
1070
     1
  0
DICTIONARY
  5
1ED
330
44
100
AcDbDictionary
  3
ACAD_XREC_ROUNDTRIP
360
1EE
1001
ACAD
1000
TREAT_AS_HARD
1070
     1
  0
DICTIONARY
  5
1F1
330
46
100
AcDbDictionary
  3
ACAD_XREC_ROUNDTRIP
360
1F2
1001
ACAD
1000
TREAT_AS_HARD
1070
     1
  0
XRECORD
  5
1F0
102
{ACAD_REACTORS
330
1EF
102
}
330
1EF
100
AcDbXrecord
102
MATERIAL
148
0.0
149
0.0
149
0.0
 93
        0
 94
      127
282
     0
 72
     1
 77
     1
171
     1
175
     1
179
     1
273
     0
  0
XRECORD
  5
1EE
102
{ACAD_REACTORS
330
1ED
102
}
330
1ED
100
AcDbXrecord
102
MATERIAL
148
0.0
149
0.0
149
0.0
 93
        0
 94
      127
282
     0
 72
     1
 77
     1
171
     1
175
     1
179
     1
273
     0
  0
XRECORD
  5
1F2
102
{ACAD_REACTORS
330
1F1
102
}
330
1F1
100
AcDbXrecord
102
MATERIAL
148
0.0
149
0.0
149
0.0
 93
        0
 94
      127
282
     0
 72
     1
 77
     1
171
     1
175
     1
179
     1
273
     0
  0
ENDSEC
  0
EOF
