  0
SECTION
  2
HEADER
  9
$ACADVER
  1
AC1012
  9
$DWGCODEPAGE
  3
ansi_1252
  9
$INSBASE
 10
0.0
 20
0.0
 30
0.0
  9
$EXTMIN
 10
1.000000000000000E+20
 20
1.000000000000000E+20
 30
1.000000000000000E+20
  9
$EXTMAX
 10
-1.000000000000000E+20
 20
-1.000000000000000E+20
 30
-1.000000000000000E+20
  9
$LIMMIN
 10
0.0
 20
0.0
  9
$LIMMAX
 10
12.0
 20
9.0
  9
$ORTHOMODE
 70
     0
  9
$REGENMODE
 70
     1
  9
$FILLMODE
 70
     1
  9
$QTEXTMODE
 70
     0
  9
$MIRRTEXT
 70
     1
  9
$DRAGMODE
 70
     2
  9
$LTSCALE
 40
0.5
  9
$OSMODE
 70
    23
  9
$ATTMODE
 70
     1
  9
$TEXTSIZE
 40
0.12
  9
$TRACEWID
 40
0.05
  9
$TEXTSTYLE
  7
ONSHAPE-STANDARD
  9
$CLAYER
  8
0
  9
$CELTYPE
  6
BYLAYER
  9
$CECOLOR
 62
   256
  9
$CELTSCALE
 40
1.0
  9
$DELOBJ
 70
     1
  9
$DISPSILH
 70
     0
  9
$DIMSCALE
 40
1.0
  9
$DIMASZ
 40
0.18
  9
$DIMEXO
 40
0.0625
  9
$DIMDLI
 40
0.38
  9
$DIMRND
 40
0.0
  9
$DIMDLE
 40
0.0
  9
$DIMEXE
 40
0.08
  9
$DIMTP
 40
0.0
  9
$DIMTM
 40
0.0
  9
$DIMTXT
 40
0.1181102362204725
  9
$DIMCEN
 40
0.09
  9
$DIMTSZ
 40
0.0
  9
$DIMTOL
 70
     0
  9
$DIMLIM
 70
     0
  9
$DIMTIH
 70
     1
  9
$DIMTOH
 70
     1
  9
$DIMSE1
 70
     0
  9
$DIMSE2
 70
     0
  9
$DIMTAD
 70
     0
  9
$DIMZIN
 70
    11
  9
$DIMBLK
  1

  9
$DIMASO
 70
     1
  9
$DIMSHO
 70
     1
  9
$DIMPOST
  1

  9
$DIMAPOST
  1

  9
$DIMALT
 70
     0
  9
$DIMALTD
 70
     3
  9
$DIMALTF
 40
0.0393700787401575
  9
$DIMLFAC
 40
25.4
  9
$DIMTOFL
 70
     0
  9
$DIMTVP
 40
0.0
  9
$DIMTIX
 70
     0
  9
$DIMSOXD
 70
     0
  9
$DIMSAH
 70
     0
  9
$DIMBLK1
  1

  9
$DIMBLK2
  1

  9
$DIMSTYLE
  2
ONSHAPE-STANDARD
  9
$DIMCLRD
 70
     0
  9
$DIMCLRE
 70
     0
  9
$DIMCLRT
 70
     0
  9
$DIMTFAC
 40
1.0
  9
$DIMGAP
 40
0.09
  9
$DIMJUST
 70
     0
  9
$DIMSD1
 70
     0
  9
$DIMSD2
 70
     0
  9
$DIMTOLJ
 70
     1
  9
$DIMTZIN
 70
    11
  9
$DIMALTZ
 70
     0
  9
$DIMALTTZ
 70
     0
  9
$DIMFIT
 70
     3
  9
$DIMUPT
 70
     1
  9
$DIMUNIT
 70
     2
  9
$DIMDEC
 70
     2
  9
$DIMTDEC
 70
     2
  9
$DIMALTU
 70
     2
  9
$DIMALTTD
 70
     3
  9
$DIMTXSTY
  7
ONSHAPE-STANDARD-DIMENSION
  9
$DIMAUNIT
 70
     0
  9
$LUNITS
 70
     2
  9
$LUPREC
 70
     4
  9
$SKETCHINC
 40
0.1
  9
$FILLETRAD
 40
0.5
  9
$AUNITS
 70
     0
  9
$AUPREC
 70
     0
  9
$MENU
  1
.
  9
$ELEVATION
 40
0.0
  9
$PELEVATION
 40
0.0
  9
$THICKNESS
 40
0.0
  9
$LIMCHECK
 70
     0
  9
$CHAMFERA
 40
0.0
  9
$CHAMFERB
 40
0.0
  9
$CHAMFERC
 40
0.0
  9
$CHAMFERD
 40
0.0
  9
$SKPOLY
 70
     0
  9
$TDCREATE
 40
2458218.884513889
  9
$TDUPDATE
 40
2458218.884513889
  9
$TDINDWG
 40
0.0
  9
$TDUSRTIMER
 40
0.0
  9
$USRTIMER
 70
     1
  9
$ANGBASE
 50
0.0
  9
$ANGDIR
 70
     0
  9
$PDMODE
 70
     0
  9
$PDSIZE
 40
0.0
  9
$PLINEWID
 40
0.0
  9
$COORDS
 70
     1
  9
$SPLFRAME
 70
     0
  9
$SPLINETYPE
 70
     6
  9
$SPLINESEGS
 70
     8
  9
$ATTDIA
 70
     0
  9
$ATTREQ
 70
     1
  9
$HANDLING
 70
     1
  9
$HANDSEED
  5
20D
  9
$SURFTAB1
 70
     6
  9
$SURFTAB2
 70
     6
  9
$SURFTYPE
 70
     6
  9
$SURFU
 70
     6
  9
$SURFV
 70
     6
  9
$UCSNAME
  2

  9
$UCSORG
 10
0.0
 20
0.0
 30
0.0
  9
$UCSXDIR
 10
1.0
 20
0.0
 30
0.0
  9
$UCSYDIR
 10
0.0
 20
1.0
 30
0.0
  9
$PUCSNAME
  2

  9
$PUCSORG
 10
0.0
 20
0.0
 30
0.0
  9
$PUCSXDIR
 10
1.0
 20
0.0
 30
0.0
  9
$PUCSYDIR
 10
0.0
 20
1.0
 30
0.0
  9
$USERI1
 70
     0
  9
$USERI2
 70
     0
  9
$USERI3
 70
     0
  9
$USERI4
 70
     0
  9
$USERI5
 70
     0
  9
$USERR1
 40
0.0
  9
$USERR2
 40
0.0
  9
$USERR3
 40
0.0
  9
$USERR4
 40
0.0
  9
$USERR5
 40
0.0
  9
$WORLDVIEW
 70
     1
  9
$SHADEDGE
 70
     3
  9
$SHADEDIF
 70
    70
  9
$TILEMODE
 70
     1
  9
$MAXACTVP
 70
    64
  9
$PINSBASE
 10
0.0
 20
0.0
 30
0.0
  9
$PLIMCHECK
 70
     0
  9
$PEXTMIN
 10
1.000000000000000E+20
 20
1.000000000000000E+20
 30
1.000000000000000E+20
  9
$PEXTMAX
 10
-1.000000000000000E+20
 20
-1.000000000000000E+20
 30
-1.000000000000000E+20
  9
$PLIMMIN
 10
0.0
 20
0.0
  9
$PLIMMAX
 10
12.0
 20
9.0
  9
$UNITMODE
 70
     0
  9
$VISRETAIN
 70
     1
  9
$PLINEGEN
 70
     0
  9
$PSLTSCALE
 70
     1
  9
$TREEDEPTH
 70
  3020
  9
$PICKSTYLE
 70
     1
  9
$CMLSTYLE
  2
STANDARD
  9
$CMLJUST
 70
     0
  9
$CMLSCALE
 40
1.0
  9
$SAVEIMAGES
 70
     1
  0
ENDSEC
  0
SECTION
  2
CLASSES
  0
CLASS
  1
ACDBDICTIONARYWDFLT
  2
AcDbDictionaryWithDefault
  3
ObjectDBX Classes
 90
    32768
280
     0
281
     0
  0
CLASS
  1
VISUALSTYLE
  2
AcDbVisualStyle
  3
ObjectDBX Classes
 90
     4095
280
     0
281
     0
  0
CLASS
  1
MATERIAL
  2
AcDbMaterial
  3
ObjectDBX Classes
 90
     1153
280
     0
281
     0
  0
CLASS
  1
SCALE
  2
AcDbScale
  3
ObjectDBX Classes
 90
     1153
280
     0
281
     0
  0
CLASS
  1
SUN
  2
AcDbSun
  3
SCENEOE
 90
     1153
280
     0
281
     0
  0
CLASS
  1
TABLESTYLE
  2
AcDbTableStyle
  3
ObjectDBX Classes
 90
     4095
280
     0
281
     0
  0
CLASS
  1
DICTIONARYVAR
  2
AcDbDictionaryVar
  3
ObjectDBX Classes
 90
        0
280
     0
281
     0
  0
CLASS
  1
FIELD
  2
AcDbField
  3
ObjectDBX Classes
 90
     1152
280
     0
281
     0
  0
CLASS
  1
FIELDLIST
  2
AcDbFieldList
  3
ObjectDBX Classes
 90
     1152
280
     0
281
     0
  0
CLASS
  1
XRECORD
  2
AcDbXrecord
  3
ObjectDBX Classes
 90
    32768
280
     0
281
     0
  0
CLASS
  1
LWPOLYLINE
  2
AcDbPolyline
  3
ObjectDBX Classes
 90
    32768
280
     0
281
     1
  0
CLASS
  1
HATCH
  2
AcDbHatch
  3
ObjectDBX Classes
 90
    32768
280
     0
281
     1
  0
CLASS
  1
ACDBPLACEHOLDER
  2
AcDbPlaceHolder
  3
ObjectDBX Classes
 90
        0
280
     0
281
     0
  0
CLASS
  1
LAYOUT
  2
AcDbLayout
  3
ObjectDBX Classes
 90
        0
280
     0
281
     0
  0
ENDSEC
  0
SECTION
  2
TABLES
  0
TABLE
  2
VPORT
  5
8
330
0
100
AcDbSymbolTable
 70
     1
  0
VPORT
  5
29
330
8
100
AcDbSymbolTableRecord
100
AcDbViewportTableRecord
  2
*ACTIVE
 70
     0
 10
0.0
 20
0.0
 11
1.0
 21
1.0
 12
17.0
 22
11.13268051771117
 13
0.0
 23
0.0
 14
0.5
 24
0.5
 15
0.5
 25
0.5
 16
0.0
 26
0.0
 36
1.0
 17
0.0
 27
0.0
 37
0.0
 40
22.63416825613079
 41
1.528816946504193
 42
50.0
 43
0.0
 44
0.0
 50
0.0
 51
0.0
 71
     0
 72
   100
 73
     1
 74
     3
 75
     0
 76
     0
 77
     0
 78
     0
  0
ENDTAB
  0
TABLE
  2
LTYPE
  5
5
330
0
100
AcDbSymbolTable
 70
     2
  0
LTYPE
  5
14
330
5
100
AcDbSymbolTableRecord
100
AcDbLinetypeTableRecord
  2
BYBLOCK
 70
     0
  3

 72
    65
 73
     0
 40
0.0
  0
LTYPE
  5
15
330
5
100
AcDbSymbolTableRecord
100
AcDbLinetypeTableRecord
  2
BYLAYER
 70
     0
  3

 72
    65
 73
     0
 40
0.0
  0
LTYPE
  5
16
330
5
100
AcDbSymbolTableRecord
100
AcDbLinetypeTableRecord
  2
CONTINUOUS
 70
     0
  3
Solid line
 72
    65
 73
     0
 40
0.0
  0
LTYPE
  5
144
330
5
100
AcDbSymbolTableRecord
100
AcDbLinetypeTableRecord
  2
CENTER
 70
     0
  3
Center line ____ _ ____ _ ____ _
 72
    65
 73
     4
 40
0.7199999999999999
 49
0.45
 74
     0
 49
-0.09
 74
     0
 49
0.09
 74
     0
 49
-0.09
 74
     0
  0
ENDTAB
  0
TABLE
  2
LAYER
  5
2
330
0
100
AcDbSymbolTable
 70
     9
  0
LAYER
  5
10
330
2
100
AcDbSymbolTableRecord
100
AcDbLayerTableRecord
  2
0
 70
     0
 62
     7
  6
CONTINUOUS
  0
LAYER
  5
6E
330
2
100
AcDbSymbolTableRecord
100
AcDbLayerTableRecord
  2
DEFPOINTS
 70
     0
 62
     7
  6
CONTINUOUS
  0
LAYER
  5
73
330
2
100
AcDbSymbolTableRecord
100
AcDbLayerTableRecord
  2
TITLE_BLOCK
 70
     0
 62
     7
  6
CONTINUOUS
  0
LAYER
  5
FE
330
2
100
AcDbSymbolTableRecord
100
AcDbLayerTableRecord
  2
ANNOTATION_TEXT
 70
     0
 62
     7
  6
CONTINUOUS
  0
LAYER
  5
101
330
2
100
AcDbSymbolTableRecord
100
AcDbLayerTableRecord
  2
BORDER_FRAME
 70
     0
 62
     7
  6
CONTINUOUS
  0
LAYER
  5
106
330
2
100
AcDbSymbolTableRecord
100
AcDbLayerTableRecord
  2
BORDER_ZONES
 70
     0
 62
     7
  6
CONTINUOUS
  0
LAYER
  5
143
330
2
100
AcDbSymbolTableRecord
100
AcDbLayerTableRecord
  2
SHEETMETAL_BEND_LINES_DOWN
 70
     0
 62
     7
  6
CENTER
  0
LAYER
  5
14F
330
2
100
AcDbSymbolTableRecord
100
AcDbLayerTableRecord
  2
VISIBLE
 70
     0
 62
     7
  6
CONTINUOUS
  0
LAYER
  5
150
330
2
100
AcDbSymbolTableRecord
100
AcDbLayerTableRecord
  2
TANGENT_LINES
 70
     0
 62
     7
  6
CONTINUOUS
  0
ENDTAB
  0
TABLE
  2
STYLE
  5
3
330
0
100
AcDbSymbolTable
 70
     4
  0
STYLE
  5
11
330
3
100
AcDbSymbolTableRecord
100
AcDbTextStyleTableRecord
  2
STANDARD
 70
     0
 40
0.0
 41
1.0
 50
0.0
 71
     0
 42
0.12
  3
txt
  4

  0
STYLE
  5
6F
330
3
100
AcDbSymbolTableRecord
100
AcDbTextStyleTableRecord
  2
ONSHAPE-STANDARD
 70
     0
 40
0.0
 41
1.0
 50
0.0
 71
     0
 42
0.12
  3
NotoSans-Regular.ttf
  4

1001
ACAD
1000
Noto Sans
1071
        0
  0
STYLE
  5
71
330
3
100
AcDbSymbolTableRecord
100
AcDbTextStyleTableRecord
  2
ONSHAPE-STANDARD-DIMENSION
 70
     0
 40
0.0
 41
1.0
 50
0.0
 71
     0
 42
0.12
  3

  4

1001
ACAD
1000
Noto Sans
1071
        0
  0
STYLE
  5
A9
330
3
100
AcDbSymbolTableRecord
100
AcDbTextStyleTableRecord
  2
ONSHAPE-STANDARD-FIELDS
 70
     0
 40
0.0
 41
1.0
 50
0.0
 71
     0
 42
0.12
  3

  4

1001
ACAD
1000
Noto Sans
1071
        0
  0
ENDTAB
  0
TABLE
  2
VIEW
  5
6
330
0
100
AcDbSymbolTable
 70
     0
  0
ENDTAB
  0
TABLE
  2
UCS
  5
7
330
0
100
AcDbSymbolTable
 70
     0
  0
ENDTAB
  0
TABLE
  2
APPID
  5
9
330
0
100
AcDbSymbolTable
 70
     1
  0
APPID
  5
12
330
9
100
AcDbSymbolTableRecord
100
AcDbRegAppTableRecord
  2
ACAD
 70
     0
  0
ENDTAB
  0
TABLE
  2
DIMSTYLE
  5
A
330
0
100
AcDbSymbolTable
 70
     2
  0
DIMSTYLE
105
27
330
A
100
AcDbSymbolTableRecord
100
AcDbDimStyleTableRecord
  2
STANDARD
 70
     0
  3

  4

  5

  6

  7

 40
1.0
 41
0.18
 42
0.0625
 43
0.38
 44
0.18
 45
0.0
 46
0.0
 47
0.0
 48
0.0
140
0.18
141
0.09
142
0.0
143
25.4
144
1.0
145
0.0
146
1.0
147
0.09
 71
     0
 72
     0
 73
     1
 74
     1
 75
     0
 76
     0
 77
     0
 78
     0
170
     0
171
     2
172
     0
173
     0
174
     0
175
     0
176
     0
177
     0
178
     0
270
     2
271
     4
272
     4
273
     2
274
     2
340
11
275
     0
280
     0
281
     0
282
     0
283
     1
284
     0
285
     0
286
     0
287
     3
288
     0
  0
DIMSTYLE
105
70
330
A
100
AcDbSymbolTableRecord
100
AcDbDimStyleTableRecord
  2
ONSHAPE-STANDARD
 70
     0
  3

  4

  5

  6

  7

 40
1.0
 41
0.18
 42
0.0625
 43
0.38
 44
0.08
 45
0.0
 46
0.0
 47
0.0
 48
0.0
140
0.1181102362204725
141
0.09
142
0.0
143
0.0393700787401575
144
25.4
145
0.0
146
1.0
147
0.09
 71
     0
 72
     0
 73
     1
 74
     1
 75
     0
 76
     0
 77
     0
 78
    11
170
     0
171
     3
172
     0
173
     0
174
     0
175
     0
176
     0
177
     0
178
     0
179
     1
270
     2
271
     2
272
     2
273
     2
274
     3
340
71
275
     0
280
     0
281
     0
282
     0
283
     1
284
    11
285
     0
286
     0
287
     3
288
     1
  0
ENDTAB
  0
TABLE
  2
BLOCK_RECORD
  5
1
330
0
100
AcDbSymbolTable
 70
     1
  0
BLOCK_RECORD
  5
1F
330
1
100
AcDbSymbolTableRecord
100
AcDbBlockTableRecord
  2
*MODEL_SPACE
  0
BLOCK_RECORD
  5
1B
330
1
100
AcDbSymbolTableRecord
100
AcDbBlockTableRecord
  2
*PAPER_SPACE
  0
ENDTAB
  0
ENDSEC
  0
SECTION
  2
BLOCKS
  0
BLOCK
  5
20
330
1F
100
AcDbEntity
  8
0
100
AcDbBlockBegin
  2
*MODEL_SPACE
 70
     0
 10
0.0
 20
0.0
 30
0.0
  3
*MODEL_SPACE
  1

  0
ENDBLK
  5
21
330
1F
100
AcDbEntity
  8
0
100
AcDbBlockEnd
  0
BLOCK
  5
1C
330
1B
100
AcDbEntity
 67
     1
  8
0
100
AcDbBlockBegin
  2
*PAPER_SPACE
 70
     0
 10
0.0
 20
0.0
 30
0.0
  3
*PAPER_SPACE
  1

  0
ENDBLK
  5
1D
330
1B
100
AcDbEntity
 67
     1
  8
0
100
AcDbBlockEnd
  0
ENDSEC
  0
SECTION
  2
ENTITIES
  0
LINE
  5
72
330
1F
100
AcDbEntity
  8
TITLE_BLOCK
100
AcDbLine
 10
25.15
 20
0.75
 30
0.0
 11
25.15
 21
2.75
 31
0.0
  0
LINE
  5
76
330
1F
100
AcDbEntity
  8
TITLE_BLOCK
100
AcDbLine
 10
25.15
 20
0.75
 30
0.0
 11
26.75
 21
0.75
 31
0.0
  0
LINE
  5
77
330
1F
100
AcDbEntity
  8
TITLE_BLOCK
100
AcDbLine
 10
25.15
 20
1.15
 30
0.0
 11
26.75
 21
1.15
 31
0.0
  0
LINE
  5
78
330
1F
100
AcDbEntity
  8
TITLE_BLOCK
100
AcDbLine
 10
25.15
 20
1.31
 30
0.0
 11
26.75
 21
1.31
 31
0.0
  0
LINE
  5
79
330
1F
100
AcDbEntity
  8
TITLE_BLOCK
100
AcDbLine
 10
25.15
 20
1.582
 30
0.0
 11
26.75
 21
1.582
 31
0.0
  0
LINE
  5
7A
330
1F
100
AcDbEntity
  8
TITLE_BLOCK
100
AcDbLine
 10
25.15
 20
1.814
 30
0.0
 11
26.75
 21
1.814
 31
0.0
  0
LINE
  5
7B
330
1F
100
AcDbEntity
  8
TITLE_BLOCK
100
AcDbLine
 10
25.15
 20
2.75
 30
0.0
 11
26.75
 21
2.75
 31
0.0
  0
MTEXT
  5
7C
330
1F
100
AcDbEntity
  8
TITLE_BLOCK
100
AcDbMText
 10
25.1852
 20
2.6924
 30
0.0
 40
0.064
 41
1.6
 71
     1
 72
     1
  1
UNLESS OTHERWISE SPECIFIED, DIMENSIONS ARE IN MILLIMETERS
  7
ONSHAPE-STANDARD
  0
MTEXT
  5
7E
330
1F
100
AcDbEntity
  8
TITLE_BLOCK
100
AcDbMText
 10
25.98168
 20
2.45816
 30
0.0
 40
0.0576
 41
0.8000000000000007
 71
     1
 72
     1
  1
^JANGULAR = ± °^J
  7
ONSHAPE-STANDARD
  0
MTEXT
  5
7F
330
1F
100
AcDbEntity
  8
TITLE_BLOCK
100
AcDbMText
 10
25.1852
 20
2.0684
 30
0.0
 40
0.064
 41
0.7999999999999989
 71
     1
 72
     1
  1
SURFACE FINISH
  7
ONSHAPE-STANDARD
  0
LINE
  5
80
330
1F
100
AcDbEntity
  8
TITLE_BLOCK
100
AcDbLine
 10
25.87
 20
1.974
 30
0.0
 11
25.91
 21
1.904717967697245
 31
0.0
  0
LINE
  5
81
330
1F
100
AcDbEntity
  8
TITLE_BLOCK
100
AcDbLine
 10
25.91
 20
1.904717967697245
 30
0.0
 11
25.994
 21
2.050210235533031
 31
0.0
  0
LINE
  5
82
330
1F
100
AcDbEntity
  8
TITLE_BLOCK
100
AcDbLine
 10
25.994
 20
2.050210235533031
 30
0.0
 11
26.082
 21
2.050210235533031
 31
0.0
  0
MTEXT
  5
83
330
1F
100
AcDbEntity
  8
TITLE_BLOCK
100
AcDbMText
 10
25.95
 20
1.73912
 30
0.0
 40
0.0832
 41
1.6
 71
     2
 72
     1
  1
DO NOT SCALE DRAWING
  7
ONSHAPE-STANDARD
  0
MTEXT
  5
84
330
1F
100
AcDbEntity
  8
TITLE_BLOCK
100
AcDbMText
 10
25.95
 20
1.5244
 30
0.0
 40
0.064
 41
1.6
 71
     2
 72
     1
  1
BREAK ALL SHARP EDGES AND REMOVE BURRS
  7
ONSHAPE-STANDARD
  0
CIRCLE
  5
85
330
1F
100
AcDbEntity
  8
TITLE_BLOCK
100
AcDbCircle
 10
25.77
 20
0.9484
 30
0.0
 40
0.072
  0
CIRCLE
  5
86
330
1F
100
AcDbEntity
  8
TITLE_BLOCK
100
AcDbCircle
 10
25.77
 20
0.9484
 30
0.0
 40
0.144
  0
LINE
  5
87
330
1F
100
AcDbEntity
  8
TITLE_BLOCK
100
AcDbLine
 10
25.806
 20
0.9484
 30
0.0
 11
25.734
 21
0.9484
 31
0.0
  0
LINE
  5
88
330
1F
100
AcDbEntity
  8
TITLE_BLOCK
100
AcDbLine
 10
25.77
 20
0.9844
 30
0.0
 11
25.77
 21
0.9124
 31
0.0
  0
LINE
  5
89
330
1F
100
AcDbEntity
  8
TITLE_BLOCK
100
AcDbLine
 10
25.842
 20
0.9484
 30
0.0
 11
25.95
 21
0.9484
 31
0.0
  0
LINE
  5
8A
330
1F
100
AcDbEntity
  8
TITLE_BLOCK
100
AcDbLine
 10
25.77
 20
1.0204
 30
0.0
 11
25.77
 21
1.1284
 31
0.0
  0
LINE
  5
8B
330
1F
100
AcDbEntity
  8
TITLE_BLOCK
100
AcDbLine
 10
25.698
 20
0.9484
 30
0.0
 11
25.59
 21
0.9484
 31
0.0
  0
LINE
  5
8C
330
1F
100
AcDbEntity
  8
TITLE_BLOCK
100
AcDbLine
 10
25.77
 20
0.8764000000000001
 30
0.0
 11
25.77
 21
0.7684
 31
0.0
  0
LINE
  5
8D
330
1F
100
AcDbEntity
  8
TITLE_BLOCK
100
AcDbLine
 10
26.274
 20
0.8044
 30
0.0
 11
26.274
 21
1.0924
 31
0.0
  0
LINE
  5
8E
330
1F
100
AcDbEntity
  8
TITLE_BLOCK
100
AcDbLine
 10
26.274
 20
1.0924
 30
0.0
 11
25.986
 21
1.0204
 31
0.0
  0
LINE
  5
8F
330
1F
100
AcDbEntity
  8
TITLE_BLOCK
100
AcDbLine
 10
25.986
 20
1.0204
 30
0.0
 11
25.986
 21
0.8764000000000001
 31
0.0
  0
LINE
  5
90
330
1F
100
AcDbEntity
  8
TITLE_BLOCK
100
AcDbLine
 10
25.986
 20
0.8764000000000001
 30
0.0
 11
26.274
 21
0.8044
 31
0.0
  0
LINE
  5
91
330
1F
100
AcDbEntity
  8
TITLE_BLOCK
100
AcDbLine
 10
26.166
 20
0.9484
 30
0.0
 11
26.292
 21
0.9484
 31
0.0
  0
LINE
  5
92
330
1F
100
AcDbEntity
  8
TITLE_BLOCK
100
AcDbLine
 10
26.1444
 20
0.9484
 30
0.0
 11
26.1156
 21
0.9484
 31
0.0
  0
LINE
  5
93
330
1F
100
AcDbEntity
  8
TITLE_BLOCK
100
AcDbLine
 10
26.094
 20
0.9484
 30
0.0
 11
25.968
 21
0.9484
 31
0.0
  0
MTEXT
  5
94
330
1F
100
AcDbEntity
  8
TITLE_BLOCK
100
AcDbMText
 10
25.95
 20
1.2524
 30
0.0
 40
0.064
 41
1.6
 71
     2
 72
     1
  1
THIRD ANGLE PROJECTION
  7
ONSHAPE-STANDARD
  0
LINE
  5
95
330
1F
100
AcDbEntity
  8
TITLE_BLOCK
100
AcDbLine
 10
26.75
 20
0.75
 30
0.0
 11
26.75
 21
2.75
 31
0.0
  0
LINE
  5
96
330
1F
100
AcDbEntity
  8
TITLE_BLOCK
100
AcDbLine
 10
27.55
 20
1.31
 30
0.0
 11
27.55
 21
2.75
 31
0.0
  0
LINE
  5
97
330
1F
100
AcDbEntity
  8
TITLE_BLOCK
100
AcDbLine
 10
28.55
 20
1.31
 30
0.0
 11
28.55
 21
2.75
 31
0.0
  0
LINE
  5
98
330
1F
100
AcDbEntity
  8
TITLE_BLOCK
100
AcDbLine
 10
27.95
 20
0.75
 30
0.0
 11
27.95
 21
1.31
 31
0.0
  0
LINE
  5
99
330
1F
100
AcDbEntity
  8
TITLE_BLOCK
100
AcDbLine
 10
26.75
 20
2.75
 30
0.0
 11
29.15
 21
2.75
 31
0.0
  0
LINE
  5
9A
330
1F
100
AcDbEntity
  8
TITLE_BLOCK
100
AcDbLine
 10
26.75
 20
2.51
 30
0.0
 11
29.15
 21
2.51
 31
0.0
  0
LINE
  5
9B
330
1F
100
AcDbEntity
  8
TITLE_BLOCK
100
AcDbLine
 10
26.75
 20
2.27
 30
0.0
 11
29.15
 21
2.27
 31
0.0
  0
LINE
  5
9C
330
1F
100
AcDbEntity
  8
TITLE_BLOCK
100
AcDbLine
 10
26.75
 20
2.03
 30
0.0
 11
29.15
 21
2.03
 31
0.0
  0
LINE
  5
9D
330
1F
100
AcDbEntity
  8
TITLE_BLOCK
100
AcDbLine
 10
26.75
 20
1.79
 30
0.0
 11
29.15
 21
1.79
 31
0.0
  0
LINE
  5
9E
330
1F
100
AcDbEntity
  8
TITLE_BLOCK
100
AcDbLine
 10
26.75
 20
1.55
 30
0.0
 11
29.15
 21
1.55
 31
0.0
  0
LINE
  5
9F
330
1F
100
AcDbEntity
  8
TITLE_BLOCK
100
AcDbLine
 10
26.75
 20
1.31
 30
0.0
 11
29.15
 21
1.31
 31
0.0
  0
MTEXT
  5
A0
330
1F
100
AcDbEntity
  8
TITLE_BLOCK
100
AcDbMText
 10
27.5852
 20
2.6924
 30
0.0
 40
0.064
 41
1.0
 71
     1
 72
     1
  1
NAME
  7
ONSHAPE-STANDARD
  0
MTEXT
  5
A1
330
1F
100
AcDbEntity
  8
TITLE_BLOCK
100
AcDbMText
 10
28.85
 20
2.6924
 30
0.0
 40
0.064
 41
0.5999999999999979
 71
     2
 72
     1
  1
DATE
  7
ONSHAPE-STANDARD
  0
MTEXT
  5
A2
330
1F
100
AcDbEntity
  8
TITLE_BLOCK
100
AcDbMText
 10
26.7852
 20
2.4524
 30
0.0
 40
0.064
 41
0.8000000000000007
 71
     1
 72
     1
  1
DRAWN
  7
ONSHAPE-STANDARD
  0
MTEXT
  5
A3
102
{ACAD_XDICTIONARY
360
A4
102
}
330
1F
100
AcDbEntity
  8
TITLE_BLOCK
100
AcDbMText
 10
28.05
 20
2.39
 30
0.0
 40
0.05376
 41
1.0
 71
     5
 72
     1
  1
Bar Smith
  7
ONSHAPE-STANDARD-FIELDS
1001
ACAD
1000
ACAD_MTEXT_DEFINED_HEIGHT_BEGIN
1070
    46
1040
0.2400000000000002
1000
ACAD_MTEXT_DEFINED_HEIGHT_END
  0
MTEXT
  5
AA
102
{ACAD_XDICTIONARY
360
AB
102
}
330
1F
100
AcDbEntity
  8
TITLE_BLOCK
100
AcDbMText
 10
28.85
 20
2.39
 30
0.0
 40
0.05376
 41
0.5999999999999979
 71
     5
 72
     1
  1
10/14/2017
  7
ONSHAPE-STANDARD-FIELDS
1001
ACAD
1000
ACAD_MTEXT_DEFINED_HEIGHT_BEGIN
1070
    46
1040
0.2400000000000002
1000
ACAD_MTEXT_DEFINED_HEIGHT_END
  0
MTEXT
  5
B0
330
1F
100
AcDbEntity
  8
TITLE_BLOCK
100
AcDbMText
 10
26.7852
 20
2.2124
 30
0.0
 40
0.064
 41
0.8000000000000007
 71
     1
 72
     1
  1
CHECKED
  7
ONSHAPE-STANDARD
  0
MTEXT
  5
B1
330
1F
100
AcDbEntity
  8
TITLE_BLOCK
100
AcDbMText
 10
28.05
 20
2.15
 30
0.0
 40
0.05376
 41
1.0
 71
     5
 72
     1
  1
 
  7
ONSHAPE-STANDARD-FIELDS
1001
ACAD
1000
ACAD_MTEXT_DEFINED_HEIGHT_BEGIN
1070
    46
1040
0.2399999999999998
1000
ACAD_MTEXT_DEFINED_HEIGHT_END
  0
MTEXT
  5
B2
330
1F
100
AcDbEntity
  8
TITLE_BLOCK
100
AcDbMText
 10
28.85
 20
2.15
 30
0.0
 40
0.05376
 41
0.5999999999999979
 71
     5
 72
     1
  1
 
  7
ONSHAPE-STANDARD-FIELDS
1001
ACAD
1000
ACAD_MTEXT_DEFINED_HEIGHT_BEGIN
1070
    46
1040
0.2399999999999998
1000
ACAD_MTEXT_DEFINED_HEIGHT_END
  0
MTEXT
  5
B3
330
1F
100
AcDbEntity
  8
TITLE_BLOCK
100
AcDbMText
 10
26.7852
 20
1.9724
 30
0.0
 40
0.064
 41
0.8000000000000007
 71
     1
 72
     1
  1
APPROVED
  7
ONSHAPE-STANDARD
  0
MTEXT
  5
B4
330
1F
100
AcDbEntity
  8
TITLE_BLOCK
100
AcDbMText
 10
28.05
 20
1.91
 30
0.0
 40
0.05376
 41
1.0
 71
     5
 72
     1
  1
 
  7
ONSHAPE-STANDARD-FIELDS
1001
ACAD
1000
ACAD_MTEXT_DEFINED_HEIGHT_BEGIN
1070
    46
1040
0.2400000000000002
1000
ACAD_MTEXT_DEFINED_HEIGHT_END
  0
MTEXT
  5
B5
330
1F
100
AcDbEntity
  8
TITLE_BLOCK
100
AcDbMText
 10
28.85
 20
1.91
 30
0.0
 40
0.05376
 41
0.5999999999999979
 71
     5
 72
     1
  1
 
  7
ONSHAPE-STANDARD-FIELDS
1001
ACAD
1000
ACAD_MTEXT_DEFINED_HEIGHT_BEGIN
1070
    46
1040
0.2400000000000002
1000
ACAD_MTEXT_DEFINED_HEIGHT_END
  0
MTEXT
  5
B6
330
1F
100
AcDbEntity
  8
TITLE_BLOCK
100
AcDbMText
 10
27.15
 20
1.67
 30
0.0
 40
0.096
 41
0.8000000000000007
 71
     5
 72
     1
  1
 
  7
ONSHAPE-STANDARD-FIELDS
1001
ACAD
1000
ACAD_MTEXT_DEFINED_HEIGHT_BEGIN
1070
    46
1040
0.24
1000
ACAD_MTEXT_DEFINED_HEIGHT_END
  0
MTEXT
  5
B7
330
1F
100
AcDbEntity
  8
TITLE_BLOCK
100
AcDbMText
 10
28.05
 20
1.67
 30
0.0
 40
0.05376
 41
1.0
 71
     5
 72
     1
  1
 
  7
ONSHAPE-STANDARD-FIELDS
1001
ACAD
1000
ACAD_MTEXT_DEFINED_HEIGHT_BEGIN
1070
    46
1040
0.24
1000
ACAD_MTEXT_DEFINED_HEIGHT_END
  0
MTEXT
  5
B8
330
1F
100
AcDbEntity
  8
TITLE_BLOCK
100
AcDbMText
 10
28.85
 20
1.67
 30
0.0
 40
0.05376
 41
0.5999999999999979
 71
     5
 72
     1
  1
 
  7
ONSHAPE-STANDARD-FIELDS
1001
ACAD
1000
ACAD_MTEXT_DEFINED_HEIGHT_BEGIN
1070
    46
1040
0.24
1000
ACAD_MTEXT_DEFINED_HEIGHT_END
  0
MTEXT
  5
B9
330
1F
100
AcDbEntity
  8
TITLE_BLOCK
100
AcDbMText
 10
27.15
 20
1.43
 30
0.0
 40
0.096
 41
0.8000000000000007
 71
     5
 72
     1
  1
 
  7
ONSHAPE-STANDARD-FIELDS
1001
ACAD
1000
ACAD_MTEXT_DEFINED_HEIGHT_BEGIN
1070
    46
1040
0.24
1000
ACAD_MTEXT_DEFINED_HEIGHT_END
  0
MTEXT
  5
BA
330
1F
100
AcDbEntity
  8
TITLE_BLOCK
100
AcDbMText
 10
28.05
 20
1.43
 30
0.0
 40
0.05376
 41
1.0
 71
     5
 72
     1
  1
 
  7
ONSHAPE-STANDARD-FIELDS
1001
ACAD
1000
ACAD_MTEXT_DEFINED_HEIGHT_BEGIN
1070
    46
1040
0.24
1000
ACAD_MTEXT_DEFINED_HEIGHT_END
  0
MTEXT
  5
BB
330
1F
100
AcDbEntity
  8
TITLE_BLOCK
100
AcDbMText
 10
28.85
 20
1.43
 30
0.0
 40
0.05376
 41
0.5999999999999979
 71
     5
 72
     1
  1
 
  7
ONSHAPE-STANDARD-FIELDS
1001
ACAD
1000
ACAD_MTEXT_DEFINED_HEIGHT_BEGIN
1070
    46
1040
0.24
1000
ACAD_MTEXT_DEFINED_HEIGHT_END
  0
MTEXT
  5
BC
330
1F
100
AcDbEntity
  8
TITLE_BLOCK
100
AcDbMText
 10
26.7852
 20
1.2524
 30
0.0
 40
0.064
 41
1.199999999999999
 71
     1
 72
     1
  1
MATERIAL
  7
ONSHAPE-STANDARD
  0
MTEXT
  5
BD
330
1F
100
AcDbEntity
  8
TITLE_BLOCK
100
AcDbMText
 10
27.35
 20
1.03
 30
0.0
 40
0.096
 41
1.199999999999999
 71
     5
 72
     1
  1
 
  7
ONSHAPE-STANDARD-FIELDS
1001
ACAD
1000
ACAD_MTEXT_DEFINED_HEIGHT_BEGIN
1070
    46
1040
0.56
1000
ACAD_MTEXT_DEFINED_HEIGHT_END
  0
MTEXT
  5
BE
330
1F
100
AcDbEntity
  8
TITLE_BLOCK
100
AcDbMText
 10
27.9852
 20
1.2524
 30
0.0
 40
0.064
 41
1.199999999999999
 71
     1
 72
     1
  1
FINISH
  7
ONSHAPE-STANDARD
  0
MTEXT
  5
BF
330
1F
100
AcDbEntity
  8
TITLE_BLOCK
100
AcDbMText
 10
28.55
 20
1.03
 30
0.0
 40
0.096
 41
1.199999999999999
 71
     5
 72
     1
  1
 
  7
ONSHAPE-STANDARD-FIELDS
1001
ACAD
1000
ACAD_MTEXT_DEFINED_HEIGHT_BEGIN
1070
    46
1040
0.56
1000
ACAD_MTEXT_DEFINED_HEIGHT_END
  0
LINE
  5
C0
330
1F
100
AcDbEntity
  8
TITLE_BLOCK
100
AcDbLine
 10
29.15
 20
0.75
 30
0.0
 11
29.15
 21
2.75
 31
0.0
  0
LINE
  5
C1
330
1F
100
AcDbEntity
  8
TITLE_BLOCK
100
AcDbLine
 10
29.65
 20
1.01
 30
0.0
 11
29.65
 21
1.41
 31
0.0
  0
LINE
  5
C2
330
1F
100
AcDbEntity
  8
TITLE_BLOCK
100
AcDbLine
 10
30.03
 20
0.75
 30
0.0
 11
30.03
 21
1.01
 31
0.0
  0
LINE
  5
C3
330
1F
100
AcDbEntity
  8
TITLE_BLOCK
100
AcDbLine
 10
31.85
 20
0.75
 30
0.0
 11
31.85
 21
1.01
 31
0.0
  0
LINE
  5
C4
330
1F
100
AcDbEntity
  8
TITLE_BLOCK
100
AcDbLine
 10
32.85
 20
1.01
 30
0.0
 11
32.85
 21
1.41
 31
0.0
  0
LINE
  5
C5
330
1F
100
AcDbEntity
  8
TITLE_BLOCK
100
AcDbLine
 10
29.15
 20
1.01
 30
0.0
 11
33.25
 21
1.01
 31
0.0
  0
LINE
  5
C6
330
1F
100
AcDbEntity
  8
TITLE_BLOCK
100
AcDbLine
 10
29.15
 20
1.41
 30
0.0
 11
33.25
 21
1.41
 31
0.0
  0
LINE
  5
C7
330
1F
100
AcDbEntity
  8
TITLE_BLOCK
100
AcDbLine
 10
29.15
 20
2.25
 30
0.0
 11
33.25
 21
2.25
 31
0.0
  0
LINE
  5
C8
330
1F
100
AcDbEntity
  8
TITLE_BLOCK
100
AcDbLine
 10
29.15
 20
2.75
 30
0.0
 11
33.25
 21
2.75
 31
0.0
  0
MTEXT
  5
C9
330
1F
100
AcDbEntity
  8
TITLE_BLOCK
100
AcDbMText
 10
29.1852
 20
2.1924
 30
0.0
 40
0.064
 41
0.5000000000000018
 71
     1
 72
     1
  1
TITLE
  7
ONSHAPE-STANDARD
  0
MTEXT
  5
CA
102
{ACAD_XDICTIONARY
360
CB
102
}
330
1F
100
AcDbEntity
  8
TITLE_BLOCK
100
AcDbMText
 10
31.2
 20
2.09
 30
0.0
 40
0.1536
 41
3.700000000000002
 71
     5
 72
     1
  1
Track}
  7
ONSHAPE-STANDARD-FIELDS
1001
ACAD
1000
ACAD_MTEXT_DEFINED_HEIGHT_BEGIN
1070
    46
1040
0.1556926430517711
1000
ACAD_MTEXT_DEFINED_HEIGHT_END
  0
MTEXT
  5
CC
102
{ACAD_XDICTIONARY
360
CD
102
}
330
1F
100
AcDbEntity
  8
TITLE_BLOCK
100
AcDbMText
 10
31.2
 20
1.838
 30
0.0
 40
0.1536
 41
3.700000000000002
 71
     5
 72
     1
  1
----
  7
ONSHAPE-STANDARD-FIELDS
1001
ACAD
1000
ACAD_MTEXT_DEFINED_HEIGHT_BEGIN
1070
    46
1040
0.2519999999999999
1000
ACAD_MTEXT_DEFINED_HEIGHT_END
  0
MTEXT
  5
D2
102
{ACAD_XDICTIONARY
360
D3
102
}
330
1F
100
AcDbEntity
  8
TITLE_BLOCK
100
AcDbMText
 10
31.2
 20
1.586
 30
0.0
 40
0.1536
 41
3.700000000000002
 71
     5
 72
     1
  1
----
  7
ONSHAPE-STANDARD-FIELDS
1001
ACAD
1000
ACAD_MTEXT_DEFINED_HEIGHT_BEGIN
1070
    46
1040
0.2519999999999999
1000
ACAD_MTEXT_DEFINED_HEIGHT_END
  0
MTEXT
  5
D8
330
1F
100
AcDbEntity
  8
TITLE_BLOCK
100
AcDbMText
 10
29.17816
 20
1.36392
 30
0.0
 40
0.0512
 41
0.5000000000000018
 71
     1
 72
     1
  1
SIZE
  7
ONSHAPE-STANDARD
  0
MTEXT
  5
D9
102
{ACAD_XDICTIONARY
360
DA
102
}
330
1F
100
AcDbEntity
  8
TITLE_BLOCK
100
AcDbMText
 10
29.4
 20
1.21
 30
0.0
 40
0.192
 41
0.5000000000000018
 71
     5
 72
     1
  1
D
  7
ONSHAPE-STANDARD-FIELDS
1001
ACAD
1000
ACAD_MTEXT_DEFINED_HEIGHT_BEGIN
1070
    46
1040
0.4000000000000001
1000
ACAD_MTEXT_DEFINED_HEIGHT_END
  0
MTEXT
  5
DF
330
1F
100
AcDbEntity
  8
TITLE_BLOCK
100
AcDbMText
 10
29.67816
 20
1.36392
 30
0.0
 40
0.0512
 41
3.200000000000001
 71
     1
 72
     1
  1
DWG NO.
  7
ONSHAPE-STANDARD
  0
MTEXT
  5
E0
102
{ACAD_XDICTIONARY
360
E1
102
}
330
1F
100
AcDbEntity
  8
TITLE_BLOCK
100
AcDbMText
 10
31.25
 20
1.21
 30
0.0
 40
0.192
 41
3.200000000000001
 71
     5
 72
     1
  1
----
  7
ONSHAPE-STANDARD-FIELDS
1001
ACAD
1000
ACAD_MTEXT_DEFINED_HEIGHT_BEGIN
1070
    46
1040
0.4000000000000001
1000
ACAD_MTEXT_DEFINED_HEIGHT_END
  0
MTEXT
  5
E6
330
1F
100
AcDbEntity
  8
TITLE_BLOCK
100
AcDbMText
 10
32.87816
 20
1.36392
 30
0.0
 40
0.0512
 41
0.3999999999999986
 71
     1
 72
     1
  1
REV.
  7
ONSHAPE-STANDARD
  0
MTEXT
  5
E7
102
{ACAD_XDICTIONARY
360
E8
102
}
330
1F
100
AcDbEntity
  8
TITLE_BLOCK
100
AcDbMText
 10
33.07
 20
1.21
 30
0.0
 40
0.192
 41
0.3599999999999994
 71
     5
 72
     1
  1
-
  7
ONSHAPE-STANDARD-FIELDS
1001
ACAD
1000
ACAD_MTEXT_DEFINED_HEIGHT_BEGIN
1070
    46
1040
0.4000000000000001
1000
ACAD_MTEXT_DEFINED_HEIGHT_END
  0
MTEXT
  5
ED
330
1F
100
AcDbEntity
  8
TITLE_BLOCK
100
AcDbMText
 10
29.17816
 20
0.96392
 30
0.0
 40
0.0512
 41
0.8800000000000008
 71
     1
 72
     1
  1
SCALE
  7
ONSHAPE-STANDARD
  0
MTEXT
  5
EE
102
{ACAD_XDICTIONARY
360
EF
102
}
330
1F
100
AcDbEntity
  8
TITLE_BLOCK
100
AcDbMText
 10
29.63
 20
0.88
 30
0.0
 40
0.1152
 41
0.8000000000000007
 71
     5
 72
     1
  1
1:1
  7
ONSHAPE-STANDARD-FIELDS
1001
ACAD
1000
ACAD_MTEXT_DEFINED_HEIGHT_BEGIN
1070
    46
1040
0.26
1000
ACAD_MTEXT_DEFINED_HEIGHT_END
  0
MTEXT
  5
F4
330
1F
100
AcDbEntity
  8
TITLE_BLOCK
100
AcDbMText
 10
30.05816
 20
0.96392
 30
0.0
 40
0.0512
 41
1.82
 71
     1
 72
     1
  1
WEIGHT
  7
ONSHAPE-STANDARD
  0
MTEXT
  5
F5
330
1F
100
AcDbEntity
  8
TITLE_BLOCK
100
AcDbMText
 10
30.94
 20
0.88
 30
0.0
 40
0.1152
 41
1.82
 71
     5
 72
     1
  1
 
  7
ONSHAPE-STANDARD-FIELDS
1001
ACAD
1000
ACAD_MTEXT_DEFINED_HEIGHT_BEGIN
1070
    46
1040
0.26
1000
ACAD_MTEXT_DEFINED_HEIGHT_END
  0
MTEXT
  5
F6
330
1F
100
AcDbEntity
  8
TITLE_BLOCK
100
AcDbMText
 10
31.87816
 20
0.96392
 30
0.0
 40
0.0512
 41
1.4
 71
     1
 72
     1
  1
SHEET
  7
ONSHAPE-STANDARD
  0
MTEXT
  5
F7
102
{ACAD_XDICTIONARY
360
F8
102
}
330
1F
100
AcDbEntity
  8
TITLE_BLOCK
100
AcDbMText
 10
32.59
 20
0.88
 30
0.0
 40
0.1152
 41
1.32
 71
     5
 72
     1
  1
1 of 1
  7
ONSHAPE-STANDARD-FIELDS
1001
ACAD
1000
ACAD_MTEXT_DEFINED_HEIGHT_BEGIN
1070
    46
1040
0.26
1000
ACAD_MTEXT_DEFINED_HEIGHT_END
  0
MTEXT
  5
FD
330
1F
100
AcDbEntity
  8
ANNOTATION_TEXT
100
AcDbMText
 10
6.223250072781498
 20
3.422857661872498
 30
0.0
 40
0.12
 41
0.0
 71
     2
 72
     1
  1
SCALE 1:2
  7
ONSHAPE-STANDARD
1001
ACAD
1000
ACAD_MTEXT_DEFINED_HEIGHT_BEGIN
1070
    46
1040
0.12
1000
ACAD_MTEXT_DEFINED_HEIGHT_END
  0
MTEXT
  5
FF
330
1F
100
AcDbEntity
  8
ANNOTATION_TEXT
 60
     1
100
AcDbMText
 10
19.61496332783017
 20
7.221793879513355
 30
0.0
 40
0.12
 41
0.0
 71
     2
 72
     1
  1

  7
ONSHAPE-STANDARD
1001
ACAD
1000
ACAD_MTEXT_DEFINED_HEIGHT_BEGIN
1070
    46
1040
0.12
1000
ACAD_MTEXT_DEFINED_HEIGHT_END
  0
LINE
  5
100
330
1F
100
AcDbEntity
  8
BORDER_FRAME
100
AcDbLine
 10
0.75
 20
0.75
 30
0.0
 11
0.75
 21
21.25
 31
0.0
  0
LINE
  5
102
330
1F
100
AcDbEntity
  8
BORDER_FRAME
100
AcDbLine
 10
0.75
 20
21.25
 30
0.0
 11
33.25
 21
21.25
 31
0.0
  0
LINE
  5
103
330
1F
100
AcDbEntity
  8
BORDER_FRAME
100
AcDbLine
 10
33.25
 20
21.25
 30
0.0
 11
33.25
 21
0.75
 31
0.0
  0
LINE
  5
104
330
1F
100
AcDbEntity
  8
BORDER_FRAME
100
AcDbLine
 10
33.25
 20
0.75
 30
0.0
 11
0.75
 21
0.75
 31
0.0
  0
LINE
  5
105
330
1F
100
AcDbEntity
  8
BORDER_ZONES
100
AcDbLine
 10
4.25
 20
0.75
 30
0.0
 11
4.25
 21
0.0375
 31
0.0
  0
LINE
  5
107
330
1F
100
AcDbEntity
  8
BORDER_ZONES
100
AcDbLine
 10
4.25
 20
21.25
 30
0.0
 11
4.25
 21
21.9625
 31
0.0
  0
MTEXT
  5
108
330
1F
100
AcDbEntity
  8
BORDER_ZONES
100
AcDbMText
 10
2.125
 20
0.375
 30
0.0
 40
0.24
 41
0.0
 71
     5
 72
     1
  1
8
  7
ONSHAPE-STANDARD
  0
MTEXT
  5
109
330
1F
100
AcDbEntity
  8
BORDER_ZONES
100
AcDbMText
 10
2.125
 20
21.625
 30
0.0
 40
0.24
 41
0.0
 71
     5
 72
     1
  1
8
  7
ONSHAPE-STANDARD
  0
MTEXT
  5
10A
330
1F
100
AcDbEntity
  8
BORDER_ZONES
100
AcDbMText
 10
6.375
 20
0.375
 30
0.0
 40
0.24
 41
0.0
 71
     5
 72
     1
  1
7
  7
ONSHAPE-STANDARD
  0
MTEXT
  5
10B
330
1F
100
AcDbEntity
  8
BORDER_ZONES
100
AcDbMText
 10
6.375
 20
21.625
 30
0.0
 40
0.24
 41
0.0
 71
     5
 72
     1
  1
7
  7
ONSHAPE-STANDARD
  0
LINE
  5
10C
330
1F
100
AcDbEntity
  8
BORDER_ZONES
100
AcDbLine
 10
8.5
 20
0.75
 30
0.0
 11
8.5
 21
0.0375
 31
0.0
  0
LINE
  5
10D
330
1F
100
AcDbEntity
  8
BORDER_ZONES
100
AcDbLine
 10
8.5
 20
21.25
 30
0.0
 11
8.5
 21
21.9625
 31
0.0
  0
MTEXT
  5
10E
330
1F
100
AcDbEntity
  8
BORDER_ZONES
100
AcDbMText
 10
10.625
 20
0.375
 30
0.0
 40
0.24
 41
0.0
 71
     5
 72
     1
  1
6
  7
ONSHAPE-STANDARD
  0
MTEXT
  5
10F
330
1F
100
AcDbEntity
  8
BORDER_ZONES
100
AcDbMText
 10
10.625
 20
21.625
 30
0.0
 40
0.24
 41
0.0
 71
     5
 72
     1
  1
6
  7
ONSHAPE-STANDARD
  0
LINE
  5
110
330
1F
100
AcDbEntity
  8
BORDER_ZONES
100
AcDbLine
 10
12.75
 20
0.75
 30
0.0
 11
12.75
 21
0.0375
 31
0.0
  0
LINE
  5
111
330
1F
100
AcDbEntity
  8
BORDER_ZONES
100
AcDbLine
 10
12.75
 20
21.25
 30
0.0
 11
12.75
 21
21.9625
 31
0.0
  0
MTEXT
  5
112
330
1F
100
AcDbEntity
  8
BORDER_ZONES
100
AcDbMText
 10
14.875
 20
0.375
 30
0.0
 40
0.24
 41
0.0
 71
     5
 72
     1
  1
5
  7
ONSHAPE-STANDARD
  0
MTEXT
  5
113
330
1F
100
AcDbEntity
  8
BORDER_ZONES
100
AcDbMText
 10
14.875
 20
21.625
 30
0.0
 40
0.24
 41
0.0
 71
     5
 72
     1
  1
5
  7
ONSHAPE-STANDARD
  0
LINE
  5
114
330
1F
100
AcDbEntity
  8
BORDER_ZONES
100
AcDbLine
 10
17.0
 20
0.75
 30
0.0
 11
17.0
 21
0.0375
 31
0.0
  0
LINE
  5
115
330
1F
100
AcDbEntity
  8
BORDER_ZONES
100
AcDbLine
 10
17.0
 20
21.25
 30
0.0
 11
17.0
 21
21.9625
 31
0.0
  0
MTEXT
  5
116
330
1F
100
AcDbEntity
  8
BORDER_ZONES
100
AcDbMText
 10
19.125
 20
0.375
 30
0.0
 40
0.24
 41
0.0
 71
     5
 72
     1
  1
4
  7
ONSHAPE-STANDARD
  0
MTEXT
  5
117
330
1F
100
AcDbEntity
  8
BORDER_ZONES
100
AcDbMText
 10
19.125
 20
21.625
 30
0.0
 40
0.24
 41
0.0
 71
     5
 72
     1
  1
4
  7
ONSHAPE-STANDARD
  0
LINE
  5
118
330
1F
100
AcDbEntity
  8
BORDER_ZONES
100
AcDbLine
 10
21.25
 20
0.75
 30
0.0
 11
21.25
 21
0.0375
 31
0.0
  0
LINE
  5
119
330
1F
100
AcDbEntity
  8
BORDER_ZONES
100
AcDbLine
 10
21.25
 20
21.25
 30
0.0
 11
21.25
 21
21.9625
 31
0.0
  0
MTEXT
  5
11A
330
1F
100
AcDbEntity
  8
BORDER_ZONES
100
AcDbMText
 10
23.375
 20
0.375
 30
0.0
 40
0.24
 41
0.0
 71
     5
 72
     1
  1
3
  7
ONSHAPE-STANDARD
  0
MTEXT
  5
11B
330
1F
100
AcDbEntity
  8
BORDER_ZONES
100
AcDbMText
 10
23.375
 20
21.625
 30
0.0
 40
0.24
 41
0.0
 71
     5
 72
     1
  1
3
  7
ONSHAPE-STANDARD
  0
LINE
  5
11C
330
1F
100
AcDbEntity
  8
BORDER_ZONES
100
AcDbLine
 10
25.5
 20
0.75
 30
0.0
 11
25.5
 21
0.0375
 31
0.0
  0
LINE
  5
11D
330
1F
100
AcDbEntity
  8
BORDER_ZONES
100
AcDbLine
 10
25.5
 20
21.25
 30
0.0
 11
25.5
 21
21.9625
 31
0.0
  0
MTEXT
  5
11E
330
1F
100
AcDbEntity
  8
BORDER_ZONES
100
AcDbMText
 10
27.625
 20
0.375
 30
0.0
 40
0.24
 41
0.0
 71
     5
 72
     1
  1
2
  7
ONSHAPE-STANDARD
  0
MTEXT
  5
11F
330
1F
100
AcDbEntity
  8
BORDER_ZONES
100
AcDbMText
 10
27.625
 20
21.625
 30
0.0
 40
0.24
 41
0.0
 71
     5
 72
     1
  1
2
  7
ONSHAPE-STANDARD
  0
LINE
  5
120
330
1F
100
AcDbEntity
  8
BORDER_ZONES
100
AcDbLine
 10
29.75
 20
0.75
 30
0.0
 11
29.75
 21
0.0375
 31
0.0
  0
LINE
  5
121
330
1F
100
AcDbEntity
  8
BORDER_ZONES
100
AcDbLine
 10
29.75
 20
21.25
 30
0.0
 11
29.75
 21
21.9625
 31
0.0
  0
MTEXT
  5
122
330
1F
100
AcDbEntity
  8
BORDER_ZONES
100
AcDbMText
 10
31.875
 20
0.375
 30
0.0
 40
0.24
 41
0.0
 71
     5
 72
     1
  1
1
  7
ONSHAPE-STANDARD
  0
MTEXT
  5
123
330
1F
100
AcDbEntity
  8
BORDER_ZONES
100
AcDbMText
 10
31.875
 20
21.625
 30
0.0
 40
0.24
 41
0.0
 71
     5
 72
     1
  1
1
  7
ONSHAPE-STANDARD
  0
LINE
  5
124
330
1F
100
AcDbEntity
  8
BORDER_ZONES
100
AcDbLine
 10
0.75
 20
2.75
 30
0.0
 11
0.0375
 21
2.75
 31
0.0
  0
LINE
  5
125
330
1F
100
AcDbEntity
  8
BORDER_ZONES
100
AcDbLine
 10
33.25
 20
2.75
 30
0.0
 11
33.9625
 21
2.75
 31
0.0
  0
MTEXT
  5
126
330
1F
100
AcDbEntity
  8
BORDER_ZONES
100
AcDbMText
 10
0.375
 20
1.375
 30
0.0
 40
0.24
 41
0.0
 71
     5
 72
     1
  1
A
  7
ONSHAPE-STANDARD
  0
MTEXT
  5
127
330
1F
100
AcDbEntity
  8
BORDER_ZONES
100
AcDbMText
 10
33.625
 20
1.375
 30
0.0
 40
0.24
 41
0.0
 71
     5
 72
     1
  1
A
  7
ONSHAPE-STANDARD
  0
MTEXT
  5
128
330
1F
100
AcDbEntity
  8
BORDER_ZONES
100
AcDbMText
 10
0.375
 20
4.125
 30
0.0
 40
0.24
 41
0.0
 71
     5
 72
     1
  1
B
  7
ONSHAPE-STANDARD
  0
MTEXT
  5
129
330
1F
100
AcDbEntity
  8
BORDER_ZONES
100
AcDbMText
 10
33.625
 20
4.125
 30
0.0
 40
0.24
 41
0.0
 71
     5
 72
     1
  1
B
  7
ONSHAPE-STANDARD
  0
LINE
  5
12A
330
1F
100
AcDbEntity
  8
BORDER_ZONES
100
AcDbLine
 10
0.75
 20
5.5
 30
0.0
 11
0.0375
 21
5.5
 31
0.0
  0
LINE
  5
12B
330
1F
100
AcDbEntity
  8
BORDER_ZONES
100
AcDbLine
 10
33.25
 20
5.5
 30
0.0
 11
33.9625
 21
5.5
 31
0.0
  0
MTEXT
  5
12C
330
1F
100
AcDbEntity
  8
BORDER_ZONES
100
AcDbMText
 10
0.375
 20
6.875
 30
0.0
 40
0.24
 41
0.0
 71
     5
 72
     1
  1
C
  7
ONSHAPE-STANDARD
  0
MTEXT
  5
12D
330
1F
100
AcDbEntity
  8
BORDER_ZONES
100
AcDbMText
 10
33.625
 20
6.875
 30
0.0
 40
0.24
 41
0.0
 71
     5
 72
     1
  1
C
  7
ONSHAPE-STANDARD
  0
LINE
  5
12E
330
1F
100
AcDbEntity
  8
BORDER_ZONES
100
AcDbLine
 10
0.75
 20
8.25
 30
0.0
 11
0.0375
 21
8.25
 31
0.0
  0
LINE
  5
12F
330
1F
100
AcDbEntity
  8
BORDER_ZONES
100
AcDbLine
 10
33.25
 20
8.25
 30
0.0
 11
33.9625
 21
8.25
 31
0.0
  0
MTEXT
  5
130
330
1F
100
AcDbEntity
  8
BORDER_ZONES
100
AcDbMText
 10
0.375
 20
9.625
 30
0.0
 40
0.24
 41
0.0
 71
     5
 72
     1
  1
D
  7
ONSHAPE-STANDARD
  0
MTEXT
  5
131
330
1F
100
AcDbEntity
  8
BORDER_ZONES
100
AcDbMText
 10
33.625
 20
9.625
 30
0.0
 40
0.24
 41
0.0
 71
     5
 72
     1
  1
D
  7
ONSHAPE-STANDARD
  0
LINE
  5
132
330
1F
100
AcDbEntity
  8
BORDER_ZONES
100
AcDbLine
 10
0.75
 20
11.0
 30
0.0
 11
0.0375
 21
11.0
 31
0.0
  0
LINE
  5
133
330
1F
100
AcDbEntity
  8
BORDER_ZONES
100
AcDbLine
 10
33.25
 20
11.0
 30
0.0
 11
33.9625
 21
11.0
 31
0.0
  0
MTEXT
  5
134
330
1F
100
AcDbEntity
  8
BORDER_ZONES
100
AcDbMText
 10
0.375
 20
12.375
 30
0.0
 40
0.24
 41
0.0
 71
     5
 72
     1
  1
E
  7
ONSHAPE-STANDARD
  0
MTEXT
  5
135
330
1F
100
AcDbEntity
  8
BORDER_ZONES
100
AcDbMText
 10
33.625
 20
12.375
 30
0.0
 40
0.24
 41
0.0
 71
     5
 72
     1
  1
E
  7
ONSHAPE-STANDARD
  0
LINE
  5
136
330
1F
100
AcDbEntity
  8
BORDER_ZONES
100
AcDbLine
 10
0.75
 20
13.75
 30
0.0
 11
0.0375
 21
13.75
 31
0.0
  0
LINE
  5
137
330
1F
100
AcDbEntity
  8
BORDER_ZONES
100
AcDbLine
 10
33.25
 20
13.75
 30
0.0
 11
33.9625
 21
13.75
 31
0.0
  0
MTEXT
  5
138
330
1F
100
AcDbEntity
  8
BORDER_ZONES
100
AcDbMText
 10
0.375
 20
15.125
 30
0.0
 40
0.24
 41
0.0
 71
     5
 72
     1
  1
F
  7
ONSHAPE-STANDARD
  0
MTEXT
  5
139
330
1F
100
AcDbEntity
  8
BORDER_ZONES
100
AcDbMText
 10
33.625
 20
15.125
 30
0.0
 40
0.24
 41
0.0
 71
     5
 72
     1
  1
F
  7
ONSHAPE-STANDARD
  0
LINE
  5
13A
330
1F
100
AcDbEntity
  8
BORDER_ZONES
100
AcDbLine
 10
0.75
 20
16.5
 30
0.0
 11
0.0375
 21
16.5
 31
0.0
  0
LINE
  5
13B
330
1F
100
AcDbEntity
  8
BORDER_ZONES
100
AcDbLine
 10
33.25
 20
16.5
 30
0.0
 11
33.9625
 21
16.5
 31
0.0
  0
MTEXT
  5
13C
330
1F
100
AcDbEntity
  8
BORDER_ZONES
100
AcDbMText
 10
0.375
 20
17.875
 30
0.0
 40
0.24
 41
0.0
 71
     5
 72
     1
  1
G
  7
ONSHAPE-STANDARD
  0
MTEXT
  5
13D
330
1F
100
AcDbEntity
  8
BORDER_ZONES
100
AcDbMText
 10
33.625
 20
17.875
 30
0.0
 40
0.24
 41
0.0
 71
     5
 72
     1
  1
G
  7
ONSHAPE-STANDARD
  0
LINE
  5
13E
330
1F
100
AcDbEntity
  8
BORDER_ZONES
100
AcDbLine
 10
0.75
 20
19.25
 30
0.0
 11
0.0375
 21
19.25
 31
0.0
  0
LINE
  5
13F
330
1F
100
AcDbEntity
  8
BORDER_ZONES
100
AcDbLine
 10
33.25
 20
19.25
 30
0.0
 11
33.9625
 21
19.25
 31
0.0
  0
MTEXT
  5
140
330
1F
100
AcDbEntity
  8
BORDER_ZONES
100
AcDbMText
 10
0.375
 20
20.625
 30
0.0
 40
0.24
 41
0.0
 71
     5
 72
     1
  1
H
  7
ONSHAPE-STANDARD
  0
MTEXT
  5
141
330
1F
100
AcDbEntity
  8
BORDER_ZONES
100
AcDbMText
 10
33.625
 20
20.625
 30
0.0
 40
0.24
 41
0.0
 71
     5
 72
     1
  1
H
  7
ONSHAPE-STANDARD
  0
MTEXT
  5
146
330
1F
100
AcDbEntity
  8
SHEETMETAL_BEND_LINES_DOWN
100
AcDbMText
 10
19.61496332783017
 20
16.95323129999908
 30
0.0
 40
0.1181102362204725
 41
0.0
 71
     2
 72
     1
  1
DOWN 90.0° R2.3
  7
ONSHAPE-STANDARD-DIMENSION
1001
ACAD
1000
ACAD_MTEXT_DEFINED_HEIGHT_BEGIN
1070
    46
1040
0.2081102362204724
1000
ACAD_MTEXT_DEFINED_HEIGHT_END
  0
MTEXT
  5
14A
330
1F
100
AcDbEntity
  8
SHEETMETAL_BEND_LINES_DOWN
100
AcDbMText
 10
14.62085123909814
 20
9.25077448469911
 30
0.0
 40
0.1181102362204725
 41
0.0
 71
     2
 72
     1
  1
DOWN 90.0° R2.3
  7
ONSHAPE-STANDARD-DIMENSION
 11
0.4999999999999996
 21
-0.8660254037844389
 31
6.938893903907236E-16
1001
ACAD
1000
ACAD_MTEXT_DEFINED_HEIGHT_BEGIN
1070
    46
1040
0.2081102362204724
1000
ACAD_MTEXT_DEFINED_HEIGHT_END
  0
MTEXT
  5
14E
330
1F
100
AcDbEntity
  8
SHEETMETAL_BEND_LINES_DOWN
100
AcDbMText
 10
24.60907541656221
 20
9.25077448469911
 30
0.0
 40
0.1181102362204725
 41
0.0
 71
     2
 72
     1
  1
DOWN 90.0° R2.3
  7
ONSHAPE-STANDARD-DIMENSION
 11
0.4999999999999996
 21
0.8660254037844389
 31
0.0
1001
ACAD
1000
ACAD_MTEXT_DEFINED_HEIGHT_BEGIN
1070
    46
1040
0.2081102362204724
1000
ACAD_MTEXT_DEFINED_HEIGHT_END
  0
LINE
  5
151
330
1F
100
AcDbEntity
  8
TANGENT_LINES
100
AcDbLine
 10
8.295752965450276
 20
6.453814869868206
 30
0.0
 11
8.32359181510329
 21
6.469887637209303
 31
0.0
  0
LINE
  5
152
330
1F
100
AcDbEntity
  8
VISIBLE
100
AcDbLine
 10
8.526909462013741
 20
6.21427633990112
 30
0.0
 11
7.748719569768557
 21
6.663564483669521
 31
0.0
  0
LINE
  5
153
330
1F
100
AcDbEntity
  8
VISIBLE
100
AcDbLine
 10
8.295752965450276
 20
6.453814869868206
 30
0.0
 11
8.295752965450276
 21
6.500285397808384
 31
0.0
  0
LINE
  5
154
330
1F
100
AcDbEntity
  8
VISIBLE
100
AcDbLine
 10
7.992309504232427
 20
6.730755718568673
 30
0.0
 11
7.992309504232427
 21
6.629008033886163
 31
0.0
  0
LINE
  5
155
330
1F
100
AcDbEntity
  8
VISIBLE
100
AcDbLine
 10
8.340295124895098
 20
6.456394194574164
 30
0.0
 11
8.340295124895098
 21
6.428098442122451
 31
0.0
  0
LINE
  5
156
330
1F
100
AcDbEntity
  8
TANGENT_LINES
100
AcDbLine
 10
8.58945282928957
 20
6.623382565316779
 30
0.0
 11
8.563116187004605
 21
6.608177097804003
 31
0.0
  0
LINE
  5
157
330
1F
100
AcDbEntity
  8
TANGENT_LINES
100
AcDbLine
 10
8.52959930253559
 20
6.657939015100138
 30
0.0
 11
8.52959930253559
 21
6.639824604815783
 31
0.0
  0
LINE
  5
158
330
1F
100
AcDbEntity
  8
VISIBLE
100
AcDbLine
 10
3.498619476049833
 20
5.740088660454115
 30
0.0
 11
3.536648051887984
 21
5.734205619298156
 31
0.0
  0
LINE
  5
159
330
1F
100
AcDbEntity
  8
TANGENT_LINES
100
AcDbLine
 10
3.56337114270589
 20
5.930551717381928
 30
0.0
 11
3.579674704602111
 21
5.928029547579083
 31
0.0
  0
LINE
  5
15A
330
1F
100
AcDbEntity
  8
VISIBLE
100
AcDbLine
 10
3.728183398030826
 20
6.141941044812695
 30
0.0
 11
3.541463231407841
 21
5.739615001263886
 31
0.0
  0
LINE
  5
15B
330
1F
100
AcDbEntity
  8
VISIBLE
100
AcDbLine
 10
6.832169645701556
 20
4.420182462716108
 30
0.0
 11
6.832169645701556
 21
4.388036928033914
 31
0.0
  0
LINE
  5
15C
330
1F
100
AcDbEntity
  8
TANGENT_LINES
100
AcDbLine
 10
3.495282874621579
 20
5.753649823367954
 30
0.0
 11
3.53331145045973
 21
5.747766782211997
 31
0.0
  0
LINE
  5
15D
330
1F
100
AcDbEntity
  8
VISIBLE
100
AcDbLine
 10
7.726448490046146
 20
6.702139125288154
 30
0.0
 11
7.726448490046146
 21
6.872378059931781
 31
0.0
  0
LINE
  5
15E
330
1F
100
AcDbEntity
  8
TANGENT_LINES
100
AcDbLine
 10
6.908592592090096
 20
3.799047306501039
 30
0.0
 11
6.918782318275233
 21
3.777091498003984
 31
0.0
  0
LINE
  5
15F
330
1F
100
AcDbEntity
  8
TANGENT_LINES
100
AcDbLine
 10
7.091812338338827
 20
4.085132763732792
 30
0.0
 11
7.084623657943943
 21
4.100622217249883
 31
0.0
  0
LINE
  5
160
330
1F
100
AcDbEntity
  8
VISIBLE
100
AcDbLine
 10
8.57192213718126
 20
6.662131415460056
 30
0.0
 11
8.55439144507295
 21
6.67225276526787
 31
0.0
  0
LINE
  5
161
330
1F
100
AcDbEntity
  8
TANGENT_LINES
100
AcDbLine
 10
7.556979810130594
 20
3.979716994915615
 30
0.0
 11
7.567169536315731
 21
3.957761186418559
 31
0.0
  0
LINE
  5
162
330
1F
100
AcDbEntity
  8
VISIBLE
100
AcDbLine
 10
8.517433263244936
 20
6.650914949040707
 30
0.0
 11
8.52959930253559
 21
6.657939015100138
 31
0.0
  0
LINE
  5
163
330
1F
100
AcDbEntity
  8
TANGENT_LINES
100
AcDbLine
 10
7.947767344787605
 20
6.654724461631918
 30
0.0
 11
7.975606194440618
 21
6.670797228973015
 31
0.0
  0
LINE
  5
164
330
1F
100
AcDbEntity
  8
TANGENT_LINES
100
AcDbLine
 10
6.918782318275233
 20
4.164445190924422
 30
0.0
 11
6.908592592090096
 21
4.186400999421476
 31
0.0
  0
LINE
  5
165
330
1F
100
AcDbEntity
  8
VISIBLE
100
AcDbLine
 10
6.832169645701556
 20
4.420182462716108
 30
0.0
 11
6.896874406977187
 21
4.280763078759806
 31
0.0
  0
LINE
  5
166
330
1F
100
AcDbEntity
  8
VISIBLE
100
AcDbLine
 10
3.577044312673605
 20
6.197467877369799
 30
0.0
 11
3.818525769245873
 21
6.160110566029461
 31
0.0
  0
LINE
  5
167
330
1F
100
AcDbEntity
  8
TANGENT_LINES
100
AcDbLine
 10
3.495282874621579
 20
6.141003516288391
 30
0.0
 11
3.53331145045973
 21
6.135120475132434
 31
0.0
  0
LINE
  5
168
330
1F
100
AcDbEntity
  8
VISIBLE
100
AcDbLine
 10
3.495282874621579
 20
5.753649823367954
 30
0.0
 11
3.495282874621579
 21
6.141003516288391
 31
0.0
  0
LINE
  5
169
330
1F
100
AcDbEntity
  8
VISIBLE
100
AcDbLine
 10
7.030966616997783
 20
4.075719897883259
 30
0.0
 11
7.030966616997783
 21
3.874810306119546
 31
0.0
  0
LINE
  5
16A
330
1F
100
AcDbEntity
  8
VISIBLE
100
AcDbLine
 10
8.951217270941418
 20
5.760274959099872
 30
0.0
 11
8.951217270941418
 21
5.792420493782066
 31
0.0
  0
LINE
  5
16B
330
1F
100
AcDbEntity
  8
TANGENT_LINES
100
AcDbLine
 10
3.577044312673605
 20
6.197467877369799
 30
0.0
 11
3.577044312673605
 21
6.165322342687605
 31
0.0
  0
LINE
  5
16C
330
1F
100
AcDbEntity
  8
TANGENT_LINES
100
AcDbLine
 10
6.896874406977187
 20
4.280763078759806
 30
0.0
 11
6.896874406977187
 21
4.248617544077613
 31
0.0
  0
LINE
  5
16D
330
1F
100
AcDbEntity
  8
TANGENT_LINES
100
AcDbLine
 10
3.579674704602111
 20
6.128939139342795
 30
0.0
 11
3.569059704249933
 21
6.130581285612173
 31
0.0
  0
LINE
  5
16E
330
1F
100
AcDbEntity
  8
VISIBLE
100
AcDbLine
 10
6.949205178945755
 20
3.756081503182996
 30
0.0
 11
7.648930974367758
 21
3.864329460452629
 31
0.0
  0
LINE
  5
16F
330
1F
100
AcDbEntity
  8
VISIBLE
100
AcDbLine
 10
6.908592592090096
 20
4.186400999421476
 30
0.0
 11
6.908592592090096
 21
3.799047306501039
 31
0.0
  0
LINE
  5
170
330
1F
100
AcDbEntity
  8
TANGENT_LINES
100
AcDbLine
 10
7.679353835038281
 20
4.282106014043589
 30
0.0
 11
6.918782318275233
 21
4.164445190924422
 31
0.0
  0
LINE
  5
171
330
1F
100
AcDbEntity
  8
VISIBLE
100
AcDbLine
 10
7.567169536315731
 20
3.957761186418559
 30
0.0
 11
7.567169536315731
 21
4.158670778182271
 31
0.0
  0
LINE
  5
172
330
1F
100
AcDbEntity
  8
VISIBLE
100
AcDbLine
 10
7.506323814974687
 20
4.149257912332738
 30
0.0
 11
7.506323814974687
 21
3.948348320569026
 31
0.0
  0
LINE
  5
173
330
1F
100
AcDbEntity
  8
VISIBLE
100
AcDbLine
 10
3.577044312673605
 20
6.165322342687605
 30
0.0
 11
3.818525769245873
 21
6.127965031347269
 31
0.0
  0
LINE
  5
174
330
1F
100
AcDbEntity
  8
VISIBLE
100
AcDbLine
 10
7.091812338338827
 20
3.88422317196908
 30
0.0
 11
7.091812338338827
 21
4.085132763732792
 31
0.0
  0
LINE
  5
175
330
1F
100
AcDbEntity
  8
VISIBLE
100
AcDbLine
 10
6.918782318275233
 20
4.164445190924422
 30
0.0
 11
6.918782318275233
 21
3.777091498003984
 31
0.0
  0
LINE
  5
176
330
1F
100
AcDbEntity
  8
VISIBLE
100
AcDbLine
 10
3.704059057205869
 20
6.603104767267141
 30
0.0
 11
3.500264533503096
 21
6.163988597326035
 31
0.0
  0
LINE
  5
177
330
1F
100
AcDbEntity
  8
VISIBLE
100
AcDbLine
 10
7.947767344787605
 20
6.654724461631918
 30
0.0
 11
7.947767344787605
 21
6.757537717804595
 31
0.0
  0
LINE
  5
178
330
1F
100
AcDbEntity
  8
VISIBLE
100
AcDbLine
 10
6.832169645701556
 20
4.388036928033914
 30
0.0
 11
6.896874406977187
 21
4.248617544077613
 31
0.0
  0
LINE
  5
179
330
1F
100
AcDbEntity
  8
VISIBLE
100
AcDbLine
 10
8.58945282928957
 20
6.623382565316779
 30
0.0
 11
8.58945282928957
 21
6.582085240122603
 31
0.0
  0
LINE
  5
17A
330
1F
100
AcDbEntity
  8
VISIBLE
100
AcDbLine
 10
3.818525769245873
 20
6.160110566029461
 30
0.0
 11
3.818525769245873
 21
6.127965031347269
 31
0.0
  0
LINE
  5
17B
330
1F
100
AcDbEntity
  8
VISIBLE
100
AcDbLine
 10
7.679353835038281
 20
3.894752321123152
 30
0.0
 11
7.679353835038281
 21
4.282106014043589
 31
0.0
  0
LINE
  5
17C
330
1F
100
AcDbEntity
  8
VISIBLE
100
AcDbLine
 10
3.56337114270589
 20
5.892900253983795
 30
0.0
 11
3.56337114270589
 21
6.093809845747507
 31
0.0
  0
LINE
  5
17D
330
1F
100
AcDbEntity
  8
TANGENT_LINES
100
AcDbLine
 10
7.081622612153689
 20
3.906178980466135
 30
0.0
 11
7.091812338338827
 21
3.88422317196908
 31
0.0
  0
LINE
  5
17E
330
1F
100
AcDbEntity
  8
VISIBLE
100
AcDbLine
 10
7.081622612153689
 20
3.906178980466135
 30
0.0
 11
7.081622612153689
 21
4.102761096453905
 31
0.0
  0
LINE
  5
17F
330
1F
100
AcDbEntity
  8
TANGENT_LINES
100
AcDbLine
 10
7.567169536315731
 20
4.158670778182271
 30
0.0
 11
7.559980855920849
 21
4.174160231699362
 31
0.0
  0
LINE
  5
180
330
1F
100
AcDbEntity
  8
VISIBLE
100
AcDbLine
 10
7.975606194440618
 20
6.670797228973015
 30
0.0
 11
7.975606194440618
 21
6.7409637192752
 31
0.0
  0
LINE
  5
181
330
1F
100
AcDbEntity
  8
VISIBLE
100
AcDbLine
 10
8.32359181510329
 20
6.469887637209303
 30
0.0
 11
8.32359181510329
 21
6.473278842386919
 31
0.0
  0
LINE
  5
182
330
1F
100
AcDbEntity
  8
VISIBLE
100
AcDbLine
 10
7.556979810130594
 20
3.979716994915615
 30
0.0
 11
7.556979810130594
 21
4.176299110903383
 31
0.0
  0
LINE
  5
183
330
1F
100
AcDbEntity
  8
VISIBLE
100
AcDbLine
 10
6.910446232604149
 20
3.790494718207963
 30
0.0
 11
6.920635958789287
 21
3.768538909710908
 31
0.0
  0
LINE
  5
184
330
1F
100
AcDbEntity
  8
TANGENT_LINES
100
AcDbLine
 10
3.543645178527376
 20
6.157386564563255
 30
0.0
 11
3.53331145045973
 21
6.135120475132434
 31
0.0
  0
LINE
  5
185
330
1F
100
AcDbEntity
  8
VISIBLE
100
AcDbLine
 10
3.53331145045973
 20
5.747766782211997
 30
0.0
 11
3.53331145045973
 21
6.135120475132434
 31
0.0
  0
LINE
  5
186
330
1F
100
AcDbEntity
  8
VISIBLE
100
AcDbLine
 10
3.579674704602111
 20
6.128939139342795
 30
0.0
 11
3.579674704602111
 21
5.928029547579083
 31
0.0
  0
ELLIPSE
  5
187
330
1F
100
AcDbEntity
  8
VISIBLE
100
AcDbEllipse
 10
7.997877274163029
 20
6.657939015100137
 30
0.0
 11
0.01574803149606296
 21
-0.02727639067037568
 31
0.0
210
0.0
220
0.0
230
1.0
 40
0.5773502691896288
 41
3.926990816987244
 42
5.24510688864005
  0
ELLIPSE
  5
188
330
1F
100
AcDbEntity
  8
VISIBLE
100
AcDbEllipse
 10
7.748719569768557
 20
6.689280911415277
 30
0.0
 11
0.01574803149606296
 21
-0.02727639067037568
 31
0.0
210
0.0
220
0.0
230
1.0
 40
0.5773502691896288
 41
3.926990816987175
 42
5.497787143782135
  0
ELLIPSE
  5
189
330
1F
100
AcDbEntity
  8
VISIBLE
100
AcDbEllipse
 10
3.541463231407841
 20
5.765331429009641
 30
0.0
 11
0.004815179519856549
 21
0.03112580971148393
 31
0.0
210
0.0
220
0.0
230
1.0
 40
0.2113248654051879
 41
2.202710639169989
 42
3.773506965964846
  0
ELLIPSE
  5
18A
330
1F
100
AcDbEntity
  8
VISIBLE
100
AcDbEllipse
 10
3.571522923654
 20
6.111374492545151
 30
0.0
 11
-0.004815179519856549
 21
-0.03112580971148393
 31
0.0
210
0.0
220
0.0
230
-1.0
 40
0.2113248654051879
 41
0.9388820144198045
 42
4.080474668009632
  0
ELLIPSE
  5
18B
330
1F
100
AcDbEntity
  8
VISIBLE
100
AcDbEllipse
 10
3.577044312673606
 20
6.128354977803082
 30
0.0
 11
-0.04106825397492343
 21
0.01905984300064923
 31
0.0
210
0.0
220
0.0
230
-1.0
 40
0.7886751345948182
 41
5.932305896307323
 42
7.503102223102227
  0
ELLIPSE
  5
18C
330
1F
100
AcDbEntity
  8
VISIBLE
100
AcDbEllipse
 10
8.3458628948257
 20
6.457029423336426
 30
0.0
 11
0.01574803149606296
 21
-0.02727639067037568
 31
0.0
210
0.0
220
0.0
230
1.0
 40
0.5773502691896288
 41
3.926990816987229
 42
5.245106888640093
  0
ELLIPSE
  5
18D
330
1F
100
AcDbEntity
  8
VISIBLE
100
AcDbEllipse
 10
3.780838836376379
 20
6.567471147744188
 30
0.0
 11
0.07677977917050871
 21
-0.03563361952295364
 31
0.0
210
0.0
220
0.0
230
1.0
 40
0.7886751345948121
 41
2.594443256375459
 42
3.141592653589807
  0
ELLIPSE
  5
18E
330
1F
100
AcDbEntity
  8
VISIBLE
100
AcDbEllipse
 10
8.529599302535592
 20
6.58882611553342
 30
0.0
 11
-0.02263779527559074
 21
-0.03920981158866521
 31
0.0
210
0.0
220
0.0
230
-1.0
 40
0.5773502691896305
 41
2.698628097991528
 42
3.861246219235217
  0
ELLIPSE
  5
18F
330
1F
100
AcDbEntity
  8
VISIBLE
100
AcDbEllipse
 10
3.577044312673606
 20
6.128354977803082
 30
0.0
 11
-0.07677977917050871
 21
0.03563361952295364
 31
0.0
210
0.0
220
0.0
230
-1.0
 40
0.7886751345948121
 41
5.93230589630733
 42
7.503102223102227
  0
ELLIPSE
  5
190
330
1F
100
AcDbEntity
  8
VISIBLE
100
AcDbEllipse
 10
8.318024045172688
 20
6.440956655995329
 30
0.0
 11
-0.01574803149606296
 21
0.02727639067037568
 31
0.0
210
0.0
220
0.0
230
-1.0
 40
0.5773502691896288
 41
2.356194490192356
 42
5.497787143782113
  0
ELLIPSE
  5
191
330
1F
100
AcDbEntity
  8
VISIBLE
100
AcDbEllipse
 10
7.061389477668305
 20
3.879516739044313
 30
0.0
 11
-0.02856922015646823
 21
-0.01325902121784317
 31
0.0
210
0.0
220
0.0
230
-1.0
 40
0.7886751345948163
 41
3.492472064462047
 42
6.634064718051841
  0
ELLIPSE
  5
192
330
1F
100
AcDbEntity
  8
VISIBLE
100
AcDbEllipse
 10
7.536746675645209
 20
4.153964345257505
 30
0.0
 11
-0.02856922015646823
 21
-0.01325902121784317
 31
0.0
210
0.0
220
0.0
230
-1.0
 40
0.7886751345948035
 41
0.3508794108722939
 42
3.492472064462017
  0
ELLIPSE
  5
193
330
1F
100
AcDbEntity
  8
VISIBLE
100
AcDbEllipse
 10
7.970038424510016
 20
6.641866247759041
 30
0.0
 11
-0.01574803149606296
 21
0.02727639067037568
 31
0.0
210
0.0
220
0.0
230
-1.0
 40
0.5773502691896288
 41
2.356194490192411
 42
5.497787143782099
  0
ELLIPSE
  5
194
330
1F
100
AcDbEntity
  8
VISIBLE
100
AcDbEllipse
 10
7.061389477668305
 20
4.080426330808026
 30
0.0
 11
-0.02856922015646823
 21
-0.01325902121784317
 31
0.0
210
0.0
220
0.0
230
-1.0
 40
0.7886751345948035
 41
0.350879410872225
 42
3.492472064462091
  0
ELLIPSE
  5
195
330
1F
100
AcDbEntity
  8
VISIBLE
100
AcDbEllipse
 10
8.529599302535592
 20
6.58882611553342
 30
0.0
 11
-0.04232283464566855
 21
-0.07330529992663593
 31
0.0
210
0.0
220
0.0
230
-1.0
 40
0.5773502691896211
 41
2.356194490192352
 42
3.926990816987258
  0
ELLIPSE
  5
196
330
1F
100
AcDbEntity
  8
VISIBLE
100
AcDbEllipse
 10
7.051199751483168
 20
3.901472547541368
 30
0.0
 11
0.02856922015646823
 21
0.01325902121784317
 31
0.0
210
0.0
220
0.0
230
1.0
 40
0.7886751345948163
 41
3.633930711100304
 42
5.932305896307332
  0
ELLIPSE
  5
197
330
1F
100
AcDbEntity
  8
VISIBLE
100
AcDbEllipse
 10
7.536746675645209
 20
3.953054753493793
 30
0.0
 11
-0.02856922015646823
 21
-0.01325902121784317
 31
0.0
210
0.0
220
0.0
230
-1.0
 40
0.7886751345948163
 41
3.492472064462047
 42
6.634064718051841
  0
ELLIPSE
  5
198
330
1F
100
AcDbEntity
  8
VISIBLE
100
AcDbEllipse
 10
6.896874406977187
 20
4.211650179193089
 30
0.0
 11
-0.01294079495961498
 21
0.08365061359961336
 31
0.0
210
0.0
220
0.0
230
-1.0
 40
0.2113248654051851
 41
0.6319143123750779
 42
2.202710639169991
  0
ELLIPSE
  5
199
330
1F
100
AcDbEntity
  8
VISIBLE
100
AcDbEllipse
 10
7.657445923740233
 20
4.329311002312258
 30
0.0
 11
0.01294079495961498
 21
-0.08365061359961336
 31
0.0
210
0.0
220
0.0
230
1.0
 40
0.2113248654051851
 41
0.9388820144198023
 42
2.083973331210998
  0
ELLIPSE
  5
19A
330
1F
100
AcDbEntity
  8
VISIBLE
100
AcDbEllipse
 10
3.571522923654
 20
5.910464900781439
 30
0.0
 11
-0.004815179519856549
 21
-0.03112580971148393
 31
0.0
210
0.0
220
0.0
230
-1.0
 40
0.2113248654051879
 41
4.080474668009596
 42
7.222067321599425
  0
ELLIPSE
  5
19B
330
1F
100
AcDbEntity
  8
VISIBLE
100
AcDbEllipse
 10
6.195311759130393
 20
5.792420493782066
 30
0.0
 11
-2.460629921259843
 21
0.0
 31
0.0
210
0.0
220
0.0
230
1.0
 40
0.5773502691896257
 41
3.141592653589793
 42
6.021385919380437
  0
ELLIPSE
  5
19C
330
1F
100
AcDbEntity
  8
VISIBLE
100
AcDbEllipse
 10
7.648930974367759
 20
3.890045888198384
 30
0.0
 11
0.02856922015646823
 21
0.01325902121784317
 31
0.0
210
0.0
220
0.0
230
1.0
 40
0.7886751345948163
 41
4.361509569512426
 42
5.932305896307332
  0
ELLIPSE
  5
19D
330
1F
100
AcDbEntity
  8
VISIBLE
100
AcDbEllipse
 10
6.896874406977187
 20
4.211650179193089
 30
0.0
 11
-0.006921820559793623
 21
0.04474335146025865
 31
0.0
210
0.0
220
0.0
230
-1.0
 40
0.2113248654051944
 41
0.6319143123750232
 42
2.202710639169973
  0
ELLIPSE
  5
19E
330
1F
100
AcDbEntity
  8
VISIBLE
100
AcDbEllipse
 10
3.50343465556969
 20
5.771214470165599
 30
0.0
 11
-0.004815179519856549
 21
-0.03112580971148393
 31
0.0
210
0.0
220
0.0
230
-1.0
 40
0.2113248654051879
 41
0.0
 42
0.9388820144198391
  0
ELLIPSE
  5
19F
330
1F
100
AcDbEntity
  8
VISIBLE
100
AcDbEllipse
 10
6.949205178945755
 20
3.781797930928751
 30
0.0
 11
0.02856922015646823
 21
0.01325902121784317
 31
0.0
210
0.0
220
0.0
230
1.0
 40
0.7886751345948163
 41
2.790713242717556
 42
4.361509569512485
  0
ELLIPSE
  5
1A0
330
1F
100
AcDbEntity
  8
VISIBLE
100
AcDbEllipse
 10
6.195311759130393
 20
5.760274959099872
 30
0.0
 11
-2.460629921259843
 21
0.0
 31
0.0
210
0.0
220
0.0
230
1.0
 40
0.5773502691896257
 41
3.152906603463785
 42
6.021385919380437
  0
ELLIPSE
  5
1A1
330
1F
100
AcDbEntity
  8
VISIBLE
100
AcDbEllipse
 10
6.195311759130393
 20
5.760274959099872
 30
0.0
 11
-2.755905511811024
 21
0.0
 31
0.0
210
0.0
220
0.0
230
1.0
 40
0.577350269189626
 41
2.128081552739743
 42
3.141592653589793
  0
ELLIPSE
  5
1A2
330
1F
100
AcDbEntity
  8
VISIBLE
100
AcDbEllipse
 10
6.195311759130393
 20
5.792420493782066
 30
0.0
 11
-2.755905511811024
 21
0.0
 31
0.0
210
0.0
220
0.0
230
1.0
 40
0.577350269189626
 41
2.122347416030093
 42
3.141592653589793
  0
ELLIPSE
  5
1A3
330
1F
100
AcDbEntity
  8
VISIBLE
100
AcDbEllipse
 10
6.939015452760618
 20
3.803753739425806
 30
0.0
 11
-0.02856922015646823
 21
-0.01325902121784317
 31
0.0
210
0.0
220
0.0
230
-1.0
 40
0.7886751345948163
 41
0.0
 42
0.3508794108722543
  0
ELLIPSE
  5
1A4
330
1F
100
AcDbEntity
  8
VISIBLE
100
AcDbEllipse
 10
7.526556949460073
 20
3.975010561990848
 30
0.0
 11
0.02856922015646823
 21
0.01325902121784317
 31
0.0
210
0.0
220
0.0
230
1.0
 40
0.7886751345948163
 41
3.633930711100293
 42
5.932305896307332
  0
LINE
  5
1A5
330
1F
100
AcDbEntity
  8
VISIBLE
100
AcDbLine
 10
8.561613979636558
 20
6.676422697542399
 30
0.0
 11
8.561613979636558
 21
6.678029974276509
 31
0.0
  0
LINE
  5
1A6
330
1F
100
AcDbEntity
  8
VISIBLE
100
AcDbLine
 10
3.53331145045973
 20
6.20423337469915
 30
0.0
 11
3.53331145045973
 21
6.20584065143326
 31
0.0
  0
LINE
  5
1A7
330
1F
100
AcDbEntity
  8
VISIBLE
100
AcDbLine
 10
8.951217270941418
 20
5.792420493782066
 30
0.0
 11
8.951217270941418
 21
5.794027770516176
 31
0.0
  0
LINE
  5
1A8
330
1F
100
AcDbEntity
  8
VISIBLE
100
AcDbLine
 10
6.832169645701556
 20
4.420182462716108
 30
0.0
 11
6.908592592090096
 21
4.255513898988193
 31
0.0
  0
LINE
  5
1A9
330
1F
100
AcDbEntity
  8
VISIBLE
100
AcDbLine
 10
6.832169645701556
 20
4.420182462716108
 30
0.0
 11
6.832169645701556
 21
4.421789739450218
 31
0.0
  0
LINE
  5
1AA
330
1F
100
AcDbEntity
  8
VISIBLE
100
AcDbLine
 10
7.669164108853142
 20
4.37317472210736
 30
0.0
 11
7.669164108853142
 21
4.37478199884147
 31
0.0
  0
LINE
  5
1AB
330
1F
100
AcDbEntity
  8
VISIBLE
100
AcDbLine
 10
6.908592592090096
 20
4.255513898988193
 30
0.0
 11
6.908592592090096
 21
4.257121175722302
 31
0.0
  0
LINE
  5
1AC
330
1F
100
AcDbEntity
  8
VISIBLE
100
AcDbLine
 10
3.53331145045973
 20
6.20423337469915
 30
0.0
 11
3.818525769245873
 21
6.160110566029461
 31
0.0
  0
LINE
  5
1AD
330
1F
100
AcDbEntity
  8
VISIBLE
100
AcDbLine
 10
6.832169645701556
 20
4.421789739450218
 30
0.0
 11
6.908592592090096
 21
4.257121175722302
 31
0.0
  0
LINE
  5
1AE
330
1F
100
AcDbEntity
  8
VISIBLE
100
AcDbLine
 10
6.908592592090096
 20
4.257121175722302
 30
0.0
 11
7.669164108853142
 21
4.37478199884147
 31
0.0
  0
LINE
  5
1AF
330
1F
100
AcDbEntity
  8
VISIBLE
100
AcDbLine
 10
3.818525769245873
 20
6.160110566029461
 30
0.0
 11
3.818525769245873
 21
6.161717842763572
 31
0.0
  0
LINE
  5
1B0
330
1F
100
AcDbEntity
  8
VISIBLE
100
AcDbLine
 10
7.669164108853142
 20
4.37317472210736
 30
0.0
 11
6.908592592090096
 21
4.255513898988193
 31
0.0
  0
LINE
  5
1B1
330
1F
100
AcDbEntity
  8
VISIBLE
100
AcDbLine
 10
7.669164108853142
 20
4.37478199884147
 30
0.0
 11
7.639430888555827
 21
4.438848184623846
 31
0.0
  0
LINE
  5
1B2
330
1F
100
AcDbEntity
  8
VISIBLE
100
AcDbLine
 10
8.561613979636558
 20
6.678029974276509
 30
0.0
 11
8.516347221033248
 21
6.651895199011546
 31
0.0
  0
LINE
  5
1B3
330
1F
100
AcDbEntity
  8
VISIBLE
100
AcDbLine
 10
7.726448490046146
 20
7.160212994509418
 30
0.0
 11
8.561613979636558
 21
6.678029974276509
 31
0.0
  0
LINE
  5
1B4
330
1F
100
AcDbEntity
  8
VISIBLE
100
AcDbLine
 10
7.681181731442837
 20
7.134078219244456
 30
0.0
 11
7.726448490046146
 21
7.160212994509418
 31
0.0
  0
LINE
  5
1B5
330
1F
100
AcDbEntity
  8
VISIBLE
100
AcDbLine
 10
3.848071862984728
 20
6.627790338631836
 30
0.0
 11
3.737105974162503
 21
6.644956821374366
 31
0.0
  0
LINE
  5
1B6
330
1F
100
AcDbEntity
  8
VISIBLE
100
AcDbLine
 10
3.53331145045973
 20
6.20584065143326
 30
0.0
 11
3.737105974162503
 21
6.644956821374366
 31
0.0
  0
LINE
  5
1B7
330
1F
100
AcDbEntity
  8
VISIBLE
100
AcDbLine
 10
8.517433263244936
 20
6.650914949040707
 30
0.0
 11
8.561613979636558
 21
6.676422697542399
 31
0.0
  0
LINE
  5
1B8
330
1F
100
AcDbEntity
  8
VISIBLE
100
AcDbLine
 10
3.53331145045973
 20
6.20584065143326
 30
0.0
 11
3.818525769245873
 21
6.161717842763572
 31
0.0
  0
ELLIPSE
  5
1B9
330
1F
100
AcDbEntity
  8
VISIBLE
100
AcDbEllipse
 10
6.195311759130393
 20
5.792420493782066
 30
0.0
 11
-2.755905511811024
 21
0.0
 31
0.0
210
0.0
220
0.0
230
1.0
 40
0.577350269189626
 41
2.122347416030093
 42
3.141592653589793
  0
ELLIPSE
  5
1BA
330
1F
100
AcDbEntity
  8
VISIBLE
100
AcDbEllipse
 10
6.195311759130393
 20
5.792420493782066
 30
0.0
 11
-2.460629921259843
 21
0.0
 31
0.0
210
0.0
220
0.0
230
1.0
 40
0.5773502691896257
 41
3.141592653589793
 42
6.021385919380437
  0
ELLIPSE
  5
1BB
330
1F
100
AcDbEntity
  8
VISIBLE
100
AcDbEllipse
 10
6.195311759130393
 20
5.794027770516176
 30
0.0
 11
-2.755905511811024
 21
0.0
 31
0.0
210
0.0
220
0.0
230
1.0
 40
0.577350269189626
 41
2.122347416030093
 42
3.711030318302283
  0
ELLIPSE
  5
1BC
330
1F
100
AcDbEntity
  8
VISIBLE
100
AcDbEllipse
 10
6.195311759130393
 20
5.794027770516176
 30
0.0
 11
-2.755905511811024
 21
0.0
 31
0.0
210
0.0
220
0.0
230
1.0
 40
0.577350269189626
 41
4.142951315672198
 42
5.731634217944388
  0
ELLIPSE
  5
1BD
330
1F
100
AcDbEntity
  8
VISIBLE
100
AcDbEllipse
 10
6.195311759130393
 20
5.794027770516175
 30
0.0
 11
-2.460629921259843
 21
0.0
 31
0.0
210
0.0
220
0.0
230
1.0
 40
0.5773502691896257
 41
1.832595714594046
 42
6.021385919380437
  0
LINE
  5
1C1
330
1F
100
AcDbEntity
  8
SHEETMETAL_BEND_LINES_DOWN
100
AcDbLine
 10
20.7960656900349
 20
16.7451210637786
 30
0.0
 11
18.43386096562545
 21
16.7451210637786
 31
0.0
  0
LINE
  5
1C2
330
1F
100
AcDbEntity
  8
SHEETMETAL_BEND_LINES_DOWN
100
AcDbLine
 10
14.04692170034205
 20
9.828629133348272
 30
0.0
 11
14.8343232751452
 21
8.464809599829472
 31
0.0
  0
LINE
  5
1C3
330
1F
100
AcDbEntity
  8
SHEETMETAL_BEND_LINES_DOWN
100
AcDbLine
 10
24.39560338051514
 20
8.464809599829472
 30
0.0
 11
25.18300495531829
 21
9.828629133348272
 31
0.0
  0
LINE
  5
1C4
330
1F
100
AcDbEntity
  8
VISIBLE
100
AcDbLine
 10
18.43386096562545
 20
16.84406886389166
 30
0.0
 11
18.43386096562545
 21
16.64617326366553
 31
0.0
  0
LINE
  5
1C5
330
1F
100
AcDbEntity
  8
VISIBLE
100
AcDbLine
 10
20.7960656900349
 20
16.84406886389166
 30
0.0
 11
20.7960656900349
 21
17.79288776152945
 31
0.0
  0
LINE
  5
1C6
330
1F
100
AcDbEntity
  8
VISIBLE
100
AcDbLine
 10
23.87689937007642
 20
8.764283499886004
 30
0.0
 11
24.30991207196864
 21
8.514283499886004
 31
0.0
  0
LINE
  5
1C7
330
1F
100
AcDbEntity
  8
VISIBLE
100
AcDbLine
 10
13.48914042280805
 20
9.092902037447708
 30
0.0
 11
13.91533402703267
 21
9.338965029573693
 31
0.0
  0
LINE
  5
1C8
330
1F
100
AcDbEntity
  8
VISIBLE
100
AcDbLine
 10
14.13261300888855
 20
9.878103033404805
 30
0.0
 11
14.25317197404189
 21
9.947707784389305
 31
0.0
  0
LINE
  5
1C9
330
1F
100
AcDbEntity
  8
VISIBLE
100
AcDbLine
 10
25.80377835883655
 20
9.202007600129216
 30
0.0
 11
25.37758475461193
 21
9.448070592255196
 31
0.0
  0
LINE
  5
1CA
330
1F
100
AcDbEntity
  8
VISIBLE
100
AcDbLine
 10
14.74863196659871
 20
8.41533569977294
 30
0.0
 11
14.9200145836917
 21
8.514283499886004
 31
0.0
  0
LINE
  5
1CB
330
1F
100
AcDbEntity
  8
VISIBLE
100
AcDbLine
 10
18.43386096562545
 20
16.64617326366553
 30
0.0
 11
18.43386096562545
 21
16.60869071688496
 31
0.0
  0
LINE
  5
1CC
330
1F
100
AcDbEntity
  8
VISIBLE
100
AcDbLine
 10
13.96123039179555
 20
9.779155233291739
 30
0.0
 11
13.13952912285047
 21
9.304745784472843
 31
0.0
  0
LINE
  5
1CD
330
1F
100
AcDbEntity
  8
VISIBLE
100
AcDbLine
 10
20.17008143806639
 20
17.1039113835767
 30
0.0
 11
20.17008143806639
 21
17.59603736782866
 31
0.0
  0
LINE
  5
1CE
330
1F
100
AcDbEntity
  8
VISIBLE
100
AcDbLine
 10
26.09039753280988
 20
9.304745784472843
 30
0.0
 11
25.26869626386479
 21
9.779155233291743
 31
0.0
  0
LINE
  5
1CF
330
1F
100
AcDbEntity
  8
VISIBLE
100
AcDbLine
 10
14.13261300888855
 20
9.878103033404805
 30
0.0
 11
13.96123039179555
 21
9.779155233291739
 31
0.0
  0
LINE
  5
1D0
330
1F
100
AcDbEntity
  8
VISIBLE
100
AcDbLine
 10
14.9200145836917
 20
8.514283499886004
 30
0.0
 11
15.35302728558392
 21
8.764283499886004
 31
0.0
  0
LINE
  5
1D1
330
1F
100
AcDbEntity
  8
VISIBLE
100
AcDbLine
 10
13.92693069765363
 20
7.940926250954039
 30
0.0
 11
14.74863196659871
 21
8.41533569977294
 31
0.0
  0
LINE
  5
1D2
330
1F
100
AcDbEntity
  8
VISIBLE
100
AcDbLine
 10
13.98126640706001
 20
8.240514828998457
 30
0.0
 11
14.40746001128463
 21
8.486577821124442
 31
0.0
  0
LINE
  5
1D3
330
1F
100
AcDbEntity
  8
VISIBLE
100
AcDbLine
 10
20.7960656900349
 20
16.64617326366553
 30
0.0
 11
20.7960656900349
 21
16.84406886389166
 31
0.0
  0
LINE
  5
1D4
330
1F
100
AcDbEntity
  8
VISIBLE
100
AcDbLine
 10
24.82246664437571
 20
8.486577821124445
 30
0.0
 11
25.24866024860034
 21
8.24051482899846
 31
0.0
  0
LINE
  5
1D5
330
1F
100
AcDbEntity
  8
VISIBLE
100
AcDbLine
 10
24.97675468161846
 20
9.947707784389307
 30
0.0
 11
25.09731364677179
 21
9.878103033404805
 31
0.0
  0
LINE
  5
1D6
330
1F
100
AcDbEntity
  8
VISIBLE
100
AcDbLine
 10
13.85234190104842
 20
9.448070592255196
 30
0.0
 11
13.42614829682379
 21
9.202007600129212
 31
0.0
  0
LINE
  5
1D7
330
1F
100
AcDbEntity
  8
VISIBLE
100
AcDbLine
 10
14.34446788530038
 20
8.595683383805945
 30
0.0
 11
13.91827428107576
 21
8.349620391679961
 31
0.0
  0
LINE
  5
1D8
330
1F
100
AcDbEntity
  8
VISIBLE
100
AcDbLine
 10
20.04409718609789
 20
17.59603736782866
 30
0.0
 11
20.04409718609789
 21
17.1039113835767
 31
0.0
  0
LINE
  5
1D9
330
1F
100
AcDbEntity
  8
VISIBLE
100
AcDbLine
 10
13.11647240450185
 20
9.218696940139964
 30
0.0
 11
13.84088185332075
 21
7.963982969302664
 31
0.0
  0
LINE
  5
1DA
330
1F
100
AcDbEntity
  8
VISIBLE
100
AcDbLine
 10
24.30991207196864
 20
8.514283499886004
 30
0.0
 11
24.48129468906165
 21
8.415335699772937
 31
0.0
  0
LINE
  5
1DB
330
1F
100
AcDbEntity
  8
VISIBLE
100
AcDbLine
 10
24.48129468906165
 20
8.415335699772937
 30
0.0
 11
25.30299595800671
 21
7.940926250954039
 31
0.0
  0
LINE
  5
1DC
330
1F
100
AcDbEntity
  8
VISIBLE
100
AcDbLine
 10
25.3890448023396
 20
7.963982969302668
 30
0.0
 11
26.1134542511585
 21
9.218696940139964
 31
0.0
  0
LINE
  5
1DD
330
1F
100
AcDbEntity
  8
VISIBLE
100
AcDbLine
 10
25.31459262862768
 20
9.338965029573693
 30
0.0
 11
25.7407862328523
 21
9.092902037447711
 31
0.0
  0
LINE
  5
1DE
330
1F
100
AcDbEntity
  8
VISIBLE
100
AcDbLine
 10
20.7960656900349
 20
16.60869071688496
 30
0.0
 11
20.7960656900349
 21
16.64617326366553
 31
0.0
  0
LINE
  5
1DF
330
1F
100
AcDbEntity
  8
VISIBLE
100
AcDbLine
 10
25.26869626386479
 20
9.779155233291743
 30
0.0
 11
25.09731364677179
 21
9.878103033404805
 31
0.0
  0
LINE
  5
1E0
330
1F
100
AcDbEntity
  8
VISIBLE
100
AcDbLine
 10
20.73307356405065
 20
17.8558798875137
 30
0.0
 11
18.4968530916097
 21
17.8558798875137
 31
0.0
  0
LINE
  5
1E1
330
1F
100
AcDbEntity
  8
VISIBLE
100
AcDbLine
 10
19.05984521759395
 20
17.59603736782866
 30
0.0
 11
19.05984521759395
 21
17.1039113835767
 31
0.0
  0
LINE
  5
1E2
330
1F
100
AcDbEntity
  8
VISIBLE
100
AcDbLine
 10
25.31165237458459
 20
8.349620391679965
 30
0.0
 11
24.88545877035996
 21
8.595683383805948
 31
0.0
  0
LINE
  5
1E3
330
1F
100
AcDbEntity
  8
VISIBLE
100
AcDbLine
 10
19.18582946956246
 20
17.1039113835767
 30
0.0
 11
19.18582946956246
 21
17.59603736782866
 31
0.0
  0
LINE
  5
1E4
330
1F
100
AcDbEntity
  8
VISIBLE
100
AcDbLine
 10
18.43386096562545
 20
17.79288776152945
 30
0.0
 11
18.43386096562545
 21
16.84406886389166
 31
0.0
  0
ARC
  5
1E5
330
1F
100
AcDbEntity
  8
VISIBLE
100
AcDbCircle
 10
-20.10708931208214
 20
17.1039113835767
 30
0.0
 40
0.062992125984252
210
9.373498641636608E-34
220
0.0
230
-1.0
100
AcDbArc
 50
180.0
 51
0.0
  0
ARC
  5
1E6
330
1F
100
AcDbEntity
  8
VISIBLE
100
AcDbCircle
 10
20.73307356405065
 20
17.79288776152945
 30
0.0
 40
0.062992125984252
100
AcDbArc
 50
0.0
 51
90.0
  0
ARC
  5
1E7
330
1F
100
AcDbEntity
  8
VISIBLE
100
AcDbCircle
 10
-20.10708931208214
 20
17.59603736782866
 30
0.0
 40
0.062992125984252
210
9.373498641636608E-34
220
0.0
230
-1.0
100
AcDbArc
 50
0.0
 51
180.0
  0
ARC
  5
1E8
330
1F
100
AcDbEntity
  8
VISIBLE
100
AcDbCircle
 10
-19.1228373435782
 20
17.59603736782866
 30
0.0
 40
0.062992125984252
210
9.373498641636608E-34
220
0.0
230
-1.0
100
AcDbArc
 50
0.0
 51
180.0
  0
ARC
  5
1E9
330
1F
100
AcDbEntity
  8
VISIBLE
100
AcDbCircle
 10
18.4968530916097
 20
17.79288776152945
 30
0.0
 40
0.062992125984252
100
AcDbArc
 50
90.0
 51
180.0
  0
ARC
  5
1EA
330
1F
100
AcDbEntity
  8
VISIBLE
100
AcDbCircle
 10
-24.85396270736783
 20
8.541130602465197
 30
0.0000000000000043
 40
0.062992125984252
210
1.085399131675032E-16
220
1.914284349463475E-16
230
-1.0
100
AcDbArc
 50
299.9999999999994
 51
120.0000000000003
  0
ARC
  5
1EB
330
1F
100
AcDbEntity
  8
VISIBLE
100
AcDbCircle
 10
-13.45764435981592
 20
9.14745481878846
 30
0.0000000000000008
 40
0.062992125984252
210
2.482389295012490E-18
220
8.040613248383179E-17
230
-1.0
100
AcDbArc
 50
240.0000000000005
 51
59.99999999999974
  0
ARC
  5
1EC
330
1F
100
AcDbEntity
  8
VISIBLE
100
AcDbCircle
 10
-13.88383796404054
 20
9.393517810914444
 30
0.0000000000000008
 40
0.062992125984252
210
2.482389295012490E-18
220
8.040613248383179E-17
230
-1.0
100
AcDbArc
 50
60.00000000000055
 51
239.9999999999997
  0
ARC
  5
1ED
330
1F
100
AcDbEntity
  8
VISIBLE
100
AcDbCircle
 10
-25.3460886916198
 20
9.393517810914444
 30
0.0000000000000045
 40
0.062992125984252
210
1.085399131675032E-16
220
1.914284349463475E-16
230
-1.0
100
AcDbArc
 50
300.0000000000002
 51
119.9999999999995
  0
ARC
  5
1EE
330
1F
100
AcDbEntity
  8
VISIBLE
100
AcDbCircle
 10
13.8954346346615
 20
7.99547903229479
 30
0.0
 40
0.062992125984252
100
AcDbArc
 50
209.9999999999981
 51
299.9999999999998
  0
ARC
  5
1EF
330
1F
100
AcDbEntity
  8
VISIBLE
100
AcDbCircle
 10
-13.94977034406789
 20
8.295067610339208
 30
0.0000000000000007
 40
0.062992125984252
210
2.482389295012490E-18
220
8.040613248383179E-17
230
-1.0
100
AcDbArc
 50
239.9999999999997
 51
60.00000000000195
  0
ARC
  5
1F0
330
1F
100
AcDbEntity
  8
VISIBLE
100
AcDbCircle
 10
-14.37596394829251
 20
8.541130602465191
 30
0.0000000000000007
 40
0.062992125984252
210
2.482389295012490E-18
220
8.040613248383179E-17
230
-1.0
100
AcDbArc
 50
60.00000000000195
 51
239.9999999999997
  0
ARC
  5
1F1
330
1F
100
AcDbEntity
  8
VISIBLE
100
AcDbCircle
 10
-25.77228229584442
 20
9.147454818788464
 30
0.0000000000000045
 40
0.062992125984252
210
1.085399131675032E-16
220
1.914284349463475E-16
230
-1.0
100
AcDbArc
 50
120.0000000000003
 51
299.9999999999994
  0
ARC
  5
1F2
330
1F
100
AcDbEntity
  8
VISIBLE
100
AcDbCircle
 10
19.61496332783017
 20
11.22491342114585
 30
0.0
 40
5.511811023622048
100
AcDbArc
 50
346.6015495990202
 51
77.62637488381144
  0
ARC
  5
1F3
330
1F
100
AcDbEntity
  8
VISIBLE
100
AcDbCircle
 10
19.61496332783017
 20
11.22491342114585
 30
0.0
 40
4.921259842519685
100
AcDbArc
 50
330.0
 51
209.9999999999999
  0
ARC
  5
1F4
330
1F
100
AcDbEntity
  8
VISIBLE
100
AcDbCircle
 10
19.61496332783017
 20
11.22491342114585
 30
0.0
 40
5.511811023622048
100
AcDbArc
 50
102.3736251161886
 51
193.3984504009798
  0
ARC
  5
1F5
330
1F
100
AcDbEntity
  8
VISIBLE
100
AcDbCircle
 10
-25.28015631159246
 20
8.295067610339213
 30
0.0000000000000043
 40
0.062992125984252
210
1.085399131675032E-16
220
1.914284349463475E-16
230
-1.0
100
AcDbArc
 50
120.0000000000003
 51
299.9999999999994
  0
ARC
  5
1F6
330
1F
100
AcDbEntity
  8
VISIBLE
100
AcDbCircle
 10
26.05890146981775
 20
9.250193003132093
 30
0.0
 40
0.062992125984252
100
AcDbArc
 50
329.9999999999961
 51
59.99999999999974
  0
ARC
  5
1F7
330
1F
100
AcDbEntity
  8
VISIBLE
100
AcDbCircle
 10
13.17102518584259
 20
9.25019300313209
 30
0.0
 40
0.062992125984252
100
AcDbArc
 50
119.9999999999995
 51
210.0000000000016
  0
ARC
  5
1F8
330
1F
100
AcDbEntity
  8
VISIBLE
100
AcDbCircle
 10
25.33449202099884
 20
7.995479032294795
 30
0.0
 40
0.062992125984252
100
AcDbArc
 50
240.0000000000038
 51
330.0000000000013
  0
ARC
  5
1F9
330
1F
100
AcDbEntity
  8
VISIBLE
100
AcDbCircle
 10
-19.1228373435782
 20
17.1039113835767
 30
0.0
 40
0.062992125984252
210
9.373498641636608E-34
220
0.0
230
-1.0
100
AcDbArc
 50
180.0
 51
0.0
  0
ENDSEC
  0
SECTION
  2
OBJECTS
  0
DICTIONARY
  5
C
330
0
100
AcDbDictionary
  3
ACAD_FIELDLIST
350
142
  3
ACAD_GROUP
350
D
  3
ACAD_LAYOUT
350
1A
  3
ACAD_MATERIAL
350
43
  3
ACAD_MLEADERSTYLE
350
1FF
  3
ACAD_MLINESTYLE
350
17
  3
ACAD_PLOTSETTINGS
350
19
  3
ACAD_SCALELIST
350
47
  3
ACAD_VISUALSTYLE
350
2A
  3
ACDBVARIABLEDICTIONARY
350
6C
  3
ONSHAPE_DATA
350
1FA
1001
ACAD
1000
TREAT_AS_HARD
1070
     0
  0
DICTIONARY
  5
A4
330
A3
100
AcDbDictionary
1001
ACAD
1000
TREAT_AS_HARD
1070
     1
  0
DICTIONARY
  5
AB
330
AA
100
AcDbDictionary
1001
ACAD
1000
TREAT_AS_HARD
1070
     1
  0
DICTIONARY
  5
CB
330
CA
100
AcDbDictionary
  3
ACAD_MTEXT_RT
360
204
1001
ACAD
1000
TREAT_AS_HARD
1070
     1
  0
DICTIONARY
  5
CD
330
CC
100
AcDbDictionary
1001
ACAD
1000
TREAT_AS_HARD
1070
     1
  0
DICTIONARY
  5
D3
330
D2
100
AcDbDictionary
1001
ACAD
1000
TREAT_AS_HARD
1070
     1
  0
DICTIONARY
  5
DA
330
D9
100
AcDbDictionary
1001
ACAD
1000
TREAT_AS_HARD
1070
     1
  0
DICTIONARY
  5
E1
330
E0
100
AcDbDictionary
1001
ACAD
1000
TREAT_AS_HARD
1070
     1
  0
DICTIONARY
  5
E8
330
E7
100
AcDbDictionary
1001
ACAD
1000
TREAT_AS_HARD
1070
     1
  0
DICTIONARY
  5
EF
330
EE
100
AcDbDictionary
1001
ACAD
1000
TREAT_AS_HARD
1070
     1
  0
DICTIONARY
  5
F8
330
F7
100
AcDbDictionary
1001
ACAD
1000
TREAT_AS_HARD
1070
     1
  0
ACAD_PROXY_OBJECT
  5
142
102
{ACAD_REACTORS
330
C
102
}
330
C
100
AcDbZombieObject
 90
      499
 91
      508
 93
        3
310
80
  0
DICTIONARY
  5
D
102
{ACAD_REACTORS
330
C
102
}
330
C
100
AcDbDictionary
1001
ACAD
1000
TREAT_AS_HARD
1070
     0
  0
DICTIONARY
  5
1A
102
{ACAD_REACTORS
330
C
102
}
330
C
100
AcDbDictionary
1001
ACAD
1000
TREAT_AS_HARD
1070
     0
  0
DICTIONARY
  5
43
102
{ACAD_REACTORS
330
C
102
}
330
C
100
AcDbDictionary
  3
BYBLOCK
350
45
  3
BYLAYER
350
44
  3
GLOBAL
350
46
1001
ACAD
1000
TREAT_AS_HARD
1070
     0
  0
DICTIONARY
  5
1FF
102
{ACAD_REACTORS
330
C
102
}
330
C
100
AcDbDictionary
1001
ACAD
1000
TREAT_AS_HARD
1070
     0
  0
DICTIONARY
  5
17
102
{ACAD_REACTORS
330
C
102
}
330
C
100
AcDbDictionary
  3
STANDARD
350
18
1001
ACAD
1000
TREAT_AS_HARD
1070
     0
  0
DICTIONARY
  5
19
102
{ACAD_REACTORS
330
C
102
}
330
C
100
AcDbDictionary
1001
ACAD
1000
TREAT_AS_HARD
1070
     0
  0
DICTIONARY
  5
47
102
{ACAD_REACTORS
330
C
102
}
330
C
100
AcDbDictionary
  3
A0
350
48
  3
A1
350
49
  3
A2
350
4A
  3
A3
350
4B
  3
A4
350
4C
  3
A5
350
4D
  3
A6
350
4E
  3
A7
350
4F
  3
A8
350
50
  3
A9
350
51
  3
B0
350
52
  3
B1
350
53
  3
B2
350
54
  3
B3
350
55
  3
B4
350
56
  3
B5
350
57
  3
B6
350
58
  3
B7
350
59
  3
B8
350
5A
  3
B9
350
5B
  3
C0
350
5C
  3
C1
350
5D
  3
C2
350
5E
  3
C3
350
5F
  3
C4
350
60
  3
C5
350
61
  3
C6
350
62
  3
C7
350
63
  3
C8
350
64
  3
C9
350
65
  3
D0
350
66
  3
D1
350
67
  3
D2
350
68
1001
ACAD
1000
TREAT_AS_HARD
1070
     0
  0
DICTIONARY
  5
2A
102
{ACAD_REACTORS
330
C
102
}
330
C
100
AcDbDictionary
  3
2DWIREFRAME
350
2F
  3
BASIC
350
32
  3
BRIGHTEN
350
36
  3
COLORCHANGE
350
3A
  3
CONCEPTUAL
350
34
  3
DIM
350
35
  3
EDGECOLOROFF
350
3D
  3
FACEPATTERN
350
39
  3
FLAT
350
2B
  3
FLATWITHEDGES
350
2C
  3
GOURAUD
350
2D
  3
GOURAUDWITHEDGES
350
2E
  3
HIDDEN
350
31
  3
JITTEROFF
350
3B
  3
LINEPATTERN
350
38
  3
OVERHANGOFF
350
3C
  3
REALISTIC
350
33
  3
SHADED
350
42
  3
SHADED_WITH_EDGES
350
41
  3
SHADES_OF_GRAY
350
3E
  3
SKETCHY
350
3F
  3
THICKEN
350
37
  3
WIREFRAME
350
30
  3
X-RAY
350
40
1001
ACAD
1000
TREAT_AS_HARD
1070
     0
  0
DICTIONARY
  5
6C
102
{ACAD_REACTORS
330
C
102
}
330
C
100
AcDbDictionary
  3
CANNOSCALE
350
205
  3
CTABLESTYLE
350
1FE
  3
DIMASSOC
350
202
  3
HIDETEXT
350
203
  3
MSLTSCALE
350
206
  3
OLEFRAME
350
6D
1001
ACAD
1000
TREAT_AS_HARD
1070
     0
  0
DICTIONARY
  5
1FA
102
{ACAD_REACTORS
330
C
102
}
330
C
100
AcDbDictionary
  3
DIM_UNITS
360
1FB
  3
ONSHAPE_VSHARP_EXTENSION
360
1FD
  3
ONSHAPE_WELD_STANDARD
360
1FC
1001
ACAD
1000
TREAT_AS_HARD
1070
     1
  0
XRECORD
  5
204
102
{ACAD_REACTORS
330
CB
102
}
330
CB
100
AcDbXrecord
 40
2284.0
  1
{\pxqc;Track}
  0
MATERIAL
  5
45
102
{ACAD_REACTORS
330
43
102
}
102
{ACAD_XDICTIONARY
360
209
102
}
330
43
100
AcDbMaterial
  1
BYBLOCK
  0
MATERIAL
  5
44
102
{ACAD_REACTORS
330
43
102
}
102
{ACAD_XDICTIONARY
360
207
102
}
330
43
100
AcDbMaterial
  1
BYLAYER
  0
MATERIAL
  5
46
102
{ACAD_REACTORS
330
43
102
}
102
{ACAD_XDICTIONARY
360
20B
102
}
330
43
100
AcDbMaterial
  1
GLOBAL
  0
MLINESTYLE
  5
18
102
{ACAD_REACTORS
330
17
102
}
330
17
100
AcDbMlineStyle
  2
Standard
 70
     0
  3

 62
   256
 51
90.0
 52
90.0
 71
     2
 49
0.5
 62
   256
  6
BYLAYER
 49
-0.5
 62
   256
  6
BYLAYER
  0
ACAD_PROXY_OBJECT
  5
48
102
{ACAD_REACTORS
330
47
102
}
330
47
100
AcDbZombieObject
 90
      499
 91
      503
 93
       41
310
903313A31580
  0
ACAD_PROXY_OBJECT
  5
49
102
{ACAD_REACTORS
330
47
102
}
330
47
100
AcDbZombieObject
 90
      499
 91
      503
 93
      105
310
903313A324000000000000004000
  0
ACAD_PROXY_OBJECT
  5
4A
102
{ACAD_REACTORS
330
47
102
}
330
47
100
AcDbZombieObject
 90
      499
 91
      503
 93
      105
310
903313A344000000000000104000
  0
ACAD_PROXY_OBJECT
  5
4B
102
{ACAD_REACTORS
330
47
102
}
330
47
100
AcDbZombieObject
 90
      499
 91
      503
 93
      105
310
903313A354000000000000144000
  0
ACAD_PROXY_OBJECT
  5
4C
102
{ACAD_REACTORS
330
47
102
}
330
47
100
AcDbZombieObject
 90
      499
 91
      503
 93
      105
310
903313A384000000000000204000
  0
ACAD_PROXY_OBJECT
  5
4D
102
{ACAD_REACTORS
330
47
102
}
330
47
100
AcDbZombieObject
 90
      499
 91
      503
 93
      113
310
904313A31304000000000000244000
  0
ACAD_PROXY_OBJECT
  5
4E
102
{ACAD_REACTORS
330
47
102
}
330
47
100
AcDbZombieObject
 90
      499
 91
      503
 93
      113
310
904313A31364000000000000304000
  0
ACAD_PROXY_OBJECT
  5
4F
102
{ACAD_REACTORS
330
47
102
}
330
47
100
AcDbZombieObject
 90
      499
 91
      503
 93
      113
310
904313A32304000000000000344000
  0
ACAD_PROXY_OBJECT
  5
50
102
{ACAD_REACTORS
330
47
102
}
330
47
100
AcDbZombieObject
 90
      499
 91
      503
 93
      113
310
904313A333040000000000003E4000
  0
ACAD_PROXY_OBJECT
  5
51
102
{ACAD_REACTORS
330
47
102
}
330
47
100
AcDbZombieObject
 90
      499
 91
      503
 93
      113
310
904313A34304000000000000444000
  0
ACAD_PROXY_OBJECT
  5
52
102
{ACAD_REACTORS
330
47
102
}
330
47
100
AcDbZombieObject
 90
      499
 91
      503
 93
      113
310
904313A35304000000000000494000
  0
ACAD_PROXY_OBJECT
  5
53
102
{ACAD_REACTORS
330
47
102
}
330
47
100
AcDbZombieObject
 90
      499
 91
      503
 93
      121
310
905313A3130304000000000000594000
  0
ACAD_PROXY_OBJECT
  5
54
102
{ACAD_REACTORS
330
47
102
}
330
47
100
AcDbZombieObject
 90
      499
 91
      503
 93
      105
310
903323A310000000000000010100
  0
ACAD_PROXY_OBJECT
  5
55
102
{ACAD_REACTORS
330
47
102
}
330
47
100
AcDbZombieObject
 90
      499
 91
      503
 93
      105
310
903343A310000000000000410100
  0
ACAD_PROXY_OBJECT
  5
56
102
{ACAD_REACTORS
330
47
102
}
330
47
100
AcDbZombieObject
 90
      499
 91
      503
 93
      105
310
903383A310000000000000810100
  0
ACAD_PROXY_OBJECT
  5
57
102
{ACAD_REACTORS
330
47
102
}
330
47
100
AcDbZombieObject
 90
      499
 91
      503
 93
      113
310
90431303A310000000000000910100
  0
ACAD_PROXY_OBJECT
  5
58
102
{ACAD_REACTORS
330
47
102
}
330
47
100
AcDbZombieObject
 90
      499
 91
      503
 93
      121
310
9053130303A310000000000001650100
  0
ACAD_PROXY_OBJECT
  5
59
102
{ACAD_REACTORS
330
47
102
}
330
47
100
AcDbZombieObject
 90
      499
 91
      503
 93
      257
310
90E312F31323822203D2031272D3022000000000000200FC000000000000284000
  0
ACAD_PROXY_OBJECT
  5
5A
102
{ACAD_REACTORS
330
47
102
}
330
47
100
AcDbZombieObject
 90
      499
 91
      503
 93
      249
310
90D312F363422203D2031272D3022000000000000240FC000000000000284000
  0
ACAD_PROXY_OBJECT
  5
5B
102
{ACAD_REACTORS
330
47
102
}
330
47
100
AcDbZombieObject
 90
      499
 91
      503
 93
      249
310
90D312F333222203D2031272D3022000000000000280FC000000000000284000
  0
ACAD_PROXY_OBJECT
  5
5C
102
{ACAD_REACTORS
330
47
102
}
330
47
100
AcDbZombieObject
 90
      499
 91
      503
 93
      249
310
90D312F313622203D2031272D30220000000000002C0FC000000000000284000
  0
ACAD_PROXY_OBJECT
  5
5D
102
{ACAD_REACTORS
330
47
102
}
330
47
100
AcDbZombieObject
 90
      499
 91
      503
 93
      249
310
90D332F333222203D2031272D30220000000000002E0FC000000000000284000
  0
ACAD_PROXY_OBJECT
  5
5E
102
{ACAD_REACTORS
330
47
102
}
330
47
100
AcDbZombieObject
 90
      499
 91
      503
 93
      241
310
90C312F3822203D2031272D3022000000000000300FC000000000000284000
  0
ACAD_PROXY_OBJECT
  5
5F
102
{ACAD_REACTORS
330
47
102
}
330
47
100
AcDbZombieObject
 90
      499
 91
      503
 93
      249
310
90D332F313622203D2031272D3022000000000000320FC000000000000284000
  0
ACAD_PROXY_OBJECT
  5
60
102
{ACAD_REACTORS
330
47
102
}
330
47
100
AcDbZombieObject
 90
      499
 91
      503
 93
      241
310
90C312F3422203D2031272D3022000000000000340FC000000000000284000
  0
ACAD_PROXY_OBJECT
  5
61
102
{ACAD_REACTORS
330
47
102
}
330
47
100
AcDbZombieObject
 90
      499
 91
      503
 93
      241
310
90C332F3822203D2031272D3022000000000000360FC000000000000284000
  0
ACAD_PROXY_OBJECT
  5
62
102
{ACAD_REACTORS
330
47
102
}
330
47
100
AcDbZombieObject
 90
      499
 91
      503
 93
      241
310
90C312F3222203D2031272D3022000000000000380FC000000000000284000
  0
ACAD_PROXY_OBJECT
  5
63
102
{ACAD_REACTORS
330
47
102
}
330
47
100
AcDbZombieObject
 90
      499
 91
      503
 93
      241
310
90C332F3422203D2031272D30220000000000003A0FC000000000000284000
  0
ACAD_PROXY_OBJECT
  5
64
102
{ACAD_REACTORS
330
47
102
}
330
47
100
AcDbZombieObject
 90
      499
 91
      503
 93
      161
310
90A3122203D2031272D30224000000000000284000
  0
ACAD_PROXY_OBJECT
  5
65
102
{ACAD_REACTORS
330
47
102
}
330
47
100
AcDbZombieObject
 90
      499
 91
      503
 93
      257
310
90E312D312F3222203D2031272D30220000000000003E0FC000000000000284000
  0
ACAD_PROXY_OBJECT
  5
66
102
{ACAD_REACTORS
330
47
102
}
330
47
100
AcDbZombieObject
 90
      499
 91
      503
 93
      225
310
90A3322203D2031272D302200000000000002100000000000000284000
  0
ACAD_PROXY_OBJECT
  5
67
102
{ACAD_REACTORS
330
47
102
}
330
47
100
AcDbZombieObject
 90
      499
 91
      503
 93
      225
310
90A3622203D2031272D302200000000000006100000000000000284000
  0
ACAD_PROXY_OBJECT
  5
68
102
{ACAD_REACTORS
330
47
102
}
330
47
100
AcDbZombieObject
 90
      499
 91
      503
 93
      249
310
90D31272D3022203D2031272D30220000000000000A100000000000000284000
  0
ACAD_PROXY_OBJECT
  5
2F
102
{ACAD_REACTORS
330
2A
102
}
330
2A
100
AcDbZombieObject
 90
      499
 91
      501
 93
      436
310
42CC9915DA5C99599C985B595049028333333333333E33F0000000000000F90107901411070040501600405405064090741402480A0340
1001
ACAD
1000
AcDbSavedByObjectVersion
1070
     0
  0
ACAD_PROXY_OBJECT
  5
32
102
{ACAD_REACTORS
330
2A
102
}
330
2A
100
AcDbZombieObject
 90
      499
 91
      501
 93
      388
310
4150985CDA58D07406404333333333333E33F0000000000000F90107A41107004050150841D405064090741402480A0350
1001
ACAD
1000
AcDbSavedByObjectVersion
1070
     0
  0
ACAD_PROXY_OBJECT
  5
36
102
{ACAD_REACTORS
330
2A
102
}
330
2A
100
AcDbZombieObject
 90
      499
 91
      501
 93
      428
310
42109C9A59DA1D195B90C409028333333333333E33F0000000000000F9010790141107004050150841D405064090741402480A029950
1001
ACAD
1000
AcDbSavedByObjectVersion
1070
     0
  0
ACAD_PROXY_OBJECT
  5
3A
102
{ACAD_REACTORS
330
2A
102
}
330
2A
100
AcDbZombieObject
 90
      499
 91
      501
 93
      452
310
42D0DBDB1BDC90DA185B99D95104090240C333333333333E33F0000000000000F90108901411070040501508421405064090741402480A0350
1001
ACAD
1000
AcDbSavedByObjectVersion
1070
     0
  0
ACAD_PROXY_OBJECT
  5
34
102
{ACAD_REACTORS
330
2A
102
}
330
2A
100
AcDbZombieObject
 90
      499
 91
      501
 93
      500
310
4290DBDB98D95C1D1D585B10940D028333333333333E33F0000000000000F90107902409070040501000000000018199010841D405064090740C02480A0340
1001
ACAD
1000
AcDbSavedByObjectVersion
1070
     0
  0
ACAD_PROXY_OBJECT
  5
35
102
{ACAD_REACTORS
330
2A
102
}
330
2A
100
AcDbZombieObject
 90
      499
 91
      501
 93
      412
310
40D11A5B50B409028333333333333E33F0000000000000F9010790141107004050150841D405064090741402480A02677FFFFFD0
1001
ACAD
1000
AcDbSavedByObjectVersion
1070
     0
  0
ACAD_PROXY_OBJECT
  5
3D
102
{ACAD_REACTORS
330
2A
102
}
330
2A
100
AcDbZombieObject
 90
      499
 91
      501
 93
      452
310
43115919D950DBDB1BDC93D999916409028333333333333E33F0000000000000F9010790141107004050150841D405064090741402480A0350
1001
ACAD
1000
AcDbSavedByObjectVersion
1070
     0
  0
ACAD_PROXY_OBJECT
  5
39
102
{ACAD_REACTORS
330
2A
102
}
330
2A
100
AcDbZombieObject
 90
      499
 91
      501
 93
      444
310
42D19858D95C185D1D195C9B90F409028333333333333E33F0000000000000F9010790141107004050150841D405064090741402480A0350
1001
ACAD
1000
AcDbSavedByObjectVersion
1070
     0
  0
ACAD_PROXY_OBJECT
  5
2B
102
{ACAD_REACTORS
330
2A
102
}
330
2A
100
AcDbZombieObject
 90
      499
 91
      501
 93
      380
310
41119B185D240901404333333333333E33F0000000000000F9010740A907004050150841D405064090741402480A1B50
1001
ACAD
1000
AcDbSavedByObjectVersion
1070
     0
  0
ACAD_PROXY_OBJECT
  5
2C
102
{ACAD_REACTORS
330
2A
102
}
330
2A
100
AcDbZombieObject
 90
      499
 91
      501
 93
      468
310
43519B185D15DA5D1A115919D95CD0140901404333333333333E33F0000000000000F90107409019070040501600405405064090741402480A1B50
1001
ACAD
1000
AcDbSavedByObjectVersion
1070
     0
  0
ACAD_PROXY_OBJECT
  5
2D
102
{ACAD_REACTORS
330
2A
102
}
330
2A
100
AcDbZombieObject
 90
      499
 91
      501
 93
      404
310
41D1DBDD5C985D5910240902404333333333333E33F0000000000000F9010740A9070040501641D405064090741402480A1B50
1001
ACAD
1000
AcDbSavedByObjectVersion
1070
     0
  0
ACAD_PROXY_OBJECT
  5
2E
102
{ACAD_REACTORS
330
2A
102
}
330
2A
100
AcDbZombieObject
 90
      499
 91
      501
 93
      492
310
4411DBDD5C985D5915DA5D1A115919D95CD0340902404333333333333E33F0000000000000F90107409019070040501600405405064090741402480A1B50
1001
ACAD
1000
AcDbSavedByObjectVersion
1070
     0
  0
ACAD_PROXY_OBJECT
  5
31
102
{ACAD_REACTORS
330
2A
102
}
330
2A
100
AcDbZombieObject
 90
      499
 91
      501
 93
      476
310
41921A5919195B90640502408333333333333E33F0000000000000F901079024090700405020000000000001110200405405064090740C02480A0340
1001
ACAD
1000
AcDbSavedByObjectVersion
1070
     0
  0
ACAD_PROXY_OBJECT
  5
3B
102
{ACAD_REACTORS
330
2A
102
}
330
2A
100
AcDbZombieObject
 90
      499
 91
      501
 93
      428
310
42529A5D1D195C93D999914409028333333333333E33F0000000000000F9010790141107004050150A41D405064090741402480A0350
1001
ACAD
1000
AcDbSavedByObjectVersion
1070
     0
  0
ACAD_PROXY_OBJECT
  5
38
102
{ACAD_REACTORS
330
2A
102
}
330
2A
100
AcDbZombieObject
 90
      499
 91
      501
 93
      444
310
42D31A5B995C185D1D195C9B90E409028333333333333E33F0000000000000F9010790141107004050750841D405064090741402483A0350
1001
ACAD
1000
AcDbSavedByObjectVersion
1070
     0
  0
ACAD_PROXY_OBJECT
  5
3C
102
{ACAD_REACTORS
330
2A
102
}
330
2A
100
AcDbZombieObject
 90
      499
 91
      501
 93
      444
310
42D3DD995C9A185B99D3D999915409028333333333333E33F0000000000000F9010790141107004050150941D405064090741402480A0350
1001
ACAD
1000
AcDbSavedByObjectVersion
1070
     0
  0
ACAD_PROXY_OBJECT
  5
33
102
{ACAD_REACTORS
330
2A
102
}
330
2A
100
AcDbZombieObject
 90
      499
 91
      501
 93
      428
310
425499585B1A5CDD1A58D08409038333333333333E33F0000000000000F9010740A907004050150800405405064090740C02480A1B40
1001
ACAD
1000
AcDbSavedByObjectVersion
1070
     0
  0
ACAD_PROXY_OBJECT
  5
42
102
{ACAD_REACTORS
330
2A
102
}
330
2A
100
AcDbZombieObject
 90
      499
 91
      501
 93
      420
310
4194DA1859195911B40902404333333333333E33F0000000000000F9010740A41107004050150800405405064090840C02480A0B40
1001
ACAD
1000
AcDbSavedByObjectVersion
1070
     0
  0
ACAD_PROXY_OBJECT
  5
41
102
{ACAD_REACTORS
330
2A
102
}
330
2A
100
AcDbZombieObject
 90
      499
 91
      501
 93
      516
310
4454DA18591959081DDA5D1A08195919D95CD1A40902404333333333333E33F0000000000000F901074090142907004050250800405405064090740C02480A0B40
1001
ACAD
1000
AcDbSavedByObjectVersion
1070
     0
  0
ACAD_PROXY_OBJECT
  5
3E
102
{ACAD_REACTORS
330
2A
102
}
330
2A
100
AcDbZombieObject
 90
      499
 91
      501
 93
      532
310
4394DA1859195CC81BD98811DC985E5174090240C333333333333E33F0000000000000F901079024090741D01000000000000111010841D405064090740C02480A0340
1001
ACAD
1000
AcDbSavedByObjectVersion
1070
     0
  0
ACAD_PROXY_OBJECT
  5
3F
102
{ACAD_REACTORS
330
2A
102
}
330
2A
100
AcDbZombieObject
 90
      499
 91
      501
 93
      476
310
41D4DAD95D18DA1E51840502408333333333333E33F0000000000000F901079024090741D01000000000000111010B41D405064090741802480A0340
1001
ACAD
1000
AcDbSavedByObjectVersion
1070
     0
  0
ACAD_PROXY_OBJECT
  5
37
102
{ACAD_REACTORS
330
2A
102
}
330
2A
100
AcDbZombieObject
 90
      499
 91
      501
 93
      412
310
41D51A1A58DAD95B90D409028333333333333E33F0000000000000F9010790141107004050150C41D405064090741402480A0350
1001
ACAD
1000
AcDbSavedByObjectVersion
1070
     0
  0
ACAD_PROXY_OBJECT
  5
30
102
{ACAD_REACTORS
330
2A
102
}
330
2A
100
AcDbZombieObject
 90
      499
 91
      501
 93
      420
310
4255DA5C99599C985B595059028333333333333E33F0000000000000F90107901411070040501600405405064090740C02480A0340
1001
ACAD
1000
AcDbSavedByObjectVersion
1070
     0
  0
ACAD_PROXY_OBJECT
  5
40
102
{ACAD_REACTORS
330
2A
102
}
330
2A
100
AcDbZombieObject
 90
      499
 91
      501
 93
      404
310
41560B54985E51940902404000000000000E03F0000000000000F9010740501907004050150841D405064090740C02480A1B40
1001
ACAD
1000
AcDbSavedByObjectVersion
1070
     0
  0
DICTIONARYVAR
  5
205
102
{ACAD_REACTORS
330
6C
102
}
330
6C
100
DictionaryVariables
280
     0
  1
1:1
  0
DICTIONARYVAR
  5
1FE
102
{ACAD_REACTORS
330
6C
102
}
330
6C
100
DictionaryVariables
280
     0
  1
Standard
  0
DICTIONARYVAR
  5
202
102
{ACAD_REACTORS
330
6C
102
}
330
6C
100
DictionaryVariables
280
     0
  1
2
  0
DICTIONARYVAR
  5
203
102
{ACAD_REACTORS
330
6C
102
}
330
6C
100
DictionaryVariables
280
     0
  1
1
  0
DICTIONARYVAR
  5
206
102
{ACAD_REACTORS
330
6C
102
}
330
6C
100
DictionaryVariables
280
     0
  1
1
  0
DICTIONARYVAR
  5
6D
102
{ACAD_REACTORS
330
6C
102
}
330
6C
100
DictionaryVariables
280
     0
  1
0
  0
XRECORD
  5
1FB
102
{ACAD_REACTORS
330
1FA
102
}
330
1FA
100
AcDbXrecord
 70
     4
  0
XRECORD
  5
1FD
102
{ACAD_REACTORS
330
1FA
102
}
330
1FA
100
AcDbXrecord
 90
        0
  0
XRECORD
  5
1FC
102
{ACAD_REACTORS
330
1FA
102
}
330
1FA
100
AcDbXrecord
 90
        0
  0
DICTIONARY
  5
209
330
45
100
AcDbDictionary
  3
ACAD_XREC_ROUNDTRIP
360
20A
1001
ACAD
1000
TREAT_AS_HARD
1070
     1
  0
DICTIONARY
  5
207
330
44
100
AcDbDictionary
  3
ACAD_XREC_ROUNDTRIP
360
208
1001
ACAD
1000
TREAT_AS_HARD
1070
     1
  0
DICTIONARY
  5
20B
330
46
100
AcDbDictionary
  3
ACAD_XREC_ROUNDTRIP
360
20C
1001
ACAD
1000
TREAT_AS_HARD
1070
     1
  0
XRECORD
  5
20A
102
{ACAD_REACTORS
330
209
102
}
330
209
100
AcDbXrecord
102
MATERIAL
148
0.0
149
0.0
149
0.0
 93
        0
 94
      127
282
     0
 72
     1
 77
     1
171
     1
175
     1
179
     1
273
     0
  0
XRECORD
  5
208
102
{ACAD_REACTORS
330
207
102
}
330
207
100
AcDbXrecord
102
MATERIAL
148
0.0
149
0.0
149
0.0
 93
        0
 94
      127
282
     0
 72
     1
 77
     1
171
     1
175
     1
179
     1
273
     0
  0
XRECORD
  5
20C
102
{ACAD_REACTORS
330
20B
102
}
330
20B
100
AcDbXrecord
102
MATERIAL
148
0.0
149
0.0
149
0.0
 93
        0
 94
      127
282
     0
 72
     1
 77
     1
171
     1
175
     1
179
     1
273
     0
  0
ENDSEC
  0
EOF
