G04 EAGLE Gerber RS-274X export*
G75*
%MOMM*%
%FSLAX34Y34*%
%LPD*%
%AMOC8*
5,1,8,0,0,1.08239X$1,22.5*%
G01*
%ADD10C,1.524000*%
%ADD11P,1.319650X8X292.500000*%
%ADD12C,2.000000*%
%ADD13C,1.350000*%
%ADD14C,1.879600*%
%ADD15P,1.319650X8X202.500000*%
%ADD16P,1.319650X8X112.500000*%
%ADD17C,1.200000*%
%ADD18C,5.080000*%
%ADD19C,1.651000*%
%ADD20R,1.651000X1.651000*%
%ADD21P,1.814519X8X112.500000*%
%ADD22C,1.422400*%
%ADD23P,2.336880X8X22.500000*%
%ADD24C,0.254000*%
%ADD25C,0.508000*%
%ADD26C,0.152400*%
%ADD27C,0.863600*%

G36*
X204414Y5086D02*
X204414Y5086D01*
X204464Y5084D01*
X204586Y5106D01*
X204710Y5121D01*
X204757Y5138D01*
X204807Y5147D01*
X204921Y5196D01*
X205038Y5238D01*
X205080Y5265D01*
X205126Y5286D01*
X205226Y5360D01*
X205331Y5427D01*
X205366Y5463D01*
X205406Y5493D01*
X205486Y5588D01*
X205573Y5678D01*
X205599Y5721D01*
X205631Y5759D01*
X205688Y5870D01*
X205752Y5977D01*
X205767Y6025D01*
X205790Y6070D01*
X205820Y6190D01*
X205858Y6309D01*
X205862Y6359D01*
X205874Y6408D01*
X205876Y6532D01*
X205886Y6656D01*
X205878Y6706D01*
X205879Y6756D01*
X205853Y6878D01*
X205834Y7001D01*
X205816Y7048D01*
X205805Y7097D01*
X205751Y7209D01*
X205706Y7325D01*
X205677Y7366D01*
X205655Y7412D01*
X205578Y7509D01*
X205507Y7611D01*
X205469Y7645D01*
X205438Y7684D01*
X205340Y7761D01*
X205248Y7844D01*
X205204Y7869D01*
X205164Y7900D01*
X204946Y8011D01*
X204478Y8205D01*
X198905Y13778D01*
X195971Y20861D01*
X195947Y20905D01*
X195930Y20953D01*
X195862Y21057D01*
X195802Y21166D01*
X195768Y21203D01*
X195741Y21246D01*
X195651Y21332D01*
X195568Y21424D01*
X195526Y21453D01*
X195490Y21488D01*
X195383Y21552D01*
X195281Y21622D01*
X195234Y21641D01*
X195191Y21667D01*
X195073Y21705D01*
X194957Y21750D01*
X194907Y21758D01*
X194859Y21773D01*
X194735Y21783D01*
X194612Y21801D01*
X194562Y21797D01*
X194512Y21801D01*
X194389Y21782D01*
X194265Y21772D01*
X194217Y21757D01*
X194167Y21749D01*
X194052Y21703D01*
X193933Y21665D01*
X193890Y21639D01*
X193843Y21620D01*
X193741Y21550D01*
X193635Y21485D01*
X193598Y21450D01*
X193557Y21422D01*
X193474Y21329D01*
X193385Y21243D01*
X193357Y21200D01*
X193324Y21163D01*
X193264Y21054D01*
X193196Y20949D01*
X193179Y20902D01*
X193155Y20858D01*
X193121Y20738D01*
X193080Y20621D01*
X193074Y20571D01*
X193060Y20522D01*
X193041Y20279D01*
X193041Y11648D01*
X191552Y10159D01*
X138648Y10159D01*
X137159Y11648D01*
X137159Y40198D01*
X137154Y40246D01*
X137156Y40296D01*
X137134Y40419D01*
X137119Y40544D01*
X137103Y40590D01*
X137094Y40639D01*
X137044Y40754D01*
X137002Y40872D01*
X136975Y40913D01*
X136956Y40958D01*
X136881Y41059D01*
X136813Y41165D01*
X136777Y41199D01*
X136748Y41239D01*
X136652Y41320D01*
X136562Y41407D01*
X136520Y41432D01*
X136482Y41464D01*
X136269Y41583D01*
X133005Y43074D01*
X129891Y47920D01*
X129891Y53680D01*
X133005Y58526D01*
X136269Y60017D01*
X136311Y60042D01*
X136357Y60060D01*
X136460Y60132D01*
X136567Y60197D01*
X136603Y60231D01*
X136643Y60259D01*
X136727Y60352D01*
X136817Y60440D01*
X136843Y60482D01*
X136876Y60518D01*
X136937Y60628D01*
X137005Y60734D01*
X137021Y60780D01*
X137045Y60823D01*
X137079Y60944D01*
X137121Y61062D01*
X137126Y61111D01*
X137140Y61159D01*
X137159Y61402D01*
X137159Y65598D01*
X137154Y65646D01*
X137156Y65696D01*
X137134Y65819D01*
X137119Y65944D01*
X137103Y65990D01*
X137094Y66039D01*
X137044Y66154D01*
X137002Y66272D01*
X136975Y66313D01*
X136956Y66359D01*
X136881Y66459D01*
X136813Y66565D01*
X136777Y66599D01*
X136748Y66639D01*
X136652Y66720D01*
X136562Y66807D01*
X136520Y66832D01*
X136482Y66864D01*
X136269Y66983D01*
X133005Y68474D01*
X129891Y73320D01*
X129891Y79080D01*
X133005Y83926D01*
X136269Y85417D01*
X136311Y85442D01*
X136357Y85460D01*
X136460Y85532D01*
X136567Y85597D01*
X136603Y85631D01*
X136643Y85659D01*
X136727Y85752D01*
X136817Y85840D01*
X136843Y85882D01*
X136876Y85918D01*
X136937Y86028D01*
X137005Y86134D01*
X137021Y86180D01*
X137045Y86223D01*
X137079Y86344D01*
X137121Y86462D01*
X137126Y86511D01*
X137140Y86559D01*
X137159Y86802D01*
X137159Y90998D01*
X137154Y91046D01*
X137156Y91096D01*
X137134Y91219D01*
X137119Y91344D01*
X137103Y91390D01*
X137094Y91439D01*
X137044Y91554D01*
X137002Y91672D01*
X136975Y91713D01*
X136956Y91758D01*
X136881Y91859D01*
X136813Y91965D01*
X136777Y91999D01*
X136748Y92039D01*
X136652Y92120D01*
X136562Y92207D01*
X136520Y92232D01*
X136482Y92264D01*
X136269Y92383D01*
X133005Y93874D01*
X129891Y98720D01*
X129891Y104480D01*
X133005Y109326D01*
X136269Y110817D01*
X136311Y110842D01*
X136357Y110860D01*
X136460Y110932D01*
X136567Y110997D01*
X136603Y111031D01*
X136643Y111059D01*
X136727Y111152D01*
X136817Y111240D01*
X136843Y111282D01*
X136876Y111318D01*
X136937Y111428D01*
X137005Y111534D01*
X137021Y111580D01*
X137045Y111623D01*
X137079Y111744D01*
X137121Y111862D01*
X137126Y111911D01*
X137140Y111959D01*
X137159Y112202D01*
X137159Y445552D01*
X138648Y447041D01*
X143435Y447041D01*
X143535Y447052D01*
X143635Y447054D01*
X143707Y447072D01*
X143781Y447081D01*
X143875Y447114D01*
X143973Y447139D01*
X144039Y447173D01*
X144109Y447198D01*
X144193Y447253D01*
X144283Y447299D01*
X144339Y447347D01*
X144402Y447387D01*
X144472Y447459D01*
X144548Y447524D01*
X144592Y447584D01*
X144644Y447638D01*
X144696Y447724D01*
X144755Y447805D01*
X144785Y447873D01*
X144823Y447937D01*
X144854Y448033D01*
X144893Y448125D01*
X144906Y448198D01*
X144929Y448269D01*
X144937Y448369D01*
X144955Y448468D01*
X144951Y448542D01*
X144957Y448616D01*
X144942Y448716D01*
X144937Y448816D01*
X144916Y448887D01*
X144905Y448961D01*
X144868Y449054D01*
X144841Y449151D01*
X144804Y449216D01*
X144777Y449285D01*
X144719Y449367D01*
X144670Y449455D01*
X144605Y449531D01*
X144578Y449571D01*
X144551Y449595D01*
X144512Y449641D01*
X141477Y452676D01*
X141477Y454826D01*
X151549Y454826D01*
X151575Y454829D01*
X151601Y454827D01*
X151748Y454849D01*
X151895Y454866D01*
X151920Y454874D01*
X151946Y454878D01*
X152083Y454933D01*
X152223Y454983D01*
X152245Y454997D01*
X152270Y455007D01*
X152391Y455092D01*
X152394Y455094D01*
X152497Y455037D01*
X152624Y454961D01*
X152649Y454953D01*
X152672Y454940D01*
X152815Y454900D01*
X152956Y454855D01*
X152982Y454852D01*
X153007Y454845D01*
X153251Y454826D01*
X163323Y454826D01*
X163323Y452676D01*
X160288Y449641D01*
X160226Y449563D01*
X160156Y449490D01*
X160118Y449426D01*
X160072Y449368D01*
X160029Y449277D01*
X159977Y449191D01*
X159954Y449120D01*
X159923Y449053D01*
X159901Y448955D01*
X159871Y448859D01*
X159865Y448785D01*
X159849Y448712D01*
X159851Y448612D01*
X159843Y448512D01*
X159854Y448438D01*
X159855Y448364D01*
X159880Y448267D01*
X159895Y448167D01*
X159922Y448098D01*
X159940Y448026D01*
X159986Y447937D01*
X160023Y447843D01*
X160066Y447782D01*
X160100Y447716D01*
X160165Y447640D01*
X160222Y447557D01*
X160277Y447507D01*
X160326Y447451D01*
X160406Y447391D01*
X160481Y447324D01*
X160546Y447288D01*
X160606Y447243D01*
X160698Y447204D01*
X160786Y447155D01*
X160858Y447135D01*
X160926Y447105D01*
X161025Y447088D01*
X161121Y447060D01*
X161221Y447052D01*
X161269Y447044D01*
X161305Y447046D01*
X161365Y447041D01*
X168835Y447041D01*
X168935Y447052D01*
X169035Y447054D01*
X169107Y447072D01*
X169181Y447081D01*
X169275Y447114D01*
X169373Y447139D01*
X169439Y447173D01*
X169509Y447198D01*
X169593Y447253D01*
X169683Y447299D01*
X169739Y447347D01*
X169802Y447387D01*
X169872Y447459D01*
X169948Y447524D01*
X169992Y447584D01*
X170044Y447638D01*
X170096Y447724D01*
X170155Y447805D01*
X170185Y447873D01*
X170223Y447937D01*
X170254Y448033D01*
X170293Y448125D01*
X170306Y448198D01*
X170329Y448269D01*
X170337Y448369D01*
X170355Y448468D01*
X170351Y448542D01*
X170357Y448616D01*
X170342Y448716D01*
X170337Y448816D01*
X170316Y448887D01*
X170305Y448961D01*
X170268Y449054D01*
X170241Y449151D01*
X170204Y449216D01*
X170177Y449285D01*
X170119Y449367D01*
X170070Y449455D01*
X170005Y449531D01*
X169978Y449571D01*
X169951Y449595D01*
X169912Y449641D01*
X166877Y452676D01*
X166877Y454826D01*
X176949Y454826D01*
X176975Y454829D01*
X177001Y454827D01*
X177148Y454849D01*
X177295Y454866D01*
X177320Y454874D01*
X177346Y454878D01*
X177483Y454933D01*
X177623Y454983D01*
X177645Y454997D01*
X177670Y455007D01*
X177791Y455092D01*
X177794Y455094D01*
X177897Y455037D01*
X178024Y454961D01*
X178049Y454953D01*
X178072Y454940D01*
X178215Y454900D01*
X178356Y454855D01*
X178382Y454852D01*
X178407Y454845D01*
X178651Y454826D01*
X188723Y454826D01*
X188723Y452676D01*
X185688Y449641D01*
X185626Y449563D01*
X185556Y449490D01*
X185518Y449426D01*
X185472Y449368D01*
X185429Y449277D01*
X185377Y449191D01*
X185354Y449120D01*
X185323Y449053D01*
X185301Y448955D01*
X185271Y448859D01*
X185265Y448785D01*
X185249Y448712D01*
X185251Y448612D01*
X185243Y448512D01*
X185254Y448438D01*
X185255Y448364D01*
X185280Y448267D01*
X185295Y448167D01*
X185322Y448098D01*
X185340Y448026D01*
X185386Y447937D01*
X185423Y447843D01*
X185466Y447782D01*
X185500Y447716D01*
X185565Y447640D01*
X185622Y447557D01*
X185677Y447507D01*
X185726Y447451D01*
X185806Y447391D01*
X185881Y447324D01*
X185946Y447288D01*
X186006Y447243D01*
X186098Y447204D01*
X186186Y447155D01*
X186258Y447135D01*
X186326Y447105D01*
X186425Y447088D01*
X186521Y447060D01*
X186621Y447052D01*
X186669Y447044D01*
X186705Y447046D01*
X186765Y447041D01*
X191552Y447041D01*
X193041Y445552D01*
X193041Y112465D01*
X193051Y112373D01*
X193052Y112281D01*
X193071Y112201D01*
X193081Y112119D01*
X193112Y112032D01*
X193133Y111942D01*
X193170Y111868D01*
X193198Y111790D01*
X193248Y111713D01*
X193289Y111631D01*
X193342Y111567D01*
X193387Y111498D01*
X193453Y111434D01*
X193512Y111363D01*
X193578Y111313D01*
X193638Y111255D01*
X193717Y111208D01*
X193790Y111153D01*
X193866Y111119D01*
X193937Y111077D01*
X194024Y111049D01*
X194109Y111011D01*
X194221Y110986D01*
X194269Y110970D01*
X194299Y110968D01*
X194347Y110957D01*
X194747Y110900D01*
X199100Y107127D01*
X200723Y101600D01*
X199100Y96073D01*
X194747Y92300D01*
X194347Y92243D01*
X194258Y92220D01*
X194167Y92206D01*
X194090Y92175D01*
X194010Y92154D01*
X193929Y92111D01*
X193843Y92077D01*
X193775Y92030D01*
X193702Y91991D01*
X193633Y91931D01*
X193557Y91878D01*
X193502Y91817D01*
X193439Y91762D01*
X193385Y91688D01*
X193324Y91619D01*
X193284Y91547D01*
X193235Y91480D01*
X193200Y91395D01*
X193155Y91314D01*
X193133Y91235D01*
X193101Y91158D01*
X193085Y91068D01*
X193060Y90979D01*
X193051Y90864D01*
X193043Y90815D01*
X193045Y90784D01*
X193041Y90735D01*
X193041Y87065D01*
X193051Y86973D01*
X193052Y86881D01*
X193071Y86801D01*
X193081Y86719D01*
X193112Y86632D01*
X193133Y86542D01*
X193170Y86468D01*
X193198Y86390D01*
X193248Y86313D01*
X193289Y86231D01*
X193342Y86167D01*
X193387Y86098D01*
X193453Y86034D01*
X193512Y85963D01*
X193578Y85913D01*
X193638Y85855D01*
X193717Y85808D01*
X193790Y85753D01*
X193866Y85719D01*
X193937Y85677D01*
X194024Y85649D01*
X194109Y85611D01*
X194221Y85586D01*
X194269Y85570D01*
X194299Y85568D01*
X194347Y85557D01*
X194747Y85500D01*
X199100Y81727D01*
X200723Y76200D01*
X199100Y70673D01*
X194747Y66900D01*
X194347Y66843D01*
X194258Y66820D01*
X194167Y66806D01*
X194090Y66775D01*
X194010Y66754D01*
X193929Y66711D01*
X193843Y66677D01*
X193775Y66630D01*
X193702Y66591D01*
X193633Y66531D01*
X193557Y66478D01*
X193502Y66417D01*
X193439Y66362D01*
X193385Y66288D01*
X193324Y66219D01*
X193284Y66147D01*
X193235Y66080D01*
X193200Y65995D01*
X193155Y65914D01*
X193133Y65835D01*
X193101Y65758D01*
X193085Y65668D01*
X193060Y65579D01*
X193051Y65464D01*
X193043Y65415D01*
X193045Y65384D01*
X193041Y65335D01*
X193041Y61665D01*
X193051Y61573D01*
X193052Y61481D01*
X193071Y61401D01*
X193081Y61319D01*
X193112Y61232D01*
X193133Y61142D01*
X193170Y61068D01*
X193198Y60990D01*
X193248Y60913D01*
X193289Y60831D01*
X193342Y60767D01*
X193387Y60698D01*
X193453Y60634D01*
X193512Y60563D01*
X193578Y60513D01*
X193638Y60455D01*
X193717Y60408D01*
X193790Y60353D01*
X193866Y60319D01*
X193937Y60277D01*
X194024Y60249D01*
X194109Y60211D01*
X194221Y60186D01*
X194269Y60170D01*
X194299Y60168D01*
X194347Y60157D01*
X194747Y60100D01*
X199100Y56327D01*
X200723Y50800D01*
X199100Y45273D01*
X194747Y41500D01*
X194347Y41443D01*
X194258Y41420D01*
X194167Y41406D01*
X194090Y41375D01*
X194010Y41354D01*
X193929Y41311D01*
X193843Y41277D01*
X193775Y41230D01*
X193702Y41191D01*
X193633Y41131D01*
X193557Y41078D01*
X193502Y41017D01*
X193439Y40962D01*
X193385Y40888D01*
X193324Y40819D01*
X193284Y40747D01*
X193235Y40680D01*
X193200Y40595D01*
X193155Y40514D01*
X193133Y40435D01*
X193101Y40358D01*
X193085Y40268D01*
X193060Y40179D01*
X193051Y40064D01*
X193043Y40015D01*
X193045Y39984D01*
X193041Y39935D01*
X193041Y29721D01*
X193046Y29671D01*
X193044Y29621D01*
X193066Y29499D01*
X193081Y29375D01*
X193098Y29328D01*
X193107Y29278D01*
X193156Y29164D01*
X193198Y29047D01*
X193225Y29005D01*
X193245Y28959D01*
X193320Y28859D01*
X193387Y28754D01*
X193423Y28719D01*
X193453Y28679D01*
X193548Y28599D01*
X193638Y28512D01*
X193681Y28486D01*
X193719Y28454D01*
X193830Y28397D01*
X193937Y28333D01*
X193985Y28318D01*
X194030Y28295D01*
X194150Y28265D01*
X194269Y28227D01*
X194319Y28223D01*
X194368Y28211D01*
X194492Y28209D01*
X194616Y28199D01*
X194666Y28207D01*
X194716Y28206D01*
X194838Y28232D01*
X194961Y28251D01*
X195008Y28269D01*
X195057Y28280D01*
X195169Y28334D01*
X195285Y28380D01*
X195326Y28408D01*
X195372Y28430D01*
X195469Y28507D01*
X195571Y28578D01*
X195605Y28616D01*
X195644Y28647D01*
X195721Y28745D01*
X195804Y28837D01*
X195829Y28881D01*
X195860Y28921D01*
X195971Y29139D01*
X198905Y36222D01*
X204478Y41795D01*
X211759Y44811D01*
X219641Y44811D01*
X226922Y41795D01*
X232495Y36222D01*
X235511Y28941D01*
X235511Y21059D01*
X232495Y13778D01*
X226922Y8205D01*
X226454Y8011D01*
X226410Y7987D01*
X226362Y7970D01*
X226257Y7902D01*
X226149Y7842D01*
X226112Y7808D01*
X226069Y7781D01*
X225983Y7691D01*
X225891Y7608D01*
X225862Y7566D01*
X225827Y7530D01*
X225763Y7424D01*
X225693Y7321D01*
X225674Y7274D01*
X225648Y7231D01*
X225610Y7113D01*
X225565Y6997D01*
X225557Y6947D01*
X225542Y6899D01*
X225532Y6775D01*
X225514Y6652D01*
X225518Y6602D01*
X225514Y6552D01*
X225532Y6429D01*
X225543Y6305D01*
X225558Y6257D01*
X225566Y6207D01*
X225612Y6092D01*
X225650Y5973D01*
X225676Y5930D01*
X225694Y5883D01*
X225765Y5781D01*
X225830Y5675D01*
X225865Y5638D01*
X225893Y5597D01*
X225986Y5514D01*
X226072Y5425D01*
X226115Y5397D01*
X226152Y5364D01*
X226261Y5304D01*
X226366Y5236D01*
X226413Y5219D01*
X226457Y5195D01*
X226577Y5161D01*
X226694Y5120D01*
X226744Y5114D01*
X226793Y5100D01*
X227036Y5081D01*
X847486Y5081D01*
X847595Y5093D01*
X847705Y5097D01*
X847768Y5113D01*
X847832Y5121D01*
X847936Y5158D01*
X848042Y5186D01*
X848099Y5216D01*
X848160Y5238D01*
X848253Y5298D01*
X848350Y5349D01*
X848399Y5392D01*
X848453Y5427D01*
X848530Y5506D01*
X848613Y5579D01*
X848650Y5631D01*
X848695Y5678D01*
X848752Y5772D01*
X848816Y5861D01*
X848841Y5921D01*
X848874Y5977D01*
X848908Y6082D01*
X848950Y6183D01*
X848961Y6247D01*
X848980Y6309D01*
X848989Y6418D01*
X849007Y6527D01*
X849003Y6592D01*
X849008Y6656D01*
X848992Y6765D01*
X848985Y6875D01*
X848966Y6937D01*
X848957Y7001D01*
X848916Y7103D01*
X848884Y7208D01*
X848852Y7265D01*
X848828Y7325D01*
X848765Y7415D01*
X848710Y7510D01*
X848666Y7558D01*
X848629Y7611D01*
X848547Y7685D01*
X848472Y7765D01*
X848418Y7801D01*
X848370Y7844D01*
X848274Y7898D01*
X848183Y7959D01*
X848104Y7991D01*
X848065Y8013D01*
X848026Y8024D01*
X847957Y8053D01*
X847000Y8364D01*
X845575Y9090D01*
X844281Y10030D01*
X843150Y11161D01*
X842210Y12455D01*
X841484Y13880D01*
X840989Y15401D01*
X840739Y16980D01*
X840739Y22861D01*
X849884Y22861D01*
X849910Y22864D01*
X849936Y22862D01*
X850083Y22884D01*
X850230Y22901D01*
X850255Y22909D01*
X850281Y22913D01*
X850418Y22968D01*
X850558Y23018D01*
X850580Y23032D01*
X850605Y23042D01*
X850726Y23127D01*
X850851Y23207D01*
X850869Y23226D01*
X850891Y23241D01*
X850905Y23257D01*
X850990Y23175D01*
X851013Y23161D01*
X851032Y23144D01*
X851162Y23072D01*
X851289Y22996D01*
X851314Y22988D01*
X851337Y22975D01*
X851480Y22935D01*
X851621Y22890D01*
X851647Y22887D01*
X851672Y22880D01*
X851916Y22861D01*
X861061Y22861D01*
X861061Y16980D01*
X860811Y15401D01*
X860316Y13880D01*
X859590Y12455D01*
X858650Y11161D01*
X857519Y10030D01*
X856225Y9090D01*
X854800Y8364D01*
X853843Y8053D01*
X853743Y8007D01*
X853640Y7970D01*
X853585Y7935D01*
X853526Y7908D01*
X853439Y7841D01*
X853347Y7781D01*
X853302Y7734D01*
X853251Y7695D01*
X853181Y7609D01*
X853105Y7530D01*
X853071Y7475D01*
X853030Y7424D01*
X852982Y7326D01*
X852926Y7231D01*
X852906Y7169D01*
X852878Y7111D01*
X852853Y7004D01*
X852820Y6899D01*
X852814Y6835D01*
X852800Y6771D01*
X852800Y6661D01*
X852792Y6552D01*
X852801Y6488D01*
X852801Y6423D01*
X852827Y6316D01*
X852843Y6207D01*
X852867Y6147D01*
X852882Y6084D01*
X852931Y5985D01*
X852972Y5883D01*
X853009Y5830D01*
X853038Y5772D01*
X853108Y5687D01*
X853171Y5597D01*
X853219Y5554D01*
X853260Y5504D01*
X853348Y5437D01*
X853430Y5364D01*
X853486Y5332D01*
X853538Y5293D01*
X853638Y5248D01*
X853735Y5195D01*
X853797Y5178D01*
X853856Y5151D01*
X853964Y5130D01*
X854070Y5100D01*
X854155Y5094D01*
X854198Y5085D01*
X854240Y5087D01*
X854314Y5081D01*
X953664Y5081D01*
X953714Y5086D01*
X953764Y5084D01*
X953886Y5106D01*
X954010Y5121D01*
X954057Y5138D01*
X954107Y5147D01*
X954221Y5196D01*
X954338Y5238D01*
X954380Y5265D01*
X954426Y5286D01*
X954526Y5360D01*
X954631Y5427D01*
X954666Y5463D01*
X954706Y5493D01*
X954786Y5588D01*
X954873Y5678D01*
X954899Y5721D01*
X954931Y5759D01*
X954988Y5870D01*
X955052Y5977D01*
X955067Y6025D01*
X955090Y6070D01*
X955120Y6190D01*
X955158Y6309D01*
X955162Y6359D01*
X955174Y6408D01*
X955176Y6532D01*
X955186Y6656D01*
X955178Y6706D01*
X955179Y6756D01*
X955153Y6878D01*
X955134Y7001D01*
X955116Y7048D01*
X955105Y7097D01*
X955051Y7209D01*
X955006Y7325D01*
X954977Y7366D01*
X954955Y7412D01*
X954878Y7509D01*
X954807Y7611D01*
X954769Y7645D01*
X954738Y7684D01*
X954640Y7761D01*
X954548Y7844D01*
X954504Y7869D01*
X954464Y7900D01*
X954246Y8011D01*
X953778Y8205D01*
X948205Y13778D01*
X945189Y21059D01*
X945189Y28941D01*
X948205Y36222D01*
X952575Y40591D01*
X952642Y40676D01*
X952677Y40713D01*
X952692Y40737D01*
X952765Y40824D01*
X952776Y40845D01*
X952791Y40864D01*
X952856Y41000D01*
X952924Y41134D01*
X952930Y41158D01*
X952940Y41180D01*
X952972Y41326D01*
X953008Y41472D01*
X953009Y41497D01*
X953014Y41520D01*
X953011Y41670D01*
X953013Y41821D01*
X953008Y41845D01*
X953008Y41869D01*
X952971Y42014D01*
X952939Y42161D01*
X952929Y42183D01*
X952923Y42207D01*
X952854Y42341D01*
X952789Y42476D01*
X952774Y42495D01*
X952763Y42517D01*
X952665Y42631D01*
X952572Y42749D01*
X952553Y42763D01*
X952537Y42782D01*
X952416Y42871D01*
X952298Y42964D01*
X952272Y42978D01*
X952257Y42989D01*
X952214Y43008D01*
X952081Y43076D01*
X950072Y43908D01*
X946687Y47293D01*
X944855Y51715D01*
X944855Y76502D01*
X946687Y80925D01*
X950072Y84310D01*
X954494Y86141D01*
X959281Y86141D01*
X963704Y84310D01*
X967089Y80925D01*
X968921Y76502D01*
X968921Y51715D01*
X967076Y47261D01*
X967075Y47260D01*
X967037Y47196D01*
X966991Y47138D01*
X966948Y47047D01*
X966896Y46961D01*
X966873Y46890D01*
X966842Y46823D01*
X966820Y46725D01*
X966790Y46629D01*
X966784Y46555D01*
X966768Y46483D01*
X966770Y46382D01*
X966762Y46282D01*
X966773Y46208D01*
X966774Y46134D01*
X966799Y46037D01*
X966814Y45937D01*
X966841Y45868D01*
X966859Y45796D01*
X966905Y45707D01*
X966942Y45613D01*
X966985Y45552D01*
X967019Y45486D01*
X967084Y45410D01*
X967141Y45327D01*
X967196Y45277D01*
X967244Y45221D01*
X967325Y45161D01*
X967400Y45094D01*
X967465Y45058D01*
X967525Y45014D01*
X967617Y44974D01*
X967705Y44925D01*
X967776Y44905D01*
X967845Y44876D01*
X967944Y44858D01*
X968040Y44830D01*
X968140Y44822D01*
X968188Y44814D01*
X968223Y44816D01*
X968284Y44811D01*
X968941Y44811D01*
X976222Y41795D01*
X981795Y36222D01*
X984811Y28941D01*
X984811Y21059D01*
X981795Y13778D01*
X976222Y8205D01*
X975754Y8011D01*
X975710Y7987D01*
X975662Y7970D01*
X975557Y7902D01*
X975449Y7842D01*
X975412Y7808D01*
X975369Y7781D01*
X975283Y7691D01*
X975191Y7608D01*
X975162Y7566D01*
X975127Y7530D01*
X975063Y7424D01*
X974993Y7321D01*
X974974Y7274D01*
X974948Y7231D01*
X974910Y7113D01*
X974865Y6997D01*
X974857Y6947D01*
X974842Y6899D01*
X974832Y6775D01*
X974814Y6652D01*
X974818Y6602D01*
X974814Y6552D01*
X974832Y6429D01*
X974843Y6305D01*
X974858Y6257D01*
X974866Y6207D01*
X974912Y6092D01*
X974950Y5973D01*
X974976Y5930D01*
X974994Y5883D01*
X975065Y5781D01*
X975130Y5675D01*
X975165Y5638D01*
X975193Y5597D01*
X975286Y5514D01*
X975372Y5425D01*
X975415Y5397D01*
X975452Y5364D01*
X975561Y5304D01*
X975666Y5236D01*
X975713Y5219D01*
X975757Y5195D01*
X975877Y5161D01*
X975994Y5120D01*
X976044Y5114D01*
X976093Y5100D01*
X976336Y5081D01*
X1085596Y5081D01*
X1085622Y5084D01*
X1085648Y5082D01*
X1085795Y5104D01*
X1085942Y5121D01*
X1085967Y5129D01*
X1085993Y5133D01*
X1086131Y5188D01*
X1086270Y5238D01*
X1086292Y5252D01*
X1086317Y5262D01*
X1086438Y5347D01*
X1086563Y5427D01*
X1086581Y5446D01*
X1086603Y5461D01*
X1086702Y5571D01*
X1086805Y5678D01*
X1086819Y5700D01*
X1086836Y5720D01*
X1086908Y5850D01*
X1086984Y5977D01*
X1086992Y6002D01*
X1087005Y6025D01*
X1087045Y6168D01*
X1087090Y6309D01*
X1087092Y6335D01*
X1087100Y6360D01*
X1087119Y6604D01*
X1087119Y526796D01*
X1087116Y526822D01*
X1087118Y526848D01*
X1087096Y526995D01*
X1087079Y527142D01*
X1087071Y527167D01*
X1087067Y527193D01*
X1087012Y527330D01*
X1086962Y527470D01*
X1086948Y527492D01*
X1086938Y527517D01*
X1086853Y527638D01*
X1086773Y527763D01*
X1086754Y527781D01*
X1086739Y527803D01*
X1086629Y527902D01*
X1086522Y528005D01*
X1086500Y528019D01*
X1086480Y528036D01*
X1086350Y528108D01*
X1086223Y528184D01*
X1086198Y528192D01*
X1086175Y528205D01*
X1086032Y528245D01*
X1085891Y528290D01*
X1085865Y528292D01*
X1085840Y528300D01*
X1085596Y528319D01*
X987105Y528319D01*
X987055Y528314D01*
X987005Y528316D01*
X986882Y528294D01*
X986759Y528279D01*
X986712Y528262D01*
X986662Y528253D01*
X986548Y528204D01*
X986431Y528162D01*
X986388Y528135D01*
X986342Y528115D01*
X986242Y528040D01*
X986138Y527973D01*
X986103Y527937D01*
X986063Y527907D01*
X985982Y527812D01*
X985896Y527722D01*
X985870Y527679D01*
X985837Y527641D01*
X985781Y527530D01*
X985717Y527423D01*
X985702Y527375D01*
X985679Y527330D01*
X985649Y527210D01*
X985611Y527091D01*
X985607Y527041D01*
X985594Y526992D01*
X985593Y526868D01*
X985583Y526744D01*
X985590Y526694D01*
X985589Y526644D01*
X985616Y526522D01*
X985634Y526399D01*
X985653Y526352D01*
X985664Y526303D01*
X985717Y526191D01*
X985763Y526075D01*
X985792Y526034D01*
X985813Y525988D01*
X985891Y525891D01*
X985962Y525789D01*
X985999Y525755D01*
X986031Y525716D01*
X986128Y525639D01*
X986221Y525556D01*
X986265Y525531D01*
X986304Y525500D01*
X986522Y525389D01*
X988922Y524395D01*
X994495Y518822D01*
X997511Y511541D01*
X997511Y503659D01*
X994495Y496378D01*
X988922Y490805D01*
X981641Y487789D01*
X973759Y487789D01*
X966478Y490805D01*
X960905Y496378D01*
X957889Y503659D01*
X957889Y511541D01*
X960905Y518822D01*
X966478Y524395D01*
X968878Y525389D01*
X968922Y525413D01*
X968969Y525430D01*
X969074Y525498D01*
X969182Y525558D01*
X969220Y525592D01*
X969262Y525619D01*
X969349Y525709D01*
X969441Y525792D01*
X969469Y525834D01*
X969504Y525870D01*
X969568Y525977D01*
X969639Y526079D01*
X969657Y526126D01*
X969683Y526169D01*
X969721Y526287D01*
X969767Y526403D01*
X969774Y526453D01*
X969789Y526501D01*
X969799Y526625D01*
X969817Y526748D01*
X969813Y526798D01*
X969817Y526848D01*
X969799Y526971D01*
X969789Y527095D01*
X969773Y527143D01*
X969766Y527193D01*
X969720Y527308D01*
X969681Y527427D01*
X969655Y527470D01*
X969637Y527517D01*
X969566Y527619D01*
X969502Y527725D01*
X969467Y527762D01*
X969438Y527803D01*
X969346Y527886D01*
X969259Y527975D01*
X969217Y528003D01*
X969179Y528036D01*
X969070Y528096D01*
X968966Y528164D01*
X968918Y528181D01*
X968874Y528205D01*
X968754Y528239D01*
X968637Y528280D01*
X968587Y528286D01*
X968539Y528300D01*
X968295Y528319D01*
X161605Y528319D01*
X161555Y528314D01*
X161505Y528316D01*
X161382Y528294D01*
X161259Y528279D01*
X161211Y528262D01*
X161162Y528253D01*
X161048Y528204D01*
X160931Y528162D01*
X160888Y528135D01*
X160842Y528115D01*
X160742Y528040D01*
X160638Y527973D01*
X160603Y527937D01*
X160562Y527907D01*
X160482Y527812D01*
X160396Y527722D01*
X160370Y527679D01*
X160337Y527641D01*
X160281Y527530D01*
X160217Y527423D01*
X160202Y527375D01*
X160179Y527330D01*
X160149Y527210D01*
X160111Y527091D01*
X160107Y527041D01*
X160094Y526992D01*
X160093Y526868D01*
X160083Y526744D01*
X160090Y526694D01*
X160089Y526644D01*
X160116Y526522D01*
X160134Y526399D01*
X160153Y526352D01*
X160164Y526303D01*
X160217Y526191D01*
X160263Y526075D01*
X160292Y526034D01*
X160313Y525988D01*
X160391Y525891D01*
X160462Y525789D01*
X160499Y525755D01*
X160531Y525716D01*
X160628Y525639D01*
X160721Y525556D01*
X160765Y525531D01*
X160804Y525500D01*
X161022Y525389D01*
X163422Y524395D01*
X168995Y518822D01*
X172011Y511541D01*
X172011Y503659D01*
X168995Y496378D01*
X163422Y490805D01*
X156141Y487789D01*
X148259Y487789D01*
X140978Y490805D01*
X135405Y496378D01*
X132389Y503659D01*
X132389Y511541D01*
X135405Y518822D01*
X140978Y524395D01*
X143378Y525389D01*
X143422Y525413D01*
X143469Y525430D01*
X143574Y525498D01*
X143683Y525558D01*
X143720Y525592D01*
X143762Y525619D01*
X143849Y525709D01*
X143941Y525792D01*
X143969Y525834D01*
X144004Y525870D01*
X144068Y525976D01*
X144139Y526079D01*
X144157Y526126D01*
X144183Y526169D01*
X144221Y526287D01*
X144267Y526403D01*
X144274Y526453D01*
X144289Y526501D01*
X144299Y526625D01*
X144317Y526748D01*
X144313Y526798D01*
X144317Y526848D01*
X144299Y526971D01*
X144289Y527095D01*
X144273Y527143D01*
X144266Y527193D01*
X144220Y527308D01*
X144181Y527427D01*
X144156Y527470D01*
X144137Y527517D01*
X144066Y527619D01*
X144002Y527725D01*
X143967Y527762D01*
X143938Y527803D01*
X143846Y527886D01*
X143759Y527975D01*
X143717Y528003D01*
X143679Y528036D01*
X143570Y528096D01*
X143466Y528164D01*
X143418Y528181D01*
X143374Y528205D01*
X143254Y528239D01*
X143137Y528280D01*
X143087Y528286D01*
X143039Y528300D01*
X142795Y528319D01*
X28068Y528319D01*
X27941Y528305D01*
X27814Y528298D01*
X27768Y528285D01*
X27722Y528279D01*
X27602Y528236D01*
X27479Y528201D01*
X27438Y528178D01*
X27394Y528162D01*
X27286Y528093D01*
X27175Y528030D01*
X27130Y527992D01*
X27101Y527973D01*
X27067Y527938D01*
X26989Y527872D01*
X5525Y506346D01*
X5448Y506247D01*
X5364Y506154D01*
X5340Y506111D01*
X5309Y506072D01*
X5256Y505959D01*
X5195Y505849D01*
X5182Y505802D01*
X5161Y505757D01*
X5134Y505635D01*
X5100Y505514D01*
X5095Y505452D01*
X5088Y505416D01*
X5089Y505368D01*
X5081Y505270D01*
X5081Y28135D01*
X5095Y28010D01*
X5102Y27884D01*
X5115Y27837D01*
X5121Y27789D01*
X5163Y27670D01*
X5198Y27549D01*
X5222Y27507D01*
X5238Y27461D01*
X5307Y27355D01*
X5368Y27245D01*
X5408Y27198D01*
X5427Y27168D01*
X5462Y27135D01*
X5527Y27058D01*
X27058Y5527D01*
X27157Y5448D01*
X27251Y5364D01*
X27294Y5340D01*
X27331Y5310D01*
X27446Y5256D01*
X27556Y5195D01*
X27603Y5182D01*
X27646Y5161D01*
X27770Y5135D01*
X27892Y5100D01*
X27952Y5095D01*
X27987Y5088D01*
X28035Y5089D01*
X28135Y5081D01*
X204364Y5081D01*
X204414Y5086D01*
G37*
%LPC*%
G36*
X252080Y8127D02*
X252080Y8127D01*
X248532Y9597D01*
X245817Y12312D01*
X244347Y15860D01*
X244347Y34940D01*
X245817Y38488D01*
X248532Y41203D01*
X252080Y42673D01*
X255920Y42673D01*
X259468Y41203D01*
X260325Y40346D01*
X260346Y40330D01*
X260363Y40310D01*
X260482Y40222D01*
X260598Y40129D01*
X260622Y40118D01*
X260643Y40103D01*
X260779Y40044D01*
X260913Y39980D01*
X260939Y39975D01*
X260963Y39965D01*
X261109Y39938D01*
X261254Y39907D01*
X261280Y39908D01*
X261306Y39903D01*
X261454Y39911D01*
X261602Y39913D01*
X261628Y39919D01*
X261654Y39921D01*
X261796Y39962D01*
X261940Y39998D01*
X261964Y40010D01*
X261989Y40017D01*
X262118Y40090D01*
X262250Y40158D01*
X262270Y40175D01*
X262293Y40188D01*
X262479Y40346D01*
X365710Y143577D01*
X367390Y144273D01*
X395011Y144273D01*
X395136Y144287D01*
X395262Y144294D01*
X395309Y144307D01*
X395357Y144313D01*
X395476Y144355D01*
X395597Y144390D01*
X395639Y144414D01*
X395685Y144430D01*
X395791Y144499D01*
X395901Y144560D01*
X395948Y144600D01*
X395978Y144619D01*
X396011Y144654D01*
X396088Y144719D01*
X396453Y145084D01*
X398787Y146051D01*
X401313Y146051D01*
X403647Y145084D01*
X405434Y143297D01*
X406401Y140963D01*
X406401Y138437D01*
X405434Y136103D01*
X403504Y134173D01*
X403442Y134095D01*
X403372Y134022D01*
X403334Y133958D01*
X403288Y133900D01*
X403245Y133809D01*
X403193Y133723D01*
X403171Y133652D01*
X403139Y133585D01*
X403118Y133487D01*
X403087Y133391D01*
X403081Y133317D01*
X403065Y133244D01*
X403067Y133144D01*
X403059Y133044D01*
X403070Y132970D01*
X403071Y132896D01*
X403096Y132799D01*
X403111Y132699D01*
X403138Y132630D01*
X403156Y132558D01*
X403202Y132469D01*
X403240Y132375D01*
X403282Y132314D01*
X403316Y132248D01*
X403381Y132172D01*
X403438Y132089D01*
X403494Y132039D01*
X403542Y131983D01*
X403623Y131923D01*
X403697Y131856D01*
X403762Y131820D01*
X403822Y131775D01*
X403914Y131736D01*
X404002Y131687D01*
X404074Y131667D01*
X404142Y131637D01*
X404241Y131620D01*
X404338Y131592D01*
X404438Y131584D01*
X404485Y131576D01*
X404521Y131578D01*
X404581Y131573D01*
X407710Y131573D01*
X407836Y131587D01*
X407962Y131594D01*
X408009Y131607D01*
X408057Y131613D01*
X408176Y131655D01*
X408297Y131690D01*
X408339Y131714D01*
X408385Y131730D01*
X408491Y131799D01*
X408601Y131860D01*
X408648Y131900D01*
X408678Y131919D01*
X408711Y131954D01*
X408788Y132019D01*
X409153Y132384D01*
X411487Y133351D01*
X414013Y133351D01*
X416347Y132384D01*
X418134Y130597D01*
X419101Y128263D01*
X419101Y125737D01*
X418134Y123403D01*
X416204Y121473D01*
X416142Y121395D01*
X416072Y121322D01*
X416034Y121258D01*
X415988Y121200D01*
X415945Y121109D01*
X415893Y121023D01*
X415871Y120952D01*
X415839Y120885D01*
X415818Y120787D01*
X415787Y120691D01*
X415781Y120617D01*
X415765Y120544D01*
X415767Y120444D01*
X415759Y120344D01*
X415770Y120270D01*
X415771Y120196D01*
X415796Y120099D01*
X415811Y119999D01*
X415838Y119930D01*
X415856Y119858D01*
X415902Y119769D01*
X415940Y119675D01*
X415982Y119614D01*
X416016Y119548D01*
X416081Y119472D01*
X416138Y119389D01*
X416194Y119339D01*
X416242Y119283D01*
X416323Y119223D01*
X416397Y119156D01*
X416462Y119120D01*
X416522Y119075D01*
X416614Y119036D01*
X416702Y118987D01*
X416774Y118967D01*
X416842Y118937D01*
X416941Y118920D01*
X417038Y118892D01*
X417138Y118884D01*
X417185Y118876D01*
X417221Y118878D01*
X417281Y118873D01*
X502960Y118873D01*
X503086Y118887D01*
X503212Y118894D01*
X503259Y118907D01*
X503307Y118913D01*
X503426Y118955D01*
X503547Y118990D01*
X503589Y119014D01*
X503635Y119030D01*
X503741Y119099D01*
X503851Y119160D01*
X503898Y119200D01*
X503928Y119219D01*
X503961Y119254D01*
X504038Y119319D01*
X504546Y119827D01*
X504608Y119905D01*
X504678Y119978D01*
X504716Y120042D01*
X504762Y120100D01*
X504805Y120191D01*
X504857Y120277D01*
X504879Y120348D01*
X504911Y120415D01*
X504932Y120513D01*
X504963Y120609D01*
X504969Y120683D01*
X504985Y120756D01*
X504983Y120856D01*
X504991Y120956D01*
X504980Y121030D01*
X504979Y121104D01*
X504954Y121202D01*
X504939Y121301D01*
X504912Y121370D01*
X504894Y121442D01*
X504848Y121531D01*
X504810Y121625D01*
X504768Y121686D01*
X504734Y121752D01*
X504669Y121828D01*
X504612Y121911D01*
X504556Y121961D01*
X504508Y122017D01*
X504427Y122077D01*
X504353Y122144D01*
X504288Y122180D01*
X504228Y122225D01*
X504136Y122264D01*
X504048Y122313D01*
X503976Y122333D01*
X503908Y122363D01*
X503809Y122380D01*
X503712Y122408D01*
X503612Y122416D01*
X503565Y122424D01*
X503529Y122422D01*
X503469Y122427D01*
X456290Y122427D01*
X454610Y123123D01*
X316052Y261681D01*
X315953Y261760D01*
X315859Y261844D01*
X315817Y261868D01*
X315779Y261898D01*
X315665Y261952D01*
X315554Y262013D01*
X315508Y262026D01*
X315464Y262047D01*
X315341Y262073D01*
X315219Y262108D01*
X315158Y262113D01*
X315123Y262120D01*
X315075Y262119D01*
X314975Y262127D01*
X312418Y262127D01*
X312293Y262113D01*
X312166Y262106D01*
X312120Y262093D01*
X312072Y262087D01*
X311953Y262045D01*
X311832Y262010D01*
X311789Y261986D01*
X311744Y261970D01*
X311638Y261901D01*
X311527Y261840D01*
X311481Y261800D01*
X311451Y261781D01*
X311418Y261746D01*
X311341Y261681D01*
X309550Y259890D01*
X306598Y258667D01*
X291402Y258667D01*
X288450Y259890D01*
X286190Y262150D01*
X284967Y265102D01*
X284967Y268298D01*
X286190Y271250D01*
X287167Y272227D01*
X287229Y272305D01*
X287299Y272378D01*
X287337Y272442D01*
X287384Y272500D01*
X287426Y272591D01*
X287478Y272677D01*
X287501Y272748D01*
X287532Y272815D01*
X287554Y272913D01*
X287584Y273009D01*
X287590Y273083D01*
X287606Y273156D01*
X287604Y273256D01*
X287612Y273356D01*
X287601Y273430D01*
X287600Y273504D01*
X287575Y273601D01*
X287560Y273701D01*
X287533Y273770D01*
X287515Y273842D01*
X287469Y273931D01*
X287432Y274025D01*
X287389Y274086D01*
X287355Y274152D01*
X287290Y274228D01*
X287233Y274311D01*
X287178Y274361D01*
X287129Y274417D01*
X287049Y274477D01*
X286974Y274544D01*
X286909Y274580D01*
X286849Y274625D01*
X286757Y274664D01*
X286669Y274713D01*
X286597Y274733D01*
X286529Y274763D01*
X286430Y274780D01*
X286334Y274808D01*
X286234Y274816D01*
X286186Y274824D01*
X286150Y274822D01*
X286090Y274827D01*
X284490Y274827D01*
X282810Y275523D01*
X281309Y277024D01*
X277141Y281192D01*
X277063Y281254D01*
X276990Y281324D01*
X276926Y281363D01*
X276868Y281409D01*
X276777Y281452D01*
X276691Y281503D01*
X276620Y281526D01*
X276553Y281558D01*
X276455Y281579D01*
X276359Y281609D01*
X276285Y281615D01*
X276212Y281631D01*
X276112Y281629D01*
X276012Y281637D01*
X275938Y281626D01*
X275864Y281625D01*
X275767Y281601D01*
X275667Y281586D01*
X275598Y281558D01*
X275526Y281540D01*
X275436Y281494D01*
X275343Y281457D01*
X275282Y281415D01*
X275253Y281399D01*
X261999Y281399D01*
X261999Y287941D01*
X266715Y287941D01*
X266815Y287952D01*
X266915Y287954D01*
X266987Y287972D01*
X267061Y287981D01*
X267156Y288014D01*
X267253Y288039D01*
X267319Y288073D01*
X267389Y288098D01*
X267474Y288153D01*
X267563Y288199D01*
X267620Y288247D01*
X267682Y288287D01*
X267752Y288359D01*
X267828Y288424D01*
X267873Y288484D01*
X267924Y288538D01*
X267976Y288624D01*
X268036Y288705D01*
X268065Y288773D01*
X268103Y288837D01*
X268134Y288933D01*
X268174Y289025D01*
X268187Y289098D01*
X268209Y289169D01*
X268217Y289269D01*
X268235Y289368D01*
X268231Y289442D01*
X268237Y289516D01*
X268222Y289616D01*
X268217Y289716D01*
X268197Y289787D01*
X268186Y289861D01*
X268149Y289954D01*
X268121Y290051D01*
X268084Y290116D01*
X268057Y290185D01*
X268000Y290267D01*
X267951Y290355D01*
X267886Y290431D01*
X267858Y290471D01*
X267831Y290495D01*
X267792Y290541D01*
X262012Y296321D01*
X261913Y296400D01*
X261819Y296484D01*
X261777Y296508D01*
X261739Y296538D01*
X261625Y296592D01*
X261514Y296653D01*
X261468Y296666D01*
X261424Y296687D01*
X261301Y296713D01*
X261179Y296748D01*
X261118Y296753D01*
X261083Y296760D01*
X261035Y296759D01*
X260935Y296767D01*
X252402Y296767D01*
X249450Y297990D01*
X247190Y300250D01*
X245967Y303202D01*
X245967Y306398D01*
X247190Y309350D01*
X249450Y311610D01*
X252402Y312833D01*
X267598Y312833D01*
X270550Y311610D01*
X272810Y309350D01*
X274033Y306398D01*
X274033Y303202D01*
X272761Y300131D01*
X272747Y300113D01*
X272688Y299976D01*
X272625Y299842D01*
X272619Y299817D01*
X272609Y299793D01*
X272583Y299646D01*
X272552Y299502D01*
X272552Y299476D01*
X272547Y299450D01*
X272555Y299301D01*
X272558Y299153D01*
X272564Y299128D01*
X272565Y299102D01*
X272606Y298959D01*
X272643Y298815D01*
X272655Y298792D01*
X272662Y298767D01*
X272734Y298637D01*
X272802Y298505D01*
X272819Y298485D01*
X272832Y298463D01*
X272991Y298276D01*
X282524Y288743D01*
X282563Y288712D01*
X282597Y288674D01*
X282700Y288603D01*
X282797Y288526D01*
X282843Y288505D01*
X282884Y288476D01*
X283000Y288430D01*
X283112Y288377D01*
X283161Y288367D01*
X283208Y288348D01*
X283332Y288330D01*
X283453Y288304D01*
X283503Y288305D01*
X283553Y288297D01*
X283677Y288308D01*
X283801Y288310D01*
X283850Y288322D01*
X283900Y288326D01*
X284019Y288364D01*
X284139Y288395D01*
X284184Y288418D01*
X284232Y288433D01*
X284338Y288497D01*
X284449Y288554D01*
X284487Y288587D01*
X284531Y288613D01*
X284620Y288700D01*
X284715Y288780D01*
X284744Y288821D01*
X284781Y288856D01*
X284848Y288961D01*
X284922Y289061D01*
X284942Y289107D01*
X284969Y289149D01*
X285010Y289267D01*
X285060Y289381D01*
X285069Y289430D01*
X285085Y289478D01*
X285099Y289601D01*
X285121Y289724D01*
X285119Y289774D01*
X285124Y289824D01*
X285110Y289948D01*
X285103Y290072D01*
X285089Y290120D01*
X285084Y290170D01*
X285008Y290403D01*
X284967Y290502D01*
X284967Y293698D01*
X286190Y296650D01*
X288450Y298910D01*
X291402Y300133D01*
X306598Y300133D01*
X309550Y298910D01*
X311341Y297119D01*
X311440Y297040D01*
X311534Y296956D01*
X311576Y296932D01*
X311614Y296902D01*
X311728Y296848D01*
X311839Y296787D01*
X311886Y296774D01*
X311929Y296753D01*
X312053Y296727D01*
X312174Y296692D01*
X312235Y296687D01*
X312270Y296680D01*
X312318Y296681D01*
X312418Y296673D01*
X324760Y296673D01*
X326440Y295977D01*
X471348Y151069D01*
X471447Y150990D01*
X471541Y150906D01*
X471583Y150882D01*
X471621Y150852D01*
X471735Y150798D01*
X471846Y150737D01*
X471892Y150724D01*
X471936Y150703D01*
X472059Y150677D01*
X472181Y150642D01*
X472242Y150637D01*
X472277Y150630D01*
X472325Y150631D01*
X472425Y150623D01*
X547010Y150623D01*
X548690Y149927D01*
X638877Y59740D01*
X639573Y58060D01*
X639573Y42592D01*
X639581Y42516D01*
X639580Y42439D01*
X639601Y42343D01*
X639613Y42246D01*
X639638Y42174D01*
X639655Y42099D01*
X639697Y42010D01*
X639730Y41917D01*
X639772Y41853D01*
X639804Y41784D01*
X639866Y41707D01*
X639919Y41625D01*
X639974Y41572D01*
X640022Y41512D01*
X640099Y41451D01*
X640170Y41382D01*
X640235Y41343D01*
X640295Y41296D01*
X640428Y41228D01*
X640465Y41206D01*
X643183Y38488D01*
X644653Y34940D01*
X644653Y15860D01*
X643183Y12312D01*
X640468Y9597D01*
X636920Y8127D01*
X633080Y8127D01*
X629532Y9597D01*
X626817Y12312D01*
X625347Y15860D01*
X625347Y34940D01*
X626817Y38488D01*
X629547Y41218D01*
X629554Y41222D01*
X629625Y41250D01*
X629705Y41306D01*
X629792Y41354D01*
X629848Y41405D01*
X629911Y41449D01*
X629977Y41522D01*
X630050Y41588D01*
X630093Y41651D01*
X630144Y41708D01*
X630192Y41794D01*
X630248Y41875D01*
X630276Y41946D01*
X630313Y42013D01*
X630340Y42107D01*
X630376Y42199D01*
X630387Y42274D01*
X630408Y42348D01*
X630420Y42497D01*
X630427Y42544D01*
X630425Y42563D01*
X630427Y42592D01*
X630427Y54625D01*
X630413Y54751D01*
X630406Y54877D01*
X630393Y54923D01*
X630387Y54971D01*
X630345Y55090D01*
X630310Y55212D01*
X630286Y55254D01*
X630270Y55299D01*
X630201Y55406D01*
X630140Y55516D01*
X630100Y55562D01*
X630081Y55592D01*
X630046Y55626D01*
X629981Y55702D01*
X544652Y141031D01*
X544553Y141110D01*
X544459Y141194D01*
X544417Y141218D01*
X544379Y141248D01*
X544265Y141302D01*
X544154Y141363D01*
X544108Y141376D01*
X544064Y141397D01*
X543941Y141423D01*
X543819Y141458D01*
X543758Y141463D01*
X543723Y141470D01*
X543675Y141469D01*
X543575Y141477D01*
X541767Y141477D01*
X541667Y141466D01*
X541567Y141464D01*
X541495Y141446D01*
X541421Y141437D01*
X541326Y141404D01*
X541229Y141379D01*
X541163Y141345D01*
X541093Y141320D01*
X541008Y141265D01*
X540919Y141219D01*
X540862Y141171D01*
X540800Y141131D01*
X540730Y141059D01*
X540654Y140994D01*
X540609Y140934D01*
X540558Y140880D01*
X540506Y140794D01*
X540446Y140713D01*
X540417Y140645D01*
X540379Y140581D01*
X540348Y140485D01*
X540308Y140393D01*
X540295Y140320D01*
X540273Y140249D01*
X540265Y140149D01*
X540247Y140050D01*
X540251Y139976D01*
X540245Y139902D01*
X540260Y139802D01*
X540265Y139702D01*
X540285Y139631D01*
X540296Y139557D01*
X540333Y139464D01*
X540361Y139367D01*
X540398Y139302D01*
X540425Y139233D01*
X540482Y139151D01*
X540531Y139063D01*
X540597Y138987D01*
X540624Y138947D01*
X540650Y138923D01*
X540690Y138877D01*
X611976Y67591D01*
X613477Y66090D01*
X614173Y64410D01*
X614173Y42592D01*
X614181Y42516D01*
X614180Y42439D01*
X614201Y42343D01*
X614213Y42246D01*
X614238Y42174D01*
X614255Y42099D01*
X614297Y42010D01*
X614330Y41917D01*
X614372Y41853D01*
X614404Y41784D01*
X614466Y41707D01*
X614519Y41625D01*
X614574Y41572D01*
X614622Y41512D01*
X614699Y41451D01*
X614770Y41382D01*
X614835Y41343D01*
X614895Y41296D01*
X615028Y41228D01*
X615065Y41206D01*
X617783Y38488D01*
X619253Y34940D01*
X619253Y15860D01*
X617783Y12312D01*
X615068Y9597D01*
X611520Y8127D01*
X607680Y8127D01*
X604132Y9597D01*
X601417Y12312D01*
X599947Y15860D01*
X599947Y34940D01*
X601417Y38488D01*
X604147Y41218D01*
X604154Y41222D01*
X604225Y41250D01*
X604305Y41306D01*
X604392Y41354D01*
X604448Y41405D01*
X604511Y41449D01*
X604577Y41522D01*
X604650Y41588D01*
X604693Y41651D01*
X604744Y41708D01*
X604792Y41794D01*
X604848Y41875D01*
X604876Y41946D01*
X604913Y42013D01*
X604940Y42107D01*
X604976Y42199D01*
X604987Y42274D01*
X605008Y42348D01*
X605020Y42497D01*
X605027Y42544D01*
X605025Y42563D01*
X605027Y42592D01*
X605027Y60975D01*
X605013Y61101D01*
X605006Y61227D01*
X604993Y61273D01*
X604987Y61321D01*
X604945Y61440D01*
X604910Y61562D01*
X604886Y61604D01*
X604870Y61649D01*
X604801Y61756D01*
X604740Y61866D01*
X604700Y61912D01*
X604681Y61942D01*
X604646Y61976D01*
X604581Y62052D01*
X535127Y131506D01*
X535028Y131585D01*
X534934Y131669D01*
X534892Y131693D01*
X534854Y131723D01*
X534740Y131777D01*
X534629Y131838D01*
X534583Y131851D01*
X534539Y131872D01*
X534416Y131898D01*
X534294Y131933D01*
X534233Y131938D01*
X534198Y131945D01*
X534150Y131944D01*
X534050Y131952D01*
X532242Y131952D01*
X532142Y131941D01*
X532042Y131939D01*
X531970Y131921D01*
X531896Y131912D01*
X531801Y131879D01*
X531704Y131854D01*
X531638Y131820D01*
X531568Y131795D01*
X531483Y131740D01*
X531394Y131694D01*
X531337Y131646D01*
X531275Y131606D01*
X531205Y131534D01*
X531129Y131469D01*
X531084Y131409D01*
X531033Y131355D01*
X530981Y131269D01*
X530921Y131188D01*
X530892Y131120D01*
X530854Y131056D01*
X530823Y130960D01*
X530783Y130868D01*
X530770Y130795D01*
X530748Y130724D01*
X530740Y130624D01*
X530722Y130525D01*
X530726Y130451D01*
X530720Y130377D01*
X530735Y130277D01*
X530740Y130177D01*
X530760Y130106D01*
X530771Y130032D01*
X530808Y129939D01*
X530836Y129842D01*
X530873Y129777D01*
X530900Y129708D01*
X530957Y129626D01*
X531006Y129538D01*
X531072Y129462D01*
X531099Y129422D01*
X531125Y129398D01*
X531165Y129352D01*
X588077Y72440D01*
X588773Y70760D01*
X588773Y42592D01*
X588781Y42516D01*
X588780Y42439D01*
X588801Y42343D01*
X588813Y42246D01*
X588838Y42174D01*
X588855Y42099D01*
X588897Y42010D01*
X588930Y41917D01*
X588972Y41853D01*
X589004Y41784D01*
X589066Y41707D01*
X589119Y41625D01*
X589174Y41572D01*
X589222Y41512D01*
X589299Y41451D01*
X589370Y41382D01*
X589435Y41343D01*
X589495Y41296D01*
X589628Y41228D01*
X589665Y41206D01*
X592383Y38488D01*
X593853Y34940D01*
X593853Y15860D01*
X592383Y12312D01*
X589668Y9597D01*
X586120Y8127D01*
X582280Y8127D01*
X578732Y9597D01*
X576017Y12312D01*
X574547Y15860D01*
X574547Y34940D01*
X576017Y38488D01*
X578747Y41218D01*
X578754Y41222D01*
X578825Y41250D01*
X578905Y41306D01*
X578992Y41354D01*
X579048Y41405D01*
X579111Y41449D01*
X579177Y41522D01*
X579250Y41588D01*
X579293Y41651D01*
X579344Y41708D01*
X579392Y41794D01*
X579448Y41875D01*
X579476Y41946D01*
X579513Y42013D01*
X579540Y42107D01*
X579576Y42199D01*
X579587Y42274D01*
X579608Y42348D01*
X579620Y42497D01*
X579627Y42544D01*
X579625Y42563D01*
X579627Y42592D01*
X579627Y67325D01*
X579613Y67451D01*
X579606Y67577D01*
X579593Y67623D01*
X579587Y67671D01*
X579545Y67790D01*
X579510Y67912D01*
X579486Y67954D01*
X579470Y67999D01*
X579401Y68106D01*
X579340Y68216D01*
X579300Y68262D01*
X579281Y68292D01*
X579246Y68326D01*
X579181Y68402D01*
X525602Y121981D01*
X525503Y122060D01*
X525409Y122144D01*
X525367Y122168D01*
X525329Y122198D01*
X525215Y122252D01*
X525104Y122313D01*
X525058Y122326D01*
X525014Y122347D01*
X524891Y122373D01*
X524769Y122408D01*
X524708Y122413D01*
X524673Y122420D01*
X524625Y122419D01*
X524525Y122427D01*
X512531Y122427D01*
X512432Y122416D01*
X512331Y122414D01*
X512259Y122396D01*
X512185Y122387D01*
X512091Y122354D01*
X511993Y122329D01*
X511927Y122295D01*
X511857Y122270D01*
X511773Y122215D01*
X511683Y122169D01*
X511627Y122121D01*
X511564Y122081D01*
X511494Y122009D01*
X511418Y121944D01*
X511374Y121884D01*
X511322Y121830D01*
X511270Y121744D01*
X511211Y121663D01*
X511181Y121595D01*
X511143Y121531D01*
X511113Y121435D01*
X511073Y121343D01*
X511060Y121270D01*
X511037Y121199D01*
X511029Y121099D01*
X511011Y121000D01*
X511015Y120926D01*
X511009Y120852D01*
X511024Y120752D01*
X511029Y120652D01*
X511050Y120581D01*
X511061Y120507D01*
X511098Y120414D01*
X511126Y120317D01*
X511162Y120252D01*
X511190Y120183D01*
X511247Y120101D01*
X511296Y120013D01*
X511361Y119937D01*
X511388Y119897D01*
X511415Y119873D01*
X511454Y119827D01*
X513384Y117897D01*
X514351Y115563D01*
X514351Y113037D01*
X513300Y110501D01*
X513287Y110453D01*
X513265Y110407D01*
X513239Y110286D01*
X513205Y110166D01*
X513202Y110116D01*
X513192Y110066D01*
X513194Y109942D01*
X513188Y109818D01*
X513197Y109768D01*
X513198Y109718D01*
X513228Y109597D01*
X513250Y109475D01*
X513270Y109429D01*
X513283Y109380D01*
X513340Y109269D01*
X513389Y109155D01*
X513419Y109115D01*
X513442Y109070D01*
X513523Y108975D01*
X513597Y108876D01*
X513636Y108843D01*
X513668Y108805D01*
X513768Y108731D01*
X513863Y108651D01*
X513908Y108628D01*
X513948Y108598D01*
X514063Y108548D01*
X514173Y108492D01*
X514222Y108480D01*
X514268Y108460D01*
X514391Y108438D01*
X514512Y108408D01*
X514562Y108407D01*
X514611Y108398D01*
X514736Y108404D01*
X514860Y108403D01*
X514909Y108413D01*
X514960Y108416D01*
X515079Y108450D01*
X515201Y108477D01*
X515246Y108498D01*
X515294Y108512D01*
X515403Y108573D01*
X515515Y108627D01*
X515555Y108658D01*
X515599Y108683D01*
X515785Y108841D01*
X517103Y110159D01*
X519437Y111126D01*
X521963Y111126D01*
X524297Y110159D01*
X526084Y108372D01*
X527051Y106038D01*
X527051Y103512D01*
X526002Y100979D01*
X525997Y100977D01*
X525885Y100923D01*
X525845Y100892D01*
X525801Y100867D01*
X525615Y100709D01*
X524297Y99391D01*
X521963Y98424D01*
X521447Y98424D01*
X521321Y98410D01*
X521195Y98403D01*
X521149Y98390D01*
X521101Y98384D01*
X520982Y98342D01*
X520860Y98307D01*
X520818Y98283D01*
X520773Y98267D01*
X520666Y98198D01*
X520556Y98137D01*
X520510Y98097D01*
X520480Y98078D01*
X520446Y98043D01*
X520370Y97978D01*
X520115Y97723D01*
X518435Y97027D01*
X396225Y97027D01*
X396099Y97013D01*
X395973Y97006D01*
X395927Y96993D01*
X395879Y96987D01*
X395760Y96945D01*
X395638Y96910D01*
X395596Y96886D01*
X395551Y96870D01*
X395444Y96801D01*
X395334Y96740D01*
X395288Y96700D01*
X395258Y96681D01*
X395224Y96646D01*
X395148Y96581D01*
X338714Y40147D01*
X338666Y40087D01*
X338611Y40034D01*
X338558Y39951D01*
X338497Y39874D01*
X338465Y39805D01*
X338423Y39741D01*
X338390Y39648D01*
X338348Y39559D01*
X338332Y39484D01*
X338307Y39412D01*
X338296Y39314D01*
X338275Y39218D01*
X338276Y39142D01*
X338268Y39066D01*
X338279Y38968D01*
X338281Y38870D01*
X338299Y38796D01*
X338308Y38720D01*
X338354Y38577D01*
X338366Y38532D01*
X338375Y38515D01*
X338384Y38487D01*
X339853Y34940D01*
X339853Y15860D01*
X338383Y12312D01*
X335668Y9597D01*
X332120Y8127D01*
X328280Y8127D01*
X324732Y9597D01*
X322017Y12312D01*
X320547Y15860D01*
X320547Y34940D01*
X322017Y38488D01*
X324732Y41203D01*
X328044Y42575D01*
X328046Y42576D01*
X328048Y42577D01*
X328199Y42661D01*
X328349Y42744D01*
X328350Y42746D01*
X328352Y42747D01*
X328539Y42905D01*
X391110Y105477D01*
X392790Y106173D01*
X503469Y106173D01*
X503568Y106184D01*
X503669Y106186D01*
X503741Y106204D01*
X503815Y106213D01*
X503909Y106246D01*
X504007Y106271D01*
X504073Y106305D01*
X504143Y106330D01*
X504227Y106385D01*
X504317Y106431D01*
X504373Y106479D01*
X504436Y106519D01*
X504505Y106591D01*
X504582Y106656D01*
X504626Y106716D01*
X504678Y106770D01*
X504729Y106856D01*
X504789Y106937D01*
X504819Y107005D01*
X504857Y107069D01*
X504887Y107164D01*
X504927Y107257D01*
X504940Y107330D01*
X504963Y107401D01*
X504971Y107501D01*
X504989Y107600D01*
X504985Y107674D01*
X504991Y107748D01*
X504976Y107847D01*
X504971Y107948D01*
X504950Y108019D01*
X504939Y108093D01*
X504902Y108186D01*
X504874Y108283D01*
X504838Y108348D01*
X504810Y108417D01*
X504753Y108499D01*
X504704Y108587D01*
X504639Y108663D01*
X504612Y108703D01*
X504585Y108727D01*
X504546Y108773D01*
X504038Y109281D01*
X503939Y109360D01*
X503845Y109444D01*
X503802Y109468D01*
X503765Y109498D01*
X503650Y109552D01*
X503540Y109613D01*
X503493Y109626D01*
X503449Y109647D01*
X503326Y109673D01*
X503204Y109708D01*
X503144Y109713D01*
X503109Y109720D01*
X503060Y109719D01*
X502960Y109727D01*
X383525Y109727D01*
X383399Y109713D01*
X383273Y109706D01*
X383227Y109693D01*
X383179Y109687D01*
X383060Y109645D01*
X382938Y109610D01*
X382896Y109586D01*
X382851Y109570D01*
X382744Y109501D01*
X382634Y109440D01*
X382588Y109400D01*
X382558Y109381D01*
X382524Y109346D01*
X382448Y109281D01*
X313314Y40147D01*
X313266Y40087D01*
X313211Y40034D01*
X313158Y39951D01*
X313097Y39874D01*
X313065Y39805D01*
X313023Y39741D01*
X312990Y39648D01*
X312948Y39559D01*
X312932Y39484D01*
X312907Y39412D01*
X312896Y39314D01*
X312875Y39218D01*
X312876Y39142D01*
X312868Y39066D01*
X312879Y38968D01*
X312881Y38870D01*
X312899Y38796D01*
X312908Y38720D01*
X312954Y38577D01*
X312966Y38532D01*
X312975Y38515D01*
X312984Y38487D01*
X314453Y34940D01*
X314453Y15860D01*
X312983Y12312D01*
X310268Y9597D01*
X306720Y8127D01*
X302880Y8127D01*
X299332Y9597D01*
X296617Y12312D01*
X295147Y15860D01*
X295147Y34940D01*
X296617Y38488D01*
X299332Y41203D01*
X302644Y42575D01*
X302646Y42576D01*
X302648Y42577D01*
X302799Y42661D01*
X302949Y42744D01*
X302950Y42746D01*
X302952Y42747D01*
X303139Y42905D01*
X378410Y118177D01*
X380090Y118873D01*
X408219Y118873D01*
X408318Y118884D01*
X408419Y118886D01*
X408491Y118904D01*
X408565Y118913D01*
X408659Y118946D01*
X408757Y118971D01*
X408823Y119005D01*
X408893Y119030D01*
X408977Y119085D01*
X409067Y119131D01*
X409123Y119179D01*
X409186Y119219D01*
X409255Y119291D01*
X409332Y119356D01*
X409376Y119416D01*
X409428Y119470D01*
X409479Y119556D01*
X409539Y119637D01*
X409569Y119705D01*
X409607Y119769D01*
X409637Y119864D01*
X409677Y119957D01*
X409690Y120030D01*
X409713Y120101D01*
X409721Y120201D01*
X409739Y120300D01*
X409735Y120374D01*
X409741Y120448D01*
X409726Y120547D01*
X409721Y120648D01*
X409700Y120719D01*
X409689Y120793D01*
X409652Y120886D01*
X409624Y120983D01*
X409588Y121048D01*
X409560Y121117D01*
X409503Y121199D01*
X409454Y121287D01*
X409389Y121363D01*
X409362Y121403D01*
X409335Y121427D01*
X409296Y121473D01*
X408788Y121981D01*
X408689Y122060D01*
X408595Y122144D01*
X408552Y122168D01*
X408515Y122198D01*
X408400Y122252D01*
X408290Y122313D01*
X408243Y122326D01*
X408199Y122347D01*
X408076Y122373D01*
X407954Y122408D01*
X407894Y122413D01*
X407859Y122420D01*
X407810Y122419D01*
X407710Y122427D01*
X370825Y122427D01*
X370699Y122413D01*
X370573Y122406D01*
X370527Y122393D01*
X370479Y122387D01*
X370360Y122345D01*
X370238Y122310D01*
X370196Y122286D01*
X370151Y122270D01*
X370044Y122201D01*
X369934Y122140D01*
X369888Y122100D01*
X369858Y122081D01*
X369824Y122046D01*
X369748Y121981D01*
X287914Y40147D01*
X287866Y40087D01*
X287811Y40034D01*
X287758Y39951D01*
X287697Y39874D01*
X287665Y39805D01*
X287623Y39741D01*
X287590Y39648D01*
X287548Y39559D01*
X287532Y39484D01*
X287507Y39412D01*
X287496Y39314D01*
X287475Y39218D01*
X287476Y39142D01*
X287468Y39066D01*
X287479Y38968D01*
X287481Y38870D01*
X287499Y38796D01*
X287508Y38720D01*
X287554Y38577D01*
X287566Y38532D01*
X287575Y38515D01*
X287584Y38487D01*
X289053Y34940D01*
X289053Y15860D01*
X287583Y12312D01*
X284868Y9597D01*
X281320Y8127D01*
X277480Y8127D01*
X273932Y9597D01*
X271217Y12312D01*
X269747Y15860D01*
X269747Y31003D01*
X269746Y31018D01*
X269746Y31028D01*
X269738Y31086D01*
X269736Y31103D01*
X269734Y31203D01*
X269716Y31275D01*
X269707Y31349D01*
X269674Y31444D01*
X269649Y31541D01*
X269615Y31607D01*
X269590Y31677D01*
X269535Y31762D01*
X269489Y31851D01*
X269441Y31908D01*
X269401Y31970D01*
X269329Y32040D01*
X269264Y32116D01*
X269204Y32161D01*
X269150Y32212D01*
X269064Y32264D01*
X268983Y32324D01*
X268915Y32353D01*
X268851Y32391D01*
X268755Y32422D01*
X268663Y32462D01*
X268590Y32475D01*
X268519Y32497D01*
X268419Y32505D01*
X268320Y32523D01*
X268246Y32519D01*
X268172Y32525D01*
X268072Y32510D01*
X267972Y32505D01*
X267901Y32485D01*
X267827Y32474D01*
X267734Y32437D01*
X267637Y32409D01*
X267572Y32372D01*
X267503Y32345D01*
X267421Y32288D01*
X267333Y32239D01*
X267257Y32173D01*
X267217Y32146D01*
X267193Y32120D01*
X267147Y32080D01*
X264099Y29032D01*
X264020Y28933D01*
X263936Y28839D01*
X263912Y28797D01*
X263882Y28759D01*
X263828Y28645D01*
X263767Y28534D01*
X263754Y28488D01*
X263733Y28444D01*
X263707Y28321D01*
X263672Y28199D01*
X263667Y28138D01*
X263660Y28103D01*
X263661Y28055D01*
X263653Y27955D01*
X263653Y15860D01*
X262183Y12312D01*
X259468Y9597D01*
X255920Y8127D01*
X252080Y8127D01*
G37*
%LPD*%
%LPC*%
G36*
X48526Y165099D02*
X48526Y165099D01*
X44325Y166840D01*
X41110Y170055D01*
X39278Y174476D01*
X39258Y174512D01*
X39245Y174550D01*
X39174Y174664D01*
X39109Y174781D01*
X39082Y174811D01*
X39060Y174845D01*
X38965Y174940D01*
X38875Y175039D01*
X38841Y175062D01*
X38812Y175091D01*
X38698Y175161D01*
X38588Y175237D01*
X38550Y175252D01*
X38516Y175273D01*
X38388Y175316D01*
X38264Y175365D01*
X38224Y175371D01*
X38185Y175384D01*
X38052Y175396D01*
X37919Y175416D01*
X37879Y175412D01*
X37838Y175416D01*
X37705Y175398D01*
X37572Y175387D01*
X37533Y175374D01*
X37493Y175369D01*
X37368Y175321D01*
X37240Y175280D01*
X37205Y175259D01*
X37167Y175244D01*
X37056Y175169D01*
X36942Y175100D01*
X36912Y175072D01*
X36879Y175049D01*
X36788Y174951D01*
X36692Y174857D01*
X36670Y174823D01*
X36642Y174793D01*
X36514Y174585D01*
X35611Y172813D01*
X34506Y171292D01*
X33178Y169964D01*
X31657Y168859D01*
X29983Y168006D01*
X28196Y167425D01*
X27939Y167385D01*
X27939Y178054D01*
X27936Y178080D01*
X27938Y178106D01*
X27916Y178253D01*
X27899Y178400D01*
X27891Y178425D01*
X27887Y178451D01*
X27832Y178588D01*
X27782Y178728D01*
X27768Y178750D01*
X27758Y178775D01*
X27673Y178896D01*
X27593Y179021D01*
X27574Y179039D01*
X27559Y179061D01*
X27543Y179075D01*
X27625Y179160D01*
X27639Y179183D01*
X27656Y179202D01*
X27728Y179332D01*
X27804Y179459D01*
X27812Y179484D01*
X27825Y179507D01*
X27865Y179650D01*
X27910Y179791D01*
X27912Y179817D01*
X27920Y179842D01*
X27939Y180086D01*
X27939Y203454D01*
X27936Y203480D01*
X27938Y203506D01*
X27916Y203653D01*
X27899Y203800D01*
X27891Y203825D01*
X27887Y203851D01*
X27832Y203988D01*
X27782Y204128D01*
X27768Y204150D01*
X27758Y204175D01*
X27673Y204296D01*
X27593Y204421D01*
X27574Y204439D01*
X27559Y204461D01*
X27543Y204475D01*
X27625Y204560D01*
X27639Y204583D01*
X27656Y204602D01*
X27728Y204732D01*
X27804Y204859D01*
X27812Y204884D01*
X27825Y204907D01*
X27865Y205050D01*
X27910Y205191D01*
X27912Y205217D01*
X27920Y205242D01*
X27939Y205486D01*
X27939Y228854D01*
X27936Y228880D01*
X27938Y228906D01*
X27916Y229053D01*
X27899Y229200D01*
X27891Y229225D01*
X27887Y229251D01*
X27832Y229388D01*
X27782Y229528D01*
X27768Y229550D01*
X27758Y229575D01*
X27673Y229696D01*
X27593Y229821D01*
X27574Y229839D01*
X27559Y229861D01*
X27543Y229875D01*
X27625Y229960D01*
X27639Y229983D01*
X27656Y230002D01*
X27728Y230132D01*
X27804Y230259D01*
X27812Y230284D01*
X27825Y230307D01*
X27865Y230450D01*
X27910Y230591D01*
X27912Y230617D01*
X27920Y230642D01*
X27939Y230886D01*
X27939Y254254D01*
X27936Y254280D01*
X27938Y254306D01*
X27916Y254453D01*
X27899Y254600D01*
X27891Y254625D01*
X27887Y254651D01*
X27832Y254788D01*
X27782Y254928D01*
X27768Y254950D01*
X27758Y254975D01*
X27673Y255096D01*
X27593Y255221D01*
X27574Y255239D01*
X27559Y255261D01*
X27543Y255275D01*
X27625Y255360D01*
X27639Y255383D01*
X27656Y255402D01*
X27728Y255532D01*
X27804Y255659D01*
X27812Y255684D01*
X27825Y255707D01*
X27865Y255850D01*
X27910Y255991D01*
X27912Y256017D01*
X27920Y256042D01*
X27939Y256286D01*
X27939Y279654D01*
X27936Y279680D01*
X27938Y279706D01*
X27916Y279853D01*
X27899Y280000D01*
X27891Y280025D01*
X27887Y280051D01*
X27832Y280188D01*
X27782Y280328D01*
X27768Y280350D01*
X27758Y280375D01*
X27673Y280496D01*
X27593Y280621D01*
X27574Y280639D01*
X27559Y280661D01*
X27543Y280675D01*
X27625Y280760D01*
X27639Y280783D01*
X27656Y280802D01*
X27728Y280932D01*
X27804Y281059D01*
X27812Y281084D01*
X27825Y281107D01*
X27865Y281250D01*
X27910Y281391D01*
X27912Y281417D01*
X27920Y281442D01*
X27939Y281686D01*
X27939Y305054D01*
X27936Y305080D01*
X27938Y305106D01*
X27916Y305252D01*
X27899Y305400D01*
X27891Y305425D01*
X27887Y305451D01*
X27832Y305588D01*
X27782Y305728D01*
X27768Y305750D01*
X27758Y305775D01*
X27673Y305896D01*
X27593Y306021D01*
X27574Y306039D01*
X27559Y306061D01*
X27543Y306075D01*
X27625Y306160D01*
X27639Y306183D01*
X27656Y306202D01*
X27728Y306332D01*
X27804Y306459D01*
X27812Y306484D01*
X27825Y306507D01*
X27865Y306650D01*
X27910Y306791D01*
X27912Y306817D01*
X27920Y306842D01*
X27939Y307086D01*
X27939Y330454D01*
X27936Y330480D01*
X27938Y330506D01*
X27916Y330653D01*
X27899Y330800D01*
X27891Y330825D01*
X27887Y330851D01*
X27832Y330988D01*
X27782Y331128D01*
X27768Y331150D01*
X27758Y331175D01*
X27673Y331296D01*
X27593Y331421D01*
X27574Y331439D01*
X27559Y331461D01*
X27543Y331475D01*
X27625Y331560D01*
X27639Y331583D01*
X27656Y331602D01*
X27728Y331732D01*
X27804Y331859D01*
X27812Y331884D01*
X27825Y331907D01*
X27865Y332050D01*
X27910Y332191D01*
X27912Y332217D01*
X27920Y332242D01*
X27939Y332486D01*
X27939Y355854D01*
X27936Y355880D01*
X27938Y355906D01*
X27916Y356053D01*
X27899Y356200D01*
X27891Y356225D01*
X27887Y356251D01*
X27832Y356388D01*
X27782Y356528D01*
X27768Y356550D01*
X27758Y356575D01*
X27673Y356696D01*
X27593Y356821D01*
X27574Y356839D01*
X27559Y356861D01*
X27543Y356875D01*
X27625Y356960D01*
X27639Y356983D01*
X27656Y357002D01*
X27728Y357132D01*
X27804Y357259D01*
X27812Y357284D01*
X27825Y357307D01*
X27865Y357450D01*
X27910Y357591D01*
X27912Y357617D01*
X27920Y357642D01*
X27939Y357886D01*
X27939Y381254D01*
X27936Y381280D01*
X27938Y381306D01*
X27916Y381453D01*
X27899Y381600D01*
X27891Y381625D01*
X27887Y381651D01*
X27832Y381788D01*
X27782Y381928D01*
X27768Y381950D01*
X27758Y381975D01*
X27673Y382096D01*
X27593Y382221D01*
X27574Y382239D01*
X27559Y382261D01*
X27543Y382275D01*
X27625Y382360D01*
X27639Y382383D01*
X27656Y382402D01*
X27728Y382532D01*
X27804Y382659D01*
X27812Y382684D01*
X27825Y382707D01*
X27865Y382850D01*
X27910Y382991D01*
X27912Y383017D01*
X27920Y383042D01*
X27939Y383286D01*
X27939Y393955D01*
X28196Y393915D01*
X29983Y393334D01*
X31657Y392481D01*
X33178Y391376D01*
X34506Y390048D01*
X35611Y388527D01*
X36464Y386853D01*
X37045Y385066D01*
X37194Y384126D01*
X37215Y384048D01*
X37227Y383973D01*
X37235Y383951D01*
X37241Y383921D01*
X37269Y383857D01*
X37287Y383790D01*
X37332Y383709D01*
X37355Y383649D01*
X37364Y383636D01*
X37380Y383601D01*
X37421Y383545D01*
X37455Y383484D01*
X37524Y383407D01*
X37554Y383363D01*
X37561Y383357D01*
X37588Y383321D01*
X37641Y383276D01*
X37687Y383225D01*
X37773Y383164D01*
X37796Y383145D01*
X37813Y383130D01*
X37816Y383128D01*
X37854Y383096D01*
X37915Y383065D01*
X37972Y383025D01*
X38070Y382985D01*
X38164Y382937D01*
X38231Y382921D01*
X38296Y382895D01*
X38400Y382879D01*
X38502Y382853D01*
X38572Y382852D01*
X38640Y382842D01*
X38745Y382850D01*
X38850Y382848D01*
X38919Y382863D01*
X38988Y382868D01*
X39044Y382886D01*
X39047Y382887D01*
X39059Y382891D01*
X39088Y382900D01*
X39191Y382923D01*
X39254Y382952D01*
X39320Y382973D01*
X39367Y383001D01*
X39375Y383004D01*
X39410Y383027D01*
X39411Y383027D01*
X39506Y383072D01*
X39560Y383116D01*
X39620Y383151D01*
X39655Y383185D01*
X39668Y383193D01*
X39704Y383230D01*
X39778Y383290D01*
X39821Y383344D01*
X39871Y383392D01*
X39894Y383427D01*
X39910Y383444D01*
X39942Y383497D01*
X39994Y383563D01*
X40036Y383646D01*
X40062Y383685D01*
X40073Y383717D01*
X40089Y383743D01*
X40094Y383758D01*
X40105Y383781D01*
X41110Y386205D01*
X44325Y389420D01*
X48526Y391161D01*
X53074Y391161D01*
X57275Y389420D01*
X60490Y386205D01*
X61839Y382950D01*
X61863Y382906D01*
X61880Y382859D01*
X61948Y382754D01*
X62008Y382645D01*
X62042Y382608D01*
X62069Y382566D01*
X62159Y382479D01*
X62242Y382387D01*
X62284Y382359D01*
X62320Y382324D01*
X62427Y382260D01*
X62529Y382189D01*
X62576Y382171D01*
X62619Y382145D01*
X62737Y382107D01*
X62853Y382061D01*
X62903Y382054D01*
X62951Y382039D01*
X63075Y382029D01*
X63198Y382011D01*
X63248Y382015D01*
X63298Y382011D01*
X63421Y382029D01*
X63545Y382039D01*
X63593Y382055D01*
X63643Y382062D01*
X63758Y382108D01*
X63877Y382147D01*
X63920Y382173D01*
X63967Y382191D01*
X64069Y382262D01*
X64175Y382326D01*
X64212Y382361D01*
X64253Y382390D01*
X64336Y382482D01*
X64425Y382569D01*
X64453Y382611D01*
X64486Y382649D01*
X64546Y382758D01*
X64614Y382862D01*
X64631Y382910D01*
X64655Y382954D01*
X64689Y383074D01*
X64730Y383191D01*
X64736Y383241D01*
X64750Y383289D01*
X64769Y383533D01*
X64769Y384544D01*
X66510Y388745D01*
X69725Y391960D01*
X73926Y393701D01*
X78474Y393701D01*
X82675Y391960D01*
X85890Y388745D01*
X87631Y384544D01*
X87631Y379996D01*
X85890Y375795D01*
X82675Y372580D01*
X78807Y370977D01*
X78719Y370928D01*
X78627Y370888D01*
X78567Y370844D01*
X78502Y370808D01*
X78428Y370741D01*
X78347Y370681D01*
X78299Y370624D01*
X78244Y370574D01*
X78187Y370491D01*
X78122Y370415D01*
X78088Y370348D01*
X78046Y370287D01*
X78009Y370194D01*
X77963Y370104D01*
X77945Y370032D01*
X77918Y369963D01*
X77904Y369864D01*
X77879Y369766D01*
X77878Y369692D01*
X77867Y369618D01*
X77876Y369518D01*
X77874Y369418D01*
X77890Y369345D01*
X77896Y369271D01*
X77927Y369175D01*
X77949Y369077D01*
X77980Y369010D01*
X78003Y368939D01*
X78055Y368853D01*
X78098Y368762D01*
X78145Y368704D01*
X78183Y368641D01*
X78253Y368569D01*
X78316Y368490D01*
X78374Y368444D01*
X78426Y368391D01*
X78510Y368336D01*
X78589Y368274D01*
X78679Y368228D01*
X78719Y368202D01*
X78753Y368190D01*
X78807Y368163D01*
X82675Y366560D01*
X85890Y363345D01*
X87631Y359144D01*
X87631Y354596D01*
X85890Y350395D01*
X82675Y347180D01*
X78807Y345577D01*
X78719Y345529D01*
X78627Y345489D01*
X78567Y345444D01*
X78502Y345408D01*
X78428Y345340D01*
X78347Y345281D01*
X78299Y345224D01*
X78244Y345174D01*
X78187Y345091D01*
X78122Y345015D01*
X78088Y344948D01*
X78046Y344887D01*
X78009Y344794D01*
X77963Y344704D01*
X77945Y344632D01*
X77918Y344563D01*
X77904Y344464D01*
X77879Y344366D01*
X77878Y344292D01*
X77867Y344218D01*
X77876Y344118D01*
X77874Y344018D01*
X77890Y343945D01*
X77896Y343871D01*
X77927Y343775D01*
X77949Y343677D01*
X77980Y343610D01*
X78003Y343539D01*
X78055Y343453D01*
X78098Y343362D01*
X78145Y343304D01*
X78183Y343241D01*
X78253Y343168D01*
X78316Y343090D01*
X78374Y343044D01*
X78426Y342991D01*
X78510Y342936D01*
X78589Y342874D01*
X78679Y342828D01*
X78719Y342802D01*
X78753Y342790D01*
X78807Y342763D01*
X82675Y341160D01*
X85890Y337945D01*
X87631Y333744D01*
X87631Y329196D01*
X85890Y324995D01*
X82675Y321780D01*
X78807Y320177D01*
X78719Y320128D01*
X78627Y320088D01*
X78567Y320044D01*
X78502Y320008D01*
X78428Y319941D01*
X78347Y319881D01*
X78299Y319824D01*
X78244Y319774D01*
X78187Y319691D01*
X78122Y319615D01*
X78088Y319548D01*
X78046Y319487D01*
X78009Y319394D01*
X77963Y319304D01*
X77945Y319232D01*
X77918Y319163D01*
X77904Y319063D01*
X77879Y318966D01*
X77878Y318892D01*
X77867Y318818D01*
X77876Y318718D01*
X77874Y318618D01*
X77890Y318545D01*
X77896Y318471D01*
X77927Y318375D01*
X77949Y318277D01*
X77980Y318210D01*
X78003Y318139D01*
X78055Y318053D01*
X78098Y317962D01*
X78145Y317904D01*
X78183Y317841D01*
X78253Y317769D01*
X78316Y317690D01*
X78374Y317644D01*
X78426Y317591D01*
X78510Y317536D01*
X78589Y317474D01*
X78679Y317428D01*
X78719Y317402D01*
X78753Y317390D01*
X78807Y317363D01*
X80706Y316576D01*
X80779Y316555D01*
X80849Y316525D01*
X80946Y316508D01*
X81041Y316481D01*
X81117Y316477D01*
X81192Y316463D01*
X81291Y316468D01*
X81389Y316464D01*
X81464Y316477D01*
X81540Y316481D01*
X81635Y316508D01*
X81732Y316526D01*
X81802Y316557D01*
X81875Y316578D01*
X81961Y316626D01*
X82051Y316665D01*
X82113Y316711D01*
X82179Y316748D01*
X82293Y316845D01*
X82331Y316873D01*
X82343Y316888D01*
X82366Y316906D01*
X112837Y347378D01*
X112916Y347477D01*
X113000Y347571D01*
X113024Y347613D01*
X113054Y347651D01*
X113108Y347765D01*
X113169Y347876D01*
X113182Y347922D01*
X113203Y347966D01*
X113229Y348089D01*
X113264Y348211D01*
X113269Y348272D01*
X113276Y348307D01*
X113275Y348355D01*
X113283Y348455D01*
X113283Y475448D01*
X113269Y475573D01*
X113262Y475699D01*
X113249Y475746D01*
X113243Y475794D01*
X113201Y475913D01*
X113166Y476034D01*
X113142Y476076D01*
X113126Y476122D01*
X113057Y476228D01*
X112996Y476338D01*
X112956Y476385D01*
X112937Y476415D01*
X112902Y476448D01*
X112837Y476525D01*
X111202Y478160D01*
X110235Y480494D01*
X110235Y483020D01*
X111202Y485355D01*
X112989Y487141D01*
X115323Y488108D01*
X117849Y488108D01*
X120183Y487141D01*
X121970Y485355D01*
X122937Y483020D01*
X122937Y480494D01*
X121970Y478160D01*
X120335Y476525D01*
X120256Y476426D01*
X120172Y476332D01*
X120148Y476289D01*
X120118Y476252D01*
X120064Y476137D01*
X120003Y476027D01*
X119990Y475980D01*
X119969Y475937D01*
X119943Y475813D01*
X119908Y475691D01*
X119903Y475631D01*
X119896Y475596D01*
X119897Y475548D01*
X119889Y475448D01*
X119889Y464787D01*
X119900Y464687D01*
X119902Y464587D01*
X119920Y464515D01*
X119929Y464441D01*
X119962Y464346D01*
X119987Y464249D01*
X120021Y464183D01*
X120046Y464113D01*
X120101Y464028D01*
X120147Y463939D01*
X120195Y463882D01*
X120235Y463820D01*
X120307Y463750D01*
X120372Y463674D01*
X120432Y463629D01*
X120486Y463578D01*
X120572Y463526D01*
X120653Y463466D01*
X120721Y463437D01*
X120785Y463399D01*
X120881Y463368D01*
X120973Y463328D01*
X121046Y463315D01*
X121117Y463293D01*
X121217Y463284D01*
X121316Y463267D01*
X121390Y463271D01*
X121464Y463265D01*
X121564Y463279D01*
X121664Y463285D01*
X121735Y463305D01*
X121809Y463316D01*
X121902Y463353D01*
X121999Y463381D01*
X122064Y463418D01*
X122133Y463445D01*
X122215Y463502D01*
X122303Y463551D01*
X122379Y463616D01*
X122419Y463644D01*
X122443Y463670D01*
X122489Y463710D01*
X126553Y467774D01*
X126632Y467873D01*
X126716Y467967D01*
X126740Y468009D01*
X126770Y468047D01*
X126824Y468161D01*
X126885Y468272D01*
X126898Y468318D01*
X126919Y468362D01*
X126945Y468485D01*
X126980Y468607D01*
X126985Y468668D01*
X126992Y468703D01*
X126991Y468751D01*
X126999Y468851D01*
X126999Y471163D01*
X127966Y473497D01*
X129753Y475284D01*
X132087Y476251D01*
X134613Y476251D01*
X136947Y475284D01*
X138734Y473497D01*
X139701Y471163D01*
X139701Y468637D01*
X138734Y466303D01*
X136947Y464516D01*
X134613Y463549D01*
X132301Y463549D01*
X132175Y463535D01*
X132049Y463528D01*
X132003Y463515D01*
X131955Y463509D01*
X131836Y463467D01*
X131714Y463432D01*
X131672Y463408D01*
X131627Y463392D01*
X131520Y463323D01*
X131410Y463262D01*
X131364Y463222D01*
X131334Y463203D01*
X131300Y463168D01*
X131224Y463103D01*
X124399Y456278D01*
X124320Y456179D01*
X124236Y456085D01*
X124212Y456043D01*
X124182Y456005D01*
X124128Y455891D01*
X124067Y455780D01*
X124054Y455734D01*
X124033Y455690D01*
X124007Y455567D01*
X123972Y455445D01*
X123967Y455384D01*
X123960Y455349D01*
X123961Y455301D01*
X123953Y455201D01*
X123953Y323752D01*
X87036Y286836D01*
X86989Y286776D01*
X86934Y286723D01*
X86881Y286640D01*
X86820Y286563D01*
X86787Y286494D01*
X86746Y286429D01*
X86713Y286337D01*
X86671Y286248D01*
X86655Y286173D01*
X86629Y286101D01*
X86618Y286003D01*
X86598Y285907D01*
X86599Y285831D01*
X86590Y285755D01*
X86602Y285657D01*
X86603Y285558D01*
X86622Y285484D01*
X86631Y285408D01*
X86677Y285266D01*
X86688Y285220D01*
X86697Y285203D01*
X86706Y285176D01*
X87631Y282944D01*
X87631Y278396D01*
X85890Y274195D01*
X82675Y270980D01*
X78807Y269377D01*
X78719Y269329D01*
X78627Y269289D01*
X78567Y269244D01*
X78502Y269208D01*
X78428Y269140D01*
X78347Y269081D01*
X78299Y269024D01*
X78244Y268974D01*
X78187Y268891D01*
X78122Y268815D01*
X78088Y268748D01*
X78046Y268687D01*
X78009Y268594D01*
X77963Y268504D01*
X77945Y268432D01*
X77918Y268363D01*
X77904Y268264D01*
X77879Y268166D01*
X77878Y268092D01*
X77867Y268018D01*
X77876Y267918D01*
X77874Y267818D01*
X77890Y267745D01*
X77896Y267671D01*
X77927Y267575D01*
X77949Y267477D01*
X77980Y267410D01*
X78003Y267339D01*
X78055Y267253D01*
X78098Y267162D01*
X78145Y267104D01*
X78183Y267041D01*
X78253Y266968D01*
X78316Y266890D01*
X78374Y266844D01*
X78426Y266791D01*
X78510Y266736D01*
X78589Y266674D01*
X78679Y266628D01*
X78719Y266602D01*
X78753Y266590D01*
X78807Y266563D01*
X82675Y264960D01*
X85890Y261745D01*
X87631Y257544D01*
X87631Y252996D01*
X85890Y248795D01*
X82675Y245580D01*
X78807Y243977D01*
X78719Y243928D01*
X78627Y243888D01*
X78567Y243844D01*
X78502Y243808D01*
X78428Y243741D01*
X78347Y243681D01*
X78299Y243624D01*
X78244Y243574D01*
X78187Y243491D01*
X78122Y243415D01*
X78088Y243348D01*
X78046Y243287D01*
X78009Y243194D01*
X77963Y243104D01*
X77945Y243032D01*
X77918Y242963D01*
X77904Y242864D01*
X77879Y242766D01*
X77878Y242692D01*
X77867Y242618D01*
X77876Y242518D01*
X77874Y242418D01*
X77890Y242345D01*
X77896Y242271D01*
X77927Y242175D01*
X77949Y242077D01*
X77980Y242010D01*
X78003Y241939D01*
X78055Y241853D01*
X78098Y241762D01*
X78145Y241704D01*
X78183Y241641D01*
X78253Y241569D01*
X78316Y241490D01*
X78374Y241444D01*
X78426Y241391D01*
X78510Y241336D01*
X78589Y241274D01*
X78679Y241228D01*
X78719Y241202D01*
X78753Y241190D01*
X78807Y241163D01*
X82675Y239560D01*
X85890Y236345D01*
X87631Y232144D01*
X87631Y227596D01*
X85890Y223395D01*
X82675Y220180D01*
X78807Y218577D01*
X78719Y218529D01*
X78627Y218489D01*
X78567Y218444D01*
X78502Y218408D01*
X78428Y218340D01*
X78347Y218281D01*
X78299Y218224D01*
X78244Y218174D01*
X78187Y218091D01*
X78122Y218015D01*
X78088Y217948D01*
X78046Y217887D01*
X78009Y217794D01*
X77963Y217704D01*
X77945Y217632D01*
X77918Y217563D01*
X77904Y217464D01*
X77879Y217366D01*
X77878Y217292D01*
X77867Y217218D01*
X77876Y217118D01*
X77874Y217018D01*
X77890Y216945D01*
X77896Y216871D01*
X77927Y216775D01*
X77949Y216677D01*
X77980Y216610D01*
X78003Y216539D01*
X78055Y216453D01*
X78098Y216362D01*
X78145Y216304D01*
X78183Y216241D01*
X78253Y216168D01*
X78316Y216090D01*
X78374Y216044D01*
X78426Y215991D01*
X78510Y215936D01*
X78589Y215874D01*
X78679Y215828D01*
X78719Y215802D01*
X78753Y215790D01*
X78807Y215763D01*
X82675Y214160D01*
X85890Y210945D01*
X87631Y206744D01*
X87631Y202196D01*
X85890Y197995D01*
X82675Y194780D01*
X78807Y193177D01*
X78719Y193128D01*
X78627Y193088D01*
X78567Y193044D01*
X78502Y193008D01*
X78428Y192941D01*
X78347Y192881D01*
X78299Y192824D01*
X78244Y192774D01*
X78187Y192691D01*
X78122Y192615D01*
X78088Y192548D01*
X78046Y192487D01*
X78009Y192394D01*
X77963Y192304D01*
X77945Y192232D01*
X77918Y192163D01*
X77904Y192064D01*
X77879Y191966D01*
X77878Y191892D01*
X77867Y191818D01*
X77876Y191718D01*
X77874Y191618D01*
X77890Y191545D01*
X77896Y191471D01*
X77927Y191375D01*
X77949Y191277D01*
X77980Y191210D01*
X78003Y191139D01*
X78055Y191053D01*
X78098Y190962D01*
X78145Y190904D01*
X78183Y190841D01*
X78253Y190769D01*
X78316Y190690D01*
X78374Y190644D01*
X78426Y190591D01*
X78510Y190536D01*
X78589Y190474D01*
X78679Y190428D01*
X78719Y190402D01*
X78753Y190390D01*
X78807Y190363D01*
X82675Y188760D01*
X85890Y185545D01*
X87631Y181344D01*
X87631Y176796D01*
X85890Y172595D01*
X82675Y169380D01*
X78474Y167639D01*
X73926Y167639D01*
X69725Y169380D01*
X66510Y172595D01*
X65161Y175850D01*
X65137Y175894D01*
X65120Y175941D01*
X65052Y176046D01*
X64992Y176155D01*
X64958Y176192D01*
X64931Y176234D01*
X64841Y176321D01*
X64758Y176413D01*
X64716Y176441D01*
X64680Y176476D01*
X64573Y176540D01*
X64471Y176611D01*
X64424Y176629D01*
X64381Y176655D01*
X64263Y176693D01*
X64147Y176739D01*
X64097Y176746D01*
X64049Y176761D01*
X63925Y176771D01*
X63802Y176790D01*
X63752Y176785D01*
X63702Y176789D01*
X63579Y176771D01*
X63455Y176761D01*
X63407Y176745D01*
X63357Y176738D01*
X63242Y176692D01*
X63123Y176654D01*
X63080Y176628D01*
X63033Y176609D01*
X62931Y176538D01*
X62825Y176474D01*
X62788Y176439D01*
X62747Y176410D01*
X62664Y176318D01*
X62575Y176231D01*
X62547Y176189D01*
X62514Y176151D01*
X62454Y176042D01*
X62386Y175938D01*
X62369Y175890D01*
X62345Y175846D01*
X62311Y175726D01*
X62270Y175609D01*
X62264Y175559D01*
X62250Y175511D01*
X62231Y175267D01*
X62231Y174256D01*
X60490Y170055D01*
X57275Y166840D01*
X53074Y165099D01*
X48526Y165099D01*
G37*
%LPD*%
%LPC*%
G36*
X658480Y8127D02*
X658480Y8127D01*
X654932Y9597D01*
X652217Y12312D01*
X650747Y15860D01*
X650747Y34940D01*
X652217Y38488D01*
X654947Y41218D01*
X654954Y41222D01*
X655025Y41250D01*
X655105Y41306D01*
X655192Y41354D01*
X655248Y41405D01*
X655311Y41449D01*
X655377Y41522D01*
X655450Y41588D01*
X655493Y41651D01*
X655544Y41708D01*
X655592Y41794D01*
X655648Y41875D01*
X655676Y41946D01*
X655713Y42013D01*
X655740Y42107D01*
X655776Y42199D01*
X655787Y42274D01*
X655808Y42348D01*
X655820Y42497D01*
X655827Y42544D01*
X655825Y42563D01*
X655827Y42592D01*
X655827Y48535D01*
X656523Y50215D01*
X661731Y55423D01*
X661810Y55522D01*
X661894Y55616D01*
X661918Y55658D01*
X661948Y55696D01*
X662002Y55810D01*
X662063Y55921D01*
X662076Y55967D01*
X662097Y56011D01*
X662123Y56134D01*
X662158Y56256D01*
X662163Y56317D01*
X662170Y56352D01*
X662169Y56400D01*
X662177Y56500D01*
X662177Y207558D01*
X662162Y207687D01*
X662155Y207817D01*
X662142Y207860D01*
X662137Y207904D01*
X662094Y208026D01*
X662057Y208151D01*
X662035Y208190D01*
X662020Y208232D01*
X661949Y208341D01*
X661885Y208454D01*
X661849Y208497D01*
X661831Y208525D01*
X661795Y208559D01*
X661726Y208640D01*
X610061Y259807D01*
X610044Y259821D01*
X610029Y259839D01*
X609906Y259929D01*
X609787Y260023D01*
X609767Y260032D01*
X609749Y260046D01*
X609609Y260106D01*
X609471Y260170D01*
X609449Y260175D01*
X609429Y260184D01*
X609279Y260211D01*
X609130Y260242D01*
X609108Y260241D01*
X609086Y260245D01*
X608934Y260238D01*
X608782Y260234D01*
X608760Y260229D01*
X608738Y260227D01*
X608592Y260185D01*
X608444Y260148D01*
X608424Y260137D01*
X608403Y260131D01*
X608270Y260057D01*
X608135Y259986D01*
X608118Y259972D01*
X608099Y259961D01*
X608030Y259903D01*
X605048Y258667D01*
X589852Y258667D01*
X586900Y259890D01*
X584640Y262150D01*
X583417Y265102D01*
X583417Y268298D01*
X584640Y271250D01*
X585617Y272227D01*
X585679Y272305D01*
X585749Y272378D01*
X585787Y272442D01*
X585834Y272500D01*
X585876Y272591D01*
X585928Y272677D01*
X585951Y272748D01*
X585982Y272815D01*
X586004Y272913D01*
X586034Y273009D01*
X586040Y273083D01*
X586056Y273156D01*
X586054Y273256D01*
X586062Y273356D01*
X586051Y273430D01*
X586050Y273504D01*
X586025Y273601D01*
X586010Y273701D01*
X585983Y273770D01*
X585965Y273842D01*
X585919Y273931D01*
X585882Y274025D01*
X585839Y274086D01*
X585805Y274152D01*
X585740Y274228D01*
X585683Y274311D01*
X585628Y274361D01*
X585579Y274417D01*
X585499Y274477D01*
X585424Y274544D01*
X585359Y274580D01*
X585299Y274625D01*
X585207Y274664D01*
X585119Y274713D01*
X585047Y274733D01*
X584979Y274763D01*
X584880Y274780D01*
X584784Y274808D01*
X584684Y274816D01*
X584636Y274824D01*
X584600Y274822D01*
X584540Y274827D01*
X583290Y274827D01*
X581610Y275523D01*
X575573Y281560D01*
X575514Y281607D01*
X575461Y281662D01*
X575378Y281715D01*
X575300Y281777D01*
X575231Y281809D01*
X575168Y281850D01*
X575074Y281884D01*
X574985Y281926D01*
X574911Y281942D01*
X574840Y281967D01*
X574741Y281978D01*
X574644Y281999D01*
X574568Y281998D01*
X574493Y282007D01*
X574395Y281995D01*
X574295Y281993D01*
X574222Y281975D01*
X574147Y281966D01*
X574054Y281933D01*
X573957Y281908D01*
X573890Y281874D01*
X573819Y281848D01*
X573736Y281794D01*
X573648Y281749D01*
X573590Y281700D01*
X573527Y281659D01*
X573458Y281587D01*
X573382Y281523D01*
X573337Y281462D01*
X573285Y281408D01*
X573280Y281399D01*
X560449Y281399D01*
X560449Y287941D01*
X565334Y287941D01*
X565385Y287930D01*
X565484Y287931D01*
X565583Y287923D01*
X565658Y287934D01*
X565734Y287936D01*
X565830Y287960D01*
X565928Y287974D01*
X565998Y288002D01*
X566072Y288021D01*
X566160Y288066D01*
X566252Y288103D01*
X566314Y288146D01*
X566381Y288180D01*
X566457Y288245D01*
X566538Y288301D01*
X566589Y288357D01*
X566647Y288406D01*
X566706Y288486D01*
X566772Y288560D01*
X566809Y288625D01*
X566854Y288686D01*
X566893Y288778D01*
X566941Y288864D01*
X566962Y288937D01*
X566992Y289006D01*
X567009Y289104D01*
X567037Y289200D01*
X567040Y289275D01*
X567054Y289349D01*
X567048Y289448D01*
X567053Y289548D01*
X567040Y289622D01*
X567036Y289697D01*
X567008Y289793D01*
X566990Y289890D01*
X566960Y289960D01*
X566939Y290032D01*
X566891Y290119D01*
X566851Y290210D01*
X566806Y290270D01*
X566769Y290336D01*
X566671Y290452D01*
X566643Y290489D01*
X566629Y290501D01*
X566610Y290523D01*
X560812Y296321D01*
X560713Y296400D01*
X560619Y296484D01*
X560577Y296508D01*
X560539Y296538D01*
X560425Y296592D01*
X560314Y296653D01*
X560268Y296666D01*
X560224Y296687D01*
X560101Y296713D01*
X559979Y296748D01*
X559918Y296753D01*
X559883Y296760D01*
X559835Y296759D01*
X559735Y296767D01*
X550852Y296767D01*
X547900Y297990D01*
X545640Y300250D01*
X544417Y303202D01*
X544417Y306398D01*
X545640Y309350D01*
X547900Y311610D01*
X550852Y312833D01*
X566048Y312833D01*
X569000Y311610D01*
X571260Y309350D01*
X572483Y306398D01*
X572483Y303202D01*
X571227Y300170D01*
X571206Y300096D01*
X571175Y300026D01*
X571158Y299930D01*
X571131Y299835D01*
X571127Y299758D01*
X571114Y299683D01*
X571119Y299585D01*
X571114Y299487D01*
X571128Y299411D01*
X571132Y299335D01*
X571159Y299241D01*
X571177Y299144D01*
X571207Y299074D01*
X571228Y299000D01*
X571276Y298914D01*
X571316Y298824D01*
X571361Y298763D01*
X571398Y298696D01*
X571495Y298582D01*
X571523Y298544D01*
X571538Y298532D01*
X571557Y298510D01*
X580817Y289250D01*
X580895Y289188D01*
X580968Y289118D01*
X581032Y289079D01*
X581090Y289033D01*
X581181Y288990D01*
X581267Y288939D01*
X581338Y288916D01*
X581405Y288884D01*
X581503Y288863D01*
X581599Y288833D01*
X581673Y288827D01*
X581746Y288811D01*
X581846Y288813D01*
X581946Y288805D01*
X582020Y288816D01*
X582094Y288817D01*
X582191Y288841D01*
X582291Y288856D01*
X582360Y288884D01*
X582432Y288902D01*
X582522Y288948D01*
X582615Y288985D01*
X582676Y289027D01*
X582742Y289062D01*
X582819Y289127D01*
X582901Y289184D01*
X582951Y289239D01*
X583007Y289287D01*
X583067Y289368D01*
X583134Y289443D01*
X583170Y289508D01*
X583215Y289568D01*
X583254Y289660D01*
X583303Y289748D01*
X583323Y289819D01*
X583353Y289888D01*
X583370Y289986D01*
X583398Y290083D01*
X583406Y290183D01*
X583414Y290231D01*
X583412Y290266D01*
X583417Y290327D01*
X583417Y293698D01*
X584640Y296650D01*
X586900Y298910D01*
X589852Y300133D01*
X605048Y300133D01*
X608000Y298910D01*
X609791Y297119D01*
X609890Y297040D01*
X609984Y296956D01*
X610026Y296932D01*
X610064Y296902D01*
X610178Y296848D01*
X610289Y296787D01*
X610336Y296774D01*
X610379Y296753D01*
X610503Y296727D01*
X610624Y296692D01*
X610685Y296687D01*
X610720Y296680D01*
X610768Y296681D01*
X610868Y296673D01*
X616860Y296673D01*
X618540Y295977D01*
X696027Y218490D01*
X696723Y216810D01*
X696723Y66025D01*
X696737Y65899D01*
X696744Y65773D01*
X696757Y65727D01*
X696763Y65679D01*
X696805Y65560D01*
X696840Y65438D01*
X696864Y65396D01*
X696880Y65351D01*
X696917Y65294D01*
X696918Y65290D01*
X696932Y65271D01*
X696949Y65244D01*
X697010Y65134D01*
X697050Y65088D01*
X697069Y65058D01*
X697101Y65027D01*
X697117Y65004D01*
X697135Y64988D01*
X697169Y64948D01*
X719467Y42650D01*
X719527Y42602D01*
X719580Y42547D01*
X719663Y42494D01*
X719740Y42433D01*
X719809Y42400D01*
X719874Y42359D01*
X719966Y42326D01*
X720055Y42284D01*
X720130Y42268D01*
X720202Y42242D01*
X720300Y42231D01*
X720396Y42211D01*
X720472Y42212D01*
X720548Y42204D01*
X720646Y42215D01*
X720744Y42217D01*
X720818Y42235D01*
X720894Y42244D01*
X721037Y42290D01*
X721082Y42302D01*
X721099Y42310D01*
X721127Y42319D01*
X721980Y42673D01*
X725820Y42673D01*
X729368Y41203D01*
X732083Y38488D01*
X733553Y34940D01*
X733553Y15860D01*
X732083Y12312D01*
X729368Y9597D01*
X725820Y8127D01*
X721980Y8127D01*
X718432Y9597D01*
X715717Y12312D01*
X714247Y15860D01*
X714247Y34305D01*
X714233Y34431D01*
X714226Y34557D01*
X714213Y34603D01*
X714207Y34651D01*
X714165Y34770D01*
X714130Y34892D01*
X714106Y34934D01*
X714090Y34979D01*
X714021Y35086D01*
X713960Y35196D01*
X713920Y35242D01*
X713901Y35272D01*
X713866Y35306D01*
X713801Y35382D01*
X709261Y39922D01*
X709222Y39953D01*
X709188Y39991D01*
X709085Y40061D01*
X708988Y40139D01*
X708943Y40160D01*
X708901Y40189D01*
X708785Y40234D01*
X708673Y40288D01*
X708624Y40298D01*
X708577Y40317D01*
X708454Y40335D01*
X708332Y40361D01*
X708282Y40360D01*
X708232Y40367D01*
X708108Y40357D01*
X707984Y40355D01*
X707935Y40343D01*
X707885Y40339D01*
X707766Y40300D01*
X707646Y40270D01*
X707601Y40247D01*
X707553Y40231D01*
X707447Y40167D01*
X707336Y40110D01*
X707298Y40078D01*
X707255Y40052D01*
X707165Y39965D01*
X707071Y39885D01*
X707041Y39844D01*
X707005Y39809D01*
X706937Y39704D01*
X706863Y39604D01*
X706844Y39558D01*
X706816Y39516D01*
X706775Y39398D01*
X706725Y39284D01*
X706717Y39235D01*
X706700Y39187D01*
X706686Y39064D01*
X706664Y38941D01*
X706666Y38891D01*
X706661Y38841D01*
X706675Y38717D01*
X706682Y38593D01*
X706696Y38545D01*
X706702Y38495D01*
X706777Y38262D01*
X708153Y34940D01*
X708153Y15860D01*
X706683Y12312D01*
X703968Y9597D01*
X700420Y8127D01*
X696580Y8127D01*
X693032Y9597D01*
X690317Y12312D01*
X688847Y15860D01*
X688847Y27955D01*
X688845Y27971D01*
X688846Y27982D01*
X688837Y28044D01*
X688833Y28081D01*
X688826Y28207D01*
X688813Y28253D01*
X688807Y28301D01*
X688765Y28420D01*
X688730Y28542D01*
X688706Y28584D01*
X688690Y28629D01*
X688621Y28736D01*
X688560Y28846D01*
X688520Y28892D01*
X688501Y28922D01*
X688466Y28956D01*
X688401Y29032D01*
X675573Y41860D01*
X674877Y43540D01*
X674877Y210200D01*
X674863Y210325D01*
X674856Y210452D01*
X674843Y210498D01*
X674837Y210546D01*
X674795Y210665D01*
X674760Y210787D01*
X674736Y210829D01*
X674720Y210874D01*
X674651Y210981D01*
X674590Y211091D01*
X674550Y211137D01*
X674531Y211167D01*
X674496Y211201D01*
X674431Y211277D01*
X673923Y211785D01*
X673845Y211847D01*
X673772Y211917D01*
X673708Y211956D01*
X673650Y212002D01*
X673559Y212045D01*
X673473Y212096D01*
X673402Y212119D01*
X673335Y212151D01*
X673237Y212172D01*
X673141Y212202D01*
X673067Y212208D01*
X672994Y212224D01*
X672894Y212222D01*
X672794Y212230D01*
X672720Y212219D01*
X672646Y212218D01*
X672548Y212194D01*
X672449Y212179D01*
X672380Y212151D01*
X672308Y212133D01*
X672219Y212087D01*
X672125Y212050D01*
X672064Y212008D01*
X671998Y211973D01*
X671922Y211908D01*
X671839Y211851D01*
X671789Y211796D01*
X671733Y211748D01*
X671673Y211667D01*
X671606Y211592D01*
X671570Y211527D01*
X671525Y211467D01*
X671486Y211375D01*
X671437Y211287D01*
X671417Y211216D01*
X671387Y211147D01*
X671370Y211049D01*
X671342Y210952D01*
X671334Y210852D01*
X671326Y210804D01*
X671328Y210769D01*
X671323Y210708D01*
X671323Y210113D01*
X671323Y210110D01*
X671323Y210106D01*
X671328Y208971D01*
X671323Y208903D01*
X671323Y53065D01*
X670627Y51385D01*
X665419Y46177D01*
X665340Y46078D01*
X665256Y45984D01*
X665232Y45942D01*
X665202Y45904D01*
X665148Y45790D01*
X665087Y45679D01*
X665074Y45633D01*
X665053Y45589D01*
X665027Y45466D01*
X664992Y45344D01*
X664987Y45283D01*
X664980Y45248D01*
X664981Y45200D01*
X664973Y45100D01*
X664973Y42592D01*
X664981Y42516D01*
X664980Y42439D01*
X665001Y42343D01*
X665013Y42246D01*
X665038Y42174D01*
X665055Y42099D01*
X665097Y42010D01*
X665130Y41917D01*
X665172Y41853D01*
X665204Y41784D01*
X665266Y41707D01*
X665319Y41625D01*
X665374Y41572D01*
X665422Y41512D01*
X665499Y41451D01*
X665570Y41382D01*
X665635Y41343D01*
X665695Y41296D01*
X665828Y41228D01*
X665865Y41206D01*
X668583Y38488D01*
X670053Y34940D01*
X670053Y15860D01*
X668583Y12312D01*
X665868Y9597D01*
X662320Y8127D01*
X658480Y8127D01*
G37*
%LPD*%
%LPC*%
G36*
X747380Y8127D02*
X747380Y8127D01*
X743832Y9597D01*
X741117Y12312D01*
X739647Y15860D01*
X739647Y34940D01*
X741117Y38488D01*
X743847Y41218D01*
X743854Y41222D01*
X743925Y41250D01*
X744005Y41306D01*
X744092Y41354D01*
X744148Y41405D01*
X744211Y41449D01*
X744277Y41522D01*
X744350Y41588D01*
X744393Y41651D01*
X744444Y41708D01*
X744492Y41794D01*
X744548Y41875D01*
X744576Y41946D01*
X744613Y42013D01*
X744640Y42107D01*
X744676Y42199D01*
X744687Y42274D01*
X744708Y42348D01*
X744720Y42497D01*
X744727Y42544D01*
X744725Y42563D01*
X744727Y42592D01*
X744727Y83460D01*
X745423Y85140D01*
X766331Y106048D01*
X766363Y106087D01*
X766400Y106121D01*
X766471Y106224D01*
X766548Y106321D01*
X766569Y106367D01*
X766598Y106408D01*
X766644Y106524D01*
X766697Y106636D01*
X766707Y106685D01*
X766726Y106732D01*
X766744Y106855D01*
X766770Y106977D01*
X766769Y107027D01*
X766777Y107077D01*
X766766Y107201D01*
X766764Y107325D01*
X766752Y107374D01*
X766748Y107424D01*
X766710Y107543D01*
X766679Y107663D01*
X766656Y107708D01*
X766641Y107756D01*
X766577Y107862D01*
X766520Y107973D01*
X766487Y108012D01*
X766461Y108055D01*
X766375Y108144D01*
X766294Y108239D01*
X766253Y108269D01*
X766218Y108305D01*
X766114Y108372D01*
X766013Y108446D01*
X765967Y108466D01*
X765925Y108493D01*
X765808Y108535D01*
X765693Y108584D01*
X765644Y108593D01*
X765596Y108610D01*
X765473Y108623D01*
X765350Y108645D01*
X765300Y108643D01*
X765250Y108648D01*
X765127Y108634D01*
X765002Y108627D01*
X764954Y108614D01*
X764904Y108608D01*
X764671Y108533D01*
X763263Y107949D01*
X760737Y107949D01*
X758403Y108916D01*
X756616Y110703D01*
X755649Y113037D01*
X755649Y115563D01*
X756616Y117897D01*
X756981Y118262D01*
X757046Y118344D01*
X757098Y118398D01*
X757109Y118416D01*
X757144Y118455D01*
X757168Y118498D01*
X757198Y118535D01*
X757252Y118650D01*
X757313Y118760D01*
X757326Y118807D01*
X757347Y118851D01*
X757373Y118974D01*
X757408Y119096D01*
X757413Y119156D01*
X757420Y119191D01*
X757419Y119239D01*
X757427Y119340D01*
X757427Y280660D01*
X758123Y282340D01*
X816210Y340427D01*
X817890Y341123D01*
X862532Y341123D01*
X862657Y341137D01*
X862784Y341144D01*
X862830Y341157D01*
X862878Y341163D01*
X862997Y341205D01*
X863118Y341240D01*
X863161Y341264D01*
X863206Y341280D01*
X863312Y341349D01*
X863423Y341410D01*
X863469Y341450D01*
X863499Y341469D01*
X863532Y341504D01*
X863609Y341569D01*
X865400Y343360D01*
X868352Y344583D01*
X883548Y344583D01*
X886500Y343360D01*
X888760Y341100D01*
X889983Y338148D01*
X889983Y334952D01*
X888760Y332000D01*
X887783Y331023D01*
X887721Y330944D01*
X887651Y330872D01*
X887613Y330808D01*
X887566Y330750D01*
X887524Y330659D01*
X887472Y330573D01*
X887449Y330502D01*
X887418Y330435D01*
X887396Y330337D01*
X887366Y330241D01*
X887360Y330167D01*
X887344Y330094D01*
X887346Y329994D01*
X887338Y329894D01*
X887349Y329820D01*
X887350Y329746D01*
X887375Y329649D01*
X887390Y329549D01*
X887417Y329480D01*
X887435Y329408D01*
X887481Y329319D01*
X887518Y329225D01*
X887561Y329164D01*
X887595Y329098D01*
X887660Y329022D01*
X887717Y328939D01*
X887772Y328889D01*
X887821Y328833D01*
X887901Y328773D01*
X887976Y328706D01*
X888041Y328670D01*
X888101Y328625D01*
X888193Y328586D01*
X888281Y328537D01*
X888353Y328517D01*
X888421Y328487D01*
X888520Y328470D01*
X888616Y328442D01*
X888716Y328434D01*
X888764Y328426D01*
X888800Y328428D01*
X888860Y328423D01*
X901532Y328423D01*
X901657Y328437D01*
X901784Y328444D01*
X901830Y328457D01*
X901878Y328463D01*
X901997Y328505D01*
X902118Y328540D01*
X902161Y328564D01*
X902206Y328580D01*
X902312Y328649D01*
X902423Y328710D01*
X902469Y328750D01*
X902499Y328769D01*
X902532Y328804D01*
X902609Y328869D01*
X904400Y330660D01*
X907352Y331883D01*
X922548Y331883D01*
X925500Y330660D01*
X927760Y328400D01*
X928983Y325448D01*
X928983Y322252D01*
X927760Y319300D01*
X925500Y317040D01*
X922548Y315817D01*
X907352Y315817D01*
X904400Y317040D01*
X902609Y318831D01*
X902510Y318910D01*
X902416Y318994D01*
X902374Y319018D01*
X902336Y319048D01*
X902222Y319102D01*
X902111Y319163D01*
X902064Y319176D01*
X902021Y319197D01*
X901897Y319223D01*
X901776Y319258D01*
X901715Y319263D01*
X901680Y319270D01*
X901632Y319269D01*
X901532Y319277D01*
X889579Y319277D01*
X889479Y319266D01*
X889378Y319264D01*
X889306Y319246D01*
X889232Y319237D01*
X889138Y319203D01*
X889040Y319179D01*
X888974Y319145D01*
X888904Y319120D01*
X888820Y319065D01*
X888731Y319019D01*
X888674Y318971D01*
X888611Y318931D01*
X888542Y318859D01*
X888465Y318793D01*
X888421Y318734D01*
X888369Y318680D01*
X888318Y318594D01*
X888258Y318513D01*
X888229Y318445D01*
X888190Y318381D01*
X888160Y318285D01*
X888120Y318193D01*
X888107Y318120D01*
X888084Y318049D01*
X888076Y317949D01*
X888058Y317850D01*
X888062Y317776D01*
X888056Y317702D01*
X888071Y317603D01*
X888076Y317502D01*
X888097Y317431D01*
X888108Y317357D01*
X888145Y317264D01*
X888173Y317167D01*
X888209Y317102D01*
X888237Y317033D01*
X888294Y316951D01*
X888343Y316863D01*
X888408Y316787D01*
X888436Y316747D01*
X888462Y316723D01*
X888502Y316677D01*
X888584Y316594D01*
X889519Y315196D01*
X890163Y313641D01*
X890260Y313149D01*
X876426Y313149D01*
X876400Y313146D01*
X876374Y313148D01*
X876227Y313126D01*
X876080Y313109D01*
X876055Y313101D01*
X876029Y313097D01*
X875948Y313064D01*
X875910Y313075D01*
X875769Y313120D01*
X875743Y313122D01*
X875718Y313130D01*
X875474Y313149D01*
X861640Y313149D01*
X861737Y313641D01*
X862381Y315196D01*
X863316Y316594D01*
X863398Y316677D01*
X863461Y316755D01*
X863531Y316828D01*
X863569Y316892D01*
X863615Y316950D01*
X863658Y317040D01*
X863710Y317127D01*
X863732Y317198D01*
X863764Y317265D01*
X863785Y317363D01*
X863816Y317459D01*
X863822Y317533D01*
X863837Y317606D01*
X863836Y317706D01*
X863844Y317806D01*
X863833Y317880D01*
X863831Y317954D01*
X863807Y318051D01*
X863792Y318151D01*
X863765Y318220D01*
X863746Y318292D01*
X863701Y318381D01*
X863663Y318475D01*
X863621Y318536D01*
X863587Y318602D01*
X863522Y318678D01*
X863464Y318761D01*
X863409Y318811D01*
X863361Y318867D01*
X863280Y318927D01*
X863206Y318994D01*
X863141Y319030D01*
X863081Y319074D01*
X862989Y319114D01*
X862901Y319163D01*
X862829Y319183D01*
X862761Y319213D01*
X862662Y319230D01*
X862565Y319258D01*
X862465Y319266D01*
X862418Y319274D01*
X862382Y319272D01*
X862321Y319277D01*
X834375Y319277D01*
X834249Y319263D01*
X834123Y319256D01*
X834077Y319243D01*
X834029Y319237D01*
X833910Y319195D01*
X833788Y319160D01*
X833746Y319136D01*
X833701Y319120D01*
X833594Y319051D01*
X833484Y318990D01*
X833438Y318950D01*
X833408Y318931D01*
X833374Y318896D01*
X833298Y318831D01*
X795594Y281127D01*
X795515Y281028D01*
X795431Y280934D01*
X795407Y280892D01*
X795377Y280854D01*
X795323Y280740D01*
X795262Y280629D01*
X795249Y280583D01*
X795228Y280539D01*
X795202Y280416D01*
X795167Y280294D01*
X795162Y280233D01*
X795155Y280198D01*
X795156Y280150D01*
X795148Y280050D01*
X795148Y122915D01*
X794452Y121235D01*
X754319Y81102D01*
X754240Y81003D01*
X754156Y80909D01*
X754132Y80867D01*
X754102Y80829D01*
X754048Y80715D01*
X753987Y80604D01*
X753974Y80558D01*
X753953Y80514D01*
X753927Y80391D01*
X753892Y80269D01*
X753887Y80208D01*
X753880Y80173D01*
X753881Y80125D01*
X753873Y80025D01*
X753873Y42592D01*
X753881Y42516D01*
X753880Y42439D01*
X753901Y42343D01*
X753913Y42246D01*
X753938Y42174D01*
X753955Y42099D01*
X753997Y42010D01*
X754030Y41917D01*
X754072Y41853D01*
X754104Y41784D01*
X754166Y41707D01*
X754219Y41625D01*
X754274Y41572D01*
X754322Y41512D01*
X754399Y41451D01*
X754470Y41382D01*
X754535Y41343D01*
X754595Y41296D01*
X754728Y41228D01*
X754765Y41206D01*
X757483Y38488D01*
X758953Y34940D01*
X758953Y15860D01*
X757483Y12312D01*
X754768Y9597D01*
X751220Y8127D01*
X747380Y8127D01*
G37*
%LPD*%
%LPC*%
G36*
X894087Y79374D02*
X894087Y79374D01*
X891753Y80341D01*
X889966Y82128D01*
X888999Y84462D01*
X888999Y86988D01*
X890050Y89524D01*
X890063Y89572D01*
X890085Y89618D01*
X890111Y89739D01*
X890145Y89859D01*
X890148Y89909D01*
X890158Y89959D01*
X890156Y90083D01*
X890162Y90207D01*
X890153Y90257D01*
X890152Y90307D01*
X890122Y90428D01*
X890100Y90550D01*
X890080Y90596D01*
X890067Y90645D01*
X890010Y90756D01*
X889961Y90870D01*
X889931Y90910D01*
X889908Y90955D01*
X889827Y91050D01*
X889753Y91149D01*
X889714Y91182D01*
X889682Y91220D01*
X889582Y91294D01*
X889487Y91374D01*
X889442Y91397D01*
X889402Y91427D01*
X889287Y91477D01*
X889177Y91533D01*
X889128Y91545D01*
X889082Y91565D01*
X888959Y91587D01*
X888838Y91617D01*
X888788Y91618D01*
X888739Y91627D01*
X888614Y91621D01*
X888490Y91622D01*
X888441Y91612D01*
X888390Y91609D01*
X888271Y91575D01*
X888149Y91548D01*
X888104Y91527D01*
X888056Y91513D01*
X887947Y91452D01*
X887835Y91398D01*
X887795Y91367D01*
X887751Y91342D01*
X887565Y91184D01*
X887562Y91181D01*
X886247Y89866D01*
X883913Y88899D01*
X881387Y88899D01*
X879053Y89866D01*
X877266Y91653D01*
X876299Y93987D01*
X876299Y96513D01*
X877266Y98847D01*
X877631Y99212D01*
X877710Y99311D01*
X877794Y99405D01*
X877818Y99448D01*
X877848Y99485D01*
X877902Y99600D01*
X877963Y99710D01*
X877976Y99757D01*
X877997Y99801D01*
X878023Y99924D01*
X878058Y100046D01*
X878063Y100106D01*
X878070Y100141D01*
X878069Y100189D01*
X878077Y100290D01*
X878077Y185060D01*
X878773Y186740D01*
X970560Y278527D01*
X972240Y279223D01*
X1051971Y279223D01*
X1052097Y279237D01*
X1052223Y279244D01*
X1052269Y279257D01*
X1052317Y279263D01*
X1052436Y279305D01*
X1052558Y279340D01*
X1052600Y279364D01*
X1052645Y279380D01*
X1052752Y279449D01*
X1052862Y279510D01*
X1052908Y279550D01*
X1052938Y279569D01*
X1052972Y279604D01*
X1053048Y279669D01*
X1055475Y282096D01*
X1058703Y283433D01*
X1062197Y283433D01*
X1065425Y282096D01*
X1067896Y279625D01*
X1069233Y276397D01*
X1069233Y272903D01*
X1067896Y269675D01*
X1065425Y267204D01*
X1062197Y265867D01*
X1058703Y265867D01*
X1055475Y267204D01*
X1053048Y269631D01*
X1052949Y269710D01*
X1052855Y269794D01*
X1052813Y269818D01*
X1052775Y269848D01*
X1052661Y269902D01*
X1052550Y269963D01*
X1052504Y269976D01*
X1052460Y269997D01*
X1052337Y270023D01*
X1052215Y270058D01*
X1052154Y270063D01*
X1052119Y270070D01*
X1052071Y270069D01*
X1051971Y270077D01*
X975675Y270077D01*
X975549Y270063D01*
X975423Y270056D01*
X975377Y270043D01*
X975329Y270037D01*
X975210Y269995D01*
X975088Y269960D01*
X975046Y269936D01*
X975001Y269920D01*
X974894Y269851D01*
X974784Y269790D01*
X974738Y269750D01*
X974708Y269731D01*
X974674Y269696D01*
X974598Y269631D01*
X962965Y257998D01*
X962903Y257920D01*
X962833Y257847D01*
X962794Y257783D01*
X962748Y257725D01*
X962705Y257634D01*
X962654Y257548D01*
X962631Y257477D01*
X962599Y257410D01*
X962578Y257312D01*
X962548Y257216D01*
X962542Y257142D01*
X962526Y257069D01*
X962528Y256969D01*
X962520Y256869D01*
X962531Y256795D01*
X962532Y256721D01*
X962556Y256624D01*
X962571Y256524D01*
X962599Y256455D01*
X962617Y256383D01*
X962663Y256293D01*
X962700Y256200D01*
X962742Y256139D01*
X962777Y256073D01*
X962842Y255996D01*
X962899Y255914D01*
X962954Y255864D01*
X963002Y255808D01*
X963083Y255748D01*
X963158Y255681D01*
X963223Y255645D01*
X963283Y255600D01*
X963375Y255561D01*
X963463Y255512D01*
X963534Y255492D01*
X963603Y255462D01*
X963701Y255445D01*
X963798Y255417D01*
X963898Y255409D01*
X963946Y255401D01*
X963981Y255403D01*
X964042Y255398D01*
X1053146Y255398D01*
X1053272Y255412D01*
X1053398Y255419D01*
X1053444Y255432D01*
X1053492Y255438D01*
X1053611Y255480D01*
X1053733Y255515D01*
X1053775Y255539D01*
X1053820Y255555D01*
X1053927Y255624D01*
X1054037Y255685D01*
X1054083Y255725D01*
X1054113Y255744D01*
X1054147Y255779D01*
X1054223Y255844D01*
X1055475Y257096D01*
X1058703Y258433D01*
X1062197Y258433D01*
X1065425Y257096D01*
X1067896Y254625D01*
X1069233Y251397D01*
X1069233Y247903D01*
X1067896Y244675D01*
X1065425Y242204D01*
X1062197Y240867D01*
X1058703Y240867D01*
X1055475Y242204D01*
X1053004Y244675D01*
X1052741Y245312D01*
X1052703Y245379D01*
X1052675Y245450D01*
X1052619Y245531D01*
X1052571Y245617D01*
X1052520Y245673D01*
X1052476Y245736D01*
X1052403Y245802D01*
X1052337Y245875D01*
X1052274Y245918D01*
X1052217Y245969D01*
X1052131Y246017D01*
X1052050Y246073D01*
X1051979Y246101D01*
X1051912Y246138D01*
X1051818Y246165D01*
X1051726Y246201D01*
X1051651Y246212D01*
X1051577Y246233D01*
X1051428Y246245D01*
X1051381Y246252D01*
X1051362Y246250D01*
X1051333Y246252D01*
X967725Y246252D01*
X967599Y246238D01*
X967473Y246231D01*
X967427Y246218D01*
X967379Y246212D01*
X967260Y246170D01*
X967138Y246135D01*
X967096Y246111D01*
X967051Y246095D01*
X966944Y246026D01*
X966834Y245965D01*
X966788Y245925D01*
X966758Y245906D01*
X966724Y245871D01*
X966648Y245806D01*
X930163Y209321D01*
X930070Y209204D01*
X929973Y209090D01*
X929962Y209067D01*
X929946Y209048D01*
X929882Y208913D01*
X929814Y208780D01*
X929808Y208755D01*
X929797Y208733D01*
X929766Y208587D01*
X929729Y208441D01*
X929729Y208416D01*
X929724Y208392D01*
X929726Y208243D01*
X929724Y208093D01*
X929729Y208069D01*
X929730Y208044D01*
X929766Y207899D01*
X929798Y207752D01*
X929809Y207730D01*
X929815Y207706D01*
X929884Y207572D01*
X929948Y207438D01*
X929963Y207418D01*
X929974Y207396D01*
X930072Y207282D01*
X930165Y207165D01*
X930184Y207149D01*
X930200Y207131D01*
X930321Y207041D01*
X930438Y206949D01*
X930461Y206938D01*
X930481Y206923D01*
X930618Y206864D01*
X930753Y206800D01*
X930778Y206795D01*
X930801Y206785D01*
X930948Y206759D01*
X931094Y206728D01*
X931119Y206728D01*
X931144Y206724D01*
X931293Y206731D01*
X931443Y206734D01*
X931467Y206740D01*
X931492Y206742D01*
X931635Y206783D01*
X931781Y206820D01*
X931808Y206833D01*
X931827Y206838D01*
X931868Y206861D01*
X932002Y206925D01*
X936831Y209713D01*
X943808Y211583D01*
X951032Y211583D01*
X958009Y209713D01*
X964264Y206102D01*
X969372Y200994D01*
X972983Y194739D01*
X974853Y187762D01*
X974853Y180538D01*
X972983Y173561D01*
X969372Y167306D01*
X964264Y162198D01*
X958009Y158587D01*
X951032Y156717D01*
X943808Y156717D01*
X936831Y158587D01*
X930576Y162198D01*
X925468Y167306D01*
X921857Y173561D01*
X919987Y180538D01*
X919987Y187762D01*
X921857Y194739D01*
X924645Y199568D01*
X924705Y199706D01*
X924769Y199841D01*
X924774Y199865D01*
X924784Y199888D01*
X924811Y200036D01*
X924842Y200182D01*
X924842Y200207D01*
X924846Y200231D01*
X924839Y200381D01*
X924836Y200530D01*
X924830Y200554D01*
X924829Y200579D01*
X924788Y200723D01*
X924751Y200868D01*
X924740Y200890D01*
X924733Y200914D01*
X924660Y201044D01*
X924592Y201178D01*
X924575Y201197D01*
X924563Y201219D01*
X924463Y201329D01*
X924366Y201443D01*
X924346Y201458D01*
X924329Y201477D01*
X924206Y201561D01*
X924085Y201651D01*
X924063Y201661D01*
X924042Y201675D01*
X923903Y201729D01*
X923765Y201789D01*
X923741Y201793D01*
X923718Y201802D01*
X923570Y201824D01*
X923422Y201850D01*
X923397Y201849D01*
X923373Y201853D01*
X923224Y201840D01*
X923074Y201832D01*
X923050Y201826D01*
X923026Y201823D01*
X922883Y201777D01*
X922739Y201736D01*
X922718Y201724D01*
X922694Y201716D01*
X922566Y201639D01*
X922435Y201566D01*
X922412Y201546D01*
X922396Y201536D01*
X922362Y201503D01*
X922249Y201407D01*
X900369Y179527D01*
X900290Y179428D01*
X900206Y179334D01*
X900182Y179292D01*
X900152Y179254D01*
X900098Y179140D01*
X900037Y179029D01*
X900024Y178983D01*
X900003Y178939D01*
X899977Y178816D01*
X899942Y178694D01*
X899937Y178633D01*
X899930Y178598D01*
X899931Y178550D01*
X899923Y178450D01*
X899923Y90765D01*
X899937Y90639D01*
X899944Y90513D01*
X899957Y90466D01*
X899963Y90418D01*
X900005Y90299D01*
X900040Y90178D01*
X900064Y90136D01*
X900080Y90090D01*
X900149Y89984D01*
X900210Y89874D01*
X900250Y89827D01*
X900269Y89797D01*
X900304Y89764D01*
X900369Y89687D01*
X900734Y89322D01*
X901701Y86988D01*
X901701Y84462D01*
X900734Y82128D01*
X898947Y80341D01*
X896613Y79374D01*
X894087Y79374D01*
G37*
%LPD*%
%LPC*%
G36*
X772780Y8127D02*
X772780Y8127D01*
X769232Y9597D01*
X766517Y12312D01*
X765047Y15860D01*
X765047Y34940D01*
X766517Y38488D01*
X769247Y41218D01*
X769254Y41222D01*
X769325Y41250D01*
X769405Y41306D01*
X769492Y41354D01*
X769548Y41405D01*
X769611Y41449D01*
X769677Y41522D01*
X769750Y41588D01*
X769793Y41651D01*
X769844Y41708D01*
X769892Y41794D01*
X769948Y41875D01*
X769976Y41946D01*
X770013Y42013D01*
X770040Y42107D01*
X770076Y42199D01*
X770087Y42274D01*
X770108Y42348D01*
X770120Y42497D01*
X770127Y42544D01*
X770125Y42563D01*
X770127Y42592D01*
X770127Y81487D01*
X770111Y81627D01*
X770101Y81767D01*
X770090Y81808D01*
X770088Y81830D01*
X770126Y82623D01*
X770124Y82651D01*
X770127Y82695D01*
X770127Y83513D01*
X770152Y83586D01*
X770157Y83628D01*
X770164Y83650D01*
X770502Y84368D01*
X770511Y84394D01*
X770531Y84434D01*
X770844Y85190D01*
X770895Y85248D01*
X770915Y85284D01*
X770930Y85302D01*
X771517Y85836D01*
X771535Y85857D01*
X771569Y85886D01*
X772147Y86464D01*
X772217Y86499D01*
X772250Y86524D01*
X772273Y86537D01*
X772310Y86571D01*
X772410Y86648D01*
X804554Y115870D01*
X804661Y115992D01*
X804769Y116112D01*
X804775Y116123D01*
X804783Y116132D01*
X804859Y116275D01*
X804938Y116417D01*
X804941Y116429D01*
X804947Y116440D01*
X804989Y116597D01*
X805033Y116753D01*
X805034Y116767D01*
X805036Y116776D01*
X805037Y116811D01*
X805052Y116997D01*
X805052Y277135D01*
X805748Y278815D01*
X829260Y302327D01*
X830940Y303023D01*
X862321Y303023D01*
X862421Y303034D01*
X862522Y303036D01*
X862594Y303054D01*
X862668Y303063D01*
X862762Y303097D01*
X862860Y303121D01*
X862926Y303155D01*
X862996Y303180D01*
X863080Y303235D01*
X863169Y303281D01*
X863226Y303329D01*
X863289Y303369D01*
X863358Y303441D01*
X863435Y303507D01*
X863479Y303566D01*
X863531Y303620D01*
X863582Y303706D01*
X863642Y303787D01*
X863671Y303855D01*
X863710Y303919D01*
X863740Y304015D01*
X863780Y304107D01*
X863793Y304180D01*
X863816Y304251D01*
X863824Y304351D01*
X863842Y304450D01*
X863838Y304524D01*
X863844Y304598D01*
X863829Y304697D01*
X863824Y304798D01*
X863803Y304869D01*
X863792Y304943D01*
X863755Y305036D01*
X863727Y305133D01*
X863691Y305198D01*
X863663Y305267D01*
X863606Y305349D01*
X863557Y305437D01*
X863492Y305513D01*
X863464Y305553D01*
X863438Y305577D01*
X863398Y305623D01*
X863316Y305706D01*
X862381Y307104D01*
X861737Y308659D01*
X861640Y309151D01*
X875474Y309151D01*
X875500Y309154D01*
X875526Y309152D01*
X875673Y309174D01*
X875820Y309191D01*
X875845Y309199D01*
X875871Y309203D01*
X875952Y309236D01*
X875990Y309225D01*
X876131Y309180D01*
X876157Y309177D01*
X876182Y309170D01*
X876426Y309151D01*
X890260Y309151D01*
X890163Y308659D01*
X889519Y307104D01*
X888584Y305706D01*
X888502Y305623D01*
X888439Y305545D01*
X888369Y305472D01*
X888331Y305408D01*
X888285Y305350D01*
X888242Y305259D01*
X888190Y305173D01*
X888168Y305102D01*
X888136Y305035D01*
X888115Y304937D01*
X888084Y304841D01*
X888078Y304767D01*
X888063Y304694D01*
X888064Y304594D01*
X888056Y304494D01*
X888067Y304420D01*
X888069Y304346D01*
X888093Y304249D01*
X888108Y304149D01*
X888135Y304080D01*
X888154Y304008D01*
X888200Y303919D01*
X888237Y303825D01*
X888279Y303764D01*
X888313Y303698D01*
X888378Y303622D01*
X888436Y303539D01*
X888491Y303489D01*
X888539Y303433D01*
X888620Y303373D01*
X888694Y303306D01*
X888759Y303270D01*
X888819Y303226D01*
X888911Y303186D01*
X888999Y303137D01*
X889071Y303117D01*
X889139Y303087D01*
X889238Y303070D01*
X889335Y303042D01*
X889435Y303034D01*
X889482Y303026D01*
X889518Y303028D01*
X889579Y303023D01*
X901532Y303023D01*
X901657Y303037D01*
X901784Y303044D01*
X901830Y303057D01*
X901878Y303063D01*
X901997Y303105D01*
X902118Y303140D01*
X902161Y303164D01*
X902206Y303180D01*
X902312Y303249D01*
X902423Y303310D01*
X902469Y303350D01*
X902499Y303369D01*
X902532Y303404D01*
X902609Y303469D01*
X904400Y305260D01*
X907352Y306483D01*
X922548Y306483D01*
X925500Y305260D01*
X927760Y303000D01*
X928983Y300048D01*
X928983Y296852D01*
X927760Y293900D01*
X925500Y291640D01*
X922548Y290417D01*
X907352Y290417D01*
X904400Y291640D01*
X902609Y293431D01*
X902510Y293510D01*
X902416Y293594D01*
X902374Y293618D01*
X902336Y293648D01*
X902222Y293702D01*
X902111Y293763D01*
X902064Y293776D01*
X902021Y293797D01*
X901897Y293823D01*
X901776Y293858D01*
X901715Y293863D01*
X901680Y293870D01*
X901632Y293869D01*
X901532Y293877D01*
X888860Y293877D01*
X888760Y293866D01*
X888660Y293864D01*
X888588Y293846D01*
X888514Y293837D01*
X888419Y293803D01*
X888322Y293779D01*
X888256Y293745D01*
X888186Y293720D01*
X888101Y293665D01*
X888012Y293619D01*
X887956Y293571D01*
X887893Y293531D01*
X887823Y293459D01*
X887747Y293394D01*
X887703Y293334D01*
X887651Y293280D01*
X887599Y293194D01*
X887540Y293113D01*
X887510Y293045D01*
X887472Y292981D01*
X887441Y292885D01*
X887402Y292793D01*
X887388Y292720D01*
X887366Y292649D01*
X887358Y292549D01*
X887340Y292450D01*
X887344Y292376D01*
X887338Y292302D01*
X887353Y292202D01*
X887358Y292102D01*
X887378Y292031D01*
X887390Y291957D01*
X887427Y291864D01*
X887454Y291767D01*
X887491Y291702D01*
X887518Y291633D01*
X887576Y291551D01*
X887625Y291463D01*
X887690Y291387D01*
X887717Y291347D01*
X887744Y291323D01*
X887783Y291277D01*
X888760Y290300D01*
X889983Y287348D01*
X889983Y284152D01*
X888760Y281200D01*
X886500Y278940D01*
X883548Y277717D01*
X868352Y277717D01*
X865400Y278940D01*
X863140Y281200D01*
X861917Y284152D01*
X861917Y287348D01*
X863140Y290300D01*
X864117Y291277D01*
X864179Y291356D01*
X864249Y291428D01*
X864287Y291492D01*
X864334Y291550D01*
X864376Y291641D01*
X864428Y291727D01*
X864451Y291798D01*
X864482Y291865D01*
X864504Y291963D01*
X864534Y292059D01*
X864540Y292133D01*
X864556Y292206D01*
X864554Y292306D01*
X864562Y292406D01*
X864551Y292480D01*
X864550Y292554D01*
X864525Y292651D01*
X864510Y292751D01*
X864483Y292820D01*
X864465Y292892D01*
X864419Y292981D01*
X864382Y293075D01*
X864339Y293136D01*
X864305Y293202D01*
X864240Y293278D01*
X864183Y293361D01*
X864128Y293411D01*
X864079Y293467D01*
X863999Y293527D01*
X863924Y293594D01*
X863859Y293630D01*
X863799Y293675D01*
X863707Y293714D01*
X863619Y293763D01*
X863547Y293783D01*
X863479Y293813D01*
X863380Y293830D01*
X863284Y293858D01*
X863184Y293866D01*
X863136Y293874D01*
X863100Y293872D01*
X863040Y293877D01*
X834375Y293877D01*
X834249Y293863D01*
X834123Y293856D01*
X834077Y293843D01*
X834029Y293837D01*
X833910Y293795D01*
X833788Y293760D01*
X833746Y293736D01*
X833701Y293720D01*
X833594Y293651D01*
X833484Y293590D01*
X833438Y293550D01*
X833408Y293531D01*
X833374Y293496D01*
X833298Y293431D01*
X814644Y274777D01*
X814565Y274678D01*
X814481Y274584D01*
X814457Y274542D01*
X814427Y274504D01*
X814373Y274390D01*
X814312Y274279D01*
X814299Y274233D01*
X814278Y274189D01*
X814252Y274066D01*
X814217Y273944D01*
X814212Y273883D01*
X814205Y273848D01*
X814206Y273800D01*
X814198Y273700D01*
X814198Y115363D01*
X814214Y115223D01*
X814224Y115083D01*
X814235Y115042D01*
X814237Y115020D01*
X814199Y114227D01*
X814201Y114199D01*
X814198Y114155D01*
X814198Y113337D01*
X814173Y113264D01*
X814168Y113222D01*
X814161Y113200D01*
X813823Y112482D01*
X813814Y112456D01*
X813794Y112416D01*
X813481Y111660D01*
X813430Y111602D01*
X813410Y111566D01*
X813395Y111548D01*
X812808Y111014D01*
X812790Y110993D01*
X812756Y110964D01*
X812178Y110386D01*
X812108Y110351D01*
X812075Y110326D01*
X812052Y110313D01*
X812015Y110279D01*
X811915Y110202D01*
X779771Y80980D01*
X779664Y80858D01*
X779556Y80738D01*
X779550Y80727D01*
X779542Y80718D01*
X779466Y80575D01*
X779387Y80433D01*
X779384Y80421D01*
X779378Y80410D01*
X779336Y80253D01*
X779292Y80097D01*
X779291Y80083D01*
X779289Y80074D01*
X779288Y80039D01*
X779273Y79853D01*
X779273Y42592D01*
X779281Y42516D01*
X779280Y42439D01*
X779301Y42343D01*
X779313Y42246D01*
X779338Y42174D01*
X779355Y42099D01*
X779397Y42010D01*
X779430Y41917D01*
X779472Y41853D01*
X779504Y41784D01*
X779566Y41707D01*
X779619Y41625D01*
X779674Y41572D01*
X779722Y41512D01*
X779799Y41451D01*
X779870Y41382D01*
X779935Y41343D01*
X779995Y41296D01*
X780128Y41228D01*
X780165Y41206D01*
X782883Y38488D01*
X784353Y34940D01*
X784353Y15860D01*
X782883Y12312D01*
X780168Y9597D01*
X776620Y8127D01*
X772780Y8127D01*
G37*
%LPD*%
%LPC*%
G36*
X741203Y284117D02*
X741203Y284117D01*
X737975Y285454D01*
X735504Y287925D01*
X734167Y291153D01*
X734167Y294647D01*
X735504Y297875D01*
X737975Y300346D01*
X741203Y301683D01*
X744697Y301683D01*
X744725Y301671D01*
X744798Y301650D01*
X744868Y301620D01*
X744965Y301603D01*
X745060Y301576D01*
X745136Y301572D01*
X745211Y301558D01*
X745310Y301563D01*
X745408Y301559D01*
X745483Y301572D01*
X745559Y301576D01*
X745654Y301604D01*
X745751Y301621D01*
X745821Y301652D01*
X745894Y301673D01*
X745980Y301721D01*
X746070Y301760D01*
X746132Y301806D01*
X746198Y301843D01*
X746312Y301940D01*
X746350Y301968D01*
X746362Y301983D01*
X746385Y302001D01*
X818703Y374320D01*
X818782Y374419D01*
X818866Y374513D01*
X818890Y374555D01*
X818920Y374593D01*
X818974Y374707D01*
X819035Y374818D01*
X819048Y374864D01*
X819069Y374908D01*
X819095Y375031D01*
X819130Y375153D01*
X819135Y375214D01*
X819142Y375249D01*
X819141Y375297D01*
X819149Y375397D01*
X819149Y375913D01*
X820116Y378247D01*
X821903Y380034D01*
X824237Y381001D01*
X826763Y381001D01*
X829097Y380034D01*
X829462Y379669D01*
X829561Y379590D01*
X829655Y379506D01*
X829698Y379482D01*
X829735Y379452D01*
X829850Y379398D01*
X829960Y379337D01*
X830007Y379324D01*
X830051Y379303D01*
X830174Y379277D01*
X830296Y379242D01*
X830356Y379237D01*
X830391Y379230D01*
X830439Y379231D01*
X830540Y379223D01*
X971371Y379223D01*
X971404Y379227D01*
X971460Y379225D01*
X972233Y379271D01*
X972334Y379242D01*
X972387Y379238D01*
X972418Y379231D01*
X972439Y379231D01*
X973134Y378943D01*
X973167Y378934D01*
X973218Y378911D01*
X973949Y378658D01*
X974031Y378593D01*
X974079Y378568D01*
X974105Y378550D01*
X974124Y378542D01*
X974657Y378010D01*
X974683Y377989D01*
X974722Y377949D01*
X1028005Y330585D01*
X1028073Y330538D01*
X1028133Y330484D01*
X1028214Y330439D01*
X1028291Y330385D01*
X1028367Y330355D01*
X1028438Y330315D01*
X1028528Y330290D01*
X1028614Y330255D01*
X1028695Y330243D01*
X1028774Y330220D01*
X1028910Y330209D01*
X1028958Y330202D01*
X1028981Y330204D01*
X1029017Y330201D01*
X1029963Y330201D01*
X1032297Y329234D01*
X1034084Y327447D01*
X1035051Y325113D01*
X1035051Y322587D01*
X1034084Y320253D01*
X1032297Y318466D01*
X1029963Y317499D01*
X1027437Y317499D01*
X1025103Y318466D01*
X1023316Y320253D01*
X1022349Y322587D01*
X1022349Y322693D01*
X1022330Y322861D01*
X1022311Y323033D01*
X1022310Y323036D01*
X1022309Y323039D01*
X1022252Y323199D01*
X1022195Y323361D01*
X1022193Y323364D01*
X1022192Y323367D01*
X1022099Y323510D01*
X1022007Y323655D01*
X1022004Y323658D01*
X1022003Y323660D01*
X1021993Y323670D01*
X1021838Y323831D01*
X970244Y369693D01*
X970177Y369740D01*
X970117Y369794D01*
X970035Y369839D01*
X969959Y369893D01*
X969883Y369923D01*
X969812Y369963D01*
X969722Y369988D01*
X969636Y370023D01*
X969555Y370035D01*
X969476Y370058D01*
X969340Y370069D01*
X969291Y370076D01*
X969268Y370074D01*
X969232Y370077D01*
X830540Y370077D01*
X830414Y370063D01*
X830288Y370056D01*
X830241Y370043D01*
X830193Y370037D01*
X830074Y369995D01*
X829953Y369960D01*
X829911Y369936D01*
X829865Y369920D01*
X829759Y369851D01*
X829649Y369790D01*
X829602Y369750D01*
X829572Y369731D01*
X829539Y369696D01*
X829462Y369631D01*
X829097Y369266D01*
X826763Y368299D01*
X826247Y368299D01*
X826121Y368285D01*
X825995Y368278D01*
X825949Y368265D01*
X825901Y368259D01*
X825782Y368217D01*
X825660Y368182D01*
X825618Y368158D01*
X825573Y368142D01*
X825466Y368073D01*
X825356Y368012D01*
X825310Y367972D01*
X825280Y367953D01*
X825246Y367918D01*
X825170Y367853D01*
X752179Y294862D01*
X752100Y294763D01*
X752016Y294669D01*
X751992Y294627D01*
X751962Y294589D01*
X751908Y294475D01*
X751847Y294364D01*
X751834Y294318D01*
X751813Y294274D01*
X751787Y294150D01*
X751752Y294029D01*
X751747Y293968D01*
X751740Y293933D01*
X751741Y293885D01*
X751733Y293785D01*
X751733Y291153D01*
X750396Y287925D01*
X747925Y285454D01*
X744697Y284117D01*
X741203Y284117D01*
G37*
%LPD*%
%LPC*%
G36*
X741687Y98424D02*
X741687Y98424D01*
X739353Y99391D01*
X737566Y101178D01*
X736599Y103512D01*
X736599Y106038D01*
X737650Y108574D01*
X737663Y108622D01*
X737685Y108668D01*
X737711Y108789D01*
X737745Y108909D01*
X737748Y108959D01*
X737758Y109009D01*
X737756Y109133D01*
X737762Y109257D01*
X737753Y109307D01*
X737752Y109357D01*
X737722Y109478D01*
X737700Y109600D01*
X737680Y109646D01*
X737667Y109695D01*
X737610Y109805D01*
X737561Y109920D01*
X737531Y109960D01*
X737508Y110005D01*
X737427Y110100D01*
X737353Y110199D01*
X737314Y110232D01*
X737282Y110270D01*
X737182Y110344D01*
X737087Y110424D01*
X737042Y110447D01*
X737002Y110477D01*
X736887Y110527D01*
X736777Y110583D01*
X736728Y110595D01*
X736682Y110615D01*
X736559Y110637D01*
X736438Y110667D01*
X736388Y110668D01*
X736339Y110677D01*
X736214Y110671D01*
X736090Y110672D01*
X736041Y110662D01*
X735990Y110659D01*
X735871Y110625D01*
X735749Y110598D01*
X735704Y110577D01*
X735656Y110563D01*
X735547Y110502D01*
X735435Y110448D01*
X735395Y110417D01*
X735351Y110392D01*
X735165Y110234D01*
X733847Y108916D01*
X731513Y107949D01*
X728987Y107949D01*
X726653Y108916D01*
X724866Y110703D01*
X723899Y113037D01*
X723899Y115563D01*
X724866Y117897D01*
X725231Y118262D01*
X725296Y118344D01*
X725348Y118398D01*
X725359Y118416D01*
X725394Y118455D01*
X725418Y118498D01*
X725448Y118535D01*
X725502Y118650D01*
X725563Y118760D01*
X725576Y118807D01*
X725597Y118851D01*
X725623Y118974D01*
X725658Y119096D01*
X725663Y119156D01*
X725670Y119191D01*
X725669Y119239D01*
X725677Y119340D01*
X725677Y231110D01*
X726373Y232790D01*
X733721Y240138D01*
X733788Y240222D01*
X733823Y240258D01*
X733830Y240271D01*
X733884Y240331D01*
X733908Y240373D01*
X733938Y240411D01*
X733992Y240525D01*
X734053Y240636D01*
X734066Y240682D01*
X734087Y240726D01*
X734113Y240849D01*
X734148Y240971D01*
X734153Y241032D01*
X734160Y241067D01*
X734159Y241115D01*
X734167Y241215D01*
X734167Y244647D01*
X735504Y247875D01*
X737975Y250346D01*
X741203Y251683D01*
X744697Y251683D01*
X747925Y250346D01*
X750396Y247875D01*
X751733Y244647D01*
X751733Y241153D01*
X750396Y237925D01*
X747925Y235454D01*
X744697Y234117D01*
X741265Y234117D01*
X741139Y234103D01*
X741013Y234096D01*
X740967Y234083D01*
X740919Y234077D01*
X740800Y234035D01*
X740678Y234000D01*
X740636Y233976D01*
X740591Y233960D01*
X740484Y233891D01*
X740374Y233830D01*
X740328Y233790D01*
X740298Y233771D01*
X740264Y233736D01*
X740188Y233671D01*
X735269Y228752D01*
X735190Y228653D01*
X735106Y228559D01*
X735082Y228517D01*
X735052Y228479D01*
X734998Y228365D01*
X734937Y228254D01*
X734924Y228208D01*
X734903Y228164D01*
X734877Y228041D01*
X734842Y227919D01*
X734837Y227858D01*
X734830Y227823D01*
X734831Y227775D01*
X734823Y227675D01*
X734823Y225871D01*
X734834Y225771D01*
X734836Y225671D01*
X734854Y225599D01*
X734863Y225525D01*
X734896Y225430D01*
X734921Y225333D01*
X734955Y225267D01*
X734980Y225197D01*
X735035Y225112D01*
X735081Y225023D01*
X735129Y224966D01*
X735169Y224904D01*
X735241Y224834D01*
X735306Y224757D01*
X735366Y224713D01*
X735420Y224662D01*
X735506Y224610D01*
X735587Y224550D01*
X735655Y224521D01*
X735719Y224483D01*
X735814Y224452D01*
X735907Y224412D01*
X735980Y224399D01*
X736051Y224376D01*
X736151Y224368D01*
X736250Y224351D01*
X736324Y224354D01*
X736398Y224348D01*
X736497Y224363D01*
X736598Y224369D01*
X736669Y224389D01*
X736743Y224400D01*
X736836Y224437D01*
X736933Y224465D01*
X736998Y224501D01*
X737067Y224529D01*
X737149Y224586D01*
X737237Y224635D01*
X737313Y224700D01*
X737353Y224728D01*
X737377Y224754D01*
X737423Y224794D01*
X737975Y225346D01*
X741203Y226683D01*
X744697Y226683D01*
X747925Y225346D01*
X750396Y222875D01*
X751733Y219647D01*
X751733Y216153D01*
X750396Y212925D01*
X747969Y210498D01*
X747890Y210399D01*
X747806Y210305D01*
X747782Y210263D01*
X747752Y210225D01*
X747698Y210111D01*
X747637Y210000D01*
X747624Y209954D01*
X747603Y209910D01*
X747577Y209787D01*
X747542Y209665D01*
X747537Y209604D01*
X747530Y209569D01*
X747531Y209521D01*
X747523Y209421D01*
X747523Y109815D01*
X747537Y109689D01*
X747544Y109563D01*
X747557Y109516D01*
X747563Y109468D01*
X747605Y109349D01*
X747640Y109228D01*
X747664Y109186D01*
X747680Y109140D01*
X747749Y109034D01*
X747810Y108924D01*
X747850Y108877D01*
X747869Y108847D01*
X747904Y108814D01*
X747969Y108737D01*
X748334Y108372D01*
X749301Y106038D01*
X749301Y103512D01*
X748334Y101178D01*
X746547Y99391D01*
X744213Y98424D01*
X741687Y98424D01*
G37*
%LPD*%
%LPC*%
G36*
X762018Y471630D02*
X762018Y471630D01*
X761774Y471649D01*
X751347Y471649D01*
X751470Y472428D01*
X751995Y474044D01*
X752767Y475558D01*
X753766Y476933D01*
X754967Y478134D01*
X756342Y479133D01*
X757242Y479592D01*
X757378Y479682D01*
X757517Y479772D01*
X757524Y479779D01*
X757532Y479784D01*
X757645Y479904D01*
X757759Y480023D01*
X757764Y480031D01*
X757771Y480038D01*
X757854Y480181D01*
X757938Y480322D01*
X757941Y480331D01*
X757946Y480339D01*
X757995Y480499D01*
X758044Y480654D01*
X758045Y480663D01*
X758048Y480673D01*
X758059Y480838D01*
X758072Y481001D01*
X758071Y481011D01*
X758072Y481020D01*
X758045Y481182D01*
X758021Y481346D01*
X758017Y481355D01*
X758016Y481364D01*
X757953Y481516D01*
X757892Y481670D01*
X757886Y481678D01*
X757883Y481687D01*
X757787Y481820D01*
X757693Y481956D01*
X757686Y481962D01*
X757680Y481970D01*
X757556Y482079D01*
X757434Y482189D01*
X757426Y482194D01*
X757419Y482200D01*
X757273Y482278D01*
X757129Y482358D01*
X757120Y482360D01*
X757111Y482365D01*
X756953Y482408D01*
X756794Y482453D01*
X756782Y482454D01*
X756775Y482456D01*
X756745Y482457D01*
X756550Y482472D01*
X741582Y482472D01*
X733297Y490757D01*
X733297Y491340D01*
X733289Y491416D01*
X733290Y491492D01*
X733269Y491589D01*
X733257Y491686D01*
X733232Y491758D01*
X733215Y491833D01*
X733173Y491922D01*
X733140Y492014D01*
X733098Y492079D01*
X733066Y492148D01*
X733004Y492224D01*
X732951Y492307D01*
X732896Y492360D01*
X732848Y492420D01*
X732771Y492481D01*
X732700Y492549D01*
X732635Y492589D01*
X732575Y492636D01*
X732442Y492704D01*
X732401Y492728D01*
X732383Y492734D01*
X732357Y492747D01*
X731420Y493135D01*
X728848Y495708D01*
X727455Y499069D01*
X727455Y516931D01*
X728848Y520292D01*
X731420Y522864D01*
X734781Y524257D01*
X738419Y524257D01*
X741780Y522864D01*
X744352Y520292D01*
X745745Y516931D01*
X745745Y499069D01*
X744353Y495708D01*
X742097Y493453D01*
X742081Y493432D01*
X742061Y493415D01*
X741973Y493296D01*
X741881Y493180D01*
X741869Y493156D01*
X741854Y493135D01*
X741795Y492999D01*
X741732Y492865D01*
X741726Y492839D01*
X741716Y492815D01*
X741690Y492669D01*
X741658Y492524D01*
X741659Y492498D01*
X741654Y492472D01*
X741662Y492323D01*
X741664Y492175D01*
X741671Y492150D01*
X741672Y492124D01*
X741713Y491981D01*
X741749Y491837D01*
X741761Y491814D01*
X741769Y491789D01*
X741841Y491659D01*
X741909Y491528D01*
X741926Y491508D01*
X741939Y491485D01*
X742097Y491298D01*
X743872Y489524D01*
X743971Y489445D01*
X744065Y489361D01*
X744107Y489337D01*
X744145Y489307D01*
X744259Y489253D01*
X744370Y489192D01*
X744416Y489179D01*
X744460Y489158D01*
X744583Y489132D01*
X744705Y489097D01*
X744766Y489092D01*
X744801Y489085D01*
X744849Y489086D01*
X744949Y489078D01*
X758958Y489078D01*
X759008Y489083D01*
X759059Y489081D01*
X759181Y489103D01*
X759305Y489118D01*
X759352Y489135D01*
X759401Y489144D01*
X759516Y489193D01*
X759633Y489235D01*
X759675Y489262D01*
X759721Y489282D01*
X759821Y489357D01*
X759925Y489424D01*
X759960Y489460D01*
X760001Y489490D01*
X760081Y489585D01*
X760168Y489675D01*
X760194Y489718D01*
X760226Y489756D01*
X760283Y489867D01*
X760346Y489974D01*
X760362Y490022D01*
X760385Y490067D01*
X760415Y490187D01*
X760453Y490306D01*
X760457Y490356D01*
X760469Y490405D01*
X760471Y490529D01*
X760481Y490653D01*
X760473Y490703D01*
X760474Y490753D01*
X760447Y490875D01*
X760429Y490998D01*
X760410Y491045D01*
X760400Y491094D01*
X760346Y491206D01*
X760300Y491322D01*
X760271Y491363D01*
X760250Y491409D01*
X760172Y491506D01*
X760101Y491608D01*
X760064Y491642D01*
X760033Y491681D01*
X759935Y491758D01*
X759843Y491841D01*
X759798Y491866D01*
X759759Y491897D01*
X759541Y492008D01*
X756820Y493135D01*
X754248Y495708D01*
X752855Y499069D01*
X752855Y516931D01*
X754248Y520292D01*
X756820Y522864D01*
X760181Y524257D01*
X763819Y524257D01*
X767180Y522864D01*
X769752Y520292D01*
X771145Y516931D01*
X771145Y499069D01*
X769752Y495708D01*
X767180Y493135D01*
X764459Y492008D01*
X764415Y491984D01*
X764367Y491967D01*
X764263Y491899D01*
X764154Y491839D01*
X764117Y491805D01*
X764075Y491778D01*
X763988Y491688D01*
X763896Y491605D01*
X763867Y491563D01*
X763832Y491527D01*
X763769Y491420D01*
X763698Y491318D01*
X763679Y491271D01*
X763654Y491228D01*
X763616Y491110D01*
X763570Y490994D01*
X763563Y490944D01*
X763547Y490896D01*
X763537Y490772D01*
X763519Y490649D01*
X763523Y490599D01*
X763519Y490549D01*
X763538Y490426D01*
X763548Y490302D01*
X763564Y490254D01*
X763571Y490204D01*
X763617Y490089D01*
X763655Y489970D01*
X763681Y489927D01*
X763700Y489880D01*
X763771Y489778D01*
X763835Y489672D01*
X763870Y489635D01*
X763899Y489594D01*
X763991Y489511D01*
X764078Y489422D01*
X764120Y489394D01*
X764157Y489361D01*
X764266Y489301D01*
X764371Y489233D01*
X764418Y489216D01*
X764463Y489192D01*
X764582Y489158D01*
X764699Y489117D01*
X764749Y489111D01*
X764798Y489097D01*
X765042Y489078D01*
X784358Y489078D01*
X784408Y489083D01*
X784459Y489081D01*
X784581Y489103D01*
X784705Y489118D01*
X784752Y489135D01*
X784801Y489144D01*
X784916Y489193D01*
X785033Y489235D01*
X785075Y489262D01*
X785121Y489282D01*
X785221Y489357D01*
X785325Y489424D01*
X785360Y489460D01*
X785401Y489490D01*
X785481Y489585D01*
X785568Y489675D01*
X785594Y489718D01*
X785626Y489756D01*
X785683Y489867D01*
X785746Y489974D01*
X785762Y490022D01*
X785785Y490067D01*
X785815Y490187D01*
X785853Y490306D01*
X785857Y490356D01*
X785869Y490405D01*
X785871Y490529D01*
X785881Y490653D01*
X785873Y490703D01*
X785874Y490753D01*
X785847Y490875D01*
X785829Y490998D01*
X785810Y491045D01*
X785800Y491094D01*
X785746Y491206D01*
X785700Y491322D01*
X785671Y491363D01*
X785650Y491409D01*
X785572Y491506D01*
X785501Y491608D01*
X785464Y491642D01*
X785433Y491681D01*
X785335Y491758D01*
X785243Y491841D01*
X785198Y491866D01*
X785159Y491897D01*
X784941Y492008D01*
X782220Y493135D01*
X779648Y495708D01*
X778255Y499069D01*
X778255Y516931D01*
X779648Y520292D01*
X782220Y522864D01*
X785581Y524257D01*
X789219Y524257D01*
X792580Y522864D01*
X795152Y520292D01*
X796545Y516931D01*
X796545Y499069D01*
X795152Y495708D01*
X792580Y493135D01*
X789859Y492008D01*
X789815Y491984D01*
X789767Y491967D01*
X789663Y491899D01*
X789554Y491839D01*
X789517Y491805D01*
X789475Y491778D01*
X789388Y491688D01*
X789296Y491605D01*
X789267Y491563D01*
X789232Y491527D01*
X789169Y491420D01*
X789098Y491318D01*
X789079Y491271D01*
X789054Y491228D01*
X789016Y491110D01*
X788970Y490994D01*
X788963Y490944D01*
X788947Y490896D01*
X788937Y490772D01*
X788919Y490649D01*
X788923Y490599D01*
X788919Y490549D01*
X788938Y490426D01*
X788948Y490302D01*
X788964Y490254D01*
X788971Y490204D01*
X789017Y490089D01*
X789055Y489970D01*
X789081Y489927D01*
X789100Y489880D01*
X789171Y489778D01*
X789235Y489672D01*
X789270Y489635D01*
X789299Y489594D01*
X789391Y489511D01*
X789478Y489422D01*
X789520Y489394D01*
X789557Y489361D01*
X789666Y489301D01*
X789771Y489233D01*
X789818Y489216D01*
X789863Y489192D01*
X789982Y489158D01*
X790099Y489117D01*
X790149Y489111D01*
X790198Y489097D01*
X790442Y489078D01*
X804451Y489078D01*
X804577Y489092D01*
X804703Y489099D01*
X804749Y489112D01*
X804797Y489118D01*
X804916Y489160D01*
X805038Y489195D01*
X805080Y489219D01*
X805125Y489235D01*
X805231Y489304D01*
X805342Y489365D01*
X805388Y489405D01*
X805418Y489424D01*
X805452Y489459D01*
X805528Y489524D01*
X807303Y491298D01*
X807319Y491319D01*
X807339Y491336D01*
X807427Y491455D01*
X807519Y491571D01*
X807531Y491595D01*
X807546Y491616D01*
X807605Y491753D01*
X807668Y491887D01*
X807674Y491912D01*
X807684Y491936D01*
X807710Y492082D01*
X807742Y492227D01*
X807741Y492253D01*
X807746Y492279D01*
X807738Y492428D01*
X807736Y492576D01*
X807729Y492601D01*
X807728Y492627D01*
X807687Y492770D01*
X807651Y492914D01*
X807639Y492937D01*
X807631Y492962D01*
X807559Y493092D01*
X807491Y493224D01*
X807474Y493243D01*
X807461Y493266D01*
X807303Y493453D01*
X805047Y495708D01*
X803655Y499069D01*
X803655Y516931D01*
X805048Y520292D01*
X807620Y522864D01*
X810981Y524257D01*
X814619Y524257D01*
X817980Y522864D01*
X820552Y520292D01*
X821945Y516931D01*
X821945Y499069D01*
X820552Y495708D01*
X817980Y493135D01*
X817043Y492747D01*
X816976Y492710D01*
X816905Y492682D01*
X816824Y492626D01*
X816738Y492578D01*
X816682Y492527D01*
X816619Y492483D01*
X816553Y492410D01*
X816480Y492344D01*
X816437Y492281D01*
X816386Y492224D01*
X816338Y492138D01*
X816282Y492057D01*
X816254Y491986D01*
X816217Y491919D01*
X816190Y491824D01*
X816154Y491733D01*
X816143Y491657D01*
X816122Y491584D01*
X816110Y491435D01*
X816103Y491388D01*
X816105Y491369D01*
X816103Y491340D01*
X816103Y490757D01*
X807818Y482472D01*
X767450Y482472D01*
X767286Y482453D01*
X767123Y482437D01*
X767113Y482434D01*
X767104Y482432D01*
X766948Y482377D01*
X766793Y482323D01*
X766785Y482318D01*
X766776Y482315D01*
X766637Y482226D01*
X766498Y482138D01*
X766491Y482131D01*
X766483Y482126D01*
X766369Y482008D01*
X766252Y481890D01*
X766247Y481882D01*
X766241Y481875D01*
X766156Y481733D01*
X766070Y481594D01*
X766067Y481584D01*
X766062Y481576D01*
X766012Y481419D01*
X765959Y481263D01*
X765959Y481253D01*
X765956Y481244D01*
X765942Y481081D01*
X765927Y480916D01*
X765928Y480906D01*
X765928Y480897D01*
X765952Y480734D01*
X765974Y480571D01*
X765978Y480562D01*
X765979Y480552D01*
X766040Y480398D01*
X766099Y480245D01*
X766104Y480237D01*
X766108Y480228D01*
X766201Y480094D01*
X766294Y479957D01*
X766302Y479950D01*
X766307Y479942D01*
X766428Y479833D01*
X766550Y479720D01*
X766560Y479714D01*
X766566Y479709D01*
X766592Y479694D01*
X766758Y479592D01*
X767658Y479133D01*
X769033Y478134D01*
X770234Y476933D01*
X771233Y475558D01*
X772005Y474044D01*
X772530Y472428D01*
X772653Y471649D01*
X762226Y471649D01*
X762200Y471646D01*
X762174Y471648D01*
X762029Y471627D01*
X762018Y471630D01*
G37*
%LPD*%
%LPC*%
G36*
X943808Y410717D02*
X943808Y410717D01*
X936831Y412587D01*
X930576Y416198D01*
X925468Y421306D01*
X921857Y427561D01*
X919987Y434538D01*
X919987Y441762D01*
X921857Y448739D01*
X925468Y454994D01*
X930576Y460102D01*
X936831Y463713D01*
X943808Y465583D01*
X951032Y465583D01*
X958009Y463713D01*
X964264Y460102D01*
X969372Y454994D01*
X972983Y448739D01*
X974853Y441762D01*
X974853Y434538D01*
X972983Y427561D01*
X969372Y421306D01*
X964264Y416198D01*
X958009Y412587D01*
X951032Y410717D01*
X943808Y410717D01*
G37*
%LPD*%
%LPC*%
G36*
X321508Y378967D02*
X321508Y378967D01*
X314531Y380837D01*
X308276Y384448D01*
X303168Y389556D01*
X299557Y395811D01*
X297687Y402788D01*
X297687Y410012D01*
X299557Y416989D01*
X303168Y423244D01*
X308276Y428352D01*
X314531Y431963D01*
X321508Y433833D01*
X328732Y433833D01*
X335709Y431963D01*
X341964Y428352D01*
X347072Y423244D01*
X350683Y416989D01*
X352553Y410012D01*
X352553Y402788D01*
X350683Y395811D01*
X347072Y389556D01*
X341964Y384448D01*
X335709Y380837D01*
X328732Y378967D01*
X321508Y378967D01*
G37*
%LPD*%
%LPC*%
G36*
X626308Y378967D02*
X626308Y378967D01*
X619331Y380837D01*
X613076Y384448D01*
X607968Y389556D01*
X604357Y395811D01*
X602487Y402788D01*
X602487Y410012D01*
X604357Y416989D01*
X607968Y423244D01*
X613076Y428352D01*
X619331Y431963D01*
X626308Y433833D01*
X633532Y433833D01*
X640509Y431963D01*
X646764Y428352D01*
X651872Y423244D01*
X655483Y416989D01*
X657353Y410012D01*
X657353Y402788D01*
X655483Y395811D01*
X651872Y389556D01*
X646764Y384448D01*
X640509Y380837D01*
X633532Y378967D01*
X626308Y378967D01*
G37*
%LPD*%
%LPC*%
G36*
X626308Y124967D02*
X626308Y124967D01*
X619331Y126837D01*
X613076Y130448D01*
X607968Y135556D01*
X604357Y141811D01*
X602487Y148788D01*
X602487Y156012D01*
X604357Y162989D01*
X607968Y169244D01*
X613076Y174352D01*
X619331Y177963D01*
X626308Y179833D01*
X633532Y179833D01*
X640509Y177963D01*
X646764Y174352D01*
X651872Y169244D01*
X655483Y162989D01*
X657353Y156012D01*
X657353Y148788D01*
X655483Y141811D01*
X651872Y135556D01*
X646764Y130448D01*
X640509Y126837D01*
X633532Y124967D01*
X626308Y124967D01*
G37*
%LPD*%
%LPC*%
G36*
X321508Y124967D02*
X321508Y124967D01*
X314531Y126837D01*
X308276Y130448D01*
X303168Y135556D01*
X299557Y141811D01*
X297687Y148788D01*
X297687Y156012D01*
X299557Y162989D01*
X303168Y169244D01*
X308276Y174352D01*
X314531Y177963D01*
X321508Y179833D01*
X328732Y179833D01*
X335709Y177963D01*
X341964Y174352D01*
X347072Y169244D01*
X350683Y162989D01*
X352553Y156012D01*
X352553Y148788D01*
X350683Y141811D01*
X347072Y135556D01*
X341964Y130448D01*
X335709Y126837D01*
X328732Y124967D01*
X321508Y124967D01*
G37*
%LPD*%
%LPC*%
G36*
X531480Y8127D02*
X531480Y8127D01*
X527932Y9597D01*
X525217Y12312D01*
X523747Y15860D01*
X523747Y34940D01*
X525217Y38488D01*
X527947Y41218D01*
X527954Y41222D01*
X528025Y41250D01*
X528105Y41306D01*
X528192Y41354D01*
X528248Y41405D01*
X528311Y41449D01*
X528377Y41522D01*
X528450Y41588D01*
X528493Y41651D01*
X528544Y41708D01*
X528592Y41794D01*
X528648Y41875D01*
X528676Y41946D01*
X528713Y42013D01*
X528740Y42107D01*
X528776Y42199D01*
X528787Y42274D01*
X528808Y42348D01*
X528820Y42497D01*
X528827Y42544D01*
X528825Y42563D01*
X528827Y42592D01*
X528827Y90210D01*
X528813Y90336D01*
X528806Y90462D01*
X528793Y90509D01*
X528787Y90557D01*
X528745Y90676D01*
X528710Y90797D01*
X528686Y90839D01*
X528670Y90885D01*
X528601Y90991D01*
X528540Y91101D01*
X528500Y91148D01*
X528481Y91178D01*
X528446Y91211D01*
X528381Y91288D01*
X528016Y91653D01*
X527049Y93987D01*
X527049Y96513D01*
X528098Y99046D01*
X528103Y99048D01*
X528215Y99102D01*
X528255Y99133D01*
X528299Y99158D01*
X528485Y99316D01*
X529803Y100634D01*
X532137Y101601D01*
X534663Y101601D01*
X536997Y100634D01*
X538784Y98847D01*
X539751Y96513D01*
X539751Y93987D01*
X538784Y91653D01*
X538419Y91288D01*
X538340Y91189D01*
X538256Y91095D01*
X538232Y91052D01*
X538202Y91015D01*
X538148Y90900D01*
X538087Y90790D01*
X538074Y90743D01*
X538053Y90699D01*
X538027Y90576D01*
X537992Y90454D01*
X537987Y90394D01*
X537980Y90359D01*
X537981Y90311D01*
X537973Y90210D01*
X537973Y89635D01*
X537978Y89584D01*
X537976Y89534D01*
X537998Y89412D01*
X538013Y89288D01*
X538030Y89241D01*
X538039Y89191D01*
X538088Y89077D01*
X538130Y88960D01*
X538157Y88918D01*
X538178Y88872D01*
X538252Y88772D01*
X538319Y88667D01*
X538355Y88632D01*
X538385Y88592D01*
X538480Y88512D01*
X538570Y88425D01*
X538613Y88399D01*
X538651Y88367D01*
X538762Y88310D01*
X538869Y88246D01*
X538917Y88231D01*
X538962Y88208D01*
X539082Y88178D01*
X539201Y88140D01*
X539251Y88136D01*
X539300Y88124D01*
X539424Y88122D01*
X539548Y88112D01*
X539598Y88120D01*
X539648Y88119D01*
X539770Y88145D01*
X539893Y88164D01*
X539940Y88183D01*
X539989Y88193D01*
X540101Y88247D01*
X540217Y88293D01*
X540258Y88321D01*
X540304Y88343D01*
X540401Y88421D01*
X540503Y88492D01*
X540537Y88529D01*
X540576Y88560D01*
X540653Y88658D01*
X540736Y88750D01*
X540761Y88794D01*
X540792Y88834D01*
X540903Y89052D01*
X541015Y89322D01*
X542802Y91109D01*
X545136Y92076D01*
X547663Y92076D01*
X549997Y91109D01*
X551783Y89322D01*
X552750Y86988D01*
X552750Y86472D01*
X552765Y86346D01*
X552771Y86220D01*
X552784Y86174D01*
X552790Y86126D01*
X552833Y86007D01*
X552868Y85885D01*
X552891Y85843D01*
X552907Y85798D01*
X552976Y85691D01*
X553038Y85581D01*
X553077Y85535D01*
X553096Y85505D01*
X553131Y85471D01*
X553196Y85395D01*
X562677Y75915D01*
X563373Y74234D01*
X563373Y42592D01*
X563381Y42516D01*
X563380Y42439D01*
X563401Y42343D01*
X563413Y42246D01*
X563438Y42174D01*
X563455Y42099D01*
X563497Y42010D01*
X563530Y41917D01*
X563572Y41853D01*
X563604Y41784D01*
X563666Y41707D01*
X563719Y41625D01*
X563774Y41572D01*
X563822Y41512D01*
X563899Y41451D01*
X563970Y41382D01*
X564035Y41343D01*
X564095Y41296D01*
X564228Y41228D01*
X564265Y41206D01*
X566983Y38488D01*
X568453Y34940D01*
X568453Y15860D01*
X566983Y12312D01*
X564268Y9597D01*
X560720Y8127D01*
X556880Y8127D01*
X553332Y9597D01*
X550617Y12312D01*
X549147Y15860D01*
X549147Y34940D01*
X550617Y38488D01*
X553347Y41218D01*
X553354Y41222D01*
X553425Y41250D01*
X553505Y41306D01*
X553592Y41354D01*
X553648Y41405D01*
X553711Y41449D01*
X553777Y41522D01*
X553850Y41588D01*
X553893Y41651D01*
X553944Y41708D01*
X553992Y41794D01*
X554048Y41875D01*
X554076Y41946D01*
X554113Y42013D01*
X554140Y42107D01*
X554176Y42199D01*
X554187Y42274D01*
X554208Y42348D01*
X554220Y42497D01*
X554227Y42544D01*
X554225Y42563D01*
X554227Y42592D01*
X554227Y70799D01*
X554213Y70925D01*
X554206Y71051D01*
X554193Y71097D01*
X554187Y71145D01*
X554145Y71264D01*
X554110Y71386D01*
X554086Y71428D01*
X554070Y71474D01*
X554001Y71580D01*
X553940Y71690D01*
X553900Y71736D01*
X553881Y71766D01*
X553846Y71800D01*
X553781Y71876D01*
X546729Y78928D01*
X546630Y79007D01*
X546536Y79091D01*
X546494Y79115D01*
X546456Y79145D01*
X546342Y79199D01*
X546231Y79260D01*
X546185Y79273D01*
X546141Y79294D01*
X546018Y79320D01*
X545896Y79355D01*
X545835Y79360D01*
X545801Y79367D01*
X545753Y79366D01*
X545652Y79374D01*
X545136Y79374D01*
X542802Y80341D01*
X541015Y82128D01*
X540903Y82398D01*
X540879Y82442D01*
X540862Y82490D01*
X540794Y82594D01*
X540734Y82703D01*
X540700Y82740D01*
X540673Y82783D01*
X540583Y82869D01*
X540500Y82961D01*
X540458Y82990D01*
X540422Y83025D01*
X540316Y83089D01*
X540213Y83159D01*
X540166Y83178D01*
X540123Y83204D01*
X540005Y83241D01*
X539889Y83287D01*
X539839Y83294D01*
X539791Y83310D01*
X539667Y83320D01*
X539544Y83338D01*
X539494Y83334D01*
X539444Y83338D01*
X539321Y83319D01*
X539197Y83309D01*
X539149Y83294D01*
X539099Y83286D01*
X538984Y83240D01*
X538865Y83202D01*
X538822Y83176D01*
X538775Y83157D01*
X538673Y83086D01*
X538567Y83022D01*
X538530Y82987D01*
X538489Y82958D01*
X538406Y82866D01*
X538317Y82779D01*
X538289Y82737D01*
X538256Y82700D01*
X538195Y82591D01*
X538128Y82486D01*
X538112Y82439D01*
X538087Y82395D01*
X538053Y82275D01*
X538012Y82158D01*
X538006Y82108D01*
X537992Y82059D01*
X537973Y81815D01*
X537973Y42592D01*
X537981Y42516D01*
X537980Y42439D01*
X538001Y42343D01*
X538013Y42246D01*
X538038Y42174D01*
X538055Y42099D01*
X538097Y42010D01*
X538130Y41917D01*
X538172Y41853D01*
X538204Y41784D01*
X538266Y41707D01*
X538319Y41625D01*
X538374Y41572D01*
X538422Y41512D01*
X538499Y41451D01*
X538570Y41382D01*
X538635Y41343D01*
X538695Y41296D01*
X538828Y41228D01*
X538865Y41206D01*
X541583Y38488D01*
X543053Y34940D01*
X543053Y15860D01*
X541583Y12312D01*
X538868Y9597D01*
X535320Y8127D01*
X531480Y8127D01*
G37*
%LPD*%
%LPC*%
G36*
X798180Y8127D02*
X798180Y8127D01*
X794632Y9597D01*
X791917Y12312D01*
X790447Y15860D01*
X790447Y34940D01*
X791917Y38488D01*
X794647Y41218D01*
X794654Y41222D01*
X794725Y41250D01*
X794805Y41306D01*
X794892Y41354D01*
X794948Y41405D01*
X795011Y41449D01*
X795077Y41522D01*
X795150Y41588D01*
X795193Y41651D01*
X795244Y41708D01*
X795292Y41794D01*
X795348Y41875D01*
X795376Y41946D01*
X795413Y42013D01*
X795440Y42107D01*
X795476Y42199D01*
X795487Y42274D01*
X795508Y42348D01*
X795520Y42497D01*
X795527Y42544D01*
X795525Y42563D01*
X795527Y42592D01*
X795527Y83460D01*
X796223Y85140D01*
X819885Y108802D01*
X819933Y108862D01*
X819988Y108915D01*
X820041Y108998D01*
X820102Y109075D01*
X820135Y109144D01*
X820176Y109209D01*
X820209Y109301D01*
X820251Y109390D01*
X820267Y109465D01*
X820293Y109537D01*
X820304Y109635D01*
X820324Y109731D01*
X820323Y109807D01*
X820332Y109883D01*
X820320Y109981D01*
X820318Y110080D01*
X820300Y110154D01*
X820291Y110230D01*
X820245Y110372D01*
X820233Y110418D01*
X820225Y110434D01*
X820216Y110462D01*
X819149Y113037D01*
X819149Y115563D01*
X820116Y117897D01*
X821903Y119684D01*
X824237Y120651D01*
X826763Y120651D01*
X829097Y119684D01*
X830884Y117897D01*
X831851Y115563D01*
X831851Y113037D01*
X830884Y110703D01*
X830519Y110338D01*
X830440Y110239D01*
X830356Y110145D01*
X830332Y110102D01*
X830302Y110065D01*
X830248Y109950D01*
X830187Y109840D01*
X830174Y109793D01*
X830153Y109749D01*
X830127Y109626D01*
X830092Y109504D01*
X830087Y109444D01*
X830080Y109409D01*
X830081Y109361D01*
X830073Y109260D01*
X830073Y107040D01*
X829377Y105360D01*
X805119Y81102D01*
X805040Y81003D01*
X804956Y80909D01*
X804932Y80867D01*
X804902Y80829D01*
X804848Y80715D01*
X804787Y80604D01*
X804774Y80558D01*
X804753Y80514D01*
X804727Y80391D01*
X804692Y80269D01*
X804687Y80208D01*
X804680Y80173D01*
X804681Y80125D01*
X804673Y80025D01*
X804673Y42592D01*
X804681Y42516D01*
X804680Y42439D01*
X804701Y42343D01*
X804713Y42246D01*
X804738Y42174D01*
X804755Y42099D01*
X804797Y42010D01*
X804830Y41917D01*
X804872Y41853D01*
X804904Y41784D01*
X804966Y41707D01*
X805019Y41625D01*
X805074Y41572D01*
X805122Y41512D01*
X805199Y41451D01*
X805270Y41382D01*
X805335Y41343D01*
X805395Y41296D01*
X805528Y41228D01*
X805565Y41206D01*
X808283Y38488D01*
X809753Y34940D01*
X809753Y15860D01*
X808283Y12312D01*
X805568Y9597D01*
X802020Y8127D01*
X798180Y8127D01*
G37*
%LPD*%
%LPC*%
G36*
X975494Y100076D02*
X975494Y100076D01*
X971072Y101908D01*
X967687Y105293D01*
X965855Y109715D01*
X965855Y114502D01*
X967687Y118925D01*
X971072Y122310D01*
X975494Y124141D01*
X1000281Y124141D01*
X1004704Y122310D01*
X1008089Y118925D01*
X1009921Y114502D01*
X1009921Y109715D01*
X1008089Y105293D01*
X1004704Y101908D01*
X1000281Y100076D01*
X975494Y100076D01*
G37*
%LPD*%
%LPC*%
G36*
X379080Y8127D02*
X379080Y8127D01*
X375532Y9597D01*
X372817Y12312D01*
X371347Y15860D01*
X371347Y34940D01*
X372817Y38488D01*
X375532Y41203D01*
X379080Y42673D01*
X382920Y42673D01*
X386468Y41203D01*
X389183Y38488D01*
X390653Y34940D01*
X390653Y15860D01*
X389183Y12312D01*
X386468Y9597D01*
X382920Y8127D01*
X379080Y8127D01*
G37*
%LPD*%
%LPC*%
G36*
X531480Y490727D02*
X531480Y490727D01*
X527932Y492197D01*
X525217Y494912D01*
X523747Y498460D01*
X523747Y517540D01*
X525217Y521088D01*
X527932Y523803D01*
X531480Y525273D01*
X535320Y525273D01*
X538868Y523803D01*
X541583Y521088D01*
X543053Y517540D01*
X543053Y498460D01*
X541583Y494912D01*
X538868Y492197D01*
X535320Y490727D01*
X531480Y490727D01*
G37*
%LPD*%
%LPC*%
G36*
X353680Y8127D02*
X353680Y8127D01*
X350132Y9597D01*
X347417Y12312D01*
X345947Y15860D01*
X345947Y34940D01*
X347417Y38488D01*
X350132Y41203D01*
X353680Y42673D01*
X357520Y42673D01*
X361068Y41203D01*
X363783Y38488D01*
X365253Y34940D01*
X365253Y15860D01*
X363783Y12312D01*
X361068Y9597D01*
X357520Y8127D01*
X353680Y8127D01*
G37*
%LPD*%
%LPC*%
G36*
X480680Y490727D02*
X480680Y490727D01*
X477132Y492197D01*
X474417Y494912D01*
X472947Y498460D01*
X472947Y517540D01*
X474417Y521088D01*
X477132Y523803D01*
X480680Y525273D01*
X484520Y525273D01*
X488068Y523803D01*
X490783Y521088D01*
X492253Y517540D01*
X492253Y498460D01*
X490783Y494912D01*
X488068Y492197D01*
X484520Y490727D01*
X480680Y490727D01*
G37*
%LPD*%
%LPC*%
G36*
X404480Y8127D02*
X404480Y8127D01*
X400932Y9597D01*
X398217Y12312D01*
X396747Y15860D01*
X396747Y34940D01*
X398217Y38488D01*
X400932Y41203D01*
X404480Y42673D01*
X408320Y42673D01*
X411868Y41203D01*
X414583Y38488D01*
X416053Y34940D01*
X416053Y15860D01*
X414583Y12312D01*
X411868Y9597D01*
X408320Y8127D01*
X404480Y8127D01*
G37*
%LPD*%
%LPC*%
G36*
X506080Y490727D02*
X506080Y490727D01*
X502532Y492197D01*
X499817Y494912D01*
X498347Y498460D01*
X498347Y517540D01*
X499817Y521088D01*
X502532Y523803D01*
X506080Y525273D01*
X509920Y525273D01*
X513468Y523803D01*
X516183Y521088D01*
X517653Y517540D01*
X517653Y498460D01*
X516183Y494912D01*
X513468Y492197D01*
X509920Y490727D01*
X506080Y490727D01*
G37*
%LPD*%
%LPC*%
G36*
X607680Y490727D02*
X607680Y490727D01*
X604132Y492197D01*
X601417Y494912D01*
X599947Y498460D01*
X599947Y517540D01*
X601417Y521088D01*
X604132Y523803D01*
X607680Y525273D01*
X611520Y525273D01*
X615068Y523803D01*
X617783Y521088D01*
X619253Y517540D01*
X619253Y498460D01*
X617783Y494912D01*
X615068Y492197D01*
X611520Y490727D01*
X607680Y490727D01*
G37*
%LPD*%
%LPC*%
G36*
X874380Y8127D02*
X874380Y8127D01*
X870832Y9597D01*
X868117Y12312D01*
X866647Y15860D01*
X866647Y34940D01*
X868117Y38488D01*
X870832Y41203D01*
X874380Y42673D01*
X878220Y42673D01*
X881768Y41203D01*
X884483Y38488D01*
X885953Y34940D01*
X885953Y15860D01*
X884483Y12312D01*
X881768Y9597D01*
X878220Y8127D01*
X874380Y8127D01*
G37*
%LPD*%
%LPC*%
G36*
X823580Y8127D02*
X823580Y8127D01*
X820032Y9597D01*
X817317Y12312D01*
X815847Y15860D01*
X815847Y34940D01*
X817317Y38488D01*
X820032Y41203D01*
X823580Y42673D01*
X827420Y42673D01*
X830968Y41203D01*
X833683Y38488D01*
X835153Y34940D01*
X835153Y15860D01*
X833683Y12312D01*
X830968Y9597D01*
X827420Y8127D01*
X823580Y8127D01*
G37*
%LPD*%
%LPC*%
G36*
X506080Y8127D02*
X506080Y8127D01*
X502532Y9597D01*
X499817Y12312D01*
X498347Y15860D01*
X498347Y34940D01*
X499817Y38488D01*
X502532Y41203D01*
X506080Y42673D01*
X509920Y42673D01*
X513468Y41203D01*
X516183Y38488D01*
X517653Y34940D01*
X517653Y15860D01*
X516183Y12312D01*
X513468Y9597D01*
X509920Y8127D01*
X506080Y8127D01*
G37*
%LPD*%
%LPC*%
G36*
X480680Y8127D02*
X480680Y8127D01*
X477132Y9597D01*
X474417Y12312D01*
X472947Y15860D01*
X472947Y34940D01*
X474417Y38488D01*
X477132Y41203D01*
X480680Y42673D01*
X484520Y42673D01*
X488068Y41203D01*
X490783Y38488D01*
X492253Y34940D01*
X492253Y15860D01*
X490783Y12312D01*
X488068Y9597D01*
X484520Y8127D01*
X480680Y8127D01*
G37*
%LPD*%
%LPC*%
G36*
X429880Y490727D02*
X429880Y490727D01*
X426332Y492197D01*
X423617Y494912D01*
X422147Y498460D01*
X422147Y517540D01*
X423617Y521088D01*
X426332Y523803D01*
X429880Y525273D01*
X433720Y525273D01*
X437268Y523803D01*
X439983Y521088D01*
X441453Y517540D01*
X441453Y498460D01*
X439983Y494912D01*
X437268Y492197D01*
X433720Y490727D01*
X429880Y490727D01*
G37*
%LPD*%
%LPC*%
G36*
X582280Y490727D02*
X582280Y490727D01*
X578732Y492197D01*
X576017Y494912D01*
X574547Y498460D01*
X574547Y517540D01*
X576017Y521088D01*
X578732Y523803D01*
X582280Y525273D01*
X586120Y525273D01*
X589668Y523803D01*
X592383Y521088D01*
X593853Y517540D01*
X593853Y498460D01*
X592383Y494912D01*
X589668Y492197D01*
X586120Y490727D01*
X582280Y490727D01*
G37*
%LPD*%
%LPC*%
G36*
X556880Y490727D02*
X556880Y490727D01*
X553332Y492197D01*
X550617Y494912D01*
X549147Y498460D01*
X549147Y517540D01*
X550617Y521088D01*
X553332Y523803D01*
X556880Y525273D01*
X560720Y525273D01*
X564268Y523803D01*
X566983Y521088D01*
X568453Y517540D01*
X568453Y498460D01*
X566983Y494912D01*
X564268Y492197D01*
X560720Y490727D01*
X556880Y490727D01*
G37*
%LPD*%
%LPC*%
G36*
X429880Y8127D02*
X429880Y8127D01*
X426332Y9597D01*
X423617Y12312D01*
X422147Y15860D01*
X422147Y34940D01*
X423617Y38488D01*
X426332Y41203D01*
X429880Y42673D01*
X433720Y42673D01*
X437268Y41203D01*
X439983Y38488D01*
X441453Y34940D01*
X441453Y15860D01*
X439983Y12312D01*
X437268Y9597D01*
X433720Y8127D01*
X429880Y8127D01*
G37*
%LPD*%
%LPC*%
G36*
X455280Y490727D02*
X455280Y490727D01*
X451732Y492197D01*
X449017Y494912D01*
X447547Y498460D01*
X447547Y517540D01*
X449017Y521088D01*
X451732Y523803D01*
X455280Y525273D01*
X459120Y525273D01*
X462668Y523803D01*
X465383Y521088D01*
X466853Y517540D01*
X466853Y498460D01*
X465383Y494912D01*
X462668Y492197D01*
X459120Y490727D01*
X455280Y490727D01*
G37*
%LPD*%
%LPC*%
G36*
X353781Y491743D02*
X353781Y491743D01*
X350420Y493136D01*
X347848Y495708D01*
X346455Y499069D01*
X346455Y516931D01*
X347848Y520292D01*
X350420Y522864D01*
X353781Y524257D01*
X357419Y524257D01*
X360780Y522864D01*
X363352Y520292D01*
X364745Y516931D01*
X364745Y499069D01*
X363352Y495708D01*
X360780Y493136D01*
X357419Y491743D01*
X353781Y491743D01*
G37*
%LPD*%
%LPC*%
G36*
X226781Y491743D02*
X226781Y491743D01*
X223420Y493136D01*
X220848Y495708D01*
X219455Y499069D01*
X219455Y516931D01*
X220848Y520292D01*
X223420Y522864D01*
X226781Y524257D01*
X230419Y524257D01*
X233780Y522864D01*
X236352Y520292D01*
X237745Y516931D01*
X237745Y499069D01*
X236352Y495708D01*
X233780Y493136D01*
X230419Y491743D01*
X226781Y491743D01*
G37*
%LPD*%
%LPC*%
G36*
X302981Y491743D02*
X302981Y491743D01*
X299620Y493136D01*
X297048Y495708D01*
X295655Y499069D01*
X295655Y516931D01*
X297048Y520292D01*
X299620Y522864D01*
X302981Y524257D01*
X306619Y524257D01*
X309980Y522864D01*
X312552Y520292D01*
X313945Y516931D01*
X313945Y499069D01*
X312552Y495708D01*
X309980Y493136D01*
X306619Y491743D01*
X302981Y491743D01*
G37*
%LPD*%
%LPC*%
G36*
X836381Y491743D02*
X836381Y491743D01*
X833020Y493136D01*
X830448Y495708D01*
X829055Y499069D01*
X829055Y516931D01*
X830448Y520292D01*
X833020Y522864D01*
X836381Y524257D01*
X840019Y524257D01*
X843380Y522864D01*
X845952Y520292D01*
X847345Y516931D01*
X847345Y499069D01*
X845952Y495708D01*
X843380Y493136D01*
X840019Y491743D01*
X836381Y491743D01*
G37*
%LPD*%
%LPC*%
G36*
X379181Y491743D02*
X379181Y491743D01*
X375820Y493136D01*
X373248Y495708D01*
X371855Y499069D01*
X371855Y516931D01*
X373248Y520292D01*
X375820Y522864D01*
X379181Y524257D01*
X382819Y524257D01*
X386180Y522864D01*
X388752Y520292D01*
X390145Y516931D01*
X390145Y499069D01*
X388752Y495708D01*
X386180Y493136D01*
X382819Y491743D01*
X379181Y491743D01*
G37*
%LPD*%
%LPC*%
G36*
X658581Y491743D02*
X658581Y491743D01*
X655220Y493136D01*
X652648Y495708D01*
X651255Y499069D01*
X651255Y516931D01*
X652648Y520292D01*
X655220Y522864D01*
X658581Y524257D01*
X662219Y524257D01*
X665580Y522864D01*
X668152Y520292D01*
X669545Y516931D01*
X669545Y499069D01*
X668152Y495708D01*
X665580Y493136D01*
X662219Y491743D01*
X658581Y491743D01*
G37*
%LPD*%
%LPC*%
G36*
X328381Y491743D02*
X328381Y491743D01*
X325020Y493136D01*
X322448Y495708D01*
X321055Y499069D01*
X321055Y516931D01*
X322448Y520292D01*
X325020Y522864D01*
X328381Y524257D01*
X332019Y524257D01*
X335380Y522864D01*
X337952Y520292D01*
X339345Y516931D01*
X339345Y499069D01*
X337952Y495708D01*
X335380Y493136D01*
X332019Y491743D01*
X328381Y491743D01*
G37*
%LPD*%
%LPC*%
G36*
X277581Y491743D02*
X277581Y491743D01*
X274220Y493136D01*
X271648Y495708D01*
X270255Y499069D01*
X270255Y516931D01*
X271648Y520292D01*
X274220Y522864D01*
X277581Y524257D01*
X281219Y524257D01*
X284580Y522864D01*
X287152Y520292D01*
X288545Y516931D01*
X288545Y499069D01*
X287152Y495708D01*
X284580Y493136D01*
X281219Y491743D01*
X277581Y491743D01*
G37*
%LPD*%
%LPC*%
G36*
X252181Y491743D02*
X252181Y491743D01*
X248820Y493136D01*
X246248Y495708D01*
X244855Y499069D01*
X244855Y516931D01*
X246248Y520292D01*
X248820Y522864D01*
X252181Y524257D01*
X255819Y524257D01*
X259180Y522864D01*
X261752Y520292D01*
X263145Y516931D01*
X263145Y499069D01*
X261752Y495708D01*
X259180Y493136D01*
X255819Y491743D01*
X252181Y491743D01*
G37*
%LPD*%
%LPC*%
G36*
X201381Y491743D02*
X201381Y491743D01*
X198020Y493136D01*
X195448Y495708D01*
X194055Y499069D01*
X194055Y516931D01*
X195448Y520292D01*
X198020Y522864D01*
X201381Y524257D01*
X205019Y524257D01*
X208380Y522864D01*
X210952Y520292D01*
X212345Y516931D01*
X212345Y499069D01*
X210952Y495708D01*
X208380Y493136D01*
X205019Y491743D01*
X201381Y491743D01*
G37*
%LPD*%
%LPC*%
G36*
X917111Y58170D02*
X917111Y58170D01*
X912350Y62932D01*
X912350Y69666D01*
X915954Y73270D01*
X916032Y73369D01*
X916117Y73463D01*
X916140Y73505D01*
X916170Y73543D01*
X916224Y73657D01*
X916285Y73768D01*
X916299Y73814D01*
X916319Y73858D01*
X916346Y73981D01*
X916380Y74103D01*
X916385Y74164D01*
X916393Y74199D01*
X916392Y74247D01*
X916400Y74347D01*
X916400Y78755D01*
X916385Y78881D01*
X916379Y79007D01*
X916365Y79053D01*
X916360Y79101D01*
X916317Y79220D01*
X916282Y79342D01*
X916259Y79384D01*
X916242Y79429D01*
X916174Y79536D01*
X916112Y79646D01*
X916073Y79692D01*
X916053Y79722D01*
X916019Y79756D01*
X915954Y79832D01*
X912844Y82942D01*
X912844Y89676D01*
X917606Y94438D01*
X924340Y94438D01*
X929101Y89676D01*
X929101Y82942D01*
X925991Y79832D01*
X925913Y79733D01*
X925828Y79639D01*
X925805Y79597D01*
X925775Y79559D01*
X925721Y79445D01*
X925660Y79334D01*
X925647Y79288D01*
X925626Y79244D01*
X925599Y79121D01*
X925565Y78999D01*
X925560Y78938D01*
X925553Y78903D01*
X925553Y78855D01*
X925545Y78755D01*
X925545Y73359D01*
X925560Y73233D01*
X925566Y73107D01*
X925580Y73060D01*
X925585Y73012D01*
X925628Y72894D01*
X925663Y72772D01*
X925686Y72730D01*
X925703Y72684D01*
X925771Y72578D01*
X925833Y72468D01*
X925872Y72422D01*
X925892Y72392D01*
X925926Y72358D01*
X925991Y72282D01*
X928607Y69666D01*
X928607Y62932D01*
X923846Y58170D01*
X917111Y58170D01*
G37*
%LPD*%
%LPC*%
G36*
X530653Y167512D02*
X530653Y167512D01*
X529462Y168703D01*
X529462Y186897D01*
X530653Y188088D01*
X548847Y188088D01*
X550038Y186897D01*
X550038Y168703D01*
X548847Y167512D01*
X530653Y167512D01*
G37*
%LPD*%
%LPC*%
G36*
X848153Y199262D02*
X848153Y199262D01*
X846962Y200453D01*
X846962Y218647D01*
X848153Y219838D01*
X866347Y219838D01*
X867538Y218647D01*
X867538Y200453D01*
X866347Y199262D01*
X848153Y199262D01*
G37*
%LPD*%
%LPC*%
G36*
X232203Y167512D02*
X232203Y167512D01*
X231012Y168703D01*
X231012Y186897D01*
X232203Y188088D01*
X250397Y188088D01*
X251588Y186897D01*
X251588Y168703D01*
X250397Y167512D01*
X232203Y167512D01*
G37*
%LPD*%
%LPC*%
G36*
X550852Y245967D02*
X550852Y245967D01*
X547900Y247190D01*
X545640Y249450D01*
X544417Y252402D01*
X544417Y255598D01*
X545640Y258550D01*
X547900Y260810D01*
X550852Y262033D01*
X566048Y262033D01*
X569000Y260810D01*
X571260Y258550D01*
X572483Y255598D01*
X572483Y252402D01*
X571260Y249450D01*
X569000Y247190D01*
X566048Y245967D01*
X550852Y245967D01*
G37*
%LPD*%
%LPC*%
G36*
X291402Y309467D02*
X291402Y309467D01*
X288450Y310690D01*
X286190Y312950D01*
X284967Y315902D01*
X284967Y319098D01*
X286190Y322050D01*
X288450Y324310D01*
X291402Y325533D01*
X306598Y325533D01*
X309550Y324310D01*
X311810Y322050D01*
X313033Y319098D01*
X313033Y315902D01*
X311810Y312950D01*
X309550Y310690D01*
X306598Y309467D01*
X291402Y309467D01*
G37*
%LPD*%
%LPC*%
G36*
X907352Y265017D02*
X907352Y265017D01*
X904400Y266240D01*
X902140Y268500D01*
X900917Y271452D01*
X900917Y274648D01*
X902140Y277600D01*
X904400Y279860D01*
X907352Y281083D01*
X922548Y281083D01*
X925500Y279860D01*
X927760Y277600D01*
X928983Y274648D01*
X928983Y271452D01*
X927760Y268500D01*
X925500Y266240D01*
X922548Y265017D01*
X907352Y265017D01*
G37*
%LPD*%
%LPC*%
G36*
X907352Y341217D02*
X907352Y341217D01*
X904400Y342440D01*
X902140Y344700D01*
X900917Y347652D01*
X900917Y350848D01*
X902140Y353800D01*
X904400Y356060D01*
X907352Y357283D01*
X922548Y357283D01*
X925500Y356060D01*
X927760Y353800D01*
X928983Y350848D01*
X928983Y347652D01*
X927760Y344700D01*
X925500Y342440D01*
X922548Y341217D01*
X907352Y341217D01*
G37*
%LPD*%
%LPC*%
G36*
X589852Y309467D02*
X589852Y309467D01*
X586900Y310690D01*
X584640Y312950D01*
X583417Y315902D01*
X583417Y319098D01*
X584640Y322050D01*
X586900Y324310D01*
X589852Y325533D01*
X605048Y325533D01*
X608000Y324310D01*
X610260Y322050D01*
X611483Y319098D01*
X611483Y315902D01*
X610260Y312950D01*
X608000Y310690D01*
X605048Y309467D01*
X589852Y309467D01*
G37*
%LPD*%
%LPC*%
G36*
X252402Y245967D02*
X252402Y245967D01*
X249450Y247190D01*
X247190Y249450D01*
X245967Y252402D01*
X245967Y255598D01*
X247190Y258550D01*
X249450Y260810D01*
X252402Y262033D01*
X267598Y262033D01*
X270550Y260810D01*
X272810Y258550D01*
X274033Y255598D01*
X274033Y252402D01*
X272810Y249450D01*
X270550Y247190D01*
X267598Y245967D01*
X252402Y245967D01*
G37*
%LPD*%
%LPC*%
G36*
X291402Y233267D02*
X291402Y233267D01*
X288450Y234490D01*
X286190Y236750D01*
X284967Y239702D01*
X284967Y242898D01*
X286190Y245850D01*
X288450Y248110D01*
X291402Y249333D01*
X306598Y249333D01*
X309550Y248110D01*
X311810Y245850D01*
X313033Y242898D01*
X313033Y239702D01*
X311810Y236750D01*
X309550Y234490D01*
X306598Y233267D01*
X291402Y233267D01*
G37*
%LPD*%
%LPC*%
G36*
X589852Y233267D02*
X589852Y233267D01*
X586900Y234490D01*
X584640Y236750D01*
X583417Y239702D01*
X583417Y242898D01*
X584640Y245850D01*
X586900Y248110D01*
X589852Y249333D01*
X605048Y249333D01*
X608000Y248110D01*
X610260Y245850D01*
X611483Y242898D01*
X611483Y239702D01*
X610260Y236750D01*
X608000Y234490D01*
X605048Y233267D01*
X589852Y233267D01*
G37*
%LPD*%
%LPC*%
G36*
X99554Y65912D02*
X99554Y65912D01*
X95772Y67479D01*
X92879Y70372D01*
X91312Y74154D01*
X91312Y78246D01*
X92879Y82028D01*
X95772Y84921D01*
X99554Y86488D01*
X103646Y86488D01*
X107428Y84921D01*
X110321Y82028D01*
X111888Y78246D01*
X111888Y74154D01*
X110321Y70372D01*
X107428Y67479D01*
X103646Y65912D01*
X99554Y65912D01*
G37*
%LPD*%
%LPC*%
G36*
X537704Y205612D02*
X537704Y205612D01*
X533922Y207179D01*
X531029Y210072D01*
X529462Y213854D01*
X529462Y217946D01*
X531029Y221728D01*
X533922Y224621D01*
X537704Y226188D01*
X541796Y226188D01*
X545578Y224621D01*
X548471Y221728D01*
X550038Y217946D01*
X550038Y213854D01*
X548471Y210072D01*
X545578Y207179D01*
X541796Y205612D01*
X537704Y205612D01*
G37*
%LPD*%
%LPC*%
G36*
X855204Y237362D02*
X855204Y237362D01*
X851422Y238929D01*
X848529Y241822D01*
X846962Y245604D01*
X846962Y249696D01*
X848529Y253478D01*
X851422Y256371D01*
X855204Y257938D01*
X859296Y257938D01*
X863078Y256371D01*
X865971Y253478D01*
X867538Y249696D01*
X867538Y245604D01*
X865971Y241822D01*
X863078Y238929D01*
X859296Y237362D01*
X855204Y237362D01*
G37*
%LPD*%
%LPC*%
G36*
X239254Y205612D02*
X239254Y205612D01*
X235472Y207179D01*
X232579Y210072D01*
X231012Y213854D01*
X231012Y217946D01*
X232579Y221728D01*
X235472Y224621D01*
X239254Y226188D01*
X243346Y226188D01*
X247128Y224621D01*
X250021Y221728D01*
X251588Y217946D01*
X251588Y213854D01*
X250021Y210072D01*
X247128Y207179D01*
X243346Y205612D01*
X239254Y205612D01*
G37*
%LPD*%
%LPC*%
G36*
X734554Y459612D02*
X734554Y459612D01*
X730772Y461179D01*
X727879Y464072D01*
X726312Y467854D01*
X726312Y471946D01*
X727879Y475728D01*
X730772Y478621D01*
X734554Y480188D01*
X738646Y480188D01*
X742428Y478621D01*
X745321Y475728D01*
X746888Y471946D01*
X746888Y467854D01*
X745321Y464072D01*
X742428Y461179D01*
X738646Y459612D01*
X734554Y459612D01*
G37*
%LPD*%
%LPC*%
G36*
X741203Y309117D02*
X741203Y309117D01*
X737975Y310454D01*
X735504Y312925D01*
X734167Y316153D01*
X734167Y319647D01*
X735504Y322875D01*
X737975Y325346D01*
X741203Y326683D01*
X744697Y326683D01*
X747925Y325346D01*
X750396Y322875D01*
X751733Y319647D01*
X751733Y316153D01*
X750396Y312925D01*
X747925Y310454D01*
X744697Y309117D01*
X741203Y309117D01*
G37*
%LPD*%
%LPC*%
G36*
X1058703Y365867D02*
X1058703Y365867D01*
X1055475Y367204D01*
X1053004Y369675D01*
X1051667Y372903D01*
X1051667Y376397D01*
X1053004Y379625D01*
X1055475Y382096D01*
X1058703Y383433D01*
X1062197Y383433D01*
X1065425Y382096D01*
X1067896Y379625D01*
X1069233Y376397D01*
X1069233Y372903D01*
X1067896Y369675D01*
X1065425Y367204D01*
X1062197Y365867D01*
X1058703Y365867D01*
G37*
%LPD*%
%LPC*%
G36*
X1058703Y340867D02*
X1058703Y340867D01*
X1055475Y342204D01*
X1053004Y344675D01*
X1051667Y347903D01*
X1051667Y351397D01*
X1053004Y354625D01*
X1055475Y357096D01*
X1058703Y358433D01*
X1062197Y358433D01*
X1065425Y357096D01*
X1067896Y354625D01*
X1069233Y351397D01*
X1069233Y347903D01*
X1067896Y344675D01*
X1065425Y342204D01*
X1062197Y340867D01*
X1058703Y340867D01*
G37*
%LPD*%
%LPC*%
G36*
X741203Y334117D02*
X741203Y334117D01*
X737975Y335454D01*
X735504Y337925D01*
X734167Y341153D01*
X734167Y344647D01*
X735504Y347875D01*
X737975Y350346D01*
X741203Y351683D01*
X744697Y351683D01*
X747925Y350346D01*
X750396Y347875D01*
X751733Y344647D01*
X751733Y341153D01*
X750396Y337925D01*
X747925Y335454D01*
X744697Y334117D01*
X741203Y334117D01*
G37*
%LPD*%
%LPC*%
G36*
X423703Y209117D02*
X423703Y209117D01*
X420475Y210454D01*
X418004Y212925D01*
X416667Y216153D01*
X416667Y219647D01*
X418004Y222875D01*
X420475Y225346D01*
X423703Y226683D01*
X427197Y226683D01*
X430425Y225346D01*
X432896Y222875D01*
X434233Y219647D01*
X434233Y216153D01*
X432896Y212925D01*
X430425Y210454D01*
X427197Y209117D01*
X423703Y209117D01*
G37*
%LPD*%
%LPC*%
G36*
X423703Y309117D02*
X423703Y309117D01*
X420475Y310454D01*
X418004Y312925D01*
X416667Y316153D01*
X416667Y319647D01*
X418004Y322875D01*
X420475Y325346D01*
X423703Y326683D01*
X427197Y326683D01*
X430425Y325346D01*
X432896Y322875D01*
X434233Y319647D01*
X434233Y316153D01*
X432896Y312925D01*
X430425Y310454D01*
X427197Y309117D01*
X423703Y309117D01*
G37*
%LPD*%
%LPC*%
G36*
X1058703Y315867D02*
X1058703Y315867D01*
X1055475Y317204D01*
X1053004Y319675D01*
X1051667Y322903D01*
X1051667Y326397D01*
X1053004Y329625D01*
X1055475Y332096D01*
X1058703Y333433D01*
X1062197Y333433D01*
X1065425Y332096D01*
X1067896Y329625D01*
X1069233Y326397D01*
X1069233Y322903D01*
X1067896Y319675D01*
X1065425Y317204D01*
X1062197Y315867D01*
X1058703Y315867D01*
G37*
%LPD*%
%LPC*%
G36*
X423703Y284117D02*
X423703Y284117D01*
X420475Y285454D01*
X418004Y287925D01*
X416667Y291153D01*
X416667Y294647D01*
X418004Y297875D01*
X420475Y300346D01*
X423703Y301683D01*
X427197Y301683D01*
X430425Y300346D01*
X432896Y297875D01*
X434233Y294647D01*
X434233Y291153D01*
X432896Y287925D01*
X430425Y285454D01*
X427197Y284117D01*
X423703Y284117D01*
G37*
%LPD*%
%LPC*%
G36*
X423703Y234117D02*
X423703Y234117D01*
X420475Y235454D01*
X418004Y237925D01*
X416667Y241153D01*
X416667Y244647D01*
X418004Y247875D01*
X420475Y250346D01*
X423703Y251683D01*
X427197Y251683D01*
X430425Y250346D01*
X432896Y247875D01*
X434233Y244647D01*
X434233Y241153D01*
X432896Y237925D01*
X430425Y235454D01*
X427197Y234117D01*
X423703Y234117D01*
G37*
%LPD*%
%LPC*%
G36*
X423703Y334117D02*
X423703Y334117D01*
X420475Y335454D01*
X418004Y337925D01*
X416667Y341153D01*
X416667Y344647D01*
X418004Y347875D01*
X420475Y350346D01*
X423703Y351683D01*
X427197Y351683D01*
X430425Y350346D01*
X432896Y347875D01*
X434233Y344647D01*
X434233Y341153D01*
X432896Y337925D01*
X430425Y335454D01*
X427197Y334117D01*
X423703Y334117D01*
G37*
%LPD*%
%LPC*%
G36*
X47433Y461771D02*
X47433Y461771D01*
X42671Y466533D01*
X42671Y473267D01*
X47433Y478029D01*
X54167Y478029D01*
X58929Y473267D01*
X58929Y466533D01*
X54167Y461771D01*
X47433Y461771D01*
G37*
%LPD*%
%LPC*%
G36*
X98233Y499871D02*
X98233Y499871D01*
X93471Y504633D01*
X93471Y511367D01*
X98233Y516129D01*
X104967Y516129D01*
X109729Y511367D01*
X109729Y504633D01*
X104967Y499871D01*
X98233Y499871D01*
G37*
%LPD*%
%LPC*%
G36*
X815511Y58170D02*
X815511Y58170D01*
X810750Y62932D01*
X810750Y69666D01*
X815511Y74428D01*
X822246Y74428D01*
X827007Y69666D01*
X827007Y62932D01*
X822246Y58170D01*
X815511Y58170D01*
G37*
%LPD*%
%LPC*%
G36*
X98233Y398271D02*
X98233Y398271D01*
X93471Y403033D01*
X93471Y409767D01*
X98233Y414529D01*
X104967Y414529D01*
X109729Y409767D01*
X109729Y403033D01*
X104967Y398271D01*
X98233Y398271D01*
G37*
%LPD*%
%LPC*%
G36*
X40639Y27939D02*
X40639Y27939D01*
X40639Y38736D01*
X43624Y38736D01*
X49723Y32637D01*
X49743Y32620D01*
X49760Y32600D01*
X49880Y32512D01*
X49996Y32420D01*
X50020Y32409D01*
X50041Y32393D01*
X50177Y32334D01*
X50311Y32271D01*
X50337Y32266D01*
X50361Y32255D01*
X50507Y32229D01*
X50652Y32198D01*
X50678Y32198D01*
X50704Y32194D01*
X50852Y32201D01*
X51000Y32204D01*
X51026Y32210D01*
X51052Y32211D01*
X51194Y32253D01*
X51338Y32289D01*
X51361Y32301D01*
X51387Y32308D01*
X51516Y32380D01*
X51648Y32448D01*
X51668Y32465D01*
X51691Y32478D01*
X51877Y32637D01*
X57976Y38736D01*
X60961Y38736D01*
X60961Y27939D01*
X40639Y27939D01*
G37*
%LPD*%
%LPC*%
G36*
X40639Y12064D02*
X40639Y12064D01*
X40639Y22861D01*
X60961Y22861D01*
X60961Y12064D01*
X57976Y12064D01*
X51877Y18163D01*
X51857Y18180D01*
X51840Y18200D01*
X51720Y18288D01*
X51604Y18380D01*
X51580Y18391D01*
X51559Y18407D01*
X51423Y18466D01*
X51289Y18529D01*
X51263Y18534D01*
X51239Y18545D01*
X51093Y18571D01*
X50948Y18602D01*
X50922Y18602D01*
X50896Y18606D01*
X50748Y18599D01*
X50600Y18596D01*
X50574Y18590D01*
X50548Y18589D01*
X50406Y18547D01*
X50262Y18511D01*
X50239Y18499D01*
X50213Y18492D01*
X50084Y18420D01*
X49952Y18352D01*
X49932Y18335D01*
X49909Y18322D01*
X49723Y18163D01*
X43624Y12064D01*
X40639Y12064D01*
G37*
%LPD*%
%LPC*%
G36*
X1020387Y66608D02*
X1020387Y66608D01*
X1020387Y86410D01*
X1020825Y86341D01*
X1022702Y85731D01*
X1024461Y84835D01*
X1026058Y83674D01*
X1027453Y82279D01*
X1028614Y80681D01*
X1029510Y78923D01*
X1030120Y77046D01*
X1030429Y75096D01*
X1030429Y66608D01*
X1020387Y66608D01*
G37*
%LPD*%
%LPC*%
G36*
X1020387Y61609D02*
X1020387Y61609D01*
X1030429Y61609D01*
X1030429Y53122D01*
X1030120Y51172D01*
X1029510Y49295D01*
X1028614Y47536D01*
X1027453Y45939D01*
X1026058Y44543D01*
X1024461Y43383D01*
X1022702Y42487D01*
X1020825Y41877D01*
X1020387Y41808D01*
X1020387Y61609D01*
G37*
%LPD*%
%LPC*%
G36*
X1005347Y66608D02*
X1005347Y66608D01*
X1005347Y75096D01*
X1005656Y77046D01*
X1006266Y78923D01*
X1007162Y80681D01*
X1008322Y82279D01*
X1009718Y83674D01*
X1011315Y84835D01*
X1013074Y85731D01*
X1014951Y86341D01*
X1015389Y86410D01*
X1015389Y66608D01*
X1005347Y66608D01*
G37*
%LPD*%
%LPC*%
G36*
X1014951Y41877D02*
X1014951Y41877D01*
X1013074Y42487D01*
X1011315Y43383D01*
X1009718Y44543D01*
X1008322Y45939D01*
X1007162Y47536D01*
X1006266Y49295D01*
X1005656Y51172D01*
X1005347Y53122D01*
X1005347Y61609D01*
X1015389Y61609D01*
X1015389Y41808D01*
X1014951Y41877D01*
G37*
%LPD*%
%LPC*%
G36*
X13715Y181609D02*
X13715Y181609D01*
X13755Y181866D01*
X14336Y183653D01*
X15189Y185327D01*
X16294Y186848D01*
X17622Y188176D01*
X19143Y189281D01*
X20817Y190134D01*
X21393Y190321D01*
X21435Y190340D01*
X21479Y190352D01*
X21593Y190412D01*
X21710Y190466D01*
X21746Y190494D01*
X21787Y190515D01*
X21884Y190600D01*
X21986Y190679D01*
X22015Y190715D01*
X22049Y190745D01*
X22125Y190850D01*
X22206Y190950D01*
X22226Y190991D01*
X22253Y191028D01*
X22302Y191147D01*
X22359Y191263D01*
X22369Y191307D01*
X22387Y191349D01*
X22408Y191477D01*
X22437Y191603D01*
X22437Y191648D01*
X22444Y191693D01*
X22436Y191822D01*
X22435Y191951D01*
X22425Y191995D01*
X22422Y192041D01*
X22384Y192165D01*
X22354Y192290D01*
X22334Y192331D01*
X22321Y192374D01*
X22256Y192486D01*
X22199Y192602D01*
X22170Y192637D01*
X22147Y192676D01*
X22059Y192771D01*
X21976Y192870D01*
X21940Y192898D01*
X21909Y192931D01*
X21802Y193003D01*
X21699Y193081D01*
X21657Y193099D01*
X21619Y193125D01*
X21393Y193219D01*
X20817Y193406D01*
X19143Y194259D01*
X17622Y195364D01*
X16294Y196692D01*
X15189Y198213D01*
X14336Y199887D01*
X13755Y201674D01*
X13715Y201931D01*
X22861Y201931D01*
X22861Y181609D01*
X13715Y181609D01*
G37*
%LPD*%
%LPC*%
G36*
X13715Y334009D02*
X13715Y334009D01*
X13755Y334266D01*
X14336Y336053D01*
X15189Y337727D01*
X16294Y339248D01*
X17622Y340576D01*
X19143Y341681D01*
X20817Y342534D01*
X21393Y342721D01*
X21435Y342740D01*
X21479Y342752D01*
X21593Y342812D01*
X21710Y342866D01*
X21746Y342894D01*
X21787Y342915D01*
X21884Y343000D01*
X21986Y343079D01*
X22015Y343115D01*
X22049Y343145D01*
X22125Y343249D01*
X22206Y343350D01*
X22226Y343390D01*
X22253Y343427D01*
X22302Y343547D01*
X22359Y343663D01*
X22369Y343707D01*
X22387Y343749D01*
X22408Y343877D01*
X22437Y344003D01*
X22437Y344048D01*
X22444Y344093D01*
X22436Y344222D01*
X22435Y344351D01*
X22425Y344395D01*
X22422Y344441D01*
X22384Y344564D01*
X22354Y344690D01*
X22334Y344731D01*
X22321Y344774D01*
X22256Y344886D01*
X22199Y345002D01*
X22170Y345037D01*
X22147Y345076D01*
X22059Y345171D01*
X21976Y345270D01*
X21940Y345298D01*
X21909Y345331D01*
X21802Y345403D01*
X21699Y345481D01*
X21657Y345499D01*
X21619Y345525D01*
X21393Y345619D01*
X20817Y345806D01*
X19143Y346659D01*
X17622Y347764D01*
X16294Y349092D01*
X15189Y350613D01*
X14336Y352287D01*
X13755Y354074D01*
X13715Y354331D01*
X22861Y354331D01*
X22861Y334009D01*
X13715Y334009D01*
G37*
%LPD*%
%LPC*%
G36*
X13715Y232409D02*
X13715Y232409D01*
X13755Y232666D01*
X14336Y234453D01*
X15189Y236127D01*
X16294Y237648D01*
X17622Y238976D01*
X19143Y240081D01*
X20817Y240934D01*
X21393Y241121D01*
X21435Y241140D01*
X21479Y241152D01*
X21593Y241212D01*
X21710Y241266D01*
X21746Y241294D01*
X21787Y241315D01*
X21884Y241400D01*
X21986Y241479D01*
X22015Y241515D01*
X22049Y241545D01*
X22125Y241649D01*
X22206Y241750D01*
X22226Y241791D01*
X22253Y241827D01*
X22302Y241946D01*
X22359Y242063D01*
X22369Y242107D01*
X22387Y242149D01*
X22408Y242276D01*
X22437Y242402D01*
X22437Y242448D01*
X22444Y242493D01*
X22436Y242622D01*
X22435Y242751D01*
X22425Y242795D01*
X22422Y242841D01*
X22384Y242964D01*
X22354Y243090D01*
X22334Y243131D01*
X22321Y243174D01*
X22256Y243286D01*
X22199Y243402D01*
X22170Y243437D01*
X22147Y243476D01*
X22059Y243571D01*
X21976Y243670D01*
X21940Y243698D01*
X21909Y243731D01*
X21802Y243803D01*
X21699Y243881D01*
X21657Y243899D01*
X21619Y243925D01*
X21393Y244019D01*
X20817Y244206D01*
X19143Y245059D01*
X17622Y246164D01*
X16294Y247492D01*
X15189Y249013D01*
X14336Y250687D01*
X13755Y252474D01*
X13715Y252731D01*
X22861Y252731D01*
X22861Y232409D01*
X13715Y232409D01*
G37*
%LPD*%
%LPC*%
G36*
X13715Y283209D02*
X13715Y283209D01*
X13755Y283466D01*
X14336Y285253D01*
X15189Y286927D01*
X16294Y288448D01*
X17622Y289776D01*
X19143Y290881D01*
X20817Y291734D01*
X21393Y291921D01*
X21435Y291940D01*
X21479Y291952D01*
X21593Y292012D01*
X21710Y292066D01*
X21746Y292094D01*
X21787Y292115D01*
X21884Y292200D01*
X21986Y292279D01*
X22015Y292315D01*
X22049Y292345D01*
X22125Y292449D01*
X22206Y292550D01*
X22226Y292591D01*
X22253Y292627D01*
X22302Y292746D01*
X22359Y292863D01*
X22369Y292907D01*
X22387Y292949D01*
X22408Y293077D01*
X22437Y293202D01*
X22437Y293248D01*
X22444Y293293D01*
X22436Y293422D01*
X22435Y293551D01*
X22425Y293595D01*
X22422Y293641D01*
X22384Y293764D01*
X22354Y293890D01*
X22334Y293931D01*
X22321Y293974D01*
X22256Y294086D01*
X22199Y294202D01*
X22170Y294237D01*
X22147Y294276D01*
X22059Y294371D01*
X21976Y294470D01*
X21940Y294498D01*
X21909Y294531D01*
X21802Y294603D01*
X21699Y294681D01*
X21657Y294699D01*
X21619Y294725D01*
X21393Y294819D01*
X20817Y295006D01*
X19143Y295859D01*
X17622Y296964D01*
X16294Y298292D01*
X15189Y299813D01*
X14336Y301487D01*
X13755Y303274D01*
X13715Y303531D01*
X22861Y303531D01*
X22861Y283209D01*
X13715Y283209D01*
G37*
%LPD*%
%LPC*%
G36*
X13715Y308609D02*
X13715Y308609D01*
X13755Y308866D01*
X14336Y310653D01*
X15189Y312327D01*
X16294Y313848D01*
X17622Y315176D01*
X19143Y316281D01*
X20817Y317134D01*
X21393Y317321D01*
X21435Y317340D01*
X21479Y317352D01*
X21593Y317412D01*
X21710Y317466D01*
X21746Y317494D01*
X21787Y317515D01*
X21884Y317600D01*
X21986Y317679D01*
X22015Y317715D01*
X22049Y317745D01*
X22125Y317849D01*
X22206Y317950D01*
X22226Y317991D01*
X22253Y318027D01*
X22302Y318146D01*
X22359Y318263D01*
X22369Y318307D01*
X22387Y318349D01*
X22408Y318477D01*
X22437Y318602D01*
X22437Y318648D01*
X22444Y318693D01*
X22436Y318822D01*
X22435Y318951D01*
X22425Y318995D01*
X22422Y319041D01*
X22384Y319164D01*
X22354Y319290D01*
X22334Y319331D01*
X22321Y319374D01*
X22257Y319486D01*
X22199Y319602D01*
X22170Y319637D01*
X22147Y319676D01*
X22059Y319771D01*
X21976Y319870D01*
X21940Y319898D01*
X21909Y319931D01*
X21802Y320003D01*
X21699Y320081D01*
X21657Y320099D01*
X21619Y320125D01*
X21393Y320219D01*
X20817Y320406D01*
X19143Y321259D01*
X17622Y322364D01*
X16294Y323692D01*
X15189Y325213D01*
X14336Y326887D01*
X13755Y328674D01*
X13715Y328931D01*
X22861Y328931D01*
X22861Y308609D01*
X13715Y308609D01*
G37*
%LPD*%
%LPC*%
G36*
X13715Y207009D02*
X13715Y207009D01*
X13755Y207266D01*
X14336Y209053D01*
X15189Y210727D01*
X16294Y212248D01*
X17622Y213576D01*
X19143Y214681D01*
X20817Y215534D01*
X21393Y215721D01*
X21435Y215740D01*
X21479Y215752D01*
X21593Y215813D01*
X21710Y215866D01*
X21746Y215894D01*
X21787Y215915D01*
X21884Y216000D01*
X21986Y216079D01*
X22015Y216115D01*
X22049Y216145D01*
X22124Y216249D01*
X22206Y216350D01*
X22226Y216391D01*
X22253Y216428D01*
X22302Y216547D01*
X22359Y216663D01*
X22369Y216707D01*
X22387Y216749D01*
X22408Y216877D01*
X22437Y217003D01*
X22437Y217048D01*
X22444Y217093D01*
X22436Y217222D01*
X22435Y217351D01*
X22425Y217395D01*
X22422Y217441D01*
X22384Y217564D01*
X22354Y217690D01*
X22334Y217731D01*
X22321Y217774D01*
X22257Y217886D01*
X22199Y218002D01*
X22170Y218037D01*
X22147Y218076D01*
X22059Y218171D01*
X21976Y218270D01*
X21940Y218298D01*
X21909Y218331D01*
X21801Y218403D01*
X21699Y218481D01*
X21657Y218499D01*
X21619Y218525D01*
X21393Y218619D01*
X20817Y218806D01*
X19143Y219659D01*
X17622Y220764D01*
X16294Y222092D01*
X15189Y223613D01*
X14336Y225287D01*
X13755Y227074D01*
X13715Y227331D01*
X22861Y227331D01*
X22861Y207009D01*
X13715Y207009D01*
G37*
%LPD*%
%LPC*%
G36*
X13715Y257809D02*
X13715Y257809D01*
X13755Y258066D01*
X14336Y259853D01*
X15189Y261527D01*
X16294Y263048D01*
X17622Y264376D01*
X19143Y265481D01*
X20817Y266334D01*
X21393Y266521D01*
X21435Y266540D01*
X21479Y266552D01*
X21593Y266613D01*
X21710Y266666D01*
X21746Y266694D01*
X21787Y266715D01*
X21884Y266800D01*
X21986Y266879D01*
X22015Y266915D01*
X22049Y266945D01*
X22124Y267049D01*
X22206Y267150D01*
X22226Y267191D01*
X22253Y267228D01*
X22302Y267347D01*
X22359Y267463D01*
X22369Y267507D01*
X22387Y267549D01*
X22408Y267677D01*
X22437Y267803D01*
X22437Y267848D01*
X22444Y267893D01*
X22436Y268022D01*
X22435Y268151D01*
X22425Y268195D01*
X22422Y268241D01*
X22384Y268364D01*
X22354Y268490D01*
X22334Y268531D01*
X22321Y268574D01*
X22257Y268686D01*
X22199Y268802D01*
X22170Y268837D01*
X22147Y268876D01*
X22059Y268971D01*
X21976Y269070D01*
X21940Y269098D01*
X21909Y269131D01*
X21801Y269203D01*
X21699Y269281D01*
X21657Y269299D01*
X21619Y269325D01*
X21393Y269419D01*
X20817Y269606D01*
X19143Y270459D01*
X17622Y271564D01*
X16294Y272892D01*
X15189Y274413D01*
X14336Y276087D01*
X13755Y277874D01*
X13715Y278131D01*
X22861Y278131D01*
X22861Y257809D01*
X13715Y257809D01*
G37*
%LPD*%
%LPC*%
G36*
X13715Y359409D02*
X13715Y359409D01*
X13755Y359666D01*
X14336Y361453D01*
X15189Y363127D01*
X16294Y364648D01*
X17622Y365976D01*
X19143Y367081D01*
X20817Y367934D01*
X21393Y368121D01*
X21435Y368140D01*
X21479Y368152D01*
X21593Y368213D01*
X21710Y368266D01*
X21746Y368294D01*
X21787Y368315D01*
X21884Y368400D01*
X21986Y368479D01*
X22015Y368515D01*
X22049Y368545D01*
X22124Y368649D01*
X22206Y368750D01*
X22226Y368791D01*
X22253Y368828D01*
X22302Y368947D01*
X22359Y369063D01*
X22369Y369107D01*
X22387Y369149D01*
X22408Y369277D01*
X22437Y369403D01*
X22437Y369448D01*
X22444Y369493D01*
X22436Y369622D01*
X22435Y369751D01*
X22425Y369795D01*
X22422Y369841D01*
X22384Y369964D01*
X22354Y370090D01*
X22334Y370131D01*
X22321Y370174D01*
X22257Y370286D01*
X22199Y370402D01*
X22170Y370437D01*
X22147Y370476D01*
X22059Y370571D01*
X21976Y370670D01*
X21940Y370698D01*
X21909Y370731D01*
X21801Y370803D01*
X21699Y370881D01*
X21657Y370899D01*
X21619Y370925D01*
X21393Y371019D01*
X20817Y371206D01*
X19143Y372059D01*
X17622Y373164D01*
X16294Y374492D01*
X15189Y376013D01*
X14336Y377687D01*
X13755Y379474D01*
X13715Y379731D01*
X22861Y379731D01*
X22861Y359409D01*
X13715Y359409D01*
G37*
%LPD*%
%LPC*%
G36*
X853439Y27939D02*
X853439Y27939D01*
X853439Y42879D01*
X854800Y42436D01*
X856225Y41710D01*
X857519Y40770D01*
X858650Y39639D01*
X859590Y38345D01*
X860316Y36920D01*
X860811Y35399D01*
X861061Y33820D01*
X861061Y27939D01*
X853439Y27939D01*
G37*
%LPD*%
%LPC*%
G36*
X840739Y27939D02*
X840739Y27939D01*
X840739Y33820D01*
X840989Y35399D01*
X841484Y36920D01*
X842210Y38345D01*
X843150Y39639D01*
X844281Y40770D01*
X845575Y41710D01*
X847000Y42436D01*
X848361Y42879D01*
X848361Y27939D01*
X840739Y27939D01*
G37*
%LPD*%
%LPC*%
G36*
X687924Y510124D02*
X687924Y510124D01*
X687924Y524549D01*
X688060Y524527D01*
X689505Y524058D01*
X690859Y523368D01*
X692088Y522475D01*
X693163Y521400D01*
X694056Y520171D01*
X694746Y518817D01*
X695215Y517372D01*
X695453Y515872D01*
X695453Y510124D01*
X687924Y510124D01*
G37*
%LPD*%
%LPC*%
G36*
X713324Y510124D02*
X713324Y510124D01*
X713324Y524549D01*
X713460Y524527D01*
X714905Y524058D01*
X716259Y523368D01*
X717488Y522475D01*
X718563Y521400D01*
X719456Y520171D01*
X720146Y518817D01*
X720615Y517372D01*
X720853Y515872D01*
X720853Y510124D01*
X713324Y510124D01*
G37*
%LPD*%
%LPC*%
G36*
X687924Y505876D02*
X687924Y505876D01*
X695453Y505876D01*
X695453Y500128D01*
X695215Y498628D01*
X694746Y497183D01*
X694056Y495829D01*
X693163Y494600D01*
X692088Y493525D01*
X690859Y492632D01*
X689505Y491942D01*
X688060Y491473D01*
X687924Y491451D01*
X687924Y505876D01*
G37*
%LPD*%
%LPC*%
G36*
X713324Y505876D02*
X713324Y505876D01*
X720853Y505876D01*
X720853Y500128D01*
X720615Y498628D01*
X720146Y497183D01*
X719456Y495829D01*
X718563Y494600D01*
X717488Y493525D01*
X716259Y492632D01*
X714905Y491942D01*
X713460Y491473D01*
X713324Y491451D01*
X713324Y505876D01*
G37*
%LPD*%
%LPC*%
G36*
X676147Y510124D02*
X676147Y510124D01*
X676147Y515872D01*
X676385Y517372D01*
X676854Y518817D01*
X677544Y520171D01*
X678437Y521400D01*
X679512Y522475D01*
X680741Y523368D01*
X682095Y524058D01*
X683540Y524527D01*
X683676Y524549D01*
X683676Y510124D01*
X676147Y510124D01*
G37*
%LPD*%
%LPC*%
G36*
X701547Y510124D02*
X701547Y510124D01*
X701547Y515872D01*
X701785Y517372D01*
X702254Y518817D01*
X702944Y520171D01*
X703837Y521400D01*
X704912Y522475D01*
X706141Y523368D01*
X707495Y524058D01*
X708940Y524527D01*
X709076Y524549D01*
X709076Y510124D01*
X701547Y510124D01*
G37*
%LPD*%
%LPC*%
G36*
X708940Y491473D02*
X708940Y491473D01*
X707495Y491942D01*
X706141Y492632D01*
X704912Y493525D01*
X703837Y494600D01*
X702944Y495829D01*
X702254Y497183D01*
X701785Y498628D01*
X701547Y500128D01*
X701547Y505876D01*
X709076Y505876D01*
X709076Y491451D01*
X708940Y491473D01*
G37*
%LPD*%
%LPC*%
G36*
X683540Y491473D02*
X683540Y491473D01*
X682095Y491942D01*
X680741Y492632D01*
X679512Y493525D01*
X678437Y494600D01*
X677544Y495829D01*
X676854Y497183D01*
X676385Y498628D01*
X676147Y500128D01*
X676147Y505876D01*
X683676Y505876D01*
X683676Y491451D01*
X683540Y491473D01*
G37*
%LPD*%
%LPC*%
G36*
X66039Y27939D02*
X66039Y27939D01*
X66039Y38736D01*
X69024Y38736D01*
X76836Y30924D01*
X76836Y27939D01*
X66039Y27939D01*
G37*
%LPD*%
%LPC*%
G36*
X24764Y27939D02*
X24764Y27939D01*
X24764Y30924D01*
X32576Y38736D01*
X35561Y38736D01*
X35561Y27939D01*
X24764Y27939D01*
G37*
%LPD*%
%LPC*%
G36*
X66039Y12064D02*
X66039Y12064D01*
X66039Y22861D01*
X76836Y22861D01*
X76836Y19876D01*
X69024Y12064D01*
X66039Y12064D01*
G37*
%LPD*%
%LPC*%
G36*
X32576Y12064D02*
X32576Y12064D01*
X24764Y19876D01*
X24764Y22861D01*
X35561Y22861D01*
X35561Y12064D01*
X32576Y12064D01*
G37*
%LPD*%
%LPC*%
G36*
X245690Y281399D02*
X245690Y281399D01*
X245787Y281891D01*
X246431Y283446D01*
X247366Y284844D01*
X248556Y286034D01*
X249954Y286969D01*
X251509Y287613D01*
X253159Y287941D01*
X258001Y287941D01*
X258001Y281399D01*
X245690Y281399D01*
G37*
%LPD*%
%LPC*%
G36*
X544140Y281399D02*
X544140Y281399D01*
X544237Y281891D01*
X544881Y283446D01*
X545816Y284844D01*
X547006Y286034D01*
X548404Y286969D01*
X549959Y287613D01*
X551609Y287941D01*
X556451Y287941D01*
X556451Y281399D01*
X544140Y281399D01*
G37*
%LPD*%
%LPC*%
G36*
X261999Y270859D02*
X261999Y270859D01*
X261999Y277401D01*
X274310Y277401D01*
X274213Y276909D01*
X273569Y275354D01*
X272634Y273956D01*
X271444Y272766D01*
X270046Y271831D01*
X268491Y271187D01*
X266841Y270859D01*
X261999Y270859D01*
G37*
%LPD*%
%LPC*%
G36*
X560449Y270859D02*
X560449Y270859D01*
X560449Y277401D01*
X572760Y277401D01*
X572663Y276909D01*
X572019Y275354D01*
X571084Y273956D01*
X569894Y272766D01*
X568496Y271831D01*
X566941Y271187D01*
X565291Y270859D01*
X560449Y270859D01*
G37*
%LPD*%
%LPC*%
G36*
X253159Y270859D02*
X253159Y270859D01*
X251509Y271187D01*
X250670Y271535D01*
X249954Y271831D01*
X248556Y272766D01*
X247366Y273956D01*
X246431Y275354D01*
X245787Y276909D01*
X245690Y277401D01*
X258001Y277401D01*
X258001Y270859D01*
X253159Y270859D01*
G37*
%LPD*%
%LPC*%
G36*
X551609Y270859D02*
X551609Y270859D01*
X549959Y271187D01*
X549120Y271535D01*
X548404Y271831D01*
X547006Y272766D01*
X545816Y273956D01*
X544881Y275354D01*
X544237Y276909D01*
X544140Y277401D01*
X556451Y277401D01*
X556451Y270859D01*
X551609Y270859D01*
G37*
%LPD*%
%LPC*%
G36*
X13715Y384809D02*
X13715Y384809D01*
X13755Y385066D01*
X14336Y386853D01*
X15189Y388527D01*
X16294Y390048D01*
X17622Y391376D01*
X19143Y392481D01*
X20817Y393334D01*
X22604Y393915D01*
X22861Y393955D01*
X22861Y384809D01*
X13715Y384809D01*
G37*
%LPD*%
%LPC*%
G36*
X22604Y167425D02*
X22604Y167425D01*
X20817Y168006D01*
X19143Y168859D01*
X17622Y169964D01*
X16294Y171292D01*
X15189Y172813D01*
X14336Y174487D01*
X13755Y176274D01*
X13715Y176531D01*
X22861Y176531D01*
X22861Y167385D01*
X22604Y167425D01*
G37*
%LPD*%
%LPC*%
G36*
X833599Y249399D02*
X833599Y249399D01*
X833599Y258303D01*
X834378Y258180D01*
X835994Y257655D01*
X837508Y256883D01*
X838883Y255884D01*
X840084Y254683D01*
X841083Y253308D01*
X841855Y251794D01*
X842380Y250178D01*
X842503Y249399D01*
X833599Y249399D01*
G37*
%LPD*%
%LPC*%
G36*
X77949Y77949D02*
X77949Y77949D01*
X77949Y86853D01*
X78728Y86730D01*
X80344Y86205D01*
X81858Y85433D01*
X83233Y84434D01*
X84434Y83233D01*
X85433Y81858D01*
X86205Y80344D01*
X86730Y78728D01*
X86853Y77949D01*
X77949Y77949D01*
G37*
%LPD*%
%LPC*%
G36*
X516099Y217649D02*
X516099Y217649D01*
X516099Y226553D01*
X516878Y226430D01*
X518494Y225905D01*
X520008Y225133D01*
X521383Y224134D01*
X522584Y222933D01*
X523583Y221558D01*
X524355Y220044D01*
X524880Y218428D01*
X525003Y217649D01*
X516099Y217649D01*
G37*
%LPD*%
%LPC*%
G36*
X217649Y217649D02*
X217649Y217649D01*
X217649Y226553D01*
X218428Y226430D01*
X220044Y225905D01*
X221558Y225133D01*
X222933Y224134D01*
X224134Y222933D01*
X225133Y221558D01*
X225905Y220044D01*
X226430Y218428D01*
X226553Y217649D01*
X217649Y217649D01*
G37*
%LPD*%
%LPC*%
G36*
X217649Y179549D02*
X217649Y179549D01*
X217649Y188453D01*
X218428Y188330D01*
X220044Y187805D01*
X221558Y187033D01*
X222933Y186034D01*
X224134Y184833D01*
X225133Y183458D01*
X225905Y181944D01*
X226430Y180328D01*
X226553Y179549D01*
X217649Y179549D01*
G37*
%LPD*%
%LPC*%
G36*
X516099Y179549D02*
X516099Y179549D01*
X516099Y188453D01*
X516878Y188330D01*
X518494Y187805D01*
X520008Y187033D01*
X521383Y186034D01*
X522584Y184833D01*
X523583Y183458D01*
X524355Y181944D01*
X524880Y180328D01*
X525003Y179549D01*
X516099Y179549D01*
G37*
%LPD*%
%LPC*%
G36*
X833599Y211299D02*
X833599Y211299D01*
X833599Y220203D01*
X834378Y220080D01*
X835994Y219555D01*
X837508Y218783D01*
X838883Y217784D01*
X840084Y216583D01*
X841083Y215208D01*
X841855Y213694D01*
X842380Y212078D01*
X842503Y211299D01*
X833599Y211299D01*
G37*
%LPD*%
%LPC*%
G36*
X205247Y179549D02*
X205247Y179549D01*
X205370Y180328D01*
X205895Y181944D01*
X206667Y183458D01*
X207666Y184833D01*
X208867Y186034D01*
X210242Y187033D01*
X211756Y187805D01*
X213372Y188330D01*
X214151Y188453D01*
X214151Y179549D01*
X205247Y179549D01*
G37*
%LPD*%
%LPC*%
G36*
X516099Y214151D02*
X516099Y214151D01*
X525003Y214151D01*
X524880Y213372D01*
X524355Y211756D01*
X523583Y210242D01*
X522584Y208867D01*
X521383Y207666D01*
X520008Y206667D01*
X518494Y205895D01*
X516878Y205370D01*
X516099Y205247D01*
X516099Y214151D01*
G37*
%LPD*%
%LPC*%
G36*
X833599Y207801D02*
X833599Y207801D01*
X842503Y207801D01*
X842380Y207022D01*
X841855Y205406D01*
X841083Y203892D01*
X840084Y202517D01*
X838883Y201316D01*
X837508Y200317D01*
X835994Y199545D01*
X834378Y199020D01*
X833599Y198897D01*
X833599Y207801D01*
G37*
%LPD*%
%LPC*%
G36*
X503697Y179549D02*
X503697Y179549D01*
X503820Y180328D01*
X504345Y181944D01*
X505117Y183458D01*
X506116Y184833D01*
X507317Y186034D01*
X508692Y187033D01*
X510206Y187805D01*
X511822Y188330D01*
X512601Y188453D01*
X512601Y179549D01*
X503697Y179549D01*
G37*
%LPD*%
%LPC*%
G36*
X821197Y249399D02*
X821197Y249399D01*
X821320Y250178D01*
X821845Y251794D01*
X822617Y253308D01*
X823616Y254683D01*
X824817Y255884D01*
X826192Y256883D01*
X827706Y257655D01*
X829322Y258180D01*
X830101Y258303D01*
X830101Y249399D01*
X821197Y249399D01*
G37*
%LPD*%
%LPC*%
G36*
X833599Y245901D02*
X833599Y245901D01*
X842503Y245901D01*
X842380Y245122D01*
X841855Y243506D01*
X841083Y241992D01*
X840084Y240617D01*
X838883Y239416D01*
X837508Y238417D01*
X835994Y237645D01*
X834378Y237120D01*
X833599Y236997D01*
X833599Y245901D01*
G37*
%LPD*%
%LPC*%
G36*
X205247Y217649D02*
X205247Y217649D01*
X205370Y218428D01*
X205895Y220044D01*
X206667Y221558D01*
X207666Y222933D01*
X208867Y224134D01*
X210242Y225133D01*
X211756Y225905D01*
X213372Y226430D01*
X214151Y226553D01*
X214151Y217649D01*
X205247Y217649D01*
G37*
%LPD*%
%LPC*%
G36*
X503697Y217649D02*
X503697Y217649D01*
X503820Y218428D01*
X504345Y220044D01*
X505117Y221558D01*
X506116Y222933D01*
X507317Y224134D01*
X508692Y225133D01*
X510206Y225905D01*
X511822Y226430D01*
X512601Y226553D01*
X512601Y217649D01*
X503697Y217649D01*
G37*
%LPD*%
%LPC*%
G36*
X217649Y214151D02*
X217649Y214151D01*
X226553Y214151D01*
X226430Y213372D01*
X225905Y211756D01*
X225133Y210242D01*
X224134Y208867D01*
X222933Y207666D01*
X221558Y206667D01*
X220044Y205895D01*
X218428Y205370D01*
X217649Y205247D01*
X217649Y214151D01*
G37*
%LPD*%
%LPC*%
G36*
X763749Y468151D02*
X763749Y468151D01*
X772653Y468151D01*
X772530Y467372D01*
X772005Y465756D01*
X771233Y464242D01*
X770234Y462867D01*
X769033Y461666D01*
X767658Y460667D01*
X766144Y459895D01*
X764528Y459370D01*
X763749Y459247D01*
X763749Y468151D01*
G37*
%LPD*%
%LPC*%
G36*
X77949Y74451D02*
X77949Y74451D01*
X86853Y74451D01*
X86730Y73672D01*
X86205Y72056D01*
X85433Y70542D01*
X84434Y69167D01*
X83233Y67966D01*
X81858Y66967D01*
X80344Y66195D01*
X78728Y65670D01*
X77949Y65547D01*
X77949Y74451D01*
G37*
%LPD*%
%LPC*%
G36*
X217649Y176051D02*
X217649Y176051D01*
X226553Y176051D01*
X226430Y175272D01*
X225905Y173656D01*
X225133Y172142D01*
X224134Y170767D01*
X222933Y169566D01*
X221558Y168567D01*
X220044Y167795D01*
X218428Y167270D01*
X217649Y167147D01*
X217649Y176051D01*
G37*
%LPD*%
%LPC*%
G36*
X516099Y176051D02*
X516099Y176051D01*
X525003Y176051D01*
X524880Y175272D01*
X524355Y173656D01*
X523583Y172142D01*
X522584Y170767D01*
X521383Y169566D01*
X520008Y168567D01*
X518494Y167795D01*
X516878Y167270D01*
X516099Y167147D01*
X516099Y176051D01*
G37*
%LPD*%
%LPC*%
G36*
X821197Y211299D02*
X821197Y211299D01*
X821320Y212078D01*
X821845Y213694D01*
X822617Y215208D01*
X823616Y216583D01*
X824817Y217784D01*
X826192Y218783D01*
X827706Y219555D01*
X829322Y220080D01*
X830101Y220203D01*
X830101Y211299D01*
X821197Y211299D01*
G37*
%LPD*%
%LPC*%
G36*
X65547Y77949D02*
X65547Y77949D01*
X65670Y78728D01*
X66195Y80344D01*
X66967Y81858D01*
X67966Y83233D01*
X69167Y84434D01*
X70542Y85433D01*
X72056Y86205D01*
X73672Y86730D01*
X74451Y86853D01*
X74451Y77949D01*
X65547Y77949D01*
G37*
%LPD*%
%LPC*%
G36*
X829322Y199020D02*
X829322Y199020D01*
X827706Y199545D01*
X826192Y200317D01*
X824817Y201316D01*
X823616Y202517D01*
X822617Y203892D01*
X821845Y205406D01*
X821320Y207022D01*
X821197Y207801D01*
X830101Y207801D01*
X830101Y198897D01*
X829322Y199020D01*
G37*
%LPD*%
%LPC*%
G36*
X829322Y237120D02*
X829322Y237120D01*
X827706Y237645D01*
X826192Y238417D01*
X824817Y239416D01*
X823616Y240617D01*
X822617Y241992D01*
X821845Y243506D01*
X821320Y245122D01*
X821197Y245901D01*
X830101Y245901D01*
X830101Y236997D01*
X829322Y237120D01*
G37*
%LPD*%
%LPC*%
G36*
X213372Y167270D02*
X213372Y167270D01*
X211756Y167795D01*
X210242Y168567D01*
X208867Y169566D01*
X207666Y170767D01*
X206667Y172142D01*
X205895Y173656D01*
X205370Y175272D01*
X205247Y176051D01*
X214151Y176051D01*
X214151Y167147D01*
X213372Y167270D01*
G37*
%LPD*%
%LPC*%
G36*
X73672Y65670D02*
X73672Y65670D01*
X72056Y66195D01*
X70542Y66967D01*
X69167Y67966D01*
X67966Y69167D01*
X66967Y70542D01*
X66195Y72056D01*
X65670Y73672D01*
X65547Y74451D01*
X74451Y74451D01*
X74451Y65547D01*
X73672Y65670D01*
G37*
%LPD*%
%LPC*%
G36*
X511822Y167270D02*
X511822Y167270D01*
X510206Y167795D01*
X508692Y168567D01*
X507317Y169566D01*
X506116Y170767D01*
X505117Y172142D01*
X504345Y173656D01*
X503820Y175272D01*
X503697Y176051D01*
X512601Y176051D01*
X512601Y167147D01*
X511822Y167270D01*
G37*
%LPD*%
%LPC*%
G36*
X759472Y459370D02*
X759472Y459370D01*
X757856Y459895D01*
X756342Y460667D01*
X754967Y461666D01*
X753766Y462867D01*
X752767Y464242D01*
X751995Y465756D01*
X751470Y467372D01*
X751347Y468151D01*
X760251Y468151D01*
X760251Y459247D01*
X759472Y459370D01*
G37*
%LPD*%
%LPC*%
G36*
X213372Y205370D02*
X213372Y205370D01*
X211756Y205895D01*
X210242Y206667D01*
X208867Y207666D01*
X207666Y208867D01*
X206667Y210242D01*
X205895Y211756D01*
X205370Y213372D01*
X205247Y214151D01*
X214151Y214151D01*
X214151Y205247D01*
X213372Y205370D01*
G37*
%LPD*%
%LPC*%
G36*
X511822Y205370D02*
X511822Y205370D01*
X510206Y205895D01*
X508692Y206667D01*
X507317Y207666D01*
X506116Y208867D01*
X505117Y210242D01*
X504345Y211756D01*
X503820Y213372D01*
X503697Y214151D01*
X512601Y214151D01*
X512601Y205247D01*
X511822Y205370D01*
G37*
%LPD*%
%LPC*%
G36*
X180174Y459574D02*
X180174Y459574D01*
X180174Y468123D01*
X182324Y468123D01*
X188723Y461724D01*
X188723Y459574D01*
X180174Y459574D01*
G37*
%LPD*%
%LPC*%
G36*
X154774Y459574D02*
X154774Y459574D01*
X154774Y468123D01*
X156924Y468123D01*
X163323Y461724D01*
X163323Y459574D01*
X154774Y459574D01*
G37*
%LPD*%
%LPC*%
G36*
X166877Y459574D02*
X166877Y459574D01*
X166877Y461724D01*
X173276Y468123D01*
X175426Y468123D01*
X175426Y459574D01*
X166877Y459574D01*
G37*
%LPD*%
%LPC*%
G36*
X141477Y459574D02*
X141477Y459574D01*
X141477Y461724D01*
X147876Y468123D01*
X150026Y468123D01*
X150026Y459574D01*
X141477Y459574D01*
G37*
%LPD*%
%LPC*%
G36*
X427699Y270149D02*
X427699Y270149D01*
X427699Y276938D01*
X429016Y276510D01*
X430319Y275846D01*
X431503Y274987D01*
X432537Y273953D01*
X433396Y272769D01*
X434060Y271466D01*
X434488Y270149D01*
X427699Y270149D01*
G37*
%LPD*%
%LPC*%
G36*
X745199Y270149D02*
X745199Y270149D01*
X745199Y276938D01*
X746516Y276510D01*
X747819Y275846D01*
X749003Y274987D01*
X750037Y273953D01*
X750896Y272769D01*
X751560Y271466D01*
X751988Y270149D01*
X745199Y270149D01*
G37*
%LPD*%
%LPC*%
G36*
X1062699Y301899D02*
X1062699Y301899D01*
X1062699Y308688D01*
X1064016Y308260D01*
X1065319Y307596D01*
X1066503Y306737D01*
X1067537Y305703D01*
X1068396Y304519D01*
X1069060Y303216D01*
X1069488Y301899D01*
X1062699Y301899D01*
G37*
%LPD*%
%LPC*%
G36*
X733912Y270149D02*
X733912Y270149D01*
X734340Y271466D01*
X735004Y272769D01*
X735863Y273953D01*
X736897Y274987D01*
X738081Y275846D01*
X739384Y276510D01*
X740701Y276938D01*
X740701Y270149D01*
X733912Y270149D01*
G37*
%LPD*%
%LPC*%
G36*
X1051412Y301899D02*
X1051412Y301899D01*
X1051840Y303216D01*
X1052504Y304519D01*
X1053363Y305703D01*
X1054397Y306737D01*
X1055581Y307596D01*
X1056884Y308260D01*
X1058201Y308688D01*
X1058201Y301899D01*
X1051412Y301899D01*
G37*
%LPD*%
%LPC*%
G36*
X416412Y270149D02*
X416412Y270149D01*
X416840Y271466D01*
X417504Y272769D01*
X418363Y273953D01*
X419397Y274987D01*
X420581Y275846D01*
X421884Y276510D01*
X423201Y276938D01*
X423201Y270149D01*
X416412Y270149D01*
G37*
%LPD*%
%LPC*%
G36*
X1062699Y297401D02*
X1062699Y297401D01*
X1069488Y297401D01*
X1069060Y296084D01*
X1068396Y294781D01*
X1067537Y293597D01*
X1066503Y292563D01*
X1065319Y291704D01*
X1064016Y291040D01*
X1062699Y290612D01*
X1062699Y297401D01*
G37*
%LPD*%
%LPC*%
G36*
X745199Y265651D02*
X745199Y265651D01*
X751988Y265651D01*
X751560Y264334D01*
X750896Y263031D01*
X750037Y261847D01*
X749003Y260813D01*
X747819Y259954D01*
X746516Y259290D01*
X745199Y258862D01*
X745199Y265651D01*
G37*
%LPD*%
%LPC*%
G36*
X427699Y265651D02*
X427699Y265651D01*
X434488Y265651D01*
X434060Y264334D01*
X433396Y263031D01*
X432537Y261847D01*
X431503Y260813D01*
X430319Y259954D01*
X429016Y259290D01*
X427699Y258862D01*
X427699Y265651D01*
G37*
%LPD*%
%LPC*%
G36*
X739384Y259290D02*
X739384Y259290D01*
X738081Y259954D01*
X736897Y260813D01*
X735863Y261847D01*
X735004Y263031D01*
X734340Y264334D01*
X733912Y265651D01*
X740701Y265651D01*
X740701Y258862D01*
X739384Y259290D01*
G37*
%LPD*%
%LPC*%
G36*
X1056884Y291040D02*
X1056884Y291040D01*
X1055581Y291704D01*
X1054397Y292563D01*
X1053363Y293597D01*
X1052504Y294781D01*
X1051840Y296084D01*
X1051412Y297401D01*
X1058201Y297401D01*
X1058201Y290612D01*
X1056884Y291040D01*
G37*
%LPD*%
%LPC*%
G36*
X421884Y259290D02*
X421884Y259290D01*
X420581Y259954D01*
X419397Y260813D01*
X418363Y261847D01*
X417504Y263031D01*
X416840Y264334D01*
X416412Y265651D01*
X423201Y265651D01*
X423201Y258862D01*
X421884Y259290D01*
G37*
%LPD*%
%LPC*%
G36*
X923004Y113740D02*
X923004Y113740D01*
X923004Y120346D01*
X924550Y120346D01*
X929609Y115286D01*
X929609Y113740D01*
X923004Y113740D01*
G37*
%LPD*%
%LPC*%
G36*
X52831Y446531D02*
X52831Y446531D01*
X52831Y453137D01*
X54377Y453137D01*
X59437Y448077D01*
X59437Y446531D01*
X52831Y446531D01*
G37*
%LPD*%
%LPC*%
G36*
X912336Y113740D02*
X912336Y113740D01*
X912336Y115286D01*
X917395Y120346D01*
X918941Y120346D01*
X918941Y113740D01*
X912336Y113740D01*
G37*
%LPD*%
%LPC*%
G36*
X42163Y446531D02*
X42163Y446531D01*
X42163Y448077D01*
X47223Y453137D01*
X48769Y453137D01*
X48769Y446531D01*
X42163Y446531D01*
G37*
%LPD*%
%LPC*%
G36*
X923004Y103072D02*
X923004Y103072D01*
X923004Y109678D01*
X929609Y109678D01*
X929609Y108132D01*
X924550Y103072D01*
X923004Y103072D01*
G37*
%LPD*%
%LPC*%
G36*
X52831Y435863D02*
X52831Y435863D01*
X52831Y442469D01*
X59437Y442469D01*
X59437Y440923D01*
X54377Y435863D01*
X52831Y435863D01*
G37*
%LPD*%
%LPC*%
G36*
X47223Y435863D02*
X47223Y435863D01*
X42163Y440923D01*
X42163Y442469D01*
X48769Y442469D01*
X48769Y435863D01*
X47223Y435863D01*
G37*
%LPD*%
%LPC*%
G36*
X917395Y103072D02*
X917395Y103072D01*
X912336Y108132D01*
X912336Y109678D01*
X918941Y109678D01*
X918941Y103072D01*
X917395Y103072D01*
G37*
%LPD*%
D10*
X482600Y17780D02*
X482600Y33020D01*
X508000Y33020D02*
X508000Y17780D01*
X533400Y17780D02*
X533400Y33020D01*
X558800Y33020D02*
X558800Y17780D01*
X584200Y17780D02*
X584200Y33020D01*
X609600Y33020D02*
X609600Y17780D01*
X635000Y17780D02*
X635000Y33020D01*
X660400Y33020D02*
X660400Y17780D01*
X698500Y17780D02*
X698500Y33020D01*
X723900Y33020D02*
X723900Y17780D01*
X749300Y17780D02*
X749300Y33020D01*
X774700Y33020D02*
X774700Y17780D01*
X800100Y17780D02*
X800100Y33020D01*
X825500Y33020D02*
X825500Y17780D01*
X850900Y17780D02*
X850900Y33020D01*
X876300Y33020D02*
X876300Y17780D01*
X254000Y17780D02*
X254000Y33020D01*
X279400Y33020D02*
X279400Y17780D01*
X304800Y17780D02*
X304800Y33020D01*
X330200Y33020D02*
X330200Y17780D01*
X355600Y17780D02*
X355600Y33020D01*
X381000Y33020D02*
X381000Y17780D01*
X406400Y17780D02*
X406400Y33020D01*
X431800Y33020D02*
X431800Y17780D01*
D11*
X50800Y469900D03*
X50800Y444500D03*
X101600Y508000D03*
X101600Y406400D03*
D12*
X956888Y74109D02*
X956888Y54109D01*
X1017888Y54109D02*
X1017888Y74109D01*
X997888Y112109D02*
X977888Y112109D01*
D13*
X425450Y342900D03*
X425450Y317900D03*
X425450Y292900D03*
X425450Y267900D03*
X425450Y242900D03*
X425450Y217900D03*
X742950Y342900D03*
X742950Y317900D03*
X742950Y292900D03*
X742950Y267900D03*
X742950Y242900D03*
X742950Y217900D03*
D14*
X25400Y179070D03*
X50800Y176530D03*
X76200Y179070D03*
X25400Y229870D03*
X50800Y227330D03*
X76200Y229870D03*
X25400Y255270D03*
X50800Y252730D03*
X76200Y255270D03*
X25400Y204470D03*
X50800Y201930D03*
X76200Y204470D03*
D13*
X1060450Y374650D03*
X1060450Y349650D03*
X1060450Y324650D03*
X1060450Y299650D03*
X1060450Y274650D03*
X1060450Y249650D03*
D14*
X25400Y280670D03*
X50800Y278130D03*
X76200Y280670D03*
X25400Y306070D03*
X50800Y303530D03*
X76200Y306070D03*
D10*
X431800Y500380D02*
X431800Y515620D01*
X457200Y515620D02*
X457200Y500380D01*
X482600Y500380D02*
X482600Y515620D01*
X508000Y515620D02*
X508000Y500380D01*
X533400Y500380D02*
X533400Y515620D01*
X558800Y515620D02*
X558800Y500380D01*
X584200Y500380D02*
X584200Y515620D01*
X609600Y515620D02*
X609600Y500380D01*
D15*
X920479Y66299D03*
X818879Y66299D03*
D16*
X920973Y86309D03*
X920973Y111709D03*
D17*
X305000Y317500D02*
X293000Y317500D01*
X266000Y304800D02*
X254000Y304800D01*
X293000Y292100D02*
X305000Y292100D01*
X266000Y279400D02*
X254000Y279400D01*
X293000Y266700D02*
X305000Y266700D01*
X266000Y254000D02*
X254000Y254000D01*
X293000Y241300D02*
X305000Y241300D01*
X591450Y317500D02*
X603450Y317500D01*
X564450Y304800D02*
X552450Y304800D01*
X591450Y292100D02*
X603450Y292100D01*
X564450Y279400D02*
X552450Y279400D01*
X591450Y266700D02*
X603450Y266700D01*
X564450Y254000D02*
X552450Y254000D01*
X591450Y241300D02*
X603450Y241300D01*
X908950Y349250D02*
X920950Y349250D01*
X881950Y336550D02*
X869950Y336550D01*
X908950Y323850D02*
X920950Y323850D01*
X881950Y311150D02*
X869950Y311150D01*
X908950Y298450D02*
X920950Y298450D01*
X881950Y285750D02*
X869950Y285750D01*
X908950Y273050D02*
X920950Y273050D01*
D18*
X325120Y406400D03*
X325120Y152400D03*
X629920Y406400D03*
X629920Y152400D03*
X947420Y438150D03*
X947420Y184150D03*
D19*
X539750Y215900D03*
X514350Y215900D03*
X514350Y177800D03*
D20*
X539750Y177800D03*
D19*
X241300Y215900D03*
X215900Y215900D03*
X215900Y177800D03*
D20*
X241300Y177800D03*
D19*
X857250Y247650D03*
X831850Y247650D03*
X831850Y209550D03*
D20*
X857250Y209550D03*
D21*
X177800Y25400D03*
X152400Y25400D03*
X177800Y50800D03*
X152400Y50800D03*
X177800Y76200D03*
X152400Y76200D03*
X177800Y101600D03*
X152400Y101600D03*
X177800Y127000D03*
X152400Y127000D03*
X177800Y152400D03*
X152400Y152400D03*
X177800Y177800D03*
X152400Y177800D03*
X177800Y203200D03*
X152400Y203200D03*
X177800Y228600D03*
X152400Y228600D03*
X177800Y254000D03*
X152400Y254000D03*
X177800Y279400D03*
X152400Y279400D03*
X177800Y304800D03*
X152400Y304800D03*
X177800Y330200D03*
X152400Y330200D03*
X177800Y355600D03*
X152400Y355600D03*
X177800Y381000D03*
X152400Y381000D03*
X177800Y406400D03*
X152400Y406400D03*
X177800Y431800D03*
X152400Y431800D03*
X177800Y457200D03*
X152400Y457200D03*
D14*
X25400Y331470D03*
X50800Y328930D03*
X76200Y331470D03*
X25400Y356870D03*
X50800Y354330D03*
X76200Y356870D03*
X25400Y382270D03*
X50800Y379730D03*
X76200Y382270D03*
D22*
X381000Y500888D02*
X381000Y515112D01*
X355600Y515112D02*
X355600Y500888D01*
X330200Y500888D02*
X330200Y515112D01*
X304800Y515112D02*
X304800Y500888D01*
X279400Y500888D02*
X279400Y515112D01*
X254000Y515112D02*
X254000Y500888D01*
X228600Y500888D02*
X228600Y515112D01*
X203200Y515112D02*
X203200Y500888D01*
X838200Y500888D02*
X838200Y515112D01*
X812800Y515112D02*
X812800Y500888D01*
X787400Y500888D02*
X787400Y515112D01*
X762000Y515112D02*
X762000Y500888D01*
X736600Y500888D02*
X736600Y515112D01*
X711200Y515112D02*
X711200Y500888D01*
X685800Y500888D02*
X685800Y515112D01*
X660400Y515112D02*
X660400Y500888D01*
D23*
X38100Y25400D03*
X63500Y25400D03*
D19*
X101600Y76200D03*
X76200Y76200D03*
X736600Y469900D03*
X762000Y469900D03*
D24*
X558450Y279400D02*
X527050Y279400D01*
X260000Y279400D02*
X209550Y279400D01*
X514350Y215900D02*
X514350Y203200D01*
X514350Y177800D02*
X514350Y165100D01*
X831850Y234950D02*
X831850Y247650D01*
X831850Y209550D02*
X831850Y184150D01*
X1036250Y299650D02*
X1060450Y299650D01*
X1036250Y299650D02*
X1035050Y298450D01*
X875950Y311150D02*
X857250Y311150D01*
D25*
X50800Y444500D02*
X25400Y419100D01*
X25400Y382270D01*
D26*
X120650Y50800D02*
X152400Y50800D01*
X177800Y50800D02*
X209550Y50800D01*
X152400Y76200D02*
X120650Y76200D01*
X120650Y101600D02*
X152400Y101600D01*
X177800Y101600D02*
X209550Y101600D01*
D25*
X742950Y104775D02*
X742950Y217900D01*
D27*
X742950Y104775D03*
D25*
X520700Y104775D02*
X517525Y101600D01*
X393700Y101600D01*
X330200Y38100D01*
X330200Y25400D01*
D27*
X520700Y104775D03*
D25*
X730250Y230200D02*
X742950Y242900D01*
X730250Y230200D02*
X730250Y114300D01*
D27*
X730250Y114300D03*
D25*
X508000Y114300D02*
X381000Y114300D01*
X304800Y38100D01*
X304800Y25400D01*
D27*
X508000Y114300D03*
D25*
X400050Y139700D02*
X368300Y139700D01*
X254000Y25400D01*
D27*
X400050Y139700D03*
D25*
X412750Y127000D02*
X368300Y127000D01*
X279400Y38100D01*
X279400Y25400D01*
D27*
X412750Y127000D03*
D25*
X1059275Y250825D02*
X1060450Y249650D01*
X1059275Y250825D02*
X965200Y250825D01*
X895350Y180975D01*
X895350Y85725D01*
D27*
X895350Y85725D03*
X546399Y85725D03*
D25*
X558800Y73324D02*
X558800Y25400D01*
X558800Y73324D02*
X546399Y85725D01*
D27*
X533400Y95250D03*
X882650Y95250D03*
D25*
X533400Y95250D02*
X533400Y25400D01*
X882650Y95250D02*
X882650Y184150D01*
X973150Y274650D02*
X1060450Y274650D01*
X973150Y274650D02*
X882650Y184150D01*
X1028700Y323850D02*
X971550Y374650D01*
X825500Y374650D01*
X743750Y292900D01*
X742950Y292900D01*
D27*
X825500Y374650D03*
X1028700Y323850D03*
D25*
X177800Y25400D02*
X152400Y25400D01*
D24*
X812800Y492125D02*
X812800Y508000D01*
X812800Y492125D02*
X806450Y485775D01*
X742950Y485775D01*
X736600Y492125D01*
X736600Y508000D01*
D25*
X285400Y279400D02*
X260000Y304800D01*
X320675Y279400D02*
X463550Y136525D01*
X536575Y136525D01*
X609600Y63500D02*
X609600Y25400D01*
X320675Y279400D02*
X285400Y279400D01*
X536575Y136525D02*
X609600Y63500D01*
X323850Y292100D02*
X299000Y292100D01*
X323850Y292100D02*
X469900Y146050D01*
X546100Y146050D01*
X635000Y57150D01*
X635000Y25400D01*
X317500Y266700D02*
X299000Y266700D01*
X317500Y266700D02*
X457200Y127000D01*
X527050Y127000D01*
X584200Y69850D02*
X584200Y25400D01*
X584200Y69850D02*
X527050Y127000D01*
X679450Y44450D02*
X698500Y25400D01*
X679450Y44450D02*
X679450Y212725D01*
X612775Y279400D01*
X584200Y279400D01*
X558800Y304800D01*
X558450Y304800D01*
X597450Y292100D02*
X615950Y292100D01*
X692150Y215900D01*
X692150Y63500D01*
X723900Y31750D01*
X723900Y25400D01*
X609600Y266700D02*
X597450Y266700D01*
X609600Y266700D02*
X666750Y210100D01*
X666750Y53975D02*
X660400Y47625D01*
X660400Y25400D01*
X666750Y53975D02*
X666750Y210100D01*
X762000Y279750D02*
X762000Y114300D01*
D27*
X762000Y114300D03*
X825500Y114300D03*
D25*
X825500Y107950D01*
X800100Y82550D02*
X800100Y25400D01*
X800100Y82550D02*
X825500Y107950D01*
X762000Y279750D02*
X818800Y336550D01*
X875950Y336550D01*
X914950Y323850D02*
X831850Y323850D01*
X790575Y282575D01*
X790575Y123825D01*
X749300Y82550D02*
X749300Y25400D01*
X749300Y82550D02*
X790575Y123825D01*
X831850Y298450D02*
X914950Y298450D01*
X831850Y298450D02*
X809625Y276225D01*
X809625Y114300D01*
X774700Y82550D02*
X774700Y25400D01*
X774700Y82550D02*
X809625Y114300D01*
D24*
X133350Y469900D02*
X120650Y457200D01*
X120650Y325120D01*
X76200Y280670D01*
D27*
X133350Y469900D03*
D24*
X116586Y346456D02*
X76200Y306070D01*
X116586Y346456D02*
X116586Y481757D01*
D27*
X116586Y481757D03*
D25*
X920973Y86309D02*
X920973Y66793D01*
X920479Y66299D01*
M02*
