M48
;GenerationSoftware,Autodesk,EAGLE,9.1.0*%
;CreationDate,2018-07-05T21:01:02Z*%
FMAT,2
ICI,OFF
METRIC,TZ,000.000
T11C0.508
T10C0.700
T9C0.800
T8C0.813
T7C0.850
T6C0.900
T5C0.950
T4C1.000
T3C1.016
T2C2.540
T1C3.200
%
G90
M71
T1
X97770Y50760
X21570Y2500
X96500Y2500
X15220Y50760
T2
X32512Y40640
X32512Y15240
X62992Y40640
X62992Y15240
X94742Y43815
X94742Y18415
T3
X5080Y37973
X7620Y38227
X2540Y38227
X7620Y35687
X5080Y35433
X2540Y35687
X7620Y33147
X5080Y32893
X2540Y33147
X3810Y2540
X48260Y2540
X50800Y2540
X53340Y2540
X55880Y2540
X58420Y2540
X60960Y2540
X63500Y2540
X66040Y2540
X69850Y2540
X72390Y2540
X74930Y2540
X77470Y2540
X80010Y2540
X82550Y2540
X85090Y2540
X87630Y2540
X25400Y2540
X27940Y2540
X30480Y2540
X33020Y2540
X35560Y2540
X38100Y2540
X40640Y2540
X43180Y2540
X6350Y2540
X7620Y30607
X60960Y50800
X58420Y50800
X5080Y20193
X2540Y20447
X7620Y25527
X55880Y50800
X53340Y50800
X50800Y50800
X48260Y50800
X45720Y50800
X43180Y50800
X5080Y30353
X2540Y30607
X7620Y28067
X5080Y27813
X2540Y28067
X7620Y20447
X2540Y17907
X5080Y17653
X7620Y17907
X2540Y22987
X5080Y22733
X7620Y22987
X2540Y25527
X5080Y25273
T4
X98789Y11211
X101789Y6411
X95689Y6411
T5
X17780Y45720
X15240Y33020
X17780Y2540
X15240Y2540
X17780Y5080
X15240Y5080
X17780Y7620
X15240Y7620
X17780Y10160
X15240Y10160
X17780Y12700
X15240Y12700
X17780Y15240
X15240Y15240
X17780Y17780
X15240Y17780
X17780Y20320
X15240Y20320
X17780Y22860
X15240Y43180
X17780Y43180
X15240Y40640
X17780Y40640
X15240Y38100
X17780Y38100
X15240Y35560
X17780Y35560
X15240Y45720
X17780Y33020
X15240Y30480
X17780Y30480
X15240Y27940
X17780Y27940
X15240Y25400
X17780Y25400
X15240Y22860
T6
X42545Y34290
X42545Y31790
X42545Y29290
X42545Y26790
X42545Y24290
X42545Y21790
X74295Y21790
X74295Y34290
X74295Y31790
X74295Y29290
X74295Y26790
X74295Y24290
X106045Y24965
X106045Y27465
X106045Y29965
X106045Y32465
X106045Y34965
X106045Y37465
T7
X20320Y50800
X83820Y50800
X81280Y50800
X78740Y50800
X76200Y50800
X73660Y50800
X71120Y50800
X68580Y50800
X66040Y50800
X38100Y50800
X35560Y50800
X22860Y50800
X25400Y50800
X27940Y50800
X30480Y50800
X33020Y50800
T8
X5080Y46990
X5080Y44450
X10160Y40640
X10160Y50800
X92048Y6630
X81888Y6630
X92097Y8631
X92097Y11171
T9
X59745Y24130
X55845Y25400
X59745Y26670
X55845Y27940
X59745Y29210
X55845Y30480
X59745Y31750
X29900Y24130
X26000Y25400
X29900Y26670
X91495Y34925
X29900Y29210
X26000Y30480
X29900Y31750
X87595Y33655
X91495Y32385
X87595Y31115
X91495Y29845
X87595Y28575
X91495Y27305
X26000Y27940
T10
X85725Y20955
X83185Y20955
X83185Y24765
X85725Y24765
X24130Y17780
X21590Y17780
X21590Y21590
X24130Y21590
X53975Y17780
X51435Y17780
X51435Y21590
X53975Y21590
X76200Y46990
X73660Y46990
X7620Y7620
X10160Y7620
T11
X76200Y11430
X102870Y32385
X82550Y37465
X88265Y9525
X53340Y9525
X54640Y8573
X89535Y8573
X41275Y12700
X40005Y13970
X50800Y11430
X73025Y11430
X52070Y10478
X82550Y11430
X13335Y46990
X11659Y48176
X74295Y10478
M30