G04 EAGLE Gerber RS-274X export*
G75*
%MOMM*%
%FSLAX34Y34*%
%LPD*%
%AMOC8*
5,1,8,0,0,1.08239X$1,22.5*%
G01*
%ADD10C,3.352400*%
%ADD11C,1.676400*%
%ADD12P,1.484606X8X292.500000*%
%ADD13C,2.152400*%
%ADD14C,1.502400*%
%ADD15C,2.032000*%
%ADD16P,1.484606X8X202.500000*%
%ADD17P,1.484606X8X112.500000*%
%ADD18C,1.352400*%
%ADD19C,5.232400*%
%ADD20C,1.803400*%
%ADD21R,1.803400X1.803400*%
%ADD22P,1.979475X8X112.500000*%
%ADD23C,1.574800*%
%ADD24P,2.501836X8X22.500000*%
%ADD25C,1.016000*%


D10*
X152200Y507600D03*
X965000Y25000D03*
X215700Y25000D03*
X977700Y507600D03*
D11*
X482600Y33020D02*
X482600Y17780D01*
X508000Y17780D02*
X508000Y33020D01*
X533400Y33020D02*
X533400Y17780D01*
X558800Y17780D02*
X558800Y33020D01*
X584200Y33020D02*
X584200Y17780D01*
X609600Y17780D02*
X609600Y33020D01*
X635000Y33020D02*
X635000Y17780D01*
X660400Y17780D02*
X660400Y33020D01*
X698500Y33020D02*
X698500Y17780D01*
X723900Y17780D02*
X723900Y33020D01*
X749300Y33020D02*
X749300Y17780D01*
X774700Y17780D02*
X774700Y33020D01*
X800100Y33020D02*
X800100Y17780D01*
X825500Y17780D02*
X825500Y33020D01*
X850900Y33020D02*
X850900Y17780D01*
X876300Y17780D02*
X876300Y33020D01*
X254000Y33020D02*
X254000Y17780D01*
X279400Y17780D02*
X279400Y33020D01*
X304800Y33020D02*
X304800Y17780D01*
X330200Y17780D02*
X330200Y33020D01*
X355600Y33020D02*
X355600Y17780D01*
X381000Y17780D02*
X381000Y33020D01*
X406400Y33020D02*
X406400Y17780D01*
X431800Y17780D02*
X431800Y33020D01*
D12*
X50800Y469900D03*
X50800Y444500D03*
X101600Y508000D03*
X101600Y406400D03*
D13*
X956888Y74109D02*
X956888Y54109D01*
X1017888Y54109D02*
X1017888Y74109D01*
X997888Y112109D02*
X977888Y112109D01*
D14*
X425450Y342900D03*
X425450Y317900D03*
X425450Y292900D03*
X425450Y267900D03*
X425450Y242900D03*
X425450Y217900D03*
X742950Y342900D03*
X742950Y317900D03*
X742950Y292900D03*
X742950Y267900D03*
X742950Y242900D03*
X742950Y217900D03*
D15*
X25400Y179070D03*
X50800Y176530D03*
X76200Y179070D03*
X25400Y229870D03*
X50800Y227330D03*
X76200Y229870D03*
X25400Y255270D03*
X50800Y252730D03*
X76200Y255270D03*
X25400Y204470D03*
X50800Y201930D03*
X76200Y204470D03*
D14*
X1060450Y374650D03*
X1060450Y349650D03*
X1060450Y324650D03*
X1060450Y299650D03*
X1060450Y274650D03*
X1060450Y249650D03*
D15*
X25400Y280670D03*
X50800Y278130D03*
X76200Y280670D03*
X25400Y306070D03*
X50800Y303530D03*
X76200Y306070D03*
D11*
X431800Y500380D02*
X431800Y515620D01*
X457200Y515620D02*
X457200Y500380D01*
X482600Y500380D02*
X482600Y515620D01*
X508000Y515620D02*
X508000Y500380D01*
X533400Y500380D02*
X533400Y515620D01*
X558800Y515620D02*
X558800Y500380D01*
X584200Y500380D02*
X584200Y515620D01*
X609600Y515620D02*
X609600Y500380D01*
D16*
X920479Y66299D03*
X818879Y66299D03*
D17*
X920973Y86309D03*
X920973Y111709D03*
D18*
X305000Y317500D02*
X293000Y317500D01*
X266000Y304800D02*
X254000Y304800D01*
X293000Y292100D02*
X305000Y292100D01*
X266000Y279400D02*
X254000Y279400D01*
X293000Y266700D02*
X305000Y266700D01*
X266000Y254000D02*
X254000Y254000D01*
X293000Y241300D02*
X305000Y241300D01*
X591450Y317500D02*
X603450Y317500D01*
X564450Y304800D02*
X552450Y304800D01*
X591450Y292100D02*
X603450Y292100D01*
X564450Y279400D02*
X552450Y279400D01*
X591450Y266700D02*
X603450Y266700D01*
X564450Y254000D02*
X552450Y254000D01*
X591450Y241300D02*
X603450Y241300D01*
X908950Y349250D02*
X920950Y349250D01*
X881950Y336550D02*
X869950Y336550D01*
X908950Y323850D02*
X920950Y323850D01*
X881950Y311150D02*
X869950Y311150D01*
X908950Y298450D02*
X920950Y298450D01*
X881950Y285750D02*
X869950Y285750D01*
X908950Y273050D02*
X920950Y273050D01*
D19*
X325120Y406400D03*
X325120Y152400D03*
X629920Y406400D03*
X629920Y152400D03*
X947420Y438150D03*
X947420Y184150D03*
D20*
X539750Y215900D03*
X514350Y215900D03*
X514350Y177800D03*
D21*
X539750Y177800D03*
D20*
X241300Y215900D03*
X215900Y215900D03*
X215900Y177800D03*
D21*
X241300Y177800D03*
D20*
X857250Y247650D03*
X831850Y247650D03*
X831850Y209550D03*
D21*
X857250Y209550D03*
D22*
X177800Y25400D03*
X152400Y25400D03*
X177800Y50800D03*
X152400Y50800D03*
X177800Y76200D03*
X152400Y76200D03*
X177800Y101600D03*
X152400Y101600D03*
X177800Y127000D03*
X152400Y127000D03*
X177800Y152400D03*
X152400Y152400D03*
X177800Y177800D03*
X152400Y177800D03*
X177800Y203200D03*
X152400Y203200D03*
X177800Y228600D03*
X152400Y228600D03*
X177800Y254000D03*
X152400Y254000D03*
X177800Y279400D03*
X152400Y279400D03*
X177800Y304800D03*
X152400Y304800D03*
X177800Y330200D03*
X152400Y330200D03*
X177800Y355600D03*
X152400Y355600D03*
X177800Y381000D03*
X152400Y381000D03*
X177800Y406400D03*
X152400Y406400D03*
X177800Y431800D03*
X152400Y431800D03*
X177800Y457200D03*
X152400Y457200D03*
D15*
X25400Y331470D03*
X50800Y328930D03*
X76200Y331470D03*
X25400Y356870D03*
X50800Y354330D03*
X76200Y356870D03*
X25400Y382270D03*
X50800Y379730D03*
X76200Y382270D03*
D23*
X381000Y500888D02*
X381000Y515112D01*
X355600Y515112D02*
X355600Y500888D01*
X330200Y500888D02*
X330200Y515112D01*
X304800Y515112D02*
X304800Y500888D01*
X279400Y500888D02*
X279400Y515112D01*
X254000Y515112D02*
X254000Y500888D01*
X228600Y500888D02*
X228600Y515112D01*
X203200Y515112D02*
X203200Y500888D01*
X838200Y500888D02*
X838200Y515112D01*
X812800Y515112D02*
X812800Y500888D01*
X787400Y500888D02*
X787400Y515112D01*
X762000Y515112D02*
X762000Y500888D01*
X736600Y500888D02*
X736600Y515112D01*
X711200Y515112D02*
X711200Y500888D01*
X685800Y500888D02*
X685800Y515112D01*
X660400Y515112D02*
X660400Y500888D01*
D24*
X38100Y25400D03*
X63500Y25400D03*
D20*
X101600Y76200D03*
X76200Y76200D03*
X736600Y469900D03*
X762000Y469900D03*
D25*
X742950Y104775D03*
X520700Y104775D03*
X730250Y114300D03*
X508000Y114300D03*
X400050Y139700D03*
X412750Y127000D03*
X895350Y85725D03*
X546399Y85725D03*
X533400Y95250D03*
X882650Y95250D03*
X825500Y374650D03*
X1028700Y323850D03*
X762000Y114300D03*
X825500Y114300D03*
X133350Y469900D03*
X116586Y481757D03*
M02*
